<svg width="342" height="36" viewBox="0 0 342 36" fill="none" xmlns="http://www.w3.org/2000/svg">
<g clip-path="url(#clip0_453_25)">
<path opacity="0.45" fill-rule="evenodd" clip-rule="evenodd" d="M101.801 29.9H121.901V7.90002H101.801V29.9ZM109.001 11.8H113.701C114.701 15.5 114.101 16.1 109.001 15.6V11.8ZM105.301 22.9C105.401 22.5 105.401 22 105.301 21.6C105.301 21.4 105.301 21.1 105.301 20.9H118.001C118.301 23.7 117.101 25.1 114.501 25.1C113.801 25.1 113.101 25.1 112.301 25.1C110.701 25.1 109.001 25.1 107.401 25.1C105.801 25.2 105.001 24.7 105.301 22.9Z" fill="#333333"/>
<path opacity="0.45" fill-rule="evenodd" clip-rule="evenodd" d="M41.8992 28.8C41.8992 29.1 42.7992 29.8 43.2992 29.8C48.8992 29.9 54.3992 29.9 59.9992 29.9H61.3992C61.6992 29.9 61.9992 29.9 62.2992 29.8C62.3992 29.8 62.4992 29.8 62.6992 29.7V7.90002H41.1992L41.7992 11.7C41.7992 17.4 41.7992 23.1 41.8992 28.8ZM48.5992 20.8H54.7992C54.7992 20.5 54.7992 20.2 54.7992 20C54.7992 19.6 54.7992 19.3 54.7992 19C54.6992 16.8 53.5992 15.6 51.2992 15.6H49.2992C49.2992 15.5 49.1992 15.4 49.1992 15.4C49.0992 15.3 49.0992 15.2 49.0992 15.1C49.0992 14.8 49.0992 14.6 49.0992 14.3C49.0992 12.8 49.0992 12.2 49.3992 11.9C49.5992 11.7 49.9992 11.7 50.7992 11.7C51.1992 11.7 51.6992 11.7 52.3992 11.7C52.9992 11.7 53.5992 11.7 54.1992 11.7H54.2992C54.6992 11.7 54.9992 11.7 55.3992 11.7C55.4992 13.1 55.4992 14.4 55.5992 15.7C55.9992 15.8 56.2992 15.8 56.6992 15.8C57.5992 15.9 58.4992 16 59.1992 16.4C59.3992 16.5 59.3992 17.1 59.3992 17.8C59.3992 18.1 59.3992 18.5 59.3992 18.8C59.5992 20.9 58.4992 20.9 57.3992 20.8C56.6992 20.8 55.9992 20.7 55.5992 21.1C55.5992 21.2 55.5992 21.3 55.5992 21.3C55.5992 21.6 55.4992 21.9 55.4992 22.3C55.4992 22.7 55.4992 23 55.4992 23.3C55.4992 24.2 55.4992 24.7 55.2992 25C54.9992 25.3 54.3992 25.3 53.1992 25.3C52.9992 25.3 52.5992 25.3 52.3992 25.3C47.8992 25.4 47.8992 25.3 48.5992 20.8Z" fill="#333333"/>
<path opacity="0.45" fill-rule="evenodd" clip-rule="evenodd" d="M221.9 29.9H242V7.90002H221.9V29.9ZM233.6 28H229V24.8H225.8V21.6H229.8C229.8 22.6 229.9 23.5 229.9 24.7V24.8H233.5V28H233.6ZM237.5 24.7H233.7C233.2 21.1 233.8 20.6 237.5 21.5V24.7ZM225.1 15.1C225.2 15.1 225.3 15.1 225.4 15C225.6 15 225.9 14.9 226.1 14.9C227.9 15 229.5 15 229.1 12.4C229.1 12.2 229.7 11.5 230.1 11.5C230.8 11.4 231.6 11.4 232.3 11.3C232.7 11.3 233 11.3 233.4 11.3C233.4 11.8 233.4 12.2 233.5 12.7C233.5 13.2 233.6 13.7 233.6 14.2C233.9 14.5 234.1 14.7 234.4 15H235.6C236.2 15 236.8 15.1 237.5 15.1V18.2H233.7C233.3 16.4 232 15.5 229.8 15.6C229.3 17.6 227.8 18.4 225.2 18.1L225.1 15.1Z" fill="#333333"/>
<path opacity="0.45" fill-rule="evenodd" clip-rule="evenodd" d="M148.301 26.8C148.301 21.6 148.301 16.5 148.301 11.4C148.301 11.1 147.701 10.5 147.301 10.5C142.301 10.5 137.301 10.5 132.201 10.5C131.101 10.5 129.901 10.5 128.801 10.5V29.9H148.301C148.301 28.8 148.301 27.8 148.301 26.8ZM136.501 14C138.801 13.7 139.901 13.6 140.401 14C140.801 14.4 140.701 15.4 140.501 17.1C140.501 17.2 140.501 17.4 140.401 17.5H136.501V14ZM136.401 21.5H132.801C132.801 21.4 132.701 21.4 132.701 21.4C132.601 21.3 132.601 21.3 132.601 21.2C132.401 18.8 133.701 17.6 136.501 17.7C136.501 17.8 136.501 18 136.501 18.1V18.5C136.501 19.3 136.501 20.2 136.501 21C136.501 21.1 136.501 21.2 136.401 21.4C136.501 21.3 136.401 21.4 136.401 21.5ZM140.401 26H136.501V22.1H140.401V26ZM144.101 21V21.2V21.4H140.501V17.8C144.601 17.2 144.601 17.3 144.101 21Z" fill="#333333"/>
<path opacity="0.45" fill-rule="evenodd" clip-rule="evenodd" d="M11.8008 29.9H31.9008V10.5H11.8008V29.9ZM15.4008 19.6C15.4008 19.4 15.4008 19.1 15.4008 18.9C15.3008 18.1 16.0008 17.5 16.7008 17.5C17.9008 17.5 19.0008 17.5 20.2008 17.5C22.5008 17.5 24.8008 17.5 27.2008 17.6C27.6008 17.6 28.2008 18.3 28.3008 18.7C28.4008 19.4 28.4008 20.1 28.4008 20.8C28.4008 21.1 28.4008 21.5 28.4008 21.9C27.4008 21.9 26.5008 21.9 25.6008 21.9C22.5008 21.9 19.5008 21.9 16.6008 21.9C16.2008 21.9 15.7008 21.2 15.5008 20.7C15.3008 20.4 15.3008 20 15.4008 19.6Z" fill="#333333"/>
<path opacity="0.45" fill-rule="evenodd" clip-rule="evenodd" d="M195 29.9H214.4V9.19995H195V29.9ZM200.9 15.6H210.5C210.5 15.9 210.5 16.2 210.5 16.6C210.5 17.3 210.5 18 210.4 18.6C210.3 19 209.7 19.6 209.4 19.6C206 19.7 202.7 19.7 199.3 19.6C198.9 19.6 198.3 19 198.2 18.6C197.8 15.9 198.1 15.6 200.9 15.6Z" fill="#333333"/>
<g opacity="0.45">
<path fill-rule="evenodd" clip-rule="evenodd" d="M187.4 18C187.4 17.3 187.4 16.7 187.4 16V9.19995H180.3C180.3 9.59995 180.3 9.99995 180.3 10.4V10.5C180.3 11.3 180.3 12.1 180.3 13C180.4 14.1 180 14.6 178.8 14.5C178.1 14.4 177.4 14.5 176.8 14.5C176.5 14.5 176.2 14.5 175.8 14.5V19.1C174.4 19.1 173 19.1 171.6 19.1H171C169.9 19.1 168.8 19.1 167.6 19.1C167.6 20 167.7 20.9 167.8 21.8C167.8 22.6 167.9 23.4 167.9 24.3H162.9C162.9 23.9 162.9 23.6 162.9 23.2C162.9 22.3 162.9 21.3 163 20.4C163.1 20 163.9 19.5 164.4 19.4C165.2 19.2 165.9 19.2 166.7 19.1C166.8 19.1 167 19.1 167.2 19.1H167.1C167.1 18.8 167.1 18.5 167.1 18.2C167.1 17.4 167.2 16.7 167.2 15.9C167.3 15 166.9 14.7 166 14.7C165.3 14.7 164.5 14.7 163.8 14.7C163.5 14.7 163.2 14.7 162.9 14.7C162.9 14.1 162.8 13.6 162.8 13.1C162.7 11.9 162.7 10.8 162.6 9.69995C160.6 9.89995 158.6 10.1 156.6 10.2C156.6 10.3 156.6 10.4 156.5 10.4C156.5 10.5 156.4 10.7 156.4 10.8C156.4 12.6 156.4 14.3 156.4 16.1C156.4 18.5 156.4 20.8 156.4 23.2C156.4 24.1 156.9 24.3 157.7 24.3C158.9 24.3 160 24.3 161.2 24.3C161.7 24.3 162.3 24.3 162.8 24.3V30.1H180.3V24.3C180.9 24.3 181.5 24.3 182 24.3C183.3 24.3 184.5 24.3 185.7 24.3C186.9 24.4 187.4 24 187.3 22.7C187.4 21 187.4 19.5 187.4 18ZM180.4 23.5C180.3 23.8 179.8 24.2 179.4 24.2C178.6 24.2 177.8 24.2 176.9 24.1C176.5 24.1 176.1 24 175.6 24C175.7 22.5 175.8 21.1 175.9 19.8C176.1 19.6 176.2 19.5 176.4 19.4C176.7 19.4 177 19.4 177.3 19.4C180.4 19.3 181.3 20.6 180.4 23.5Z" fill="#333333"/>
<path fill-rule="evenodd" clip-rule="evenodd" d="M167.6 18.8C167.4 18.8 167.3 18.8 167.1 18.8C167.3 18.9 167.4 18.9 167.6 18.8Z" fill="#333333"/>
<path fill-rule="evenodd" clip-rule="evenodd" d="M179.4 4.59995C179.4 4.19995 179.5 3.69995 179.5 3.29995C179.5 3.09995 179.5 2.89995 179.5 2.69995H162.8V8.49995H179.1C179.2 7.09995 179.3 5.89995 179.4 4.59995Z" fill="#333333"/>
</g>
<g opacity="0.45">
<path fill-rule="evenodd" clip-rule="evenodd" d="M85.2004 13.4C85.3004 13.8 85.4004 14.1 85.5004 14.6V7.80005H78.4004C78.3004 9.00005 78.2004 10.2 78.1004 11.4C78.0004 12.3 77.9004 13.3 77.9004 14.3C78.2004 14 78.4004 13.7 78.7004 13.4C79.1004 12.9 79.5004 12.4 79.9004 12.4C81.1004 12.2 82.4004 12.3 83.6004 12.3C84.1004 12.3 84.5004 12.3 85.0004 12.3C85.0004 12.8 85.1004 13.1 85.2004 13.4Z" fill="#333333"/>
<path fill-rule="evenodd" clip-rule="evenodd" d="M83.6006 19.2001C83.8006 19.2001 84.0006 19.2001 84.2006 19.1001V15.6001H80.0006C79.3006 19.7001 79.5006 19.7001 83.6006 19.2001Z" fill="#333333"/>
<path fill-rule="evenodd" clip-rule="evenodd" d="M72.4004 29.9001C76.6004 29.9001 80.9004 29.9001 85.2004 29.8001C87.3004 29.8001 89.4004 29.8001 91.6004 29.8001C92.0004 29.8001 92.4004 29.8001 92.8004 29.7001C93.0004 29.7001 93.1004 29.7001 93.3004 29.7001V14.9001H86.8004V19.8001L89.4004 19.9001V24.7001C87.0004 25.0001 85.7004 24.3001 85.4004 22.6001H78.6004C78.6004 22.6001 78.5004 23.3001 78.5004 23.6001C78.5004 24.5001 78.5004 25.3001 77.0004 25.2001C76.9004 25.2001 76.8004 25.2001 76.7004 25.2001C75.3004 25.2001 74.6004 24.4001 74.5004 22.8001V20.3001H74.8004C75.6004 20.1001 76.3004 19.9001 77.1004 19.7001V14.2001H70.6004C70.6004 15.4001 70.6004 16.7001 70.6004 17.9001V18.5001C70.6004 21.6001 70.6004 24.7001 70.6004 27.8001C70.5004 29.4001 70.9004 29.9001 72.4004 29.9001Z" fill="#333333"/>
</g>
<path opacity="0.45" fill-rule="evenodd" clip-rule="evenodd" d="M277 29.9H297.1V9.19995H277V29.9ZM279.8 24.2C279.9 22.6 279.8 21 279.8 19.4C279.8 18.7 279.8 18 279.8 17.4C279.8 15.8 280.7 15 282.4 15H284.7V18.2H289.2V15H285.3V11.1H289.8V14.6C289.9 14.7 290 14.8 290.1 14.8C290.2 14.9 290.2 14.9 290.3 14.9C292.6 15.1 293.7 16.4 293.7 18.6C293.7 19.2 293.7 19.7 293.7 20.3C293.7 21.6 293.7 23 293.8 24.3C293.9 26 292.9 26 291.8 26.1H291.7H291.6C291.6 26.1 291.6 26.1 291.5 26.1C290.3 26.1 289.3 26 289.5 24.4C289.5 24.1 289.5 23.8 289.5 23.4C289.5 23.2 289.5 22.9 289.5 22.7C289.1 22.7 288.6 22.7 288.2 22.7C287.1 22.7 286 22.7 284.9 22.8C284.6 22.8 284.1 23.8 284.2 24.3C284.3 25.9 283.6 26.2 282.1 26.1C280.7 26 279.8 25.8 279.8 24.2Z" fill="#333333"/>
<path opacity="0.45" fill-rule="evenodd" clip-rule="evenodd" d="M250.899 29.9C254.799 29.9 258.799 29.9 262.699 29.9C264.899 29.9 266.999 29.9 269.099 29.9C269.299 29.9 269.599 29.9 269.799 29.8C269.899 29.8 269.999 29.8001 270.099 29.7001V7.80005C268.999 7.80005 267.899 7.80005 266.699 7.80005C261.199 7.80005 255.699 7.80005 250.299 7.80005C249.999 7.80005 249.399 8.40005 249.399 8.70005C249.399 12.3 249.299 15.8 249.299 19.4C249.299 22.4 249.299 25.3 249.199 28.3C249.399 29.6 249.799 29.9 250.899 29.9ZM253.999 16.3C253.999 16.3 254.999 16.2 255.399 16.2C256.399 16.1 257.299 16.1 257.699 15.6C258.099 15.1 258.099 14.2 258.099 13.1C258.099 12.6 258.099 12.1 258.099 11.6C258.499 11.6 258.799 11.6 259.199 11.6C260.199 11.6 261.199 11.6 262.099 11.7C262.399 11.7 262.899 12.4 262.999 12.8C263.099 13.5 263.099 14.2 263.099 14.9C263.099 15.2 263.099 15.5 263.099 15.9C263.299 15.9 263.499 15.9 263.599 16C263.899 16 264.199 16.1 264.499 16.1C266.099 16.1 266.899 17 266.999 18.7V22.6C266.899 25 266.799 25.1 264.399 25C264.099 25 263.899 24.9001 263.499 25.2001V24.6H263.699C263.499 24.6 263.299 24.5 263.099 24.5V20H258.099C258.099 20.2 258.099 20.5 258.099 20.8C258.099 21.3 257.999 21.9 258.099 22.5C258.199 24 257.599 24.8 255.899 24.5C255.499 24.4 255.199 24.4 254.799 24.4C254.599 24.4 254.399 24.4 254.199 24.4L253.999 16.3Z" fill="#333333"/>
<path opacity="0.45" fill-rule="evenodd" clip-rule="evenodd" d="M312.001 29.9H327.701C327.701 29.9 327.801 28.8 327.601 28.2H328.201V28C328.301 26.7 328.301 25.5 328.401 24.1H334.701V9.19995H331.801C327.501 9.19995 327.501 9.19995 327.401 13.4C327.401 14.6 327.101 15.2 325.801 15C325.001 14.9 324.301 15 323.401 15H324.101C323.701 15 323.401 15 323.001 15V24.1H316.501V14.4H323.001V9.19995H327.501V2.69995H311.301V8.99995C309.401 9.09995 307.701 9.29995 306.001 9.39995L304.801 9.49995V23.9C307.101 24.1 309.401 24.2 311.901 24.4V29.9H312.001Z" fill="#333333"/>
</g>
<defs>
<clipPath id="clip0_453_25">
<rect width="342" height="36" fill="white"/>
</clipPath>
</defs>
</svg>
