<svg width="1280" height="720" viewBox="0 0 1280 720" fill="none" xmlns="http://www.w3.org/2000/svg">
<rect width="1280" height="720" fill="white"/>
<path d="M673.106 445V434.609H662.718V402.882H673.106V392.49H704.822V402.882H715.209V413.827H704.268V403.436H673.66V434.055H704.268V423.664H715.209V434.609H704.822V445H673.106Z" fill="#151C3F"/>
<path d="M727.098 445V392.49H738.039V434.055H779.589V445H727.098Z" fill="#151C3F"/>
<path d="M796.388 445V434.609H786V392.49H796.942V434.055H827.55V392.49H838.491V434.609H828.104V445H796.388Z" fill="#151C3F"/>
<path d="M861.998 413.273H892.606V403.436H861.998V413.273ZM861.998 434.055H892.606V424.218H861.998V434.055ZM851.057 445V392.49H893.16V402.882H903.547V434.609H893.16V445H851.057Z" fill="#151C3F"/>
<path d="M535 353.764V337.346H597.324V322.591H550.581V307.005H535V290.587H550.581V275H613.736V291.418H551.412V306.173H598.155V321.76H613.736V338.178H598.155V353.764H535Z" fill="#151C3F"/>
<path d="M645.224 353.764V338.178H629.643V275H646.055V337.346H691.967V275H708.379V338.178H692.798V353.764H645.224Z" fill="#151C3F"/>
<path d="M727.227 353.764V290.587H742.808V275H790.382V290.587H805.963V353.764H789.551V291.418H743.639V353.764H727.227Z" fill="#151C3F"/>
<path d="M841.223 337.346H887.135V291.418H841.223V337.346ZM824.811 353.764V275H887.966V290.587H903.547V338.178H887.966V353.764H824.811Z" fill="#151C3F"/>
<path d="M937.793 306.173H983.705V291.418H937.793V306.173ZM921.381 353.764V290.587H936.962V275H984.536V290.587H1000.12V353.764H983.705V322.591H937.793V353.764H921.381Z" fill="#F7B44F"/>
<path d="M1018.97 353.764V275H1035.38V353.764H1018.97Z" fill="#F7B44F"/>
<path fill-rule="evenodd" clip-rule="evenodd" d="M358.706 245V252.482C358.583 251.946 358.491 251.538 358.405 251.16L358.405 251.158C358.316 250.767 358.235 250.41 358.136 249.978C357.629 249.978 357.111 249.965 356.587 249.952C355.241 249.918 353.854 249.884 352.495 250.063C352.044 250.12 351.647 250.597 351.166 251.175C350.916 251.476 350.642 251.805 350.326 252.115C350.418 251.012 350.506 249.958 350.592 248.931C350.705 247.589 350.813 246.295 350.919 245H358.706ZM246.3 357.254L245 357.348V373.342C247.419 373.522 249.837 373.701 252.451 373.896V379.919H270.052C270.088 379.22 270.124 378.535 270.159 377.849L270.16 377.837L270.16 377.836L270.16 377.836L270.16 377.835L270.16 377.835L270.16 377.835L270.16 377.834L270.16 377.834L270.16 377.834L270.16 377.833L270.16 377.833L270.16 377.833L270.16 377.832L270.16 377.832L270.16 377.832L270.16 377.831L270.16 377.831L270.16 377.831L270.16 377.831C270.231 376.455 270.302 375.079 270.38 373.6H277.971V357.044H274.983H274.983C270.52 357.067 270.497 357.067 270.419 361.421C270.395 362.63 270.083 363.254 268.741 363.137C267.957 363.068 267.165 363.082 266.289 363.099H266.288H266.288H266.287H266.287H266.286H266.286H266.285H266.285H266.284H266.284H266.283H266.283H266.282H266.282H266.281H266.281C265.878 363.106 265.458 363.114 265.012 363.114V373.287H257.834V362.747H264.934V356.81H270.146V349.889H252.349V356.818C250.239 356.969 248.291 357.11 246.371 357.249L246.336 357.251L246.31 357.253L246.3 357.254ZM318.986 460.856V475.157V475.165H373.506C374.159 475.138 374.814 475.105 375.468 475.072L375.469 475.072C376.877 475.002 378.287 474.931 379.693 474.915C382.182 474.889 384.672 474.895 387.179 474.902H387.18H387.18H387.18H387.181H387.181H387.182H387.182H387.183H387.183H387.183H387.184H387.184H387.185H387.185H387.185H387.186H387.186H387.187H387.193H387.199H387.206H387.212H387.219H387.225H387.232H387.238C388.342 474.905 389.449 474.908 390.561 474.908V460.849H382.103V467.706H327.443V460.856H318.986ZM318.877 323.712V323.706L318.861 323.698L318.877 323.712ZM318.877 323.773V323.712L318.931 323.761L318.877 323.773ZM390.694 323.843C391.246 323.877 391.798 323.913 392.351 323.948L392.352 323.948C393.695 324.035 395.038 324.122 396.381 324.182C397.206 324.219 398.034 324.209 398.902 324.199C399.315 324.195 399.738 324.19 400.173 324.19V336.962C400.173 337.179 400.13 337.398 400.088 337.617L400.088 337.617L400.088 337.617C400.055 337.784 400.023 337.951 400.009 338.116C399.822 340.457 399.931 340.574 402.209 340.574H409.13C409.149 340.749 409.175 340.917 409.199 341.079C409.244 341.372 409.286 341.648 409.286 341.924C409.283 345.261 409.276 348.598 409.269 351.935C409.255 358.608 409.242 365.281 409.262 371.953C409.262 373.327 408.864 373.771 407.499 373.717C405.885 373.652 404.268 373.666 402.581 373.68H402.581H402.581H402.581H402.58H402.58H402.58H402.579H402.579H402.579H402.579H402.578H402.578H402.578H402.577H402.577H402.577H402.575H402.573H402.57H402.568H402.566C401.827 373.687 401.076 373.693 400.306 373.693V390.896C399.49 390.896 398.693 390.906 397.909 390.915C396.083 390.936 394.329 390.956 392.582 390.857C391.006 390.772 390.592 391.294 390.608 392.839C390.66 398.39 390.652 403.945 390.644 409.501V409.502V409.502V409.503V409.503V409.503V409.504V409.504V409.505V409.505V409.506V409.506V409.506V409.507V409.507V409.508V409.508C390.642 411.494 390.639 413.479 390.639 415.465V417.798C389.603 417.798 388.581 417.806 387.569 417.814L387.564 417.814H387.564H387.564H387.564H387.563H387.563H387.563H387.563H387.563H387.563H387.563H387.562H387.562H387.562H387.562H387.562H387.562C385.145 417.833 382.784 417.852 380.426 417.759C378.593 417.688 378.023 418.32 378.148 420.107C378.25 421.565 378.227 423.03 378.202 424.573V424.573L378.202 424.576V424.577V424.577V424.577V424.577V424.577V424.577V424.577V424.577V424.578V424.578V424.578V424.578V424.578C378.191 425.28 378.179 425.998 378.179 426.739C377.269 426.739 376.371 426.745 375.482 426.751H375.481C373.336 426.765 371.24 426.779 369.145 426.707C367.686 426.661 367.179 427.152 367.249 428.596C367.35 430.476 367.327 432.364 367.264 434.252C367.225 435.664 367.756 436.202 369.215 436.156C371.362 436.089 373.512 436.101 375.74 436.114H375.74H375.741H375.741H375.742H375.743H375.743H375.744H375.745H375.745H375.746H375.747H375.747H375.748H375.749H375.749H375.75C376.66 436.119 377.582 436.124 378.523 436.124C378.523 437.024 378.522 437.912 378.521 438.793C378.519 440.532 378.517 442.241 378.523 443.95C378.529 445.132 377.787 445.109 377.066 445.087C376.955 445.083 376.844 445.08 376.736 445.081C373.326 445.086 369.916 445.085 366.507 445.083H366.484C364.776 445.082 363.067 445.081 361.358 445.081H358.885C358.885 445.631 358.881 446.167 358.876 446.694V446.695C358.867 447.897 358.857 449.052 358.901 450.207C358.948 451.408 358.628 452.001 357.286 451.947C355.801 451.887 354.312 451.899 352.742 451.912C352.061 451.918 351.364 451.923 350.646 451.923V445.175H331.641V436.124C332.466 436.124 333.293 436.118 334.121 436.112C336.054 436.097 337.992 436.082 339.926 436.148C341.518 436.202 342.127 435.687 342.033 434.033C341.941 432.427 341.961 430.814 341.983 429.116V429.116V429.116V429.115V429.115V429.115V429.115V429.115V429.115V429.115V429.114V429.114V429.114V429.114V429.114V429.114V429.114V429.113V429.112V429.112V429.111V429.11V429.11V429.109V429.108V429.107V429.106V429.106V429.105V429.104V429.103V429.103V429.102C341.992 428.346 342.002 427.574 342.002 426.778H331.594V417.876C332.501 417.876 333.402 417.878 334.299 417.881C336.527 417.887 338.73 417.893 340.933 417.86C342.064 417.844 342.384 418.336 342.353 419.397C342.327 420.324 342.334 421.25 342.342 422.176C342.35 423.2 342.358 424.224 342.322 425.248C342.275 426.45 342.735 426.856 343.905 426.824C345.382 426.781 346.855 426.79 348.408 426.8L348.412 426.8C349.097 426.805 349.798 426.809 350.521 426.809C350.521 427.561 350.526 428.299 350.531 429.026V429.026V429.027V429.027V429.027V429.028V429.028V429.028V429.029V429.029V429.029V429.03V429.03V429.03V429.031V429.031V429.031C350.542 430.763 350.553 432.437 350.498 434.111C350.459 435.383 350.904 435.844 352.183 435.797C353.674 435.742 355.166 435.753 356.73 435.764C357.392 435.768 358.067 435.773 358.76 435.773V426.809C359.481 426.809 360.183 426.803 360.871 426.798H360.872C362.463 426.785 363.982 426.772 365.501 426.832C366.851 426.879 367.358 426.403 367.311 425.038C367.256 423.452 367.267 421.859 367.278 420.201V420.201V420.201V420.201V420.2V420.2V420.2V420.2V420.2V420.199V420.199V420.199V420.199V420.199V420.199V420.198V420.198C367.283 419.499 367.288 418.789 367.288 418.063H377.852C377.852 417.698 377.86 417.353 377.868 417.02C377.884 416.328 377.899 415.694 377.836 415.067C377.688 413.577 378.351 413.007 379.748 413.194C381.589 413.452 382.166 412.734 382.135 410.846C382.05 406.192 382.064 401.533 382.078 396.77V396.77V396.769V396.769V396.769V396.769V396.769V396.769V396.768V396.768V396.768V396.768V396.768V396.767V396.767V396.767V396.767V396.765V396.763V396.762V396.76V396.759V396.757V396.755V396.754V396.752V396.75V396.749V396.747V396.745V396.743V396.741V396.74C382.083 394.941 382.088 393.128 382.088 391.294C382.772 391.294 383.445 391.287 384.111 391.28H384.112H384.112H384.113H384.113H384.114H384.114H384.115H384.115H384.115H384.116H384.116H384.117H384.117H384.118H384.118H384.119C385.623 391.263 387.09 391.247 388.548 391.318C390.101 391.396 390.725 390.959 390.694 389.266C390.621 385.659 390.633 382.052 390.645 378.343C390.65 376.909 390.655 375.46 390.655 373.99H318.947V390.795H309.772V373.763H300.807V340.582C301.499 340.582 302.193 340.576 302.889 340.571C304.55 340.558 306.221 340.545 307.892 340.605C309.241 340.652 309.709 340.207 309.686 338.826C309.634 335.305 309.642 331.783 309.649 328.169V328.169V328.168V328.168V328.167V328.167V328.166V328.166V328.166V328.165V328.165V328.164V328.164V328.163V328.163V328.162V328.162L309.649 328.154C309.652 326.849 309.655 325.532 309.655 324.198C310.333 324.198 311.001 324.2 311.662 324.202L311.666 324.202H311.667C313.458 324.208 315.194 324.214 316.926 324.174C317.397 324.163 317.868 324.037 318.337 323.911C318.517 323.863 318.697 323.815 318.877 323.773V340.043H310.068V348.516H399.838C399.838 347.906 399.84 347.308 399.843 346.719V346.716V346.712V346.709V346.706V346.702V346.699V346.696V346.693V346.69V346.687V346.684V346.681V346.678V346.675V346.673C399.851 344.705 399.859 342.842 399.775 340.98C399.76 340.683 398.855 340.215 398.347 340.199C396.517 340.141 394.686 340.148 392.739 340.155H392.737H392.735H392.732H392.73H392.728H392.726C392.063 340.158 391.388 340.16 390.694 340.16V323.843ZM390.623 323.776H390.686H390.686L390.694 323.769V323.843L390.631 323.839L390.623 323.847V323.776ZM390.623 323.776H382.127C382.127 322.718 382.129 321.679 382.13 320.653V320.65V320.647V320.644V320.641V320.638C382.134 318.628 382.137 316.667 382.127 314.703C382.111 312.268 381.854 311.925 379.49 311.964C378.179 311.98 377.734 311.519 377.867 310.263C377.904 309.929 377.869 309.583 377.83 309.204C377.812 309.027 377.794 308.842 377.781 308.648C377.427 308.628 377.084 308.61 376.733 308.59C376.117 308.557 375.475 308.521 374.699 308.477C374.699 308.148 374.695 307.821 374.691 307.495V307.494C374.681 306.736 374.671 305.984 374.715 305.231C374.785 303.936 374.309 303.125 372.983 302.898C372.865 302.879 372.751 302.838 372.636 302.796C372.567 302.772 372.499 302.747 372.429 302.727L372.397 302.718C367.467 301.338 367.428 301.327 367.327 296.243C367.303 294.987 366.929 294.503 365.641 294.558C364.195 294.618 362.746 294.606 361.244 294.593H361.244H361.243H361.243H361.242H361.242C360.597 294.587 359.943 294.581 359.275 294.581V286.108H367.436V294.964C368.343 294.964 369.236 294.972 370.117 294.98H370.118H370.118H370.119H370.12H370.12C372.216 294.999 374.249 295.018 376.275 294.925C378.046 294.847 378.655 295.346 378.585 297.203C378.48 299.909 378.5 302.619 378.521 305.405C378.529 306.555 378.538 307.717 378.538 308.898H390.623V323.776ZM309.92 358.906L309.92 358.903C309.924 358.286 309.928 357.664 309.928 357.036L399.83 357.044V364.167C399.838 365.095 399.518 365.517 398.449 365.517C382.043 365.512 365.64 365.522 349.237 365.533H349.235H349.234H349.232H349.231H349.229H349.228H349.226H349.224H349.223H349.221H349.22H349.218H349.217H349.215H349.214H349.212C339.366 365.539 329.52 365.545 319.672 365.548C316.887 365.548 314.094 365.517 311.317 365.369C310.841 365.345 310.014 364.698 309.99 364.307C309.897 362.528 309.908 360.739 309.92 358.906ZM438.754 356.81V356.794L438.754 356.802H438.793V356.833V356.841L438.754 356.802L438.754 356.81L438.754 356.81ZM438.757 356.852L438.754 356.81L438.8 356.849L438.757 356.852ZM438.757 356.852C438.826 358.124 438.899 359.393 438.978 360.769C439.014 361.39 439.051 362.033 439.089 362.708C439.443 362.708 439.8 362.713 440.158 362.718H440.158H440.159H440.16H440.16H440.161H440.162H440.163H440.163H440.164H440.165H440.165H440.166H440.166H440.167H440.167H440.167H440.167H440.167H440.168H440.168H440.168H440.168H440.168H440.169H440.169H440.169H440.169H440.169C440.997 362.73 441.832 362.741 442.662 362.692C443.684 362.63 444.09 363.02 444.02 364.026C443.958 364.898 443.917 365.774 443.875 366.65L443.875 366.658L443.875 366.664L443.874 366.671L443.874 366.678L443.859 367L443.845 367.278C443.839 367.406 443.833 367.534 443.826 367.663C445.361 367.678 446.897 367.692 448.434 367.705C449.967 367.719 451.5 367.732 453.031 367.747V362.763C453.391 362.763 453.746 362.755 454.097 362.747C454.854 362.73 455.593 362.714 456.324 362.778C457.634 362.895 458.056 362.341 457.985 361.093C457.932 360.215 457.944 359.337 457.958 358.419V358.418V358.418V358.418C457.964 357.998 457.97 357.57 457.97 357.13H465.764V364.69C465.764 365.418 465.757 366.146 465.75 366.874C465.733 368.549 465.717 370.224 465.787 371.899C465.842 373.295 465.327 373.716 463.993 373.654C462.647 373.594 461.297 373.606 459.888 373.619C459.279 373.625 458.66 373.631 458.024 373.631V379.903H439.066V373.67C438.431 373.67 437.814 373.666 437.211 373.663C435.804 373.655 434.466 373.647 433.128 373.685C432.192 373.709 431.638 373.506 431.646 372.437C431.659 369.726 431.663 367.018 431.666 364.31C431.668 362.279 431.67 360.247 431.677 358.214C431.677 358.055 431.734 357.893 431.794 357.725C431.824 357.638 431.856 357.548 431.88 357.457C434.198 357.256 436.477 357.054 438.757 356.852ZM438.793 356.802V350.1H457.954C457.903 350.85 457.851 351.593 457.799 352.345L457.798 352.367C457.7 353.775 457.6 355.216 457.494 356.802H438.793ZM442.812 367.773C443.139 367.75 443.464 367.727 443.788 367.697C443.845 368.626 443.9 369.556 443.956 370.506L443.957 370.523L443.957 370.528C444.008 371.379 444.059 372.247 444.113 373.147H438.91C438.91 372.773 438.9 372.396 438.89 372.02C438.865 371.055 438.839 370.09 438.98 369.152C439.042 368.715 439.869 368.185 440.423 368.06C441.202 367.884 442.009 367.828 442.812 367.773ZM452.703 372.967C452.834 371.191 452.957 369.505 453.08 367.821C453.251 367.829 453.422 367.84 453.593 367.852C453.921 367.874 454.248 367.896 454.576 367.896C457.9 367.896 458.937 369.238 457.97 372.437C457.868 372.78 457.26 373.202 456.877 373.202C455.996 373.218 455.114 373.149 454.122 373.071L454.12 373.071C453.673 373.036 453.204 372.999 452.703 372.967ZM316.091 269.264H293.333C293.333 270.631 293.332 271.992 293.331 273.348V273.353V273.358V273.364V273.369V273.374V273.38V273.385V273.39V273.395V273.4V273.406V273.411V273.416V273.421V273.423V273.423V273.423V273.423V273.424V273.424V273.424V273.425V273.425V273.425V273.425V273.426V273.426V273.426C293.328 279.833 293.325 286.123 293.395 292.413C293.403 292.787 294.363 293.466 294.885 293.474C300.978 293.582 307.077 293.61 313.177 293.638H313.177L314.702 293.645C315.041 293.645 315.376 293.579 315.687 293.517C315.827 293.489 315.963 293.462 316.091 293.442V269.264ZM301.244 283.261H307.587H307.595C307.595 282.949 307.597 282.676 307.599 282.427V282.427V282.427V282.427V282.427V282.427V282.427V282.427V282.427V282.426V282.426V282.426V282.426V282.426V282.426C307.602 281.989 307.605 281.626 307.595 281.264C307.527 278.725 306.211 277.451 303.647 277.441H301.361C301.318 277.337 301.273 277.249 301.234 277.171L301.234 277.171C301.16 277.025 301.104 276.913 301.104 276.801C301.099 276.492 301.093 276.209 301.088 275.948C301.056 274.249 301.042 273.522 301.393 273.221C301.656 272.995 302.123 273.008 302.939 273.029C303.405 273.041 303.986 273.057 304.708 273.032C305.381 273.012 306.054 273.018 306.784 273.025H306.784H306.784H306.784H306.785H306.785H306.785H306.785H306.785H306.786H306.786H306.786H306.787H306.787C307.173 273.029 307.574 273.032 308 273.032C308.071 274.585 308.141 276.036 308.211 277.448C308.613 277.515 309.012 277.563 309.404 277.611L309.404 277.611L309.404 277.611L309.404 277.611L309.404 277.611L309.404 277.611L309.404 277.611L309.404 277.611L309.405 277.611L309.405 277.611L309.405 277.611L309.405 277.611L309.405 277.611L309.405 277.611L309.405 277.611C310.399 277.733 311.347 277.848 312.174 278.229C312.426 278.341 312.404 279.033 312.382 279.748C312.37 280.122 312.358 280.503 312.385 280.811C312.582 283.168 311.393 283.077 310.15 282.982C309.419 282.926 308.669 282.868 308.172 283.308C308.166 283.39 308.159 283.481 308.151 283.581C308.125 283.887 308.094 284.264 308.094 284.642C308.09 285.062 308.094 285.429 308.098 285.749C308.109 286.772 308.114 287.314 307.847 287.6C307.546 287.923 306.898 287.921 305.521 287.919H305.521H305.519C305.326 287.919 305.118 287.918 304.895 287.919C300.557 287.934 300.526 287.887 301.244 283.261ZM393.877 269.295H415.839V293.45H393.877V269.295ZM411.915 283.292H397.996C397.996 283.573 398.005 283.839 398.014 284.094C398.032 284.617 398.049 285.093 397.981 285.554C397.692 287.458 398.472 288.059 400.337 287.957C402.133 287.86 403.933 287.883 405.734 287.906H405.734H405.735H405.735H405.735H405.735H405.735H405.735H405.736H405.736H405.736H405.736H405.736H405.737H405.737C406.524 287.916 407.312 287.926 408.1 287.926C410.961 287.926 412.232 286.384 411.915 283.3V283.292ZM401.975 277.308C407.522 277.823 408.193 277.245 407.078 273.157H401.975V277.308ZM445.487 426.614V403.934H424.257V426.614H445.487ZM430.959 411.041H441.43C441.43 411.402 441.44 411.748 441.45 412.082V412.082C441.474 412.865 441.495 413.582 441.375 414.271C441.305 414.7 440.649 415.332 440.244 415.34C436.569 415.434 432.886 415.457 429.204 415.387C428.798 415.379 428.112 414.739 428.049 414.326C427.62 411.314 427.893 411.041 430.959 411.041ZM393.893 430.062H415.769V453.967H393.893V430.062ZM411.213 448.217H407.018C406.474 444.281 407.185 443.688 411.213 444.753V448.217ZM406.984 448.256H402.81L402.805 448.139L402.804 448.128C402.745 446.841 402.699 445.856 402.646 444.769H398.043V448.35H402.303V451.845H406.984V448.256ZM411.236 438.145C410.52 438.111 409.857 438.08 409.214 438.049L408.756 438.027C408.435 438.011 408.118 437.996 407.799 437.981L407.133 437.95C407.084 437.145 407.042 436.406 406.998 435.641C406.971 435.169 406.944 434.687 406.914 434.174C406.521 434.195 406.138 434.207 405.765 434.219H405.764H405.764H405.764H405.763H405.763H405.763H405.763C404.922 434.245 404.126 434.27 403.349 434.4C402.927 434.47 402.217 435.11 402.264 435.367C402.795 438.215 401.047 438.223 399.089 438.059C398.842 438.038 398.592 438.086 398.333 438.136C398.215 438.159 398.095 438.182 397.973 438.2V441.469C400.792 441.744 402.459 440.842 402.974 438.761C405.361 438.631 406.766 439.539 407.187 441.484H411.236V438.145ZM316.201 453.897V429.961C315.007 429.961 313.818 429.96 312.633 429.96L312.523 429.96H312.52H312.517H312.515H312.512H312.509H312.507H312.504H312.501H312.499H312.496C306.414 429.958 300.439 429.956 294.465 430.008C294.129 430.008 293.505 430.663 293.505 431.022C293.454 434.92 293.431 438.816 293.408 442.712C293.388 445.959 293.369 449.205 293.333 452.454C293.318 453.741 293.77 454.108 295.026 454.1C299.348 454.065 303.673 454.065 307.998 454.066C310.356 454.066 312.713 454.066 315.07 454.061C315.324 454.061 315.578 454.012 315.842 453.962C315.959 453.939 316.079 453.916 316.201 453.897ZM298.389 439.445V448.623C298.626 448.633 298.846 448.637 299.055 448.64H299.055H299.056H299.056H299.056H299.057H299.057H299.057H299.057C299.495 448.647 299.882 448.653 300.261 448.717C302.095 449.013 302.711 448.163 302.602 446.431C302.565 445.796 302.611 445.154 302.657 444.524C302.678 444.233 302.699 443.945 302.711 443.661H308.056V448.709C308.291 448.751 308.497 448.794 308.684 448.832C309.048 448.907 309.338 448.966 309.632 448.982C312.23 449.099 312.362 448.959 312.37 446.321V442.03C312.37 440.189 311.483 439.242 309.71 439.19C309.378 439.18 309.049 439.142 308.68 439.099L308.679 439.099C308.494 439.078 308.298 439.055 308.087 439.034C308.087 438.675 308.096 438.326 308.104 437.983C308.125 437.166 308.145 436.392 308.04 435.633C307.978 435.157 307.447 434.408 307.073 434.369C306.023 434.26 304.957 434.277 303.883 434.294C303.488 434.3 303.092 434.306 302.696 434.306C302.666 434.865 302.688 435.425 302.709 435.956C302.753 437.079 302.793 438.072 302.321 438.644C301.888 439.174 300.894 439.238 299.831 439.306C299.349 439.337 298.853 439.369 298.389 439.445ZM341.997 290.561V290.559C342.011 286.856 342.025 283.288 341.947 279.719C341.916 278.119 342.431 277.737 343.937 277.768C347.419 277.83 350.906 277.819 354.431 277.808H354.432H354.432H354.433H354.433H354.434H354.434H354.435H354.436H354.436C355.814 277.804 357.197 277.799 358.589 277.799V285.687C358.025 285.687 357.458 285.696 356.888 285.706L356.888 285.706C355.566 285.727 354.231 285.749 352.901 285.656C351.099 285.531 350.404 286.038 350.475 287.997C350.579 291.065 350.559 294.134 350.539 297.337V297.338V297.339V297.34V297.341V297.342V297.343V297.344V297.345V297.346C350.53 298.676 350.521 300.03 350.521 301.416C349.388 301.546 348.266 301.674 347.143 301.801L347.14 301.802L347.138 301.802C345.571 301.98 344.003 302.158 342.4 302.344V308.422H331.586V295.073H341.986V295.065C341.986 293.543 341.992 292.05 341.997 290.578V290.576V290.574V290.572V290.569V290.567V290.565V290.563V290.561ZM284.72 323.308V302.282H263.069V323.308H284.72ZM280.99 314.071C280.979 314.44 280.967 314.826 280.967 315.233C279.915 315.233 278.883 315.235 277.866 315.237H277.866H277.865H277.865H277.865H277.865H277.864H277.864H277.864C274.467 315.244 271.239 315.251 268.016 315.178C267.594 315.171 267.025 314.422 266.838 313.899C266.71 313.534 266.737 313.12 266.765 312.701C266.781 312.456 266.797 312.21 266.783 311.972C266.713 310.903 267.173 310.435 268.25 310.443C269.521 310.453 270.793 310.456 272.065 310.458C274.608 310.464 277.152 310.469 279.695 310.536C280.132 310.544 280.827 311.254 280.912 311.73C281.037 312.464 281.015 313.224 280.99 314.071ZM445.495 323.355H424.265V302.212C425.5 302.212 426.731 302.211 427.958 302.211H427.959H427.96H427.96H427.961H427.962H427.962H427.963C433.47 302.208 438.918 302.206 444.371 302.251C444.746 302.251 445.44 302.859 445.448 303.187C445.5 308.739 445.498 314.291 445.495 319.933V319.934V319.935V319.937V319.938V319.939V319.941V319.942L445.495 320.045C445.495 321.145 445.495 322.248 445.495 323.355ZM428.377 314.429C428.206 311.813 429.637 310.52 432.669 310.551L432.675 310.988L432.681 311.429C432.694 312.348 432.707 313.266 432.707 314.188C432.707 314.307 432.669 314.427 432.62 314.58L432.62 314.58L432.62 314.581C432.596 314.657 432.569 314.74 432.543 314.835H428.619C428.577 314.77 428.536 314.715 428.5 314.666C428.429 314.571 428.377 314.502 428.377 314.429ZM432.723 310.505H436.983C437.002 310.353 437.02 310.206 437.038 310.064C437.285 308.125 437.414 307.108 436.967 306.637C436.474 306.118 435.28 306.266 432.767 306.575L432.723 306.581V310.505ZM436.959 319.485V315.288H432.762V319.485H436.959ZM441.332 314.346L441.333 314.342C441.875 310.308 441.889 310.204 437.357 310.864V314.843H441.266C441.289 314.671 441.311 314.506 441.332 314.346ZM262.976 403.934V426.622H284.611V403.934H262.976ZM269.412 410.378H271.269L271.262 410.394V414.209H276.372V410.479H271.589V405.868H276.902V409.925C277.02 410.014 277.104 410.091 277.169 410.15C277.265 410.236 277.321 410.288 277.386 410.292C279.68 410.531 280.827 411.829 280.827 414.185C280.827 414.789 280.816 415.394 280.806 415.998C280.781 417.409 280.757 418.82 280.866 420.224C281.009 422.048 279.989 422.068 278.828 422.09C278.728 422.091 278.627 422.093 278.525 422.097C277.277 422.128 276.278 421.987 276.504 420.333C276.55 420.009 276.54 419.672 276.527 419.251L276.527 419.251C276.52 419.024 276.512 418.772 276.512 418.484C276.078 418.484 275.651 418.477 275.23 418.47H275.229C274.081 418.45 272.973 418.431 271.878 418.562C271.566 418.601 271.121 419.654 271.16 420.208C271.285 421.862 270.513 422.175 269.069 422.143C267.626 422.104 266.697 421.862 266.768 420.107C266.833 418.425 266.818 416.738 266.804 415.054V415.053V415.053V415.053V415.053V415.053V415.052C266.797 414.331 266.791 413.61 266.791 412.89C266.796 411.2 267.67 410.362 269.412 410.378ZM349.195 252.498H342.009C342.009 253.871 342.013 255.229 342.018 256.575V256.576V256.576V256.577V256.578C342.029 260.001 342.039 263.349 341.978 266.697C341.947 268.296 342.415 268.835 344.061 268.811C348.768 268.754 353.478 268.752 358.188 268.751H358.188H358.188H358.188H358.188C360.543 268.75 362.897 268.749 365.251 268.741C365.696 268.741 366.136 268.695 366.578 268.648C366.765 268.629 366.952 268.609 367.139 268.593V252.521H360.024V258.177L362.918 258.357V263.951C360.297 264.304 358.82 263.503 358.487 261.548H351.02C350.975 261.82 350.969 262.105 350.962 262.383C350.941 263.348 350.922 264.224 349.28 264.169C349.155 264.165 349.035 264.162 348.92 264.158L348.92 264.158C346.628 264.09 346.628 264.09 346.628 261.556V258.841L346.831 258.786L346.831 258.786C347.707 258.551 348.484 258.342 349.195 258.154V252.498ZM319.15 391.404H327.529V400.415C327.529 401.457 327.538 402.499 327.548 403.541L327.548 403.543C327.569 405.948 327.591 408.352 327.498 410.753C327.428 412.602 327.966 413.429 329.862 413.163C330.15 413.121 330.45 413.157 330.783 413.197L330.783 413.197L330.784 413.197L330.784 413.197C330.946 413.216 331.117 413.236 331.298 413.249V417.657H319.142V391.404H319.15ZM318.947 323.762V323.768H318.955L318.947 323.762ZM318.947 323.706V323.762L318.885 323.706H318.947ZM318.947 323.706V309.101H331.336V311.566C331.166 311.584 331.001 311.604 330.838 311.623L330.837 311.623C330.566 311.656 330.301 311.687 330.034 311.707C328.34 311.824 327.467 312.619 327.506 314.43C327.549 316.543 327.54 318.657 327.53 320.829V320.829V320.83V320.832V320.835C327.526 321.779 327.521 322.735 327.521 323.706H318.947ZM357.036 253.684H352.542C351.683 258.167 351.904 258.142 356.413 257.631C356.612 257.609 356.82 257.585 357.036 257.561V253.684Z" fill="url(#paint0_linear_477_67)"/>
<mask id="mask0_477_67" style="mask-type:alpha" maskUnits="userSpaceOnUse" x="295" y="274" width="124" height="75">
<path d="M333.042 274.89H378.07L418.49 348.638H295.459L333.042 274.89Z" fill="#D9D9D9"/>
</mask>
<g mask="url(#mask0_477_67)">
<path fill-rule="evenodd" clip-rule="evenodd" d="M358.706 245V252.482C358.583 251.946 358.491 251.537 358.405 251.16L358.405 251.158C358.316 250.767 358.235 250.41 358.136 249.978C357.629 249.978 357.111 249.965 356.587 249.952C355.241 249.918 353.854 249.884 352.495 250.063C352.044 250.12 351.647 250.597 351.166 251.175C350.916 251.476 350.642 251.805 350.326 252.115C350.418 251.012 350.506 249.958 350.592 248.931C350.705 247.589 350.813 246.295 350.919 245H358.706ZM246.3 357.254L245 357.348V373.342C247.419 373.521 249.837 373.701 252.451 373.896V379.919H270.052C270.088 379.22 270.124 378.534 270.159 377.849L270.16 377.837L270.16 377.836L270.16 377.836L270.16 377.835L270.16 377.835L270.16 377.835L270.16 377.834L270.16 377.834L270.16 377.834L270.16 377.833L270.16 377.833L270.16 377.833L270.16 377.832L270.16 377.832L270.16 377.832L270.16 377.831L270.16 377.831L270.16 377.831L270.16 377.83C270.231 376.455 270.302 375.079 270.38 373.599H277.971V357.044H274.983H274.983C270.52 357.067 270.497 357.067 270.419 361.421C270.395 362.63 270.083 363.254 268.741 363.137C267.957 363.068 267.165 363.082 266.289 363.098H266.288H266.288H266.287H266.287H266.286H266.286H266.285H266.285H266.284H266.284H266.283H266.283H266.282H266.282H266.281H266.281C265.878 363.106 265.458 363.114 265.012 363.114V373.287H257.834V362.747H264.934V356.81H270.146V349.889H252.349V356.817C250.239 356.969 248.291 357.11 246.371 357.249L246.336 357.251L246.31 357.253L246.3 357.254ZM318.986 460.856V475.157V475.165H373.506C374.159 475.138 374.814 475.105 375.468 475.072L375.469 475.072C376.877 475.002 378.287 474.931 379.693 474.915C382.182 474.888 384.672 474.895 387.179 474.902H387.18H387.18H387.18H387.181H387.181H387.182H387.182H387.183H387.183H387.183H387.184H387.184H387.185H387.185H387.185H387.186H387.186H387.187H387.193H387.199H387.206H387.212H387.219H387.225H387.232H387.238C388.342 474.905 389.449 474.908 390.561 474.908V460.848H382.103V467.706H327.443V460.856H318.986ZM318.877 323.712V323.706L318.861 323.698L318.877 323.712ZM318.877 323.773V323.712L318.931 323.761L318.877 323.773ZM390.694 323.843C391.246 323.877 391.798 323.912 392.351 323.948L392.352 323.948C393.695 324.035 395.038 324.122 396.381 324.182C397.206 324.219 398.034 324.209 398.902 324.199C399.315 324.195 399.738 324.19 400.173 324.19V336.962C400.173 337.178 400.13 337.398 400.088 337.617L400.088 337.617L400.088 337.617C400.055 337.784 400.023 337.951 400.009 338.116C399.822 340.457 399.931 340.574 402.209 340.574H409.13C409.149 340.749 409.175 340.917 409.199 341.079C409.244 341.372 409.286 341.648 409.286 341.924C409.283 345.261 409.276 348.598 409.269 351.935C409.255 358.608 409.242 365.28 409.262 371.953C409.262 373.326 408.864 373.771 407.499 373.717C405.885 373.651 404.268 373.665 402.581 373.68H402.581H402.581H402.581H402.58H402.58H402.58H402.579H402.579H402.579H402.579H402.578H402.578H402.578H402.577H402.577H402.577H402.575H402.573H402.57H402.568H402.566C401.827 373.687 401.076 373.693 400.306 373.693V390.896C399.49 390.896 398.693 390.906 397.909 390.915C396.083 390.936 394.329 390.956 392.582 390.857C391.006 390.772 390.592 391.294 390.608 392.839C390.66 398.39 390.652 403.945 390.644 409.501V409.502V409.502V409.503V409.503V409.503V409.504V409.504V409.505V409.505V409.505V409.506V409.506V409.507V409.507V409.508V409.508C390.642 411.493 390.639 413.479 390.639 415.465V417.798C389.603 417.798 388.581 417.806 387.569 417.814L387.564 417.814H387.564H387.564H387.564H387.563H387.563H387.563H387.563H387.563H387.563H387.563H387.562H387.562H387.562H387.562H387.562H387.562C385.145 417.833 382.784 417.852 380.426 417.759C378.593 417.688 378.023 418.32 378.148 420.107C378.25 421.565 378.227 423.03 378.202 424.573V424.573L378.202 424.576V424.576V424.577V424.577V424.577V424.577V424.577V424.577V424.577V424.578V424.578V424.578V424.578V424.578C378.191 425.28 378.179 425.998 378.179 426.739C377.269 426.739 376.371 426.745 375.482 426.751H375.481C373.336 426.765 371.24 426.779 369.145 426.707C367.686 426.661 367.179 427.152 367.249 428.595C367.35 430.476 367.327 432.364 367.264 434.252C367.225 435.664 367.756 436.202 369.215 436.156C371.362 436.089 373.512 436.101 375.74 436.114H375.74H375.741H375.741H375.742H375.743H375.743H375.744H375.745H375.745H375.746H375.747H375.747H375.748H375.749H375.749H375.75C376.66 436.119 377.582 436.124 378.523 436.124C378.523 437.024 378.522 437.912 378.521 438.793C378.519 440.532 378.517 442.241 378.523 443.95C378.529 445.132 377.787 445.109 377.066 445.087C376.955 445.083 376.844 445.08 376.736 445.081C373.326 445.086 369.916 445.084 366.507 445.083H366.484C364.776 445.082 363.067 445.081 361.358 445.081H358.885C358.885 445.63 358.881 446.167 358.876 446.694V446.695C358.867 447.897 358.857 449.052 358.901 450.207C358.948 451.408 358.628 452.001 357.286 451.947C355.801 451.887 354.312 451.899 352.742 451.912C352.061 451.918 351.364 451.923 350.646 451.923V445.175H331.641V436.124C332.466 436.124 333.293 436.118 334.121 436.112C336.054 436.097 337.992 436.082 339.926 436.148C341.518 436.202 342.127 435.687 342.033 434.033C341.941 432.427 341.961 430.814 341.983 429.116V429.116V429.115V429.115V429.115V429.115V429.115V429.115V429.115V429.115V429.114V429.114V429.114V429.114V429.114V429.114V429.114V429.113V429.112V429.112V429.111V429.11V429.109V429.109V429.108V429.107V429.106V429.106V429.105V429.104V429.103V429.103V429.102C341.992 428.346 342.002 427.574 342.002 426.778H331.594V417.876C332.501 417.876 333.402 417.878 334.299 417.881C336.527 417.887 338.73 417.893 340.933 417.86C342.064 417.844 342.384 418.336 342.353 419.397C342.327 420.323 342.334 421.25 342.342 422.176C342.35 423.2 342.358 424.224 342.322 425.248C342.275 426.45 342.735 426.856 343.905 426.824C345.382 426.781 346.855 426.79 348.408 426.8L348.412 426.8C349.097 426.804 349.798 426.809 350.521 426.809C350.521 427.561 350.526 428.298 350.531 429.026V429.026V429.027V429.027V429.027V429.028V429.028V429.028V429.029V429.029V429.029V429.03V429.03V429.03V429.031V429.031V429.031C350.542 430.763 350.553 432.437 350.498 434.111C350.459 435.383 350.904 435.843 352.183 435.797C353.674 435.742 355.166 435.752 356.73 435.764C357.392 435.768 358.067 435.773 358.76 435.773V426.809C359.481 426.809 360.183 426.803 360.871 426.798H360.872C362.463 426.785 363.982 426.772 365.501 426.832C366.851 426.879 367.358 426.403 367.311 425.038C367.256 423.452 367.267 421.859 367.278 420.201V420.201V420.201V420.2V420.2V420.2V420.2V420.2V420.2V420.199V420.199V420.199V420.199V420.199V420.198V420.198V420.198C367.283 419.499 367.288 418.789 367.288 418.063H377.852C377.852 417.698 377.86 417.353 377.868 417.02C377.884 416.328 377.899 415.694 377.836 415.067C377.688 413.577 378.351 413.007 379.748 413.194C381.589 413.452 382.166 412.734 382.135 410.846C382.05 406.192 382.064 401.533 382.078 396.77V396.77V396.769V396.769V396.769V396.769V396.769V396.768V396.768V396.768V396.768V396.768V396.767V396.767V396.767V396.767V396.767V396.765V396.763V396.762V396.76V396.759V396.757V396.755V396.754V396.752V396.75V396.748V396.747V396.745V396.743V396.741V396.74C382.083 394.941 382.088 393.128 382.088 391.294C382.772 391.294 383.445 391.287 384.111 391.28H384.112H384.112H384.113H384.113H384.114H384.114H384.115H384.115H384.115H384.116H384.116H384.117H384.117H384.118H384.118H384.119C385.623 391.263 387.09 391.247 388.548 391.318C390.101 391.396 390.725 390.959 390.694 389.266C390.621 385.659 390.633 382.052 390.645 378.343C390.65 376.909 390.655 375.46 390.655 373.99H318.947V390.795H309.772V373.763H300.807V340.582C301.499 340.582 302.193 340.576 302.889 340.571C304.55 340.558 306.221 340.545 307.892 340.605C309.241 340.652 309.709 340.207 309.686 338.826C309.634 335.305 309.642 331.783 309.649 328.169V328.169V328.168V328.168V328.167V328.167V328.166V328.166V328.165V328.165V328.165V328.164V328.164V328.163V328.163V328.162V328.162L309.649 328.154C309.652 326.849 309.655 325.531 309.655 324.198C310.333 324.198 311.001 324.2 311.662 324.202L311.666 324.202H311.667C313.458 324.208 315.194 324.214 316.926 324.174C317.397 324.163 317.868 324.037 318.337 323.911C318.517 323.863 318.697 323.815 318.877 323.773V340.043H310.068V348.516H399.838C399.838 347.906 399.84 347.308 399.843 346.719V346.716V346.712V346.709V346.706V346.702V346.699V346.696V346.693V346.69V346.687V346.684V346.681V346.678V346.675V346.673C399.851 344.705 399.859 342.842 399.775 340.98C399.76 340.683 398.855 340.215 398.347 340.199C396.517 340.141 394.686 340.148 392.739 340.155H392.737H392.735H392.732H392.73H392.728H392.726C392.063 340.158 391.388 340.16 390.694 340.16V323.843ZM390.623 323.776H390.686H390.686L390.694 323.768V323.843L390.631 323.839L390.623 323.846V323.776ZM390.623 323.776H382.127C382.127 322.718 382.129 321.679 382.13 320.653V320.65V320.647V320.644V320.641V320.638C382.134 318.628 382.137 316.667 382.127 314.703C382.111 312.268 381.854 311.925 379.49 311.964C378.179 311.98 377.734 311.519 377.867 310.263C377.904 309.928 377.869 309.583 377.83 309.204C377.812 309.027 377.794 308.842 377.781 308.648C377.427 308.628 377.084 308.61 376.733 308.59C376.117 308.557 375.475 308.521 374.699 308.477C374.699 308.148 374.695 307.821 374.691 307.495V307.494C374.681 306.736 374.671 305.984 374.715 305.231C374.785 303.936 374.309 303.124 372.983 302.898C372.865 302.879 372.751 302.837 372.636 302.796C372.567 302.771 372.499 302.747 372.429 302.727L372.397 302.718C367.467 301.338 367.428 301.327 367.327 296.243C367.303 294.987 366.929 294.503 365.641 294.558C364.195 294.618 362.746 294.605 361.244 294.592H361.244H361.243H361.243H361.242H361.242C360.597 294.587 359.943 294.581 359.275 294.581V286.108H367.436V294.964C368.343 294.964 369.236 294.972 370.117 294.98H370.118H370.118H370.119H370.12H370.12C372.216 294.999 374.249 295.018 376.275 294.925C378.046 294.847 378.655 295.346 378.585 297.203C378.48 299.909 378.5 302.619 378.521 305.405C378.529 306.555 378.538 307.717 378.538 308.898H390.623V323.776ZM309.92 358.906L309.92 358.903C309.924 358.286 309.928 357.664 309.928 357.036L399.83 357.044V364.167C399.838 365.095 399.518 365.517 398.449 365.517C382.043 365.512 365.64 365.522 349.237 365.533H349.235H349.234H349.232H349.231H349.229H349.228H349.226H349.224H349.223H349.221H349.22H349.218H349.217H349.215H349.214H349.212C339.366 365.539 329.52 365.545 319.672 365.548C316.887 365.548 314.094 365.517 311.317 365.368C310.841 365.345 310.014 364.697 309.99 364.307C309.897 362.527 309.908 360.739 309.92 358.906ZM438.754 356.81V356.794L438.754 356.802H438.793V356.833V356.841L438.754 356.802L438.754 356.81L438.754 356.81ZM438.757 356.852L438.754 356.81L438.8 356.849L438.757 356.852ZM438.757 356.852C438.826 358.124 438.899 359.393 438.978 360.769C439.014 361.39 439.051 362.033 439.089 362.708C439.443 362.708 439.8 362.713 440.158 362.718H440.158H440.159H440.16H440.16H440.161H440.162H440.163H440.163H440.164H440.165H440.165H440.166H440.166H440.167H440.167H440.167H440.167H440.167H440.168H440.168H440.168H440.168H440.168H440.169H440.169H440.169H440.169H440.169C440.997 362.729 441.832 362.741 442.662 362.692C443.684 362.63 444.09 363.02 444.02 364.026C443.958 364.898 443.917 365.773 443.875 366.65L443.875 366.658L443.875 366.664L443.874 366.671L443.874 366.677L443.859 367L443.845 367.278C443.839 367.406 443.833 367.534 443.826 367.662C445.361 367.678 446.897 367.691 448.434 367.705C449.967 367.718 451.5 367.732 453.031 367.747V362.762C453.391 362.762 453.746 362.755 454.097 362.747C454.854 362.73 455.593 362.714 456.324 362.778C457.634 362.895 458.056 362.341 457.985 361.093C457.932 360.215 457.944 359.337 457.958 358.419V358.418V358.418V358.418C457.964 357.998 457.97 357.57 457.97 357.129H465.764V364.69C465.764 365.418 465.757 366.146 465.75 366.874C465.733 368.549 465.717 370.224 465.787 371.898C465.842 373.295 465.327 373.716 463.993 373.654C462.647 373.594 461.297 373.606 459.888 373.619C459.279 373.625 458.66 373.631 458.024 373.631V379.903H439.066V373.67C438.431 373.67 437.814 373.666 437.211 373.663C435.804 373.655 434.466 373.647 433.128 373.685C432.192 373.709 431.638 373.506 431.646 372.437C431.659 369.726 431.663 367.018 431.666 364.31C431.668 362.279 431.67 360.247 431.677 358.214C431.677 358.055 431.734 357.893 431.794 357.725C431.824 357.637 431.856 357.548 431.88 357.457C434.198 357.256 436.477 357.054 438.757 356.852ZM438.793 356.802V350.1H457.954C457.903 350.85 457.851 351.593 457.799 352.345L457.798 352.367C457.7 353.774 457.6 355.216 457.494 356.802H438.793ZM442.812 367.773C443.139 367.75 443.464 367.727 443.788 367.697C443.845 368.626 443.9 369.555 443.956 370.506L443.957 370.522L443.957 370.528C444.008 371.379 444.059 372.247 444.113 373.147H438.91C438.91 372.772 438.9 372.396 438.89 372.02C438.865 371.055 438.839 370.09 438.98 369.152C439.042 368.715 439.869 368.185 440.423 368.06C441.202 367.884 442.009 367.828 442.812 367.773ZM452.703 372.967C452.834 371.191 452.957 369.505 453.08 367.82C453.251 367.829 453.422 367.84 453.593 367.852C453.921 367.874 454.248 367.896 454.576 367.896C457.9 367.896 458.937 369.238 457.97 372.437C457.868 372.78 457.26 373.201 456.877 373.201C455.996 373.218 455.114 373.148 454.122 373.071L454.12 373.071C453.673 373.036 453.204 372.999 452.703 372.967ZM316.091 269.264H293.333C293.333 270.631 293.332 271.992 293.331 273.348V273.353V273.358V273.364V273.369V273.374V273.379V273.385V273.39V273.395V273.4V273.406V273.411V273.416V273.421V273.422V273.423V273.423V273.423V273.424V273.424V273.424V273.424V273.425V273.425V273.425V273.426V273.426V273.426C293.328 279.833 293.325 286.123 293.395 292.412C293.403 292.787 294.363 293.466 294.885 293.473C300.978 293.582 307.077 293.61 313.177 293.638H313.177L314.702 293.645C315.041 293.645 315.376 293.578 315.687 293.517C315.827 293.489 315.963 293.462 316.091 293.442V269.264ZM301.244 283.261H307.587H307.595C307.595 282.949 307.597 282.676 307.599 282.427V282.427V282.427V282.427V282.427V282.427V282.427V282.426V282.426V282.426V282.426V282.426V282.426V282.426V282.426C307.602 281.989 307.605 281.626 307.595 281.263C307.527 278.725 306.211 277.451 303.647 277.44H301.361C301.318 277.337 301.273 277.249 301.234 277.171L301.234 277.171C301.16 277.025 301.104 276.913 301.104 276.801C301.099 276.492 301.093 276.209 301.088 275.948C301.056 274.249 301.042 273.522 301.393 273.221C301.656 272.995 302.123 273.007 302.939 273.029C303.405 273.041 303.986 273.057 304.708 273.032C305.381 273.012 306.054 273.018 306.784 273.025H306.784H306.784H306.784H306.785H306.785H306.785H306.785H306.785H306.786H306.786H306.786H306.787H306.787C307.173 273.029 307.574 273.032 308 273.032C308.071 274.585 308.141 276.036 308.211 277.448C308.613 277.514 309.012 277.563 309.404 277.611L309.404 277.611L309.404 277.611L309.404 277.611L309.404 277.611L309.404 277.611L309.404 277.611L309.404 277.611L309.405 277.611L309.405 277.611L309.405 277.611L309.405 277.611L309.405 277.611L309.405 277.611L309.405 277.611C310.399 277.732 311.347 277.848 312.174 278.228C312.426 278.341 312.404 279.033 312.382 279.748C312.37 280.122 312.358 280.503 312.385 280.811C312.582 283.168 311.393 283.077 310.15 282.982C309.419 282.926 308.669 282.868 308.172 283.308C308.166 283.39 308.159 283.481 308.151 283.58C308.125 283.887 308.094 284.264 308.094 284.642C308.09 285.062 308.094 285.429 308.098 285.749C308.109 286.772 308.114 287.314 307.847 287.6C307.546 287.923 306.898 287.921 305.521 287.919H305.521H305.519C305.326 287.918 305.118 287.918 304.895 287.918C300.557 287.934 300.526 287.887 301.244 283.261ZM393.877 269.295H415.839V293.45H393.877V269.295ZM411.915 283.292H397.996C397.996 283.573 398.005 283.839 398.014 284.094C398.032 284.617 398.049 285.093 397.981 285.554C397.692 287.458 398.472 288.059 400.337 287.957C402.133 287.86 403.933 287.883 405.734 287.906H405.734H405.735H405.735H405.735H405.735H405.735H405.735H405.736H405.736H405.736H405.736H405.736H405.737H405.737C406.524 287.916 407.312 287.926 408.1 287.926C410.961 287.926 412.232 286.384 411.915 283.3V283.292ZM401.975 277.308C407.522 277.823 408.193 277.245 407.078 273.157H401.975V277.308ZM445.487 426.614V403.933H424.257V426.614H445.487ZM430.959 411.041H441.43C441.43 411.402 441.44 411.748 441.45 412.082V412.082C441.474 412.865 441.495 413.582 441.375 414.271C441.305 414.7 440.649 415.332 440.244 415.34C436.569 415.434 432.886 415.457 429.204 415.387C428.798 415.379 428.112 414.739 428.049 414.326C427.62 411.314 427.893 411.041 430.959 411.041ZM393.893 430.062H415.769V453.967H393.893V430.062ZM411.213 448.217H407.018C406.474 444.281 407.185 443.688 411.213 444.753V448.217ZM406.984 448.256H402.81L402.805 448.139L402.804 448.128C402.745 446.841 402.699 445.856 402.646 444.769H398.043V448.35H402.303V451.845H406.984V448.256ZM411.236 438.145C410.52 438.111 409.857 438.08 409.214 438.049L408.756 438.027C408.435 438.011 408.118 437.996 407.799 437.981L407.133 437.95C407.084 437.145 407.042 436.405 406.998 435.641C406.971 435.169 406.944 434.687 406.914 434.174C406.521 434.195 406.138 434.207 405.765 434.219H405.764H405.764H405.764H405.763H405.763H405.763H405.763C404.922 434.245 404.126 434.27 403.349 434.4C402.927 434.47 402.217 435.11 402.264 435.367C402.795 438.215 401.047 438.223 399.089 438.059C398.842 438.038 398.592 438.086 398.333 438.136C398.215 438.159 398.095 438.182 397.973 438.199V441.469C400.792 441.744 402.459 440.842 402.974 438.761C405.361 438.631 406.766 439.539 407.187 441.484H411.236V438.145ZM316.201 453.897V429.961C315.007 429.961 313.818 429.96 312.633 429.96L312.523 429.96H312.52H312.517H312.515H312.512H312.509H312.507H312.504H312.501H312.499H312.496C306.414 429.958 300.439 429.956 294.465 430.007C294.129 430.007 293.505 430.663 293.505 431.022C293.454 434.92 293.431 438.816 293.408 442.712C293.388 445.959 293.369 449.205 293.333 452.454C293.318 453.741 293.77 454.108 295.026 454.1C299.348 454.065 303.673 454.065 307.998 454.066C310.356 454.066 312.713 454.066 315.07 454.061C315.324 454.061 315.578 454.012 315.842 453.962C315.959 453.939 316.079 453.916 316.201 453.897ZM298.389 439.445V448.623C298.626 448.633 298.846 448.637 299.055 448.64H299.055H299.056H299.056H299.056H299.057H299.057H299.057H299.057C299.495 448.647 299.882 448.653 300.261 448.717C302.095 449.013 302.711 448.163 302.602 446.431C302.565 445.796 302.611 445.153 302.657 444.524C302.678 444.233 302.699 443.945 302.711 443.661H308.056V448.709C308.291 448.751 308.497 448.794 308.684 448.832C309.048 448.907 309.338 448.966 309.632 448.982C312.23 449.099 312.362 448.958 312.37 446.321V442.03C312.37 440.189 311.483 439.242 309.71 439.19C309.378 439.18 309.049 439.142 308.68 439.099L308.679 439.099C308.494 439.078 308.298 439.055 308.087 439.034C308.087 438.675 308.096 438.326 308.104 437.983C308.125 437.166 308.145 436.392 308.04 435.633C307.978 435.157 307.447 434.408 307.073 434.369C306.023 434.26 304.957 434.277 303.883 434.294C303.488 434.3 303.092 434.306 302.696 434.306C302.666 434.865 302.688 435.425 302.709 435.956C302.753 437.079 302.793 438.072 302.321 438.644C301.888 439.174 300.894 439.238 299.831 439.306C299.349 439.337 298.853 439.369 298.389 439.445ZM341.997 290.561V290.559C342.011 286.856 342.025 283.287 341.947 279.719C341.916 278.119 342.431 277.737 343.937 277.768C347.419 277.83 350.906 277.819 354.431 277.808H354.432H354.432H354.433H354.433H354.434H354.434H354.435H354.436H354.436C355.814 277.804 357.197 277.799 358.589 277.799V285.687C358.025 285.687 357.458 285.696 356.888 285.705L356.888 285.705C355.566 285.727 354.231 285.749 352.901 285.656C351.099 285.531 350.404 286.038 350.475 287.996C350.579 291.065 350.559 294.134 350.539 297.337V297.338V297.339V297.34V297.341V297.342V297.343V297.344V297.345V297.346C350.53 298.676 350.521 300.03 350.521 301.416C349.388 301.546 348.266 301.674 347.143 301.801L347.14 301.802L347.138 301.802C345.571 301.98 344.003 302.158 342.4 302.344V308.422H331.586V295.073H341.986V295.065C341.986 293.543 341.992 292.05 341.997 290.578V290.576V290.574V290.572V290.569V290.567V290.565V290.563V290.561ZM284.72 323.308V302.282H263.069V323.308H284.72ZM280.99 314.071C280.979 314.44 280.967 314.826 280.967 315.233C279.915 315.233 278.883 315.235 277.866 315.237H277.866H277.865H277.865H277.865H277.865H277.864H277.864H277.864C274.467 315.244 271.239 315.25 268.016 315.178C267.594 315.171 267.025 314.422 266.838 313.899C266.71 313.534 266.737 313.12 266.765 312.701C266.781 312.456 266.797 312.21 266.783 311.972C266.713 310.903 267.173 310.435 268.25 310.443C269.521 310.453 270.793 310.456 272.065 310.458C274.608 310.463 277.152 310.469 279.695 310.536C280.132 310.544 280.827 311.254 280.912 311.73C281.037 312.464 281.015 313.224 280.99 314.071ZM445.495 323.355H424.265V302.211C425.5 302.211 426.731 302.211 427.958 302.21H427.959H427.96H427.96H427.961H427.962H427.962H427.963C433.47 302.208 438.918 302.206 444.371 302.25C444.746 302.25 445.44 302.859 445.448 303.187C445.5 308.739 445.498 314.291 445.495 319.933V319.934V319.935V319.937V319.938V319.939V319.94V319.942L445.495 320.045C445.495 321.145 445.495 322.248 445.495 323.355ZM428.377 314.429C428.206 311.813 429.637 310.52 432.669 310.551L432.675 310.988L432.681 311.429C432.694 312.348 432.707 313.266 432.707 314.187C432.707 314.307 432.669 314.427 432.62 314.58L432.62 314.58L432.62 314.581C432.596 314.657 432.569 314.74 432.543 314.835H428.619C428.577 314.77 428.536 314.715 428.5 314.666C428.429 314.571 428.377 314.502 428.377 314.429ZM432.723 310.505H436.983C437.002 310.353 437.02 310.206 437.038 310.064C437.285 308.125 437.414 307.108 436.967 306.637C436.474 306.118 435.28 306.265 432.767 306.575L432.723 306.581V310.505ZM436.959 319.485V315.288H432.762V319.485H436.959ZM441.332 314.346L441.333 314.342C441.875 310.308 441.889 310.204 437.357 310.864V314.843H441.266C441.289 314.671 441.311 314.506 441.332 314.346ZM262.976 403.933V426.622H284.611V403.933H262.976ZM269.412 410.378H271.269L271.262 410.393V414.209H276.372V410.479H271.589V405.868H276.902V409.925C277.02 410.014 277.104 410.09 277.169 410.15C277.265 410.236 277.321 410.287 277.386 410.292C279.68 410.531 280.827 411.829 280.827 414.185C280.827 414.789 280.816 415.394 280.806 415.998C280.781 417.409 280.757 418.82 280.866 420.224C281.009 422.048 279.989 422.068 278.828 422.09C278.728 422.091 278.627 422.093 278.525 422.096C277.277 422.128 276.278 421.987 276.504 420.333C276.55 420.009 276.54 419.672 276.527 419.251L276.527 419.251C276.52 419.024 276.512 418.772 276.512 418.484C276.078 418.484 275.651 418.477 275.23 418.47H275.229C274.081 418.45 272.973 418.431 271.878 418.562C271.566 418.601 271.121 419.654 271.16 420.208C271.285 421.862 270.513 422.174 269.069 422.143C267.626 422.104 266.697 421.862 266.768 420.107C266.833 418.425 266.818 416.738 266.804 415.054V415.053V415.053V415.053V415.053V415.052V415.052C266.797 414.331 266.791 413.61 266.791 412.89C266.796 411.2 267.67 410.362 269.412 410.378ZM349.195 252.497H342.009C342.009 253.871 342.013 255.229 342.018 256.575V256.575V256.576V256.577V256.578C342.029 260.001 342.039 263.349 341.978 266.697C341.947 268.296 342.415 268.835 344.061 268.811C348.768 268.754 353.478 268.752 358.188 268.751H358.188H358.188H358.188H358.188C360.543 268.75 362.897 268.749 365.251 268.741C365.696 268.741 366.136 268.695 366.578 268.648C366.765 268.629 366.952 268.609 367.139 268.593V252.521H360.024V258.177L362.918 258.357V263.951C360.297 264.304 358.82 263.503 358.487 261.548H351.02C350.975 261.82 350.969 262.105 350.962 262.383C350.941 263.347 350.922 264.224 349.28 264.169C349.155 264.165 349.035 264.161 348.92 264.158L348.92 264.158C346.628 264.09 346.628 264.09 346.628 261.555V258.84L346.831 258.786L346.831 258.786C347.707 258.551 348.484 258.342 349.195 258.154V252.497ZM319.15 391.404H327.529V400.415C327.529 401.457 327.538 402.499 327.548 403.541L327.548 403.543C327.569 405.948 327.591 408.352 327.498 410.752C327.428 412.602 327.966 413.429 329.862 413.163C330.15 413.121 330.45 413.157 330.783 413.197L330.783 413.197L330.784 413.197L330.784 413.197C330.946 413.216 331.117 413.236 331.298 413.249V417.657H319.142V391.404H319.15ZM318.947 323.761V323.768H318.955L318.947 323.761ZM318.947 323.706V323.761L318.885 323.706H318.947ZM318.947 323.706V309.101H331.336V311.566C331.166 311.584 331.001 311.604 330.838 311.623C330.566 311.655 330.301 311.687 330.034 311.707C328.34 311.824 327.467 312.619 327.506 314.429C327.549 316.543 327.54 318.657 327.53 320.829V320.829V320.829V320.832V320.834C327.526 321.779 327.521 322.735 327.521 323.706H318.947ZM357.036 253.684H352.542C351.683 258.167 351.904 258.142 356.413 257.631C356.612 257.609 356.82 257.585 357.036 257.561V253.684Z" fill="black"/>
</g>
<rect x="379.041" y="303.856" width="7.80022" height="7.80022" fill="black"/>
<rect x="371.241" y="305.984" width="7.80022" height="7.80022" fill="black"/>
<rect x="363.441" y="308.111" width="7.80022" height="7.80022" fill="black"/>
<rect x="355.641" y="310.238" width="7.80022" height="7.80022" fill="black"/>
<rect x="391.806" y="323.711" width="7.80022" height="7.80022" fill="black"/>
<rect x="384.005" y="327.966" width="7.80022" height="7.80022" fill="black"/>
<rect x="376.205" y="330.093" width="7.80022" height="7.80022" fill="black"/>
<rect x="368.404" y="332.221" width="7.80022" height="7.80022" fill="black"/>
<rect x="360.604" y="334.348" width="7.80022" height="7.80022" fill="black"/>
<defs>
<linearGradient id="paint0_linear_477_67" x1="245" y1="254.511" x2="476.2" y2="463.659" gradientUnits="userSpaceOnUse">
<stop stop-color="#2CA8DE"/>
<stop offset="0.5" stop-color="#ED75AF"/>
<stop offset="1" stop-color="#FFE600"/>
</linearGradient>
</defs>
</svg>
