<svg width="1280" height="720" viewBox="0 0 1280 720" fill="none" xmlns="http://www.w3.org/2000/svg">
<rect width="1280" height="720" fill="#151C3F"/>
<path d="M669.865 445V434.36H659.195V401.871H669.865V391.23H702.445V401.871H713.115V413.079H701.876V402.438H670.435V433.792H701.876V423.152H713.115V434.36H702.445V445H669.865Z" fill="white"/>
<path d="M725.328 445V391.23H736.567V433.792H779.248V445H725.328Z" fill="white"/>
<path d="M796.504 445V434.36H785.834V391.23H797.073V433.792H828.514V391.23H839.754V434.36H829.083V445H796.504Z" fill="white"/>
<path d="M863.9 412.511H895.342V402.438H863.9V412.511ZM863.9 433.792H895.342V423.719H863.9V433.792ZM852.661 445V391.23H895.911V401.871H906.581V434.36H895.911V445H852.661Z" fill="white"/>
<path d="M528 355.654V338.842H592.021V323.733H544.005V307.772H528V290.961H544.005V275H608.88V291.812H544.859V306.921H592.874V322.882H608.88V339.694H592.874V355.654H528Z" fill="white"/>
<path d="M641.224 355.654V339.694H625.219V275H642.078V338.842H689.24V275H706.099V339.694H690.094V355.654H641.224Z" fill="white"/>
<path d="M725.46 355.654V290.961H741.465V275H790.335V290.961H806.34V355.654H789.481V291.812H742.319V355.654H725.46Z" fill="white"/>
<path d="M842.56 338.842H889.722V291.812H842.56V338.842ZM825.701 355.654V275H890.576V290.961H906.581V339.694H890.576V355.654H825.701Z" fill="white"/>
<path d="M941.759 306.921H988.921V291.812H941.759V306.921ZM924.9 355.654V290.961H940.905V275H989.775V290.961H1005.78V355.654H988.921V323.733H941.759V355.654H924.9Z" fill="#F7B44F"/>
<path d="M1025.14 355.654V275H1042V355.654H1025.14Z" fill="#F7B44F"/>
<path fill-rule="evenodd" clip-rule="evenodd" d="M351.706 245V252.482C351.583 251.946 351.491 251.538 351.405 251.16L351.405 251.158C351.316 250.767 351.235 250.41 351.136 249.978C350.629 249.978 350.111 249.965 349.587 249.952C348.241 249.918 346.854 249.884 345.495 250.063C345.044 250.12 344.647 250.597 344.166 251.175C343.916 251.476 343.642 251.805 343.326 252.115C343.418 251.012 343.506 249.958 343.592 248.931C343.705 247.589 343.813 246.295 343.919 245H351.706ZM239.3 357.254L238 357.348V373.342C240.419 373.522 242.837 373.701 245.451 373.896V379.919H263.052C263.088 379.22 263.124 378.535 263.159 377.849L263.16 377.837L263.16 377.836L263.16 377.836L263.16 377.835L263.16 377.835L263.16 377.835L263.16 377.834L263.16 377.834L263.16 377.834L263.16 377.833L263.16 377.833L263.16 377.833L263.16 377.832L263.16 377.832L263.16 377.832L263.16 377.831L263.16 377.831L263.16 377.831L263.16 377.831C263.231 376.455 263.302 375.079 263.38 373.6H270.971V357.044H267.983H267.983C263.52 357.067 263.497 357.067 263.419 361.421C263.395 362.63 263.083 363.254 261.741 363.137C260.957 363.068 260.165 363.082 259.289 363.099H259.288H259.288H259.287H259.287H259.286H259.286H259.285H259.285H259.284H259.284H259.283H259.283H259.282H259.282H259.281H259.281C258.878 363.106 258.458 363.114 258.012 363.114V373.287H250.834V362.747H257.934V356.81H263.146V349.889H245.349V356.818C243.239 356.969 241.291 357.11 239.371 357.249L239.336 357.251L239.31 357.253L239.3 357.254ZM311.986 460.856V475.157V475.165H366.506C367.159 475.138 367.814 475.105 368.468 475.072L368.469 475.072C369.877 475.002 371.287 474.931 372.693 474.915C375.182 474.889 377.672 474.895 380.179 474.902H380.18H380.18H380.18H380.181H380.181H380.182H380.182H380.183H380.183H380.183H380.184H380.184H380.185H380.185H380.185H380.186H380.186H380.187H380.193H380.199H380.206H380.212H380.219H380.225H380.232H380.238C381.342 474.905 382.449 474.908 383.561 474.908V460.849H375.103V467.706H320.443V460.856H311.986ZM311.877 323.712V323.706L311.861 323.698L311.877 323.712ZM311.877 323.773V323.712L311.931 323.761L311.877 323.773ZM383.694 323.843C384.246 323.877 384.798 323.913 385.351 323.948L385.352 323.948C386.695 324.035 388.038 324.122 389.381 324.182C390.206 324.219 391.034 324.209 391.902 324.199C392.315 324.195 392.738 324.19 393.173 324.19V336.962C393.173 337.179 393.13 337.398 393.088 337.617L393.088 337.617L393.088 337.617C393.055 337.784 393.023 337.951 393.009 338.116C392.822 340.457 392.931 340.574 395.209 340.574H402.13C402.149 340.749 402.175 340.917 402.199 341.079C402.244 341.372 402.286 341.648 402.286 341.924C402.283 345.261 402.276 348.598 402.269 351.935C402.255 358.608 402.242 365.281 402.262 371.953C402.262 373.327 401.864 373.771 400.499 373.717C398.885 373.652 397.268 373.666 395.581 373.68H395.581H395.581H395.581H395.58H395.58H395.58H395.579H395.579H395.579H395.579H395.578H395.578H395.578H395.577H395.577H395.577H395.575H395.573H395.57H395.568H395.566C394.827 373.687 394.076 373.693 393.306 373.693V390.896C392.49 390.896 391.693 390.906 390.909 390.915C389.083 390.936 387.329 390.956 385.582 390.857C384.006 390.772 383.592 391.294 383.608 392.839C383.66 398.39 383.652 403.945 383.644 409.501V409.502V409.502V409.503V409.503V409.503V409.504V409.504V409.505V409.505V409.506V409.506V409.506V409.507V409.507V409.508V409.508C383.642 411.494 383.639 413.479 383.639 415.465V417.798C382.603 417.798 381.581 417.806 380.569 417.814L380.564 417.814H380.564H380.564H380.564H380.563H380.563H380.563H380.563H380.563H380.563H380.563H380.562H380.562H380.562H380.562H380.562H380.562C378.145 417.833 375.784 417.852 373.426 417.759C371.593 417.688 371.023 418.32 371.148 420.107C371.25 421.565 371.227 423.03 371.202 424.573V424.573L371.202 424.576V424.577V424.577V424.577V424.577V424.577V424.577V424.577V424.577V424.578V424.578V424.578V424.578V424.578C371.191 425.28 371.179 425.998 371.179 426.739C370.269 426.739 369.371 426.745 368.482 426.751H368.481C366.336 426.765 364.24 426.779 362.145 426.707C360.686 426.661 360.179 427.152 360.249 428.596C360.35 430.476 360.327 432.364 360.264 434.252C360.225 435.664 360.756 436.202 362.215 436.156C364.362 436.089 366.512 436.101 368.74 436.114H368.74H368.741H368.741H368.742H368.743H368.743H368.744H368.745H368.745H368.746H368.747H368.747H368.748H368.749H368.749H368.75C369.66 436.119 370.582 436.124 371.523 436.124C371.523 437.024 371.522 437.912 371.521 438.793C371.519 440.532 371.517 442.241 371.523 443.95C371.529 445.132 370.787 445.109 370.066 445.087C369.955 445.083 369.844 445.08 369.736 445.081C366.326 445.086 362.916 445.085 359.507 445.083H359.484C357.776 445.082 356.067 445.081 354.358 445.081H351.885C351.885 445.631 351.881 446.167 351.876 446.694V446.695C351.867 447.897 351.857 449.052 351.901 450.207C351.948 451.408 351.628 452.001 350.286 451.947C348.801 451.887 347.312 451.899 345.742 451.912C345.061 451.918 344.364 451.923 343.646 451.923V445.175H324.641V436.124C325.466 436.124 326.293 436.118 327.121 436.112C329.054 436.097 330.992 436.082 332.926 436.148C334.518 436.202 335.127 435.687 335.033 434.033C334.941 432.427 334.961 430.814 334.983 429.116V429.116V429.116V429.115V429.115V429.115V429.115V429.115V429.115V429.115V429.114V429.114V429.114V429.114V429.114V429.114V429.114V429.113V429.112V429.112V429.111V429.11V429.11V429.109V429.108V429.107V429.106V429.106V429.105V429.104V429.103V429.103V429.102C334.992 428.346 335.002 427.574 335.002 426.778H324.594V417.876C325.501 417.876 326.402 417.878 327.299 417.881C329.527 417.887 331.73 417.893 333.933 417.86C335.064 417.844 335.384 418.336 335.353 419.397C335.327 420.324 335.334 421.25 335.342 422.176C335.35 423.2 335.358 424.224 335.322 425.248C335.275 426.45 335.735 426.856 336.905 426.824C338.382 426.781 339.855 426.79 341.408 426.8L341.412 426.8C342.097 426.805 342.798 426.809 343.521 426.809C343.521 427.561 343.526 428.299 343.531 429.026V429.026V429.027V429.027V429.027V429.028V429.028V429.028V429.029V429.029V429.029V429.03V429.03V429.03V429.031V429.031V429.031C343.542 430.763 343.553 432.437 343.498 434.111C343.459 435.383 343.904 435.844 345.183 435.797C346.674 435.742 348.166 435.753 349.73 435.764C350.392 435.768 351.067 435.773 351.76 435.773V426.809C352.481 426.809 353.183 426.803 353.871 426.798H353.872C355.463 426.785 356.982 426.772 358.501 426.832C359.851 426.879 360.358 426.403 360.311 425.038C360.256 423.452 360.267 421.859 360.278 420.201V420.201V420.201V420.201V420.2V420.2V420.2V420.2V420.2V420.199V420.199V420.199V420.199V420.199V420.199V420.198V420.198C360.283 419.499 360.288 418.789 360.288 418.063H370.852C370.852 417.698 370.86 417.353 370.868 417.02C370.884 416.328 370.899 415.694 370.836 415.067C370.688 413.577 371.351 413.007 372.748 413.194C374.589 413.452 375.166 412.734 375.135 410.846C375.05 406.192 375.064 401.533 375.078 396.77V396.77V396.769V396.769V396.769V396.769V396.769V396.769V396.768V396.768V396.768V396.768V396.768V396.767V396.767V396.767V396.767V396.765V396.763V396.762V396.76V396.759V396.757V396.755V396.754V396.752V396.75V396.749V396.747V396.745V396.743V396.741V396.74C375.083 394.941 375.088 393.128 375.088 391.294C375.772 391.294 376.445 391.287 377.111 391.28H377.112H377.112H377.113H377.113H377.114H377.114H377.115H377.115H377.115H377.116H377.116H377.117H377.117H377.118H377.118H377.119C378.623 391.263 380.09 391.247 381.548 391.318C383.101 391.396 383.725 390.959 383.694 389.266C383.621 385.659 383.633 382.052 383.645 378.343C383.65 376.909 383.655 375.46 383.655 373.99H311.947V390.795H302.772V373.763H293.807V340.582C294.499 340.582 295.193 340.576 295.889 340.571C297.55 340.558 299.221 340.545 300.892 340.605C302.241 340.652 302.709 340.207 302.686 338.826C302.634 335.305 302.642 331.783 302.649 328.169V328.169V328.168V328.168V328.167V328.167V328.166V328.166V328.166V328.165V328.165V328.164V328.164V328.163V328.163V328.162V328.162L302.649 328.154C302.652 326.849 302.655 325.532 302.655 324.198C303.333 324.198 304.001 324.2 304.662 324.202L304.666 324.202H304.667C306.458 324.208 308.194 324.214 309.926 324.174C310.397 324.163 310.868 324.037 311.337 323.911C311.517 323.863 311.697 323.815 311.877 323.773V340.043H303.068V348.516H392.838C392.838 347.906 392.84 347.308 392.843 346.719V346.716V346.712V346.709V346.706V346.702V346.699V346.696V346.693V346.69V346.687V346.684V346.681V346.678V346.675V346.673C392.851 344.705 392.859 342.842 392.775 340.98C392.76 340.683 391.855 340.215 391.347 340.199C389.517 340.141 387.686 340.148 385.739 340.155H385.737H385.735H385.732H385.73H385.728H385.726C385.063 340.158 384.388 340.16 383.694 340.16V323.843ZM383.623 323.776H383.686H383.686L383.694 323.769V323.843L383.631 323.839L383.623 323.847V323.776ZM383.623 323.776H375.127C375.127 322.718 375.129 321.679 375.13 320.653V320.65V320.647V320.644V320.641V320.638C375.134 318.628 375.137 316.667 375.127 314.703C375.111 312.268 374.854 311.925 372.49 311.964C371.179 311.98 370.734 311.519 370.867 310.263C370.904 309.929 370.869 309.583 370.83 309.204C370.812 309.027 370.794 308.842 370.781 308.648C370.427 308.628 370.084 308.61 369.733 308.59C369.117 308.557 368.475 308.521 367.699 308.477C367.699 308.148 367.695 307.821 367.691 307.495V307.494C367.681 306.736 367.671 305.984 367.715 305.231C367.785 303.936 367.309 303.125 365.983 302.898C365.865 302.879 365.751 302.838 365.636 302.796C365.567 302.772 365.499 302.747 365.429 302.727L365.397 302.718C360.467 301.338 360.428 301.327 360.327 296.243C360.303 294.987 359.929 294.503 358.641 294.558C357.195 294.618 355.746 294.606 354.244 294.593H354.244H354.243H354.243H354.242H354.242C353.597 294.587 352.943 294.581 352.275 294.581V286.108H360.436V294.964C361.343 294.964 362.236 294.972 363.117 294.98H363.118H363.118H363.119H363.12H363.12C365.216 294.999 367.249 295.018 369.275 294.925C371.046 294.847 371.655 295.346 371.585 297.203C371.48 299.909 371.5 302.619 371.521 305.405C371.529 306.555 371.538 307.717 371.538 308.898H383.623V323.776ZM302.92 358.906L302.92 358.903C302.924 358.286 302.928 357.664 302.928 357.036L392.83 357.044V364.167C392.838 365.095 392.518 365.517 391.449 365.517C375.043 365.512 358.64 365.522 342.237 365.533H342.235H342.234H342.232H342.231H342.229H342.228H342.226H342.224H342.223H342.221H342.22H342.218H342.217H342.215H342.214H342.212C332.366 365.539 322.52 365.545 312.672 365.548C309.887 365.548 307.094 365.517 304.317 365.369C303.841 365.345 303.014 364.698 302.99 364.307C302.897 362.528 302.908 360.739 302.92 358.906ZM431.754 356.81V356.794L431.754 356.802H431.793V356.833V356.841L431.754 356.802L431.754 356.81L431.754 356.81ZM431.757 356.852L431.754 356.81L431.8 356.849L431.757 356.852ZM431.757 356.852C431.826 358.124 431.899 359.393 431.978 360.769C432.014 361.39 432.051 362.033 432.089 362.708C432.443 362.708 432.8 362.713 433.158 362.718H433.158H433.159H433.16H433.16H433.161H433.162H433.163H433.163H433.164H433.165H433.165H433.166H433.166H433.167H433.167H433.167H433.167H433.167H433.168H433.168H433.168H433.168H433.168H433.169H433.169H433.169H433.169H433.169C433.997 362.73 434.832 362.741 435.662 362.692C436.684 362.63 437.09 363.02 437.02 364.026C436.958 364.898 436.917 365.774 436.875 366.65L436.875 366.658L436.875 366.664L436.874 366.671L436.874 366.678L436.859 367L436.845 367.278C436.839 367.406 436.833 367.534 436.826 367.663C438.361 367.678 439.897 367.692 441.434 367.705C442.967 367.719 444.5 367.732 446.031 367.747V362.763C446.391 362.763 446.746 362.755 447.097 362.747C447.854 362.73 448.593 362.714 449.324 362.778C450.634 362.895 451.056 362.341 450.985 361.093C450.932 360.215 450.944 359.337 450.958 358.419V358.418V358.418V358.418C450.964 357.998 450.97 357.57 450.97 357.13H458.764V364.69C458.764 365.418 458.757 366.146 458.75 366.874C458.733 368.549 458.717 370.224 458.787 371.899C458.842 373.295 458.327 373.716 456.993 373.654C455.647 373.594 454.297 373.606 452.888 373.619C452.279 373.625 451.66 373.631 451.024 373.631V379.903H432.066V373.67C431.431 373.67 430.814 373.666 430.211 373.663C428.804 373.655 427.466 373.647 426.128 373.685C425.192 373.709 424.638 373.506 424.646 372.437C424.659 369.726 424.663 367.018 424.666 364.31C424.668 362.279 424.67 360.247 424.677 358.214C424.677 358.055 424.734 357.893 424.794 357.725C424.824 357.638 424.856 357.548 424.88 357.457C427.198 357.256 429.477 357.054 431.757 356.852ZM431.793 356.802V350.1H450.954C450.903 350.85 450.851 351.593 450.799 352.345L450.798 352.367C450.7 353.775 450.6 355.216 450.494 356.802H431.793ZM435.812 367.773C436.139 367.75 436.464 367.727 436.788 367.697C436.845 368.626 436.9 369.556 436.956 370.506L436.957 370.523L436.957 370.528C437.008 371.379 437.059 372.247 437.113 373.147H431.91C431.91 372.773 431.9 372.396 431.89 372.02C431.865 371.055 431.839 370.09 431.98 369.152C432.042 368.715 432.869 368.185 433.423 368.06C434.202 367.884 435.009 367.828 435.812 367.773ZM445.703 372.967C445.834 371.191 445.957 369.505 446.08 367.821C446.251 367.829 446.422 367.84 446.593 367.852C446.921 367.874 447.248 367.896 447.576 367.896C450.9 367.896 451.937 369.238 450.97 372.437C450.868 372.78 450.26 373.202 449.877 373.202C448.996 373.218 448.114 373.149 447.122 373.071L447.12 373.071C446.673 373.036 446.204 372.999 445.703 372.967ZM309.091 269.264H286.333C286.333 270.631 286.332 271.992 286.331 273.348V273.353V273.358V273.364V273.369V273.374V273.38V273.385V273.39V273.395V273.4V273.406V273.411V273.416V273.421V273.423V273.423V273.423V273.423V273.424V273.424V273.424V273.425V273.425V273.425V273.425V273.426V273.426V273.426C286.328 279.833 286.325 286.123 286.395 292.413C286.403 292.787 287.363 293.466 287.885 293.474C293.978 293.582 300.077 293.61 306.177 293.638H306.177L307.702 293.645C308.041 293.645 308.376 293.579 308.687 293.517C308.827 293.489 308.963 293.462 309.091 293.442V269.264ZM294.244 283.261H300.587H300.595C300.595 282.949 300.597 282.676 300.599 282.427V282.427V282.427V282.427V282.427V282.427V282.427V282.427V282.427V282.426V282.426V282.426V282.426V282.426V282.426C300.602 281.989 300.605 281.626 300.595 281.264C300.527 278.725 299.211 277.451 296.647 277.441H294.361C294.318 277.337 294.273 277.249 294.234 277.171L294.234 277.171C294.16 277.025 294.104 276.913 294.104 276.801C294.099 276.492 294.093 276.209 294.088 275.948C294.056 274.249 294.042 273.522 294.393 273.221C294.656 272.995 295.123 273.008 295.939 273.029C296.405 273.041 296.986 273.057 297.708 273.032C298.381 273.012 299.054 273.018 299.784 273.025H299.784H299.784H299.784H299.785H299.785H299.785H299.785H299.785H299.786H299.786H299.786H299.787H299.787C300.173 273.029 300.574 273.032 301 273.032C301.071 274.585 301.141 276.036 301.211 277.448C301.613 277.515 302.012 277.563 302.404 277.611L302.404 277.611L302.404 277.611L302.404 277.611L302.404 277.611L302.404 277.611L302.404 277.611L302.404 277.611L302.405 277.611L302.405 277.611L302.405 277.611L302.405 277.611L302.405 277.611L302.405 277.611L302.405 277.611C303.399 277.733 304.347 277.848 305.174 278.229C305.426 278.341 305.404 279.033 305.382 279.748C305.37 280.122 305.358 280.503 305.385 280.811C305.582 283.168 304.393 283.077 303.15 282.982C302.419 282.926 301.669 282.868 301.172 283.308C301.166 283.39 301.159 283.481 301.151 283.581C301.125 283.887 301.094 284.264 301.094 284.642C301.09 285.062 301.094 285.429 301.098 285.749C301.109 286.772 301.114 287.314 300.847 287.6C300.546 287.923 299.898 287.921 298.521 287.919H298.521H298.519C298.326 287.919 298.118 287.918 297.895 287.919C293.557 287.934 293.526 287.887 294.244 283.261ZM386.877 269.295H408.839V293.45H386.877V269.295ZM404.915 283.292H390.996C390.996 283.573 391.005 283.839 391.014 284.094C391.032 284.617 391.049 285.093 390.981 285.554C390.692 287.458 391.472 288.059 393.337 287.957C395.133 287.86 396.933 287.883 398.734 287.906H398.734H398.735H398.735H398.735H398.735H398.735H398.735H398.736H398.736H398.736H398.736H398.736H398.737H398.737C399.524 287.916 400.312 287.926 401.1 287.926C403.961 287.926 405.232 286.384 404.915 283.3V283.292ZM394.975 277.308C400.522 277.823 401.193 277.245 400.078 273.157H394.975V277.308ZM438.487 426.614V403.934H417.257V426.614H438.487ZM423.959 411.041H434.43C434.43 411.402 434.44 411.748 434.45 412.082V412.082C434.474 412.865 434.495 413.582 434.375 414.271C434.305 414.7 433.649 415.332 433.244 415.34C429.569 415.434 425.886 415.457 422.204 415.387C421.798 415.379 421.112 414.739 421.049 414.326C420.62 411.314 420.893 411.041 423.959 411.041ZM386.893 430.062H408.769V453.967H386.893V430.062ZM404.213 448.217H400.018C399.474 444.281 400.185 443.688 404.213 444.753V448.217ZM399.984 448.256H395.81L395.805 448.139L395.804 448.128C395.745 446.841 395.699 445.856 395.646 444.769H391.043V448.35H395.303V451.845H399.984V448.256ZM404.236 438.145C403.52 438.111 402.857 438.08 402.214 438.049L401.756 438.027C401.435 438.011 401.118 437.996 400.799 437.981L400.133 437.95C400.084 437.145 400.042 436.406 399.998 435.641C399.971 435.169 399.944 434.687 399.914 434.174C399.521 434.195 399.138 434.207 398.765 434.219H398.764H398.764H398.764H398.763H398.763H398.763H398.763C397.922 434.245 397.126 434.27 396.349 434.4C395.927 434.47 395.217 435.11 395.264 435.367C395.795 438.215 394.047 438.223 392.089 438.059C391.842 438.038 391.592 438.086 391.333 438.136C391.215 438.159 391.095 438.182 390.973 438.2V441.469C393.792 441.744 395.459 440.842 395.974 438.761C398.361 438.631 399.766 439.539 400.187 441.484H404.236V438.145ZM309.201 453.897V429.961C308.007 429.961 306.818 429.96 305.633 429.96L305.523 429.96H305.52H305.517H305.515H305.512H305.509H305.507H305.504H305.501H305.499H305.496C299.414 429.958 293.439 429.956 287.465 430.008C287.129 430.008 286.505 430.663 286.505 431.022C286.454 434.92 286.431 438.816 286.408 442.712C286.388 445.959 286.369 449.205 286.333 452.454C286.318 453.741 286.77 454.108 288.026 454.1C292.348 454.065 296.673 454.065 300.998 454.066C303.356 454.066 305.713 454.066 308.07 454.061C308.324 454.061 308.578 454.012 308.842 453.962C308.959 453.939 309.079 453.916 309.201 453.897ZM291.389 439.445V448.623C291.626 448.633 291.846 448.637 292.055 448.64H292.055H292.056H292.056H292.056H292.057H292.057H292.057H292.057C292.495 448.647 292.882 448.653 293.261 448.717C295.095 449.013 295.711 448.163 295.602 446.431C295.565 445.796 295.611 445.154 295.657 444.524C295.678 444.233 295.699 443.945 295.711 443.661H301.056V448.709C301.291 448.751 301.497 448.794 301.684 448.832C302.048 448.907 302.338 448.966 302.632 448.982C305.23 449.099 305.362 448.959 305.37 446.321V442.03C305.37 440.189 304.483 439.242 302.71 439.19C302.378 439.18 302.049 439.142 301.68 439.099L301.679 439.099C301.494 439.078 301.298 439.055 301.087 439.034C301.087 438.675 301.096 438.326 301.104 437.983C301.125 437.166 301.145 436.392 301.04 435.633C300.978 435.157 300.447 434.408 300.073 434.369C299.023 434.26 297.957 434.277 296.883 434.294C296.488 434.3 296.092 434.306 295.696 434.306C295.666 434.865 295.688 435.425 295.709 435.956C295.753 437.079 295.793 438.072 295.321 438.644C294.888 439.174 293.894 439.238 292.831 439.306C292.349 439.337 291.853 439.369 291.389 439.445ZM334.997 290.561V290.559C335.011 286.856 335.025 283.288 334.947 279.719C334.916 278.119 335.431 277.737 336.937 277.768C340.419 277.83 343.906 277.819 347.431 277.808H347.432H347.432H347.433H347.433H347.434H347.434H347.435H347.436H347.436C348.814 277.804 350.197 277.799 351.589 277.799V285.687C351.025 285.687 350.458 285.696 349.888 285.706L349.888 285.706C348.566 285.727 347.231 285.749 345.901 285.656C344.099 285.531 343.404 286.038 343.475 287.997C343.579 291.065 343.559 294.134 343.539 297.337V297.338V297.339V297.34V297.341V297.342V297.343V297.344V297.345V297.346C343.53 298.676 343.521 300.03 343.521 301.416C342.388 301.546 341.266 301.674 340.143 301.801L340.14 301.802L340.138 301.802C338.571 301.98 337.003 302.158 335.4 302.344V308.422H324.586V295.073H334.986V295.065C334.986 293.543 334.992 292.05 334.997 290.578V290.576V290.574V290.572V290.569V290.567V290.565V290.563V290.561ZM277.72 323.308V302.282H256.069V323.308H277.72ZM273.99 314.071C273.979 314.44 273.967 314.826 273.967 315.233C272.915 315.233 271.883 315.235 270.866 315.237H270.866H270.865H270.865H270.865H270.865H270.864H270.864H270.864C267.467 315.244 264.239 315.251 261.016 315.178C260.594 315.171 260.025 314.422 259.838 313.899C259.71 313.534 259.737 313.12 259.765 312.701C259.781 312.456 259.797 312.21 259.783 311.972C259.713 310.903 260.173 310.435 261.25 310.443C262.521 310.453 263.793 310.456 265.065 310.458C267.608 310.464 270.152 310.469 272.695 310.536C273.132 310.544 273.827 311.254 273.912 311.73C274.037 312.464 274.015 313.224 273.99 314.071ZM438.495 323.355H417.265V302.212C418.5 302.212 419.731 302.211 420.958 302.211H420.959H420.96H420.96H420.961H420.962H420.962H420.963C426.47 302.208 431.918 302.206 437.371 302.251C437.746 302.251 438.44 302.859 438.448 303.187C438.5 308.739 438.498 314.291 438.495 319.933V319.934V319.935V319.937V319.938V319.939V319.941V319.942L438.495 320.045C438.495 321.145 438.495 322.248 438.495 323.355ZM421.377 314.429C421.206 311.813 422.637 310.52 425.669 310.551L425.675 310.988L425.681 311.429C425.694 312.348 425.707 313.266 425.707 314.188C425.707 314.307 425.669 314.427 425.62 314.58L425.62 314.58L425.62 314.581C425.596 314.657 425.569 314.74 425.543 314.835H421.619C421.577 314.77 421.536 314.715 421.5 314.666C421.429 314.571 421.377 314.502 421.377 314.429ZM425.723 310.505H429.983C430.002 310.353 430.02 310.206 430.038 310.064C430.285 308.125 430.414 307.108 429.967 306.637C429.474 306.118 428.28 306.266 425.767 306.575L425.723 306.581V310.505ZM429.959 319.485V315.288H425.762V319.485H429.959ZM434.332 314.346L434.333 314.342C434.875 310.308 434.889 310.204 430.357 310.864V314.843H434.266C434.289 314.671 434.311 314.506 434.332 314.346ZM255.976 403.934V426.622H277.611V403.934H255.976ZM262.412 410.378H264.269L264.262 410.394V414.209H269.372V410.479H264.589V405.868H269.902V409.925C270.02 410.014 270.104 410.091 270.169 410.15C270.265 410.236 270.321 410.288 270.386 410.292C272.68 410.531 273.827 411.829 273.827 414.185C273.827 414.789 273.816 415.394 273.806 415.998C273.781 417.409 273.757 418.82 273.866 420.224C274.009 422.048 272.989 422.068 271.828 422.09C271.728 422.091 271.627 422.093 271.525 422.097C270.277 422.128 269.278 421.987 269.504 420.333C269.55 420.009 269.54 419.672 269.527 419.251L269.527 419.251C269.52 419.024 269.512 418.772 269.512 418.484C269.078 418.484 268.651 418.477 268.23 418.47H268.229C267.081 418.45 265.973 418.431 264.878 418.562C264.566 418.601 264.121 419.654 264.16 420.208C264.285 421.862 263.513 422.175 262.069 422.143C260.626 422.104 259.697 421.862 259.768 420.107C259.833 418.425 259.818 416.738 259.804 415.054V415.053V415.053V415.053V415.053V415.053V415.052C259.797 414.331 259.791 413.61 259.791 412.89C259.796 411.2 260.67 410.362 262.412 410.378ZM342.195 252.498H335.009C335.009 253.871 335.013 255.229 335.018 256.575V256.576V256.576V256.577V256.578C335.029 260.001 335.039 263.349 334.978 266.697C334.947 268.296 335.415 268.835 337.061 268.811C341.768 268.754 346.478 268.752 351.188 268.751H351.188H351.188H351.188H351.188C353.543 268.75 355.897 268.749 358.251 268.741C358.696 268.741 359.136 268.695 359.578 268.648C359.765 268.629 359.952 268.609 360.139 268.593V252.521H353.024V258.177L355.918 258.357V263.951C353.297 264.304 351.82 263.503 351.487 261.548H344.02C343.975 261.82 343.969 262.105 343.962 262.383C343.941 263.348 343.922 264.224 342.28 264.169C342.155 264.165 342.035 264.162 341.92 264.158L341.92 264.158C339.628 264.09 339.628 264.09 339.628 261.556V258.841L339.831 258.786L339.831 258.786C340.707 258.551 341.484 258.342 342.195 258.154V252.498ZM312.15 391.404H320.529V400.415C320.529 401.457 320.538 402.499 320.548 403.541L320.548 403.543C320.569 405.948 320.591 408.352 320.498 410.753C320.428 412.602 320.966 413.429 322.862 413.163C323.15 413.121 323.45 413.157 323.783 413.197L323.783 413.197L323.784 413.197L323.784 413.197C323.946 413.216 324.117 413.236 324.298 413.249V417.657H312.142V391.404H312.15ZM311.947 323.762V323.768H311.955L311.947 323.762ZM311.947 323.706V323.762L311.885 323.706H311.947ZM311.947 323.706V309.101H324.336V311.566C324.166 311.584 324.001 311.604 323.838 311.623L323.837 311.623C323.566 311.656 323.301 311.687 323.034 311.707C321.34 311.824 320.467 312.619 320.506 314.43C320.549 316.543 320.54 318.657 320.53 320.829V320.829V320.83V320.832V320.835C320.526 321.779 320.521 322.735 320.521 323.706H311.947ZM350.036 253.684H345.542C344.683 258.167 344.904 258.142 349.413 257.631C349.612 257.609 349.82 257.585 350.036 257.561V253.684Z" fill="url(#paint0_linear_477_4)"/>
<mask id="mask0_477_4" style="mask-type:alpha" maskUnits="userSpaceOnUse" x="288" y="274" width="124" height="75">
<path d="M326.042 274.89H371.071L411.49 348.638H288.459L326.042 274.89Z" fill="#D9D9D9"/>
</mask>
<g mask="url(#mask0_477_4)">
<path fill-rule="evenodd" clip-rule="evenodd" d="M351.706 245V252.482C351.583 251.946 351.491 251.537 351.405 251.16L351.405 251.158C351.316 250.767 351.235 250.41 351.136 249.978C350.629 249.978 350.111 249.965 349.587 249.952C348.241 249.918 346.854 249.884 345.495 250.063C345.044 250.12 344.647 250.597 344.166 251.175C343.916 251.476 343.642 251.805 343.326 252.115C343.418 251.012 343.506 249.958 343.592 248.931C343.705 247.589 343.813 246.295 343.919 245H351.706ZM239.3 357.254L238 357.348V373.342C240.419 373.521 242.837 373.701 245.451 373.896V379.919H263.052C263.088 379.22 263.124 378.534 263.159 377.849L263.16 377.837L263.16 377.836L263.16 377.836L263.16 377.835L263.16 377.835L263.16 377.835L263.16 377.834L263.16 377.834L263.16 377.834L263.16 377.833L263.16 377.833L263.16 377.833L263.16 377.832L263.16 377.832L263.16 377.832L263.16 377.831L263.16 377.831L263.16 377.831L263.16 377.83C263.231 376.455 263.302 375.079 263.38 373.599H270.971V357.044H267.983H267.983C263.52 357.067 263.497 357.067 263.419 361.421C263.395 362.63 263.083 363.254 261.741 363.137C260.957 363.068 260.165 363.082 259.289 363.098H259.288H259.288H259.287H259.287H259.286H259.286H259.285H259.285H259.284H259.284H259.283H259.283H259.282H259.282H259.281H259.281C258.878 363.106 258.458 363.114 258.012 363.114V373.287H250.834V362.747H257.934V356.81H263.146V349.889H245.349V356.817C243.239 356.969 241.291 357.11 239.371 357.249L239.336 357.251L239.31 357.253L239.3 357.254ZM311.986 460.856V475.157V475.165H366.506C367.159 475.138 367.814 475.105 368.468 475.072L368.469 475.072C369.877 475.002 371.287 474.931 372.693 474.915C375.182 474.888 377.672 474.895 380.179 474.902H380.18H380.18H380.18H380.181H380.181H380.182H380.182H380.183H380.183H380.183H380.184H380.184H380.185H380.185H380.185H380.186H380.186H380.187H380.193H380.199H380.206H380.212H380.219H380.225H380.232H380.238C381.342 474.905 382.449 474.908 383.561 474.908V460.848H375.103V467.706H320.443V460.856H311.986ZM311.877 323.712V323.706L311.861 323.698L311.877 323.712ZM311.877 323.773V323.712L311.931 323.761L311.877 323.773ZM383.694 323.843C384.246 323.877 384.798 323.912 385.351 323.948L385.352 323.948C386.695 324.035 388.038 324.122 389.381 324.182C390.206 324.219 391.034 324.209 391.902 324.199C392.315 324.195 392.738 324.19 393.173 324.19V336.962C393.173 337.178 393.13 337.398 393.088 337.617L393.088 337.617L393.088 337.617C393.055 337.784 393.023 337.951 393.009 338.116C392.822 340.457 392.931 340.574 395.209 340.574H402.13C402.149 340.749 402.175 340.917 402.199 341.079C402.244 341.372 402.286 341.648 402.286 341.924C402.283 345.261 402.276 348.598 402.269 351.935C402.255 358.608 402.242 365.28 402.262 371.953C402.262 373.326 401.864 373.771 400.499 373.717C398.885 373.651 397.268 373.665 395.581 373.68H395.581H395.581H395.581H395.58H395.58H395.58H395.579H395.579H395.579H395.579H395.578H395.578H395.578H395.577H395.577H395.577H395.575H395.573H395.57H395.568H395.566C394.827 373.687 394.076 373.693 393.306 373.693V390.896C392.49 390.896 391.693 390.906 390.909 390.915C389.083 390.936 387.329 390.956 385.582 390.857C384.006 390.772 383.592 391.294 383.608 392.839C383.66 398.39 383.652 403.945 383.644 409.501V409.502V409.502V409.503V409.503V409.503V409.504V409.504V409.505V409.505V409.505V409.506V409.506V409.507V409.507V409.508V409.508C383.642 411.493 383.639 413.479 383.639 415.465V417.798C382.603 417.798 381.581 417.806 380.569 417.814L380.564 417.814H380.564H380.564H380.564H380.563H380.563H380.563H380.563H380.563H380.563H380.563H380.562H380.562H380.562H380.562H380.562H380.562C378.145 417.833 375.784 417.852 373.426 417.759C371.593 417.688 371.023 418.32 371.148 420.107C371.25 421.565 371.227 423.03 371.202 424.573V424.573L371.202 424.576V424.576V424.577V424.577V424.577V424.577V424.577V424.577V424.577V424.578V424.578V424.578V424.578V424.578C371.191 425.28 371.179 425.998 371.179 426.739C370.269 426.739 369.371 426.745 368.482 426.751H368.481C366.336 426.765 364.24 426.779 362.145 426.707C360.686 426.661 360.179 427.152 360.249 428.595C360.35 430.476 360.327 432.364 360.264 434.252C360.225 435.664 360.756 436.202 362.215 436.156C364.362 436.089 366.512 436.101 368.74 436.114H368.74H368.741H368.741H368.742H368.743H368.743H368.744H368.745H368.745H368.746H368.747H368.747H368.748H368.749H368.749H368.75C369.66 436.119 370.582 436.124 371.523 436.124C371.523 437.024 371.522 437.912 371.521 438.793C371.519 440.532 371.517 442.241 371.523 443.95C371.529 445.132 370.787 445.109 370.066 445.087C369.955 445.083 369.844 445.08 369.736 445.081C366.326 445.086 362.916 445.084 359.507 445.083H359.484C357.776 445.082 356.067 445.081 354.358 445.081H351.885C351.885 445.63 351.881 446.167 351.876 446.694V446.695C351.867 447.897 351.857 449.052 351.901 450.207C351.948 451.408 351.628 452.001 350.286 451.947C348.801 451.887 347.312 451.899 345.742 451.912C345.061 451.918 344.364 451.923 343.646 451.923V445.175H324.641V436.124C325.466 436.124 326.293 436.118 327.121 436.112C329.054 436.097 330.992 436.082 332.926 436.148C334.518 436.202 335.127 435.687 335.033 434.033C334.941 432.427 334.961 430.814 334.983 429.116V429.116V429.115V429.115V429.115V429.115V429.115V429.115V429.115V429.115V429.114V429.114V429.114V429.114V429.114V429.114V429.114V429.113V429.112V429.112V429.111V429.11V429.109V429.109V429.108V429.107V429.106V429.106V429.105V429.104V429.103V429.103V429.102C334.992 428.346 335.002 427.574 335.002 426.778H324.594V417.876C325.501 417.876 326.402 417.878 327.299 417.881C329.527 417.887 331.73 417.893 333.933 417.86C335.064 417.844 335.384 418.336 335.353 419.397C335.327 420.323 335.334 421.25 335.342 422.176C335.35 423.2 335.358 424.224 335.322 425.248C335.275 426.45 335.735 426.856 336.905 426.824C338.382 426.781 339.855 426.79 341.408 426.8L341.412 426.8C342.097 426.804 342.798 426.809 343.521 426.809C343.521 427.561 343.526 428.298 343.531 429.026V429.026V429.027V429.027V429.027V429.028V429.028V429.028V429.029V429.029V429.029V429.03V429.03V429.03V429.031V429.031V429.031C343.542 430.763 343.553 432.437 343.498 434.111C343.459 435.383 343.904 435.843 345.183 435.797C346.674 435.742 348.166 435.752 349.73 435.764C350.392 435.768 351.067 435.773 351.76 435.773V426.809C352.481 426.809 353.183 426.803 353.871 426.798H353.872C355.463 426.785 356.982 426.772 358.501 426.832C359.851 426.879 360.358 426.403 360.311 425.038C360.256 423.452 360.267 421.859 360.278 420.201V420.201V420.201V420.2V420.2V420.2V420.2V420.2V420.2V420.199V420.199V420.199V420.199V420.199V420.198V420.198V420.198C360.283 419.499 360.288 418.789 360.288 418.063H370.852C370.852 417.698 370.86 417.353 370.868 417.02C370.884 416.328 370.899 415.694 370.836 415.067C370.688 413.577 371.351 413.007 372.748 413.194C374.589 413.452 375.166 412.734 375.135 410.846C375.05 406.192 375.064 401.533 375.078 396.77V396.77V396.769V396.769V396.769V396.769V396.769V396.768V396.768V396.768V396.768V396.768V396.767V396.767V396.767V396.767V396.767V396.765V396.763V396.762V396.76V396.759V396.757V396.755V396.754V396.752V396.75V396.748V396.747V396.745V396.743V396.741V396.74C375.083 394.941 375.088 393.128 375.088 391.294C375.772 391.294 376.445 391.287 377.111 391.28H377.112H377.112H377.113H377.113H377.114H377.114H377.115H377.115H377.115H377.116H377.116H377.117H377.117H377.118H377.118H377.119C378.623 391.263 380.09 391.247 381.548 391.318C383.101 391.396 383.725 390.959 383.694 389.266C383.621 385.659 383.633 382.052 383.645 378.343C383.65 376.909 383.655 375.46 383.655 373.99H311.947V390.795H302.772V373.763H293.807V340.582C294.499 340.582 295.193 340.576 295.889 340.571C297.55 340.558 299.221 340.545 300.892 340.605C302.241 340.652 302.709 340.207 302.686 338.826C302.634 335.305 302.642 331.783 302.649 328.169V328.169V328.168V328.168V328.167V328.167V328.166V328.166V328.165V328.165V328.165V328.164V328.164V328.163V328.163V328.162V328.162L302.649 328.154C302.652 326.849 302.655 325.531 302.655 324.198C303.333 324.198 304.001 324.2 304.662 324.202L304.666 324.202H304.667C306.458 324.208 308.194 324.214 309.926 324.174C310.397 324.163 310.868 324.037 311.337 323.911C311.517 323.863 311.697 323.815 311.877 323.773V340.043H303.068V348.516H392.838C392.838 347.906 392.84 347.308 392.843 346.719V346.716V346.712V346.709V346.706V346.702V346.699V346.696V346.693V346.69V346.687V346.684V346.681V346.678V346.675V346.673C392.851 344.705 392.859 342.842 392.775 340.98C392.76 340.683 391.855 340.215 391.347 340.199C389.517 340.141 387.686 340.148 385.739 340.155H385.737H385.735H385.732H385.73H385.728H385.726C385.063 340.158 384.388 340.16 383.694 340.16V323.843ZM383.623 323.776H383.686H383.686L383.694 323.768V323.843L383.631 323.839L383.623 323.846V323.776ZM383.623 323.776H375.127C375.127 322.718 375.129 321.679 375.13 320.653V320.65V320.647V320.644V320.641V320.638C375.134 318.628 375.137 316.667 375.127 314.703C375.111 312.268 374.854 311.925 372.49 311.964C371.179 311.98 370.734 311.519 370.867 310.263C370.904 309.928 370.869 309.583 370.83 309.204C370.812 309.027 370.794 308.842 370.781 308.648C370.427 308.628 370.084 308.61 369.733 308.59C369.117 308.557 368.475 308.521 367.699 308.477C367.699 308.148 367.695 307.821 367.691 307.495V307.494C367.681 306.736 367.671 305.984 367.715 305.231C367.785 303.936 367.309 303.124 365.983 302.898C365.865 302.879 365.751 302.837 365.636 302.796C365.567 302.771 365.499 302.747 365.429 302.727L365.397 302.718C360.467 301.338 360.428 301.327 360.327 296.243C360.303 294.987 359.929 294.503 358.641 294.558C357.195 294.618 355.746 294.605 354.244 294.592H354.244H354.243H354.243H354.242H354.242C353.597 294.587 352.943 294.581 352.275 294.581V286.108H360.436V294.964C361.343 294.964 362.236 294.972 363.117 294.98H363.118H363.118H363.119H363.12H363.12C365.216 294.999 367.249 295.018 369.275 294.925C371.046 294.847 371.655 295.346 371.585 297.203C371.48 299.909 371.5 302.619 371.521 305.405C371.529 306.555 371.538 307.717 371.538 308.898H383.623V323.776ZM302.92 358.906L302.92 358.903C302.924 358.286 302.928 357.664 302.928 357.036L392.83 357.044V364.167C392.838 365.095 392.518 365.517 391.449 365.517C375.043 365.512 358.64 365.522 342.237 365.533H342.235H342.234H342.232H342.231H342.229H342.228H342.226H342.224H342.223H342.221H342.22H342.218H342.217H342.215H342.214H342.212C332.366 365.539 322.52 365.545 312.672 365.548C309.887 365.548 307.094 365.517 304.317 365.368C303.841 365.345 303.014 364.697 302.99 364.307C302.897 362.527 302.908 360.739 302.92 358.906ZM431.754 356.81V356.794L431.754 356.802H431.793V356.833V356.841L431.754 356.802L431.754 356.81L431.754 356.81ZM431.757 356.852L431.754 356.81L431.8 356.849L431.757 356.852ZM431.757 356.852C431.826 358.124 431.899 359.393 431.978 360.769C432.014 361.39 432.051 362.033 432.089 362.708C432.443 362.708 432.8 362.713 433.158 362.718H433.158H433.159H433.16H433.16H433.161H433.162H433.163H433.163H433.164H433.165H433.165H433.166H433.166H433.167H433.167H433.167H433.167H433.167H433.168H433.168H433.168H433.168H433.168H433.169H433.169H433.169H433.169H433.169C433.997 362.729 434.832 362.741 435.662 362.692C436.684 362.63 437.09 363.02 437.02 364.026C436.958 364.898 436.917 365.773 436.875 366.65L436.875 366.658L436.875 366.664L436.874 366.671L436.874 366.677L436.859 367L436.845 367.278C436.839 367.406 436.833 367.534 436.826 367.662C438.361 367.678 439.897 367.691 441.434 367.705C442.967 367.718 444.5 367.732 446.031 367.747V362.762C446.391 362.762 446.746 362.755 447.097 362.747C447.854 362.73 448.593 362.714 449.324 362.778C450.634 362.895 451.056 362.341 450.985 361.093C450.932 360.215 450.944 359.337 450.958 358.419V358.418V358.418V358.418C450.964 357.998 450.97 357.57 450.97 357.129H458.764V364.69C458.764 365.418 458.757 366.146 458.75 366.874C458.733 368.549 458.717 370.224 458.787 371.898C458.842 373.295 458.327 373.716 456.993 373.654C455.647 373.594 454.297 373.606 452.888 373.619C452.279 373.625 451.66 373.631 451.024 373.631V379.903H432.066V373.67C431.431 373.67 430.814 373.666 430.211 373.663C428.804 373.655 427.466 373.647 426.128 373.685C425.192 373.709 424.638 373.506 424.646 372.437C424.659 369.726 424.663 367.018 424.666 364.31C424.668 362.279 424.67 360.247 424.677 358.214C424.677 358.055 424.734 357.893 424.794 357.725C424.824 357.637 424.856 357.548 424.88 357.457C427.198 357.256 429.477 357.054 431.757 356.852ZM431.793 356.802V350.1H450.954C450.903 350.85 450.851 351.593 450.799 352.345L450.798 352.367C450.7 353.774 450.6 355.216 450.494 356.802H431.793ZM435.812 367.773C436.139 367.75 436.464 367.727 436.788 367.697C436.845 368.626 436.9 369.555 436.956 370.506L436.957 370.522L436.957 370.528C437.008 371.379 437.059 372.247 437.113 373.147H431.91C431.91 372.772 431.9 372.396 431.89 372.02C431.865 371.055 431.839 370.09 431.98 369.152C432.042 368.715 432.869 368.185 433.423 368.06C434.202 367.884 435.009 367.828 435.812 367.773ZM445.703 372.967C445.834 371.191 445.957 369.505 446.08 367.82C446.251 367.829 446.422 367.84 446.593 367.852C446.921 367.874 447.248 367.896 447.576 367.896C450.9 367.896 451.937 369.238 450.97 372.437C450.868 372.78 450.26 373.201 449.877 373.201C448.996 373.218 448.114 373.148 447.122 373.071L447.12 373.071C446.673 373.036 446.204 372.999 445.703 372.967ZM309.091 269.264H286.333C286.333 270.631 286.332 271.992 286.331 273.348V273.353V273.358V273.364V273.369V273.374V273.379V273.385V273.39V273.395V273.4V273.406V273.411V273.416V273.421V273.422V273.423V273.423V273.423V273.424V273.424V273.424V273.424V273.425V273.425V273.425V273.426V273.426V273.426C286.328 279.833 286.325 286.123 286.395 292.412C286.403 292.787 287.363 293.466 287.885 293.473C293.978 293.582 300.077 293.61 306.177 293.638H306.177L307.702 293.645C308.041 293.645 308.376 293.578 308.687 293.517C308.827 293.489 308.963 293.462 309.091 293.442V269.264ZM294.244 283.261H300.587H300.595C300.595 282.949 300.597 282.676 300.599 282.427V282.427V282.427V282.427V282.427V282.427V282.427V282.426V282.426V282.426V282.426V282.426V282.426V282.426V282.426C300.602 281.989 300.605 281.626 300.595 281.263C300.527 278.725 299.211 277.451 296.647 277.44H294.361C294.318 277.337 294.273 277.249 294.234 277.171L294.234 277.171C294.16 277.025 294.104 276.913 294.104 276.801C294.099 276.492 294.093 276.209 294.088 275.948C294.056 274.249 294.042 273.522 294.393 273.221C294.656 272.995 295.123 273.007 295.939 273.029C296.405 273.041 296.986 273.057 297.708 273.032C298.381 273.012 299.054 273.018 299.784 273.025H299.784H299.784H299.784H299.785H299.785H299.785H299.785H299.785H299.786H299.786H299.786H299.787H299.787C300.173 273.029 300.574 273.032 301 273.032C301.071 274.585 301.141 276.036 301.211 277.448C301.613 277.514 302.012 277.563 302.404 277.611L302.404 277.611L302.404 277.611L302.404 277.611L302.404 277.611L302.404 277.611L302.404 277.611L302.404 277.611L302.405 277.611L302.405 277.611L302.405 277.611L302.405 277.611L302.405 277.611L302.405 277.611L302.405 277.611C303.399 277.732 304.347 277.848 305.174 278.228C305.426 278.341 305.404 279.033 305.382 279.748C305.37 280.122 305.358 280.503 305.385 280.811C305.582 283.168 304.393 283.077 303.15 282.982C302.419 282.926 301.669 282.868 301.172 283.308C301.166 283.39 301.159 283.481 301.151 283.58C301.125 283.887 301.094 284.264 301.094 284.642C301.09 285.062 301.094 285.429 301.098 285.749C301.109 286.772 301.114 287.314 300.847 287.6C300.546 287.923 299.898 287.921 298.521 287.919H298.521H298.519C298.326 287.918 298.118 287.918 297.895 287.918C293.557 287.934 293.526 287.887 294.244 283.261ZM386.877 269.295H408.839V293.45H386.877V269.295ZM404.915 283.292H390.996C390.996 283.573 391.005 283.839 391.014 284.094C391.032 284.617 391.049 285.093 390.981 285.554C390.692 287.458 391.472 288.059 393.337 287.957C395.133 287.86 396.933 287.883 398.734 287.906H398.734H398.735H398.735H398.735H398.735H398.735H398.735H398.736H398.736H398.736H398.736H398.736H398.737H398.737C399.524 287.916 400.312 287.926 401.1 287.926C403.961 287.926 405.232 286.384 404.915 283.3V283.292ZM394.975 277.308C400.522 277.823 401.193 277.245 400.078 273.157H394.975V277.308ZM438.487 426.614V403.933H417.257V426.614H438.487ZM423.959 411.041H434.43C434.43 411.402 434.44 411.748 434.45 412.082V412.082C434.474 412.865 434.495 413.582 434.375 414.271C434.305 414.7 433.649 415.332 433.244 415.34C429.569 415.434 425.886 415.457 422.204 415.387C421.798 415.379 421.112 414.739 421.049 414.326C420.62 411.314 420.893 411.041 423.959 411.041ZM386.893 430.062H408.769V453.967H386.893V430.062ZM404.213 448.217H400.018C399.474 444.281 400.185 443.688 404.213 444.753V448.217ZM399.984 448.256H395.81L395.805 448.139L395.804 448.128C395.745 446.841 395.699 445.856 395.646 444.769H391.043V448.35H395.303V451.845H399.984V448.256ZM404.236 438.145C403.52 438.111 402.857 438.08 402.214 438.049L401.756 438.027C401.435 438.011 401.118 437.996 400.799 437.981L400.133 437.95C400.084 437.145 400.042 436.405 399.998 435.641C399.971 435.169 399.944 434.687 399.914 434.174C399.521 434.195 399.138 434.207 398.765 434.219H398.764H398.764H398.764H398.763H398.763H398.763H398.763C397.922 434.245 397.126 434.27 396.349 434.4C395.927 434.47 395.217 435.11 395.264 435.367C395.795 438.215 394.047 438.223 392.089 438.059C391.842 438.038 391.592 438.086 391.333 438.136C391.215 438.159 391.095 438.182 390.973 438.199V441.469C393.792 441.744 395.459 440.842 395.974 438.761C398.361 438.631 399.766 439.539 400.187 441.484H404.236V438.145ZM309.201 453.897V429.961C308.007 429.961 306.818 429.96 305.633 429.96L305.523 429.96H305.52H305.517H305.515H305.512H305.509H305.507H305.504H305.501H305.499H305.496C299.414 429.958 293.439 429.956 287.465 430.007C287.129 430.007 286.505 430.663 286.505 431.022C286.454 434.92 286.431 438.816 286.408 442.712C286.388 445.959 286.369 449.205 286.333 452.454C286.318 453.741 286.77 454.108 288.026 454.1C292.348 454.065 296.673 454.065 300.998 454.066C303.356 454.066 305.713 454.066 308.07 454.061C308.324 454.061 308.578 454.012 308.842 453.962C308.959 453.939 309.079 453.916 309.201 453.897ZM291.389 439.445V448.623C291.626 448.633 291.846 448.637 292.055 448.64H292.055H292.056H292.056H292.056H292.057H292.057H292.057H292.057C292.495 448.647 292.882 448.653 293.261 448.717C295.095 449.013 295.711 448.163 295.602 446.431C295.565 445.796 295.611 445.153 295.657 444.524C295.678 444.233 295.699 443.945 295.711 443.661H301.056V448.709C301.291 448.751 301.497 448.794 301.684 448.832C302.048 448.907 302.338 448.966 302.632 448.982C305.23 449.099 305.362 448.958 305.37 446.321V442.03C305.37 440.189 304.483 439.242 302.71 439.19C302.378 439.18 302.049 439.142 301.68 439.099L301.679 439.099C301.494 439.078 301.298 439.055 301.087 439.034C301.087 438.675 301.096 438.326 301.104 437.983C301.125 437.166 301.145 436.392 301.04 435.633C300.978 435.157 300.447 434.408 300.073 434.369C299.023 434.26 297.957 434.277 296.883 434.294C296.488 434.3 296.092 434.306 295.696 434.306C295.666 434.865 295.688 435.425 295.709 435.956C295.753 437.079 295.793 438.072 295.321 438.644C294.888 439.174 293.894 439.238 292.831 439.306C292.349 439.337 291.853 439.369 291.389 439.445ZM334.997 290.561V290.559C335.011 286.856 335.025 283.287 334.947 279.719C334.916 278.119 335.431 277.737 336.937 277.768C340.419 277.83 343.906 277.819 347.431 277.808H347.432H347.432H347.433H347.433H347.434H347.434H347.435H347.436H347.436C348.814 277.804 350.197 277.799 351.589 277.799V285.687C351.025 285.687 350.458 285.696 349.888 285.705L349.888 285.705C348.566 285.727 347.231 285.749 345.901 285.656C344.099 285.531 343.404 286.038 343.475 287.996C343.579 291.065 343.559 294.134 343.539 297.337V297.338V297.339V297.34V297.341V297.342V297.343V297.344V297.345V297.346C343.53 298.676 343.521 300.03 343.521 301.416C342.388 301.546 341.266 301.674 340.143 301.801L340.14 301.802L340.138 301.802C338.571 301.98 337.003 302.158 335.4 302.344V308.422H324.586V295.073H334.986V295.065C334.986 293.543 334.992 292.05 334.997 290.578V290.576V290.574V290.572V290.569V290.567V290.565V290.563V290.561ZM277.72 323.308V302.282H256.069V323.308H277.72ZM273.99 314.071C273.979 314.44 273.967 314.826 273.967 315.233C272.915 315.233 271.883 315.235 270.866 315.237H270.866H270.865H270.865H270.865H270.865H270.864H270.864H270.864C267.467 315.244 264.239 315.25 261.016 315.178C260.594 315.171 260.025 314.422 259.838 313.899C259.71 313.534 259.737 313.12 259.765 312.701C259.781 312.456 259.797 312.21 259.783 311.972C259.713 310.903 260.173 310.435 261.25 310.443C262.521 310.453 263.793 310.456 265.065 310.458C267.608 310.463 270.152 310.469 272.695 310.536C273.132 310.544 273.827 311.254 273.912 311.73C274.037 312.464 274.015 313.224 273.99 314.071ZM438.495 323.355H417.265V302.211C418.5 302.211 419.731 302.211 420.958 302.21H420.959H420.96H420.96H420.961H420.962H420.962H420.963C426.47 302.208 431.918 302.206 437.371 302.25C437.746 302.25 438.44 302.859 438.448 303.187C438.5 308.739 438.498 314.291 438.495 319.933V319.934V319.935V319.937V319.938V319.939V319.94V319.942L438.495 320.045C438.495 321.145 438.495 322.248 438.495 323.355ZM421.377 314.429C421.206 311.813 422.637 310.52 425.669 310.551L425.675 310.988L425.681 311.429C425.694 312.348 425.707 313.266 425.707 314.187C425.707 314.307 425.669 314.427 425.62 314.58L425.62 314.58L425.62 314.581C425.596 314.657 425.569 314.74 425.543 314.835H421.619C421.577 314.77 421.536 314.715 421.5 314.666C421.429 314.571 421.377 314.502 421.377 314.429ZM425.723 310.505H429.983C430.002 310.353 430.02 310.206 430.038 310.064C430.285 308.125 430.414 307.108 429.967 306.637C429.474 306.118 428.28 306.265 425.767 306.575L425.723 306.581V310.505ZM429.959 319.485V315.288H425.762V319.485H429.959ZM434.332 314.346L434.333 314.342C434.875 310.308 434.889 310.204 430.357 310.864V314.843H434.266C434.289 314.671 434.311 314.506 434.332 314.346ZM255.976 403.933V426.622H277.611V403.933H255.976ZM262.412 410.378H264.269L264.262 410.393V414.209H269.372V410.479H264.589V405.868H269.902V409.925C270.02 410.014 270.104 410.09 270.169 410.15C270.265 410.236 270.321 410.287 270.386 410.292C272.68 410.531 273.827 411.829 273.827 414.185C273.827 414.789 273.816 415.394 273.806 415.998C273.781 417.409 273.757 418.82 273.866 420.224C274.009 422.048 272.989 422.068 271.828 422.09C271.728 422.091 271.627 422.093 271.525 422.096C270.277 422.128 269.278 421.987 269.504 420.333C269.55 420.009 269.54 419.672 269.527 419.251L269.527 419.251C269.52 419.024 269.512 418.772 269.512 418.484C269.078 418.484 268.651 418.477 268.23 418.47H268.229C267.081 418.45 265.973 418.431 264.878 418.562C264.566 418.601 264.121 419.654 264.16 420.208C264.285 421.862 263.513 422.174 262.069 422.143C260.626 422.104 259.697 421.862 259.768 420.107C259.833 418.425 259.818 416.738 259.804 415.054V415.053V415.053V415.053V415.053V415.052V415.052C259.797 414.331 259.791 413.61 259.791 412.89C259.796 411.2 260.67 410.362 262.412 410.378ZM342.195 252.497H335.009C335.009 253.871 335.013 255.229 335.018 256.575V256.575V256.576V256.577V256.578C335.029 260.001 335.039 263.349 334.978 266.697C334.947 268.296 335.415 268.835 337.061 268.811C341.768 268.754 346.478 268.752 351.188 268.751H351.188H351.188H351.188H351.188C353.543 268.75 355.897 268.749 358.251 268.741C358.696 268.741 359.136 268.695 359.578 268.648C359.765 268.629 359.952 268.609 360.139 268.593V252.521H353.024V258.177L355.918 258.357V263.951C353.297 264.304 351.82 263.503 351.487 261.548H344.02C343.975 261.82 343.969 262.105 343.962 262.383C343.941 263.347 343.922 264.224 342.28 264.169C342.155 264.165 342.035 264.161 341.92 264.158L341.92 264.158C339.628 264.09 339.628 264.09 339.628 261.555V258.84L339.831 258.786L339.831 258.786C340.707 258.551 341.484 258.342 342.195 258.154V252.497ZM312.15 391.404H320.529V400.415C320.529 401.457 320.538 402.499 320.548 403.541L320.548 403.543C320.569 405.948 320.591 408.352 320.498 410.752C320.428 412.602 320.966 413.429 322.862 413.163C323.15 413.121 323.45 413.157 323.783 413.197L323.783 413.197L323.784 413.197L323.784 413.197C323.946 413.216 324.117 413.236 324.298 413.249V417.657H312.142V391.404H312.15ZM311.947 323.761V323.768H311.955L311.947 323.761ZM311.947 323.706V323.761L311.885 323.706H311.947ZM311.947 323.706V309.101H324.336V311.566C324.166 311.584 324.001 311.604 323.838 311.623C323.566 311.655 323.301 311.687 323.034 311.707C321.34 311.824 320.467 312.619 320.506 314.429C320.549 316.543 320.54 318.657 320.53 320.829V320.829V320.829V320.832V320.834C320.526 321.779 320.521 322.735 320.521 323.706H311.947ZM350.036 253.684H345.542C344.683 258.167 344.904 258.142 349.413 257.631C349.612 257.609 349.82 257.585 350.036 257.561V253.684Z" fill="white"/>
</g>
<rect x="372.042" y="303.856" width="7.80022" height="7.80022" fill="white"/>
<rect x="364.241" y="305.984" width="7.80022" height="7.80022" fill="white"/>
<rect x="356.441" y="308.111" width="7.80022" height="7.80022" fill="white"/>
<rect x="348.641" y="310.238" width="7.80022" height="7.80022" fill="white"/>
<rect x="384.805" y="323.711" width="7.80022" height="7.80022" fill="white"/>
<rect x="377.005" y="327.966" width="7.80022" height="7.80022" fill="white"/>
<rect x="369.205" y="330.093" width="7.80022" height="7.80022" fill="white"/>
<rect x="361.405" y="332.221" width="7.80022" height="7.80022" fill="white"/>
<rect x="353.604" y="334.348" width="7.80022" height="7.80022" fill="white"/>
<defs>
<linearGradient id="paint0_linear_477_4" x1="238" y1="254.511" x2="469.2" y2="463.659" gradientUnits="userSpaceOnUse">
<stop stop-color="#2CA8DE"/>
<stop offset="0.5" stop-color="#ED75AF"/>
<stop offset="1" stop-color="#FFE600"/>
</linearGradient>
</defs>
</svg>
