<svg width="311" height="325" viewBox="0 0 311 325" fill="none" xmlns="http://www.w3.org/2000/svg">
<g clip-path="url(#clip0_412_128)">
<path fill-rule="evenodd" clip-rule="evenodd" d="M160.35 0V10.5513C160.177 9.79439 160.046 9.21812 159.926 8.68542C159.801 8.13411 159.686 7.62948 159.547 7.01955C158.831 7.01955 158.101 7.0014 157.362 6.98302C155.464 6.93584 153.508 6.8872 151.592 7.14058C150.956 7.2201 150.395 7.89332 149.718 8.70776C149.364 9.13289 148.978 9.5965 148.533 10.0342C148.662 8.47888 148.787 6.9918 148.908 5.5434C149.067 3.65162 149.22 1.82581 149.369 0H160.35ZM1.86545 158.3L0 158.435V180.99C3.41076 181.243 6.82151 181.496 10.5073 181.771V190.265H35.3288C35.38 189.278 35.43 188.31 35.4799 187.341L35.48 187.34L35.4804 187.331L35.4808 187.323L35.4811 187.319C35.5811 185.379 35.6811 183.439 35.7909 181.353H46.4963V158.006H42.2824H42.2818C35.989 158.039 35.956 158.039 35.8459 164.178C35.8129 165.884 35.3728 166.764 33.4804 166.599C32.3741 166.501 31.2575 166.522 30.0215 166.544H30.0209H30.0204H30.0198H30.0193H30.0187H30.0181H30.0175H30.0168H30.0162H30.0156H30.0149H30.0142H30.0135H30.0128H30.0121H30.0114H30.0107H30.0099C29.4424 166.555 28.8497 166.566 28.2212 166.566V180.913H18.099V166.049H28.1112V157.676H35.4609V147.917H10.3643V157.687C7.36327 157.902 4.59565 158.102 1.86545 158.3ZM104.336 304.404V324.572V324.583H181.221C182.143 324.544 183.065 324.498 183.989 324.452C185.975 324.352 187.963 324.253 189.946 324.23C193.451 324.192 196.957 324.202 200.488 324.211H200.49H200.491H200.493H200.494H200.495H200.497H200.498H200.5H200.501H200.503H200.504H200.505H200.507H200.508H200.51H200.511H200.512H200.514C202.094 324.215 203.679 324.219 205.272 324.219V304.393H193.345V314.064H116.262V304.404H104.336ZM104.182 111.001V110.993L104.16 110.982L104.182 111.001ZM104.182 111.087V111.001L104.259 111.07L104.229 111.076L104.182 111.087ZM205.46 111.186C206.236 111.233 207.012 111.283 207.789 111.334L207.796 111.334C209.691 111.457 211.586 111.579 213.48 111.664C214.643 111.716 215.811 111.702 217.035 111.688C217.618 111.682 218.214 111.675 218.828 111.675V129.686C218.828 129.992 218.767 130.301 218.707 130.61C218.661 130.846 218.616 131.081 218.597 131.314C218.332 134.615 218.486 134.78 221.699 134.78H231.458C231.486 135.027 231.522 135.263 231.556 135.492L231.556 135.492L231.557 135.492L231.557 135.492C231.619 135.905 231.678 136.294 231.678 136.683C231.675 141.389 231.665 146.095 231.655 150.801V150.809C231.636 160.217 231.616 169.624 231.645 179.032C231.645 180.968 231.084 181.595 229.159 181.518C226.883 181.426 224.602 181.446 222.224 181.467H222.223H222.223H222.222H222.222H222.222H222.221H222.221H222.221H222.22H222.22H222.219H222.219H222.219H222.218H222.218H222.218H222.216C221.17 181.476 220.106 181.485 219.015 181.485V205.746C217.865 205.746 216.74 205.758 215.635 205.771C213.06 205.801 210.586 205.829 208.122 205.691C205.9 205.57 205.317 206.307 205.339 208.485C205.412 216.313 205.401 224.147 205.39 231.982V231.982V231.983V231.983V231.984V231.985V231.985V231.986V231.986V231.987V231.988V231.988V231.989V231.989V231.99V231.991V231.991C205.386 234.791 205.383 237.592 205.383 240.392V243.682C203.921 243.682 202.479 243.693 201.05 243.705L201.046 243.705C197.637 243.732 194.306 243.759 190.98 243.627C188.395 243.528 187.592 244.419 187.768 246.939C187.911 248.995 187.878 251.061 187.844 253.237V253.237V253.238V253.238V253.238V253.238V253.239V253.239V253.239V253.24V253.24V253.24V253.241V253.241V253.241V253.241C187.828 254.232 187.812 255.245 187.812 256.291C186.55 256.291 185.305 256.299 184.071 256.308H184.066H184.061H184.056H184.051H184.046H184.041H184.037H184.032H184.027H184.022H184.017H184.013H184.008H184.007H184.006H184.005H184.005H184.004H184.003H184.002H184.001H184H184H183.999H183.998H183.997H183.996H183.995H183.995C180.974 256.328 178.022 256.348 175.071 256.247C173.013 256.181 172.298 256.874 172.397 258.909C172.54 261.561 172.507 264.224 172.419 266.886C172.364 268.878 173.112 269.637 175.17 269.571C178.202 269.477 181.24 269.494 184.386 269.512C185.669 269.519 186.97 269.527 188.296 269.527C188.296 270.795 188.295 272.048 188.293 273.29C188.291 275.742 188.288 278.152 188.296 280.562C188.305 282.23 187.259 282.197 186.242 282.166L186.24 282.166C186.084 282.161 185.928 282.156 185.776 282.158C180.957 282.165 176.138 282.162 171.319 282.16C168.909 282.159 166.5 282.158 164.09 282.158H160.603C160.603 282.933 160.597 283.69 160.59 284.434V284.434V284.435V284.435V284.435V284.435V284.436V284.436V284.436V284.436V284.437V284.437V284.437V284.438V284.438V284.438V284.438C160.577 286.132 160.564 287.759 160.625 289.386C160.691 291.08 160.24 291.917 158.347 291.84C156.257 291.755 154.162 291.772 151.954 291.791H151.954H151.953H151.952H151.951H151.95H151.949H151.949H151.948H151.947H151.946H151.945H151.944H151.943H151.942H151.941H151.94C150.979 291.799 149.997 291.807 148.984 291.807V282.29H122.182V269.527C123.346 269.527 124.512 269.518 125.679 269.509H125.68H125.681H125.683H125.684H125.685H125.686H125.687H125.688H125.689H125.691H125.692H125.693H125.694H125.695H125.696H125.697C128.418 269.488 131.145 269.467 133.867 269.56C136.111 269.637 136.969 268.911 136.837 266.578C136.708 264.314 136.737 262.04 136.766 259.646V259.645V259.645V259.645V259.644V259.644V259.644V259.643V259.643V259.642V259.642V259.642V259.641V259.641V259.641V259.64V259.64C136.78 258.569 136.793 257.474 136.793 256.346H122.116V243.792C123.395 243.792 124.666 243.796 125.931 243.799C129.073 243.808 132.18 243.817 135.286 243.77C136.881 243.748 137.333 244.441 137.289 245.937C137.252 247.244 137.263 248.551 137.273 249.857C137.285 251.301 137.296 252.745 137.244 254.189C137.178 255.884 137.828 256.456 139.478 256.412C141.561 256.351 143.638 256.364 145.827 256.378C146.796 256.384 147.786 256.39 148.808 256.39C148.808 257.45 148.815 258.491 148.821 259.517C148.837 261.961 148.853 264.324 148.775 266.688C148.72 268.481 149.347 269.131 151.152 269.065C153.254 268.987 155.356 269.002 157.561 269.018H157.564C158.497 269.025 159.449 269.032 160.427 269.032V256.39C161.443 256.39 162.433 256.382 163.403 256.374C165.647 256.356 167.79 256.338 169.933 256.423C171.836 256.489 172.551 255.818 172.485 253.892C172.408 251.655 172.423 249.407 172.439 247.067C172.446 246.082 172.452 245.08 172.452 244.056H187.35C187.35 243.542 187.361 243.054 187.372 242.586C187.396 241.61 187.417 240.716 187.328 239.831C187.119 237.73 188.054 236.926 190.023 237.191C192.62 237.554 193.434 236.541 193.39 233.879C193.27 227.318 193.289 220.751 193.309 214.035V214.035V214.034V214.033V214.033V214.032V214.031V214.031V214.03V214.029V214.028V214.028V214.027V214.026V214.026V214.025V214.024C193.316 211.476 193.324 208.906 193.324 206.307C194.279 206.307 195.221 206.296 196.152 206.286H196.153H196.155H196.156H196.158H196.16H196.161H196.163H196.164H196.166H196.167H196.169H196.171H196.172H196.174H196.175H196.177H196.178C198.303 206.263 200.374 206.24 202.434 206.34C204.623 206.45 205.504 205.834 205.46 203.446C205.356 198.36 205.373 193.274 205.391 188.043V188.042C205.398 186.02 205.405 183.977 205.405 181.903H104.281V205.603H91.3423V181.584H78.7005V134.791C79.6758 134.791 80.6549 134.783 81.6368 134.775C83.9778 134.757 86.3343 134.739 88.6907 134.824C90.5942 134.89 91.2543 134.263 91.2213 132.315C91.1486 127.346 91.1589 122.377 91.1696 117.277V117.276V117.273V117.269V117.266V117.262V117.259V117.255V117.251V117.248V117.244V117.241V117.237V117.233V117.23V117.226V117.222C91.1734 115.395 91.1773 113.552 91.1773 111.686C92.1283 111.686 93.0651 111.689 93.9914 111.692H93.993H93.9947H93.9963H93.9979H93.9995H94.001H94.0026H94.0042H94.0057H94.0072H94.0087H94.0103H94.0117H94.0132C96.5404 111.701 98.9889 111.709 101.432 111.653C102.096 111.637 102.76 111.459 103.421 111.282C103.675 111.214 103.929 111.146 104.182 111.087V134.032H91.7604V145.98H218.354C218.354 145.108 218.358 144.253 218.362 143.411V143.409V143.407V143.404V143.402V143.4V143.398V143.396V143.394V143.392V143.39V143.388V143.386V143.384C218.373 140.608 218.384 137.98 218.266 135.352C218.244 134.934 216.968 134.274 216.253 134.252C213.671 134.17 211.089 134.179 208.343 134.19C207.403 134.193 206.444 134.197 205.46 134.197V111.186ZM205.36 111.092H205.448H205.449L205.46 111.081V111.186L205.371 111.18L205.36 111.191V111.092ZM205.36 111.092H193.379C193.379 109.599 193.381 108.135 193.384 106.688C193.388 103.846 193.393 101.073 193.379 98.2957C193.357 94.8629 192.993 94.3788 189.66 94.4339C187.811 94.4559 187.184 93.8067 187.371 92.0353C187.424 91.5632 187.374 91.0758 187.32 90.5419L187.32 90.5408L187.319 90.5396L187.319 90.5393C187.294 90.29 187.268 90.0306 187.25 89.7578C186.752 89.7299 186.269 89.7034 185.774 89.6763C184.905 89.6286 183.998 89.5789 182.904 89.5158C182.904 89.0523 182.898 88.5907 182.892 88.1306V88.1304V88.1301V88.1299V88.1296V88.1294C182.878 87.0608 182.865 85.9998 182.926 84.9387C183.025 83.1123 182.354 81.9681 180.484 81.649C180.318 81.6214 180.156 81.5634 179.994 81.505C179.897 81.4704 179.801 81.4356 179.703 81.407L179.657 81.3944C172.705 79.4485 172.65 79.4331 172.507 72.2639C172.474 70.4926 171.946 69.8104 170.13 69.8874C168.092 69.9721 166.048 69.9544 163.93 69.9362H163.93H163.93H163.93H163.929H163.929L163.927 69.9362C163.018 69.9284 162.094 69.9204 161.152 69.9204V57.9718H172.661V70.4595C173.941 70.4595 175.2 70.4711 176.443 70.4826H176.443H176.444H176.445H176.446H176.446C179.402 70.5098 182.27 70.5362 185.127 70.4045C187.624 70.2945 188.482 70.9987 188.383 73.6172C188.235 77.4331 188.264 81.2544 188.293 85.1826V85.1828V85.183V85.1831V85.1833V85.1845V85.1852V85.1858V85.1864V85.1871V85.1878C188.305 86.8079 188.317 88.4462 188.317 90.1099H205.36V111.092ZM91.5512 160.632V160.632V160.631V160.631V160.631V160.631V160.631V160.631V160.631V160.631V160.63V160.63V160.63V160.63C91.5568 159.759 91.5624 158.882 91.5624 157.995L218.343 158.006V168.051C218.354 169.361 217.903 169.955 216.396 169.955C193.25 169.948 170.109 169.962 146.967 169.977C133.08 169.986 119.193 169.995 105.304 169.999C101.377 169.999 97.4377 169.955 93.5208 169.746C92.8497 169.713 91.6834 168.799 91.6504 168.249C91.5187 165.74 91.5348 163.219 91.5512 160.635V160.635V160.634V160.634V160.634V160.634V160.634V160.633V160.633V160.633V160.633V160.632V160.632V160.632V160.632ZM273.234 157.676V157.654L273.235 157.665L273.236 157.677L273.234 157.676ZM273.239 157.736L273.236 157.677L273.3 157.731L273.27 157.733L273.239 157.736ZM273.239 157.736C273.337 159.531 273.44 161.322 273.551 163.265L273.555 163.324C273.604 164.18 273.655 165.066 273.707 165.994C274.211 165.994 274.718 166.001 275.227 166.008C276.396 166.024 277.574 166.041 278.747 165.972C280.188 165.884 280.76 166.434 280.661 167.853C280.574 169.08 280.516 170.313 280.458 171.548L280.457 171.554L280.456 171.589C280.434 172.053 280.412 172.517 280.388 172.981C282.55 173.002 284.714 173.022 286.879 173.041H286.88H286.881H286.882H286.884L286.92 173.041C289.071 173.06 291.221 173.079 293.369 173.1V166.071C293.876 166.071 294.376 166.06 294.869 166.049L294.87 166.049H294.871C295.94 166.025 296.981 166.002 298.012 166.093C299.86 166.258 300.454 165.476 300.355 163.716C300.28 162.478 300.298 161.24 300.316 159.945V159.944V159.942V159.939V159.937V159.934V159.931V159.928C300.325 159.341 300.333 158.743 300.333 158.127H311.325V168.788C311.325 169.815 311.315 170.842 311.305 171.869V171.871C311.281 174.232 311.258 176.593 311.358 178.954C311.435 180.924 310.709 181.518 308.827 181.43C306.931 181.345 305.03 181.363 303.044 181.381H303.044H303.043H303.043H303.043H303.042H303.042H303.042H303.041H303.041H303.041H303.04H303.04H303.039H303.039H303.039L303.036 181.381C302.178 181.389 301.305 181.397 300.41 181.397V190.243H273.674V181.452C272.78 181.452 271.911 181.447 271.061 181.442H271.059C269.074 181.431 267.188 181.42 265.302 181.474C263.981 181.507 263.2 181.221 263.211 179.714C263.23 175.891 263.234 172.072 263.239 168.253C263.242 165.388 263.246 162.523 263.255 159.656C263.255 159.432 263.336 159.203 263.419 158.967L263.419 158.967L263.419 158.966L263.419 158.966L263.42 158.966L263.42 158.965L263.42 158.965L263.42 158.965C263.463 158.842 263.507 158.717 263.541 158.589C266.81 158.305 270.025 158.02 273.239 157.736ZM273.29 157.665H273.235L273.29 157.72V157.709V157.665ZM273.29 157.665H299.663C299.813 155.415 299.955 153.372 300.093 151.377L300.094 151.361C300.143 150.655 300.192 149.955 300.24 149.254C300.264 148.908 300.288 148.561 300.312 148.214H273.29V157.665ZM278.958 173.136C279.418 173.104 279.878 173.072 280.334 173.029C280.415 174.348 280.493 175.668 280.573 177.018L280.576 177.075L280.58 177.141L280.581 177.16C280.649 178.316 280.719 179.494 280.793 180.715H273.454C273.454 180.187 273.441 179.656 273.427 179.126C273.391 177.765 273.356 176.403 273.553 175.082C273.641 174.465 274.808 173.717 275.589 173.541C276.688 173.294 277.825 173.215 278.957 173.136L278.958 173.136ZM292.907 180.462C293.091 177.956 293.265 175.579 293.438 173.203C293.679 173.215 293.92 173.232 294.161 173.248C294.623 173.279 295.085 173.31 295.547 173.31C300.234 173.31 301.698 175.203 300.333 179.714C300.19 180.198 299.332 180.792 298.793 180.792C297.55 180.815 296.307 180.717 294.909 180.608L294.907 180.608L294.907 180.608C294.276 180.558 293.614 180.506 292.907 180.462ZM100.254 34.2176H68.1597C68.1597 36.0872 68.1587 37.9484 68.1577 39.8026V39.8223V39.8421V39.8619V39.8818V39.9016V39.9214V39.9412V39.9611V39.9809V40.0008V40.0206V40.0405V40.0604V40.0803C68.1529 49.1178 68.1482 57.9898 68.2478 66.8618C68.2588 67.3899 69.612 68.3471 70.3492 68.3582C78.9408 68.5105 87.5417 68.5503 96.1434 68.5902H96.1444L98.2954 68.6002C98.773 68.6002 99.2455 68.5062 99.6839 68.4189L99.6839 68.4189L99.684 68.4189C99.8818 68.3795 100.073 68.3415 100.254 68.3141V34.2176ZM79.3162 53.956H88.2612H88.2722C88.2722 53.5189 88.2751 53.1349 88.2777 52.7849V52.7838V52.7827V52.7817V52.7808V52.7798V52.7786V52.7782V52.7779V52.7776V52.7773V52.7771V52.7768V52.7766V52.7764V52.7762V52.776V52.7759V52.7757V52.7756C88.2824 52.1605 88.2862 51.6499 88.2722 51.1393C88.1768 47.5599 86.3211 45.7628 82.705 45.7481H79.4812C79.42 45.6028 79.3575 45.4787 79.3019 45.3684C79.1977 45.1617 79.1182 45.0038 79.1182 44.8459C79.1116 44.411 79.104 44.0111 79.0969 43.6435C79.051 41.2476 79.0313 40.2225 79.5266 39.7972C79.8971 39.4792 80.5555 39.4966 81.7064 39.527C82.3643 39.5444 83.1832 39.5661 84.2013 39.5318C85.1503 39.503 86.0993 39.5118 87.1282 39.5214H87.1284H87.1287H87.129H87.1294H87.1297H87.13H87.1304H87.1307H87.1311H87.1315H87.1319H87.1324H87.1329H87.1334H87.1339C87.6778 39.5265 88.244 39.5318 88.8443 39.5318C88.9433 41.7213 89.0424 43.7677 89.1414 45.7591C89.7083 45.8526 90.2716 45.9213 90.825 45.9889L90.8251 45.9889C92.2263 46.1599 93.5633 46.323 94.7306 46.8594C95.0847 47.0183 95.0544 47.9934 95.023 49.0025V49.0026C95.0066 49.5301 94.9899 50.0669 95.0277 50.5012C95.3047 53.8257 93.6285 53.6971 91.8763 53.5627C90.845 53.4835 89.7875 53.4024 89.0864 54.022C89.0783 54.1376 89.0676 54.2671 89.056 54.407C89.0203 54.8394 88.9763 55.3714 88.9763 55.9034C88.971 56.4966 88.9766 57.0139 88.9814 57.4648C88.9969 58.9076 89.0051 59.6716 88.6277 60.0756C88.203 60.5302 87.2896 60.5285 85.3481 60.5248C85.0747 60.5243 84.781 60.5237 84.4653 60.5244C78.348 60.5464 78.304 60.4804 79.3162 53.956ZM209.949 34.2615H240.92V68.325H209.949V34.2615ZM235.386 53.9998H215.758C215.758 54.3963 215.771 54.7714 215.783 55.1308C215.809 55.8685 215.832 56.5395 215.736 57.1905C215.329 59.8751 216.429 60.7223 219.059 60.5793C221.592 60.4415 224.13 60.4741 226.67 60.5067C227.782 60.521 228.894 60.5353 230.006 60.5353C234.04 60.5353 235.834 58.3605 235.386 54.0108V53.9998ZM221.369 45.561C229.192 46.2871 230.138 45.473 228.565 39.7077H221.369V45.561ZM282.729 256.115V224.131H252.792V256.115H282.729ZM262.243 234.154H277.008C277.008 234.663 277.023 235.151 277.037 235.621C277.07 236.726 277.101 237.736 276.931 238.709C276.832 239.314 275.908 240.205 275.336 240.216C270.154 240.348 264.961 240.381 259.767 240.282C259.195 240.271 258.227 239.369 258.139 238.786C257.534 234.539 257.919 234.154 262.243 234.154ZM209.971 260.977H240.821V294.689H209.971V260.977ZM234.396 286.58H228.48C227.713 281.029 228.716 280.193 234.396 281.695V286.58ZM228.433 286.635H222.546L222.539 286.477C222.455 284.652 222.39 283.257 222.315 281.717H215.824V286.767H221.831V291.696H228.433V286.635ZM231.587 272.241L231.583 272.241C230.591 272.193 229.631 272.147 228.642 272.101C228.574 270.964 228.514 269.92 228.452 268.841C228.414 268.176 228.376 267.497 228.334 266.776C227.778 266.806 227.238 266.823 226.71 266.84C225.525 266.877 224.402 266.912 223.306 267.095C222.711 267.194 221.71 268.096 221.776 268.459C222.524 272.475 220.06 272.486 217.298 272.255C216.951 272.225 216.598 272.293 216.233 272.364L216.232 272.364C216.066 272.396 215.897 272.429 215.725 272.453V277.063C219.7 277.452 222.051 276.179 222.777 273.245C226.144 273.062 228.125 274.342 228.719 277.085H234.429V272.376C233.423 272.329 232.491 272.284 231.587 272.241ZM100.409 294.59V260.835C98.6732 260.835 96.9452 260.834 95.2234 260.833C86.6325 260.83 78.1941 260.827 69.7558 260.901C69.2827 260.901 68.4025 261.825 68.4025 262.331C68.3304 267.828 68.2977 273.322 68.265 278.817V278.818V278.818V278.819V278.82V278.821V278.821V278.822V278.823V278.824V278.824C68.2377 283.4 68.2104 287.976 68.1604 292.555C68.1384 294.37 68.7765 294.887 70.5479 294.876C76.6422 294.826 82.7411 294.827 88.8386 294.828C92.1642 294.828 95.4894 294.829 98.8132 294.821C99.1713 294.821 99.5295 294.752 99.9023 294.681L99.9027 294.681C100.068 294.649 100.236 294.617 100.409 294.59ZM75.29 274.21V287.152C75.6249 287.167 75.9367 287.172 76.2322 287.176C76.8492 287.186 77.3949 287.195 77.9306 287.284C80.5161 287.702 81.3853 286.503 81.2313 284.061C81.1786 283.165 81.2443 282.26 81.3087 281.372C81.3385 280.961 81.3679 280.555 81.3853 280.155H88.922V287.273C89.2544 287.333 89.5449 287.393 89.8083 287.447L89.8085 287.447L89.8105 287.448L89.8112 287.448L89.8124 287.448L89.8137 287.448L89.8151 287.449L89.8165 287.449C90.3252 287.553 90.7324 287.637 91.1445 287.659C94.8083 287.824 94.9953 287.625 95.0064 283.907V277.855C95.0064 275.259 93.7557 273.924 91.2545 273.85C90.7863 273.836 90.3229 273.782 89.803 273.722L89.8019 273.722L89.7987 273.722C89.538 273.692 89.263 273.66 88.966 273.63C88.966 273.124 88.9785 272.631 88.9907 272.148C89.0198 270.996 89.0474 269.904 88.9 268.833C88.812 268.162 88.0638 267.106 87.5357 267.051C86.0558 266.898 84.5524 266.922 83.0384 266.945H83.0368C82.4802 266.954 81.9222 266.963 81.3633 266.963C81.321 267.75 81.3522 268.54 81.3819 269.289C81.4447 270.873 81.5002 272.273 80.8352 273.08C80.2243 273.827 78.8222 273.917 77.3237 274.013C76.644 274.057 75.9445 274.102 75.29 274.21ZM136.771 70.6026C136.771 68.4464 136.779 66.3323 136.787 64.2483V64.2481V64.2478V64.2475V64.2472V64.247V64.2467V64.2464V64.2461V64.2458C136.807 59.025 136.826 53.9929 136.716 48.9608C136.672 46.7053 137.398 46.1662 139.522 46.2102C144.433 46.2972 149.35 46.2819 154.321 46.2664H154.322C156.266 46.2603 158.22 46.2542 160.184 46.2542V57.3777C159.389 57.3777 158.589 57.3907 157.786 57.4037C155.921 57.4339 154.04 57.4644 152.164 57.3337C149.622 57.1576 148.643 57.8728 148.742 60.6344C148.889 64.9619 148.862 69.2894 148.832 73.8067L148.832 73.8142V73.815V73.8159V73.8168V73.8177V73.8186V73.8195V73.8204V73.8214C148.82 75.6965 148.808 77.6044 148.808 79.5586C147.214 79.7418 145.635 79.9212 144.055 80.1008L144.047 80.1016L144.044 80.102L144.04 80.1025C141.829 80.3537 139.616 80.6052 137.354 80.8679V89.4388H122.105V70.6136H136.771V70.6026ZM56.0136 110.431V80.7797H25.4818V110.431H56.0136ZM50.7531 97.4055C50.7376 97.9259 50.7214 98.4697 50.7214 99.0438C49.2373 99.0438 47.7806 99.0467 46.3452 99.0496C41.5557 99.0592 37.0033 99.0684 32.4574 98.9668C31.8632 98.9558 31.0601 97.8995 30.796 97.1624C30.6153 96.6481 30.6541 96.0635 30.6933 95.4725C30.7162 95.1279 30.7392 94.7811 30.719 94.4448C30.62 92.9374 31.2691 92.2773 32.7874 92.2883C34.5809 92.303 36.3743 92.3066 38.1678 92.3103H38.1687C41.7551 92.3176 45.3416 92.325 48.928 92.4203C49.5442 92.4313 50.5234 93.4325 50.6444 94.1037C50.8207 95.1384 50.7887 96.2105 50.7531 97.4055ZM282.741 110.497H252.803V80.6806C254.544 80.6806 256.28 80.6799 258.011 80.6791C265.779 80.6759 273.464 80.6726 281.156 80.7356C281.684 80.7356 282.664 81.5938 282.675 82.0559C282.748 89.889 282.745 97.7222 282.742 105.682C282.741 107.282 282.741 108.886 282.741 110.497ZM258.601 97.9104C258.361 94.2207 260.378 92.3977 264.654 92.4412C264.656 92.6487 264.659 92.856 264.662 93.0633L264.671 93.6774C264.689 94.9747 264.708 96.2689 264.708 97.5693C264.708 97.7383 264.654 97.9073 264.585 98.1222C264.551 98.2291 264.513 98.3473 264.477 98.4826H258.942C258.883 98.3905 258.826 98.3133 258.775 98.2454L258.775 98.2447C258.674 98.1102 258.601 98.0127 258.601 97.9104ZM264.73 92.3762H270.737C270.764 92.162 270.79 91.9549 270.816 91.7547C271.163 89.0198 271.345 87.5851 270.715 86.9219C270.02 86.19 268.335 86.3976 264.793 86.8342L264.73 86.842V92.3762ZM270.704 105.04V99.1207H264.785V105.04H270.704ZM276.777 98.4935L276.823 98.1544L276.872 97.7874C277.636 92.0987 277.656 91.9512 271.265 92.8823V98.4935H276.777ZM25.3499 224.131V256.126H55.8596V224.131H25.3499ZM34.4269 233.219H37.0454L37.0344 233.241V238.621H44.241V233.362H37.4965V226.859H44.9892V232.58C45.1551 232.706 45.2734 232.813 45.3659 232.897C45.5004 233.019 45.5801 233.091 45.6714 233.098C48.9061 233.435 50.5234 235.265 50.5234 238.588C50.5234 239.439 50.5086 240.29 50.4937 241.142V241.143V241.143V241.143V241.144V241.144V241.144V241.145C50.4591 243.134 50.4244 245.124 50.5784 247.104C50.781 249.676 49.3426 249.703 47.7052 249.735L47.7019 249.735C47.6325 249.736 47.5628 249.737 47.4929 249.739L47.3916 249.741C47.3537 249.742 47.3157 249.743 47.2777 249.744C45.5173 249.788 44.109 249.59 44.4281 247.258C44.4923 246.801 44.4778 246.325 44.4597 245.732C44.4499 245.411 44.4391 245.056 44.4391 244.65C43.8272 244.65 43.2249 244.64 42.6302 244.63C41.0112 244.602 39.4486 244.575 37.9036 244.76C37.4635 244.815 36.8364 246.3 36.8914 247.082C37.0674 249.414 35.9782 249.854 33.9428 249.81C31.9073 249.755 30.598 249.414 30.697 246.939C30.7895 244.566 30.7687 242.188 30.7479 239.812L30.7479 239.812C30.7389 238.794 30.73 237.777 30.73 236.761C30.7374 234.378 31.9697 233.197 34.4269 233.219ZM146.937 10.573H136.804C136.804 12.5092 136.81 14.4226 136.816 16.3197L136.816 16.3275V16.328V16.3284V16.3289V16.3293C136.831 21.1558 136.846 25.8766 136.76 30.5975C136.716 32.853 137.376 33.6121 139.697 33.5791C146.335 33.4985 152.978 33.496 159.619 33.4936H159.62H159.62H159.62H159.62H159.624C162.943 33.4923 166.262 33.4911 169.58 33.4801C170.207 33.4801 170.828 33.4148 171.452 33.3493L171.452 33.3493C171.715 33.3216 171.978 33.2939 172.242 33.2711V10.6061H162.208V18.5828L166.29 18.8359V26.7246C162.593 27.2234 160.51 26.0938 160.041 23.3359H149.511C149.447 23.72 149.439 24.1223 149.43 24.5143C149.4 25.8739 149.372 27.1096 147.058 27.0327C146.88 27.0269 146.711 27.0219 146.55 27.0171C143.317 26.9205 143.317 26.9205 143.317 23.3469V19.518L143.605 19.4407C144.84 19.1094 145.936 18.8154 146.937 18.5498V10.573ZM104.567 206.461H116.384V219.169C116.384 220.639 116.397 222.11 116.41 223.58C116.44 226.972 116.47 230.362 116.34 233.747C116.241 236.354 117 237.521 119.674 237.147C120.081 237.087 120.502 237.138 120.972 237.194C121.202 237.221 121.442 237.25 121.698 237.268V243.484H104.556V206.461H104.567ZM104.281 111.071V111.081H104.292L104.281 111.071ZM104.281 110.993V111.071L104.193 110.993H104.281ZM104.281 110.993V90.396H121.753V93.8727C121.513 93.8975 121.28 93.9254 121.049 93.9529C120.667 93.9987 120.293 94.0433 119.916 94.0708C117.528 94.2358 116.296 95.3581 116.351 97.9106C116.412 100.892 116.399 103.873 116.385 106.936C116.379 108.27 116.373 109.62 116.373 110.993H104.281ZM157.995 12.2459H151.657C150.446 18.5681 150.758 18.5328 157.116 17.813C157.397 17.7812 157.69 17.748 157.995 17.7141V12.2459Z" fill="url(#paint0_linear_412_128)"/>
<mask id="mask0_412_128" style="mask-type:alpha" maskUnits="userSpaceOnUse" x="71" y="42" width="174" height="105">
<path d="M124.158 42.1514H187.658L244.658 146.151H71.1582L124.158 42.1514Z" fill="#D9D9D9"/>
</mask>
<g mask="url(#mask0_412_128)">
<path fill-rule="evenodd" clip-rule="evenodd" d="M160.35 0V10.5513C160.177 9.79439 160.046 9.21812 159.926 8.68542C159.801 8.13411 159.686 7.62948 159.547 7.01955C158.831 7.01955 158.101 7.0014 157.362 6.98302C155.464 6.93584 153.508 6.8872 151.592 7.14058C150.956 7.2201 150.395 7.89332 149.718 8.70776C149.364 9.13289 148.978 9.5965 148.533 10.0342C148.662 8.47888 148.787 6.9918 148.908 5.5434C149.067 3.65162 149.22 1.82581 149.369 0H160.35ZM1.86545 158.3L0 158.435V180.99C3.41076 181.243 6.82151 181.496 10.5073 181.771V190.265H35.3288C35.38 189.278 35.43 188.31 35.4799 187.341L35.48 187.34L35.4804 187.331L35.4808 187.323L35.4811 187.319C35.5811 185.379 35.6811 183.439 35.7909 181.353H46.4963V158.006H42.2824H42.2818C35.989 158.039 35.956 158.039 35.8459 164.178C35.8129 165.884 35.3728 166.764 33.4804 166.599C32.3741 166.501 31.2575 166.522 30.0215 166.544H30.0209H30.0204H30.0198H30.0193H30.0187H30.0181H30.0175H30.0168H30.0162H30.0156H30.0149H30.0142H30.0135H30.0128H30.0121H30.0114H30.0107H30.0099C29.4424 166.555 28.8497 166.566 28.2212 166.566V180.913H18.099V166.049H28.1112V157.676H35.4609V147.917H10.3643V157.687C7.36327 157.902 4.59565 158.102 1.86545 158.3ZM104.336 304.404V324.572V324.583H181.221C182.143 324.544 183.065 324.498 183.989 324.452C185.975 324.352 187.963 324.253 189.946 324.23C193.451 324.192 196.957 324.202 200.488 324.211H200.49H200.491H200.493H200.494H200.495H200.497H200.498H200.5H200.501H200.503H200.504H200.505H200.507H200.508H200.51H200.511H200.512H200.514C202.094 324.215 203.679 324.219 205.272 324.219V304.393H193.345V314.064H116.262V304.404H104.336ZM104.182 111.001V110.993L104.16 110.982L104.182 111.001ZM104.182 111.087V111.001L104.259 111.07L104.229 111.076L104.182 111.087ZM205.46 111.186C206.236 111.233 207.012 111.283 207.789 111.334L207.796 111.334C209.691 111.457 211.586 111.579 213.48 111.664C214.643 111.716 215.811 111.702 217.035 111.688C217.618 111.682 218.214 111.675 218.828 111.675V129.686C218.828 129.992 218.767 130.301 218.707 130.61C218.661 130.846 218.616 131.081 218.597 131.314C218.332 134.615 218.486 134.78 221.699 134.78H231.458C231.486 135.027 231.522 135.263 231.556 135.492L231.556 135.492L231.557 135.492L231.557 135.492C231.619 135.905 231.678 136.294 231.678 136.683C231.675 141.389 231.665 146.095 231.655 150.801V150.809C231.636 160.217 231.616 169.624 231.645 179.032C231.645 180.968 231.084 181.595 229.159 181.518C226.883 181.426 224.602 181.446 222.224 181.467H222.223H222.223H222.222H222.222H222.222H222.221H222.221H222.221H222.22H222.22H222.219H222.219H222.219H222.218H222.218H222.218H222.216C221.17 181.476 220.106 181.485 219.015 181.485V205.746C217.865 205.746 216.74 205.758 215.635 205.771C213.06 205.801 210.586 205.829 208.122 205.691C205.9 205.57 205.317 206.307 205.339 208.485C205.412 216.313 205.401 224.147 205.39 231.982V231.982V231.983V231.983V231.984V231.985V231.985V231.986V231.986V231.987V231.988V231.988V231.989V231.989V231.99V231.991V231.991C205.386 234.791 205.383 237.592 205.383 240.392V243.682C203.921 243.682 202.479 243.693 201.05 243.705L201.046 243.705C197.637 243.732 194.306 243.759 190.98 243.627C188.395 243.528 187.592 244.419 187.768 246.939C187.911 248.995 187.878 251.061 187.844 253.237V253.237V253.238V253.238V253.238V253.238V253.239V253.239V253.239V253.24V253.24V253.24V253.241V253.241V253.241V253.241C187.828 254.232 187.812 255.245 187.812 256.291C186.55 256.291 185.305 256.299 184.071 256.308H184.066H184.061H184.056H184.051H184.046H184.041H184.037H184.032H184.027H184.022H184.017H184.013H184.008H184.007H184.006H184.005H184.005H184.004H184.003H184.002H184.001H184H184H183.999H183.998H183.997H183.996H183.995H183.995C180.974 256.328 178.022 256.348 175.071 256.247C173.013 256.181 172.298 256.874 172.397 258.909C172.54 261.561 172.507 264.224 172.419 266.886C172.364 268.878 173.112 269.637 175.17 269.571C178.202 269.477 181.24 269.494 184.386 269.512C185.669 269.519 186.97 269.527 188.296 269.527C188.296 270.795 188.295 272.048 188.293 273.29C188.291 275.742 188.288 278.152 188.296 280.562C188.305 282.23 187.259 282.197 186.242 282.166L186.24 282.166C186.084 282.161 185.928 282.156 185.776 282.158C180.957 282.165 176.138 282.162 171.319 282.16C168.909 282.159 166.5 282.158 164.09 282.158H160.603C160.603 282.933 160.597 283.69 160.59 284.434V284.434V284.435V284.435V284.435V284.435V284.436V284.436V284.436V284.436V284.437V284.437V284.437V284.438V284.438V284.438V284.438C160.577 286.132 160.564 287.759 160.625 289.386C160.691 291.08 160.24 291.917 158.347 291.84C156.257 291.755 154.162 291.772 151.954 291.791H151.954H151.953H151.952H151.951H151.95H151.949H151.949H151.948H151.947H151.946H151.945H151.944H151.943H151.942H151.941H151.94C150.979 291.799 149.997 291.807 148.984 291.807V282.29H122.182V269.527C123.346 269.527 124.512 269.518 125.679 269.509H125.68H125.681H125.683H125.684H125.685H125.686H125.687H125.688H125.689H125.691H125.692H125.693H125.694H125.695H125.696H125.697C128.418 269.488 131.145 269.467 133.867 269.56C136.111 269.637 136.969 268.911 136.837 266.578C136.708 264.314 136.737 262.04 136.766 259.646V259.645V259.645V259.645V259.644V259.644V259.644V259.643V259.643V259.642V259.642V259.642V259.641V259.641V259.641V259.64V259.64C136.78 258.569 136.793 257.474 136.793 256.346H122.116V243.792C123.395 243.792 124.666 243.796 125.931 243.799C129.073 243.808 132.18 243.817 135.286 243.77C136.881 243.748 137.333 244.441 137.289 245.937C137.252 247.244 137.263 248.551 137.273 249.857C137.285 251.301 137.296 252.745 137.244 254.189C137.178 255.884 137.828 256.456 139.478 256.412C141.561 256.351 143.638 256.364 145.827 256.378C146.796 256.384 147.786 256.39 148.808 256.39C148.808 257.45 148.815 258.491 148.821 259.517C148.837 261.961 148.853 264.324 148.775 266.688C148.72 268.481 149.347 269.131 151.152 269.065C153.254 268.987 155.356 269.002 157.561 269.018H157.564C158.497 269.025 159.449 269.032 160.427 269.032V256.39C161.443 256.39 162.433 256.382 163.403 256.374C165.647 256.356 167.79 256.338 169.933 256.423C171.836 256.489 172.551 255.818 172.485 253.892C172.408 251.655 172.423 249.407 172.439 247.067C172.446 246.082 172.452 245.08 172.452 244.056H187.35C187.35 243.542 187.361 243.054 187.372 242.586C187.396 241.61 187.417 240.716 187.328 239.831C187.119 237.73 188.054 236.926 190.023 237.191C192.62 237.554 193.434 236.541 193.39 233.879C193.27 227.318 193.289 220.751 193.309 214.035V214.035V214.034V214.033V214.033V214.032V214.031V214.031V214.03V214.029V214.028V214.028V214.027V214.026V214.026V214.025V214.024C193.316 211.476 193.324 208.906 193.324 206.307C194.279 206.307 195.221 206.296 196.152 206.286H196.153H196.155H196.156H196.158H196.16H196.161H196.163H196.164H196.166H196.167H196.169H196.171H196.172H196.174H196.175H196.177H196.178C198.303 206.263 200.374 206.24 202.434 206.34C204.623 206.45 205.504 205.834 205.46 203.446C205.356 198.36 205.373 193.274 205.391 188.043V188.042C205.398 186.02 205.405 183.977 205.405 181.903H104.281V205.603H91.3423V181.584H78.7005V134.791C79.6758 134.791 80.6549 134.783 81.6368 134.775C83.9778 134.757 86.3343 134.739 88.6907 134.824C90.5942 134.89 91.2543 134.263 91.2213 132.315C91.1486 127.346 91.1589 122.377 91.1696 117.277V117.276V117.273V117.269V117.266V117.262V117.259V117.255V117.251V117.248V117.244V117.241V117.237V117.233V117.23V117.226V117.222C91.1734 115.395 91.1773 113.552 91.1773 111.686C92.1283 111.686 93.0651 111.689 93.9914 111.692H93.993H93.9947H93.9963H93.9979H93.9995H94.001H94.0026H94.0042H94.0057H94.0072H94.0087H94.0103H94.0117H94.0132C96.5404 111.701 98.9889 111.709 101.432 111.653C102.096 111.637 102.76 111.459 103.421 111.282C103.675 111.214 103.929 111.146 104.182 111.087V134.032H91.7604V145.98H218.354C218.354 145.108 218.358 144.253 218.362 143.411V143.409V143.407V143.404V143.402V143.4V143.398V143.396V143.394V143.392V143.39V143.388V143.386V143.384C218.373 140.608 218.384 137.98 218.266 135.352C218.244 134.934 216.968 134.274 216.253 134.252C213.671 134.17 211.089 134.179 208.343 134.19C207.403 134.193 206.444 134.197 205.46 134.197V111.186ZM205.36 111.092H205.448H205.449L205.46 111.081V111.186L205.371 111.18L205.36 111.191V111.092ZM205.36 111.092H193.379C193.379 109.599 193.381 108.135 193.384 106.688C193.388 103.846 193.393 101.073 193.379 98.2957C193.357 94.8629 192.993 94.3788 189.66 94.4339C187.811 94.4559 187.184 93.8067 187.371 92.0353C187.424 91.5632 187.374 91.0758 187.32 90.5419L187.32 90.5408L187.319 90.5396L187.319 90.5393C187.294 90.29 187.268 90.0306 187.25 89.7578C186.752 89.7299 186.269 89.7034 185.774 89.6763C184.905 89.6286 183.998 89.5789 182.904 89.5158C182.904 89.0523 182.898 88.5907 182.892 88.1306V88.1304V88.1301V88.1299V88.1296V88.1294C182.878 87.0608 182.865 85.9998 182.926 84.9387C183.025 83.1123 182.354 81.9681 180.484 81.649C180.318 81.6214 180.156 81.5634 179.994 81.505C179.897 81.4704 179.801 81.4356 179.703 81.407L179.657 81.3944C172.705 79.4485 172.65 79.4331 172.507 72.2639C172.474 70.4926 171.946 69.8104 170.13 69.8874C168.092 69.9721 166.048 69.9544 163.93 69.9362H163.93H163.93H163.93H163.929H163.929L163.927 69.9362C163.018 69.9284 162.094 69.9204 161.152 69.9204V57.9718H172.661V70.4595C173.941 70.4595 175.2 70.4711 176.443 70.4826H176.443H176.444H176.445H176.446H176.446C179.402 70.5098 182.27 70.5362 185.127 70.4045C187.624 70.2945 188.482 70.9987 188.383 73.6172C188.235 77.4331 188.264 81.2544 188.293 85.1826V85.1828V85.183V85.1831V85.1833V85.1845V85.1852V85.1858V85.1864V85.1871V85.1878C188.305 86.8079 188.317 88.4462 188.317 90.1099H205.36V111.092ZM91.5512 160.632V160.632V160.631V160.631V160.631V160.631V160.631V160.631V160.631V160.631V160.63V160.63V160.63V160.63C91.5568 159.759 91.5624 158.882 91.5624 157.995L218.343 158.006V168.051C218.354 169.361 217.903 169.955 216.396 169.955C193.25 169.948 170.109 169.962 146.967 169.977C133.08 169.986 119.193 169.995 105.304 169.999C101.377 169.999 97.4377 169.955 93.5208 169.746C92.8497 169.713 91.6834 168.799 91.6504 168.249C91.5187 165.74 91.5348 163.219 91.5512 160.635V160.635V160.634V160.634V160.634V160.634V160.634V160.633V160.633V160.633V160.633V160.632V160.632V160.632V160.632ZM273.234 157.676V157.654L273.235 157.665L273.236 157.677L273.234 157.676ZM273.239 157.736L273.236 157.677L273.3 157.731L273.27 157.733L273.239 157.736ZM273.239 157.736C273.337 159.531 273.44 161.322 273.551 163.265L273.555 163.324C273.604 164.18 273.655 165.066 273.707 165.994C274.211 165.994 274.718 166.001 275.227 166.008C276.396 166.024 277.574 166.041 278.747 165.972C280.188 165.884 280.76 166.434 280.661 167.853C280.574 169.08 280.516 170.313 280.458 171.548L280.457 171.554L280.456 171.589C280.434 172.053 280.412 172.517 280.388 172.981C282.55 173.002 284.714 173.022 286.879 173.041H286.88H286.881H286.882H286.884L286.92 173.041C289.071 173.06 291.221 173.079 293.369 173.1V166.071C293.876 166.071 294.376 166.06 294.869 166.049L294.87 166.049H294.871C295.94 166.025 296.981 166.002 298.012 166.093C299.86 166.258 300.454 165.476 300.355 163.716C300.28 162.478 300.298 161.24 300.316 159.945V159.944V159.942V159.939V159.937V159.934V159.931V159.928C300.325 159.341 300.333 158.743 300.333 158.127H311.325V168.788C311.325 169.815 311.315 170.842 311.305 171.869V171.871C311.281 174.232 311.258 176.593 311.358 178.954C311.435 180.924 310.709 181.518 308.827 181.43C306.931 181.345 305.03 181.363 303.044 181.381H303.044H303.043H303.043H303.043H303.042H303.042H303.042H303.041H303.041H303.041H303.04H303.04H303.039H303.039H303.039L303.036 181.381C302.178 181.389 301.305 181.397 300.41 181.397V190.243H273.674V181.452C272.78 181.452 271.911 181.447 271.061 181.442H271.059C269.074 181.431 267.188 181.42 265.302 181.474C263.981 181.507 263.2 181.221 263.211 179.714C263.23 175.891 263.234 172.072 263.239 168.253C263.242 165.388 263.246 162.523 263.255 159.656C263.255 159.432 263.336 159.203 263.419 158.967L263.419 158.967L263.419 158.966L263.419 158.966L263.42 158.966L263.42 158.965L263.42 158.965L263.42 158.965C263.463 158.842 263.507 158.717 263.541 158.589C266.81 158.305 270.025 158.02 273.239 157.736ZM273.29 157.665H273.235L273.29 157.72V157.709V157.665ZM273.29 157.665H299.663C299.813 155.415 299.955 153.372 300.093 151.377L300.094 151.361C300.143 150.655 300.192 149.955 300.24 149.254C300.264 148.908 300.288 148.561 300.312 148.214H273.29V157.665ZM278.958 173.136C279.418 173.104 279.878 173.072 280.334 173.029C280.415 174.348 280.493 175.668 280.573 177.018L280.576 177.075L280.58 177.141L280.581 177.16C280.649 178.316 280.719 179.494 280.793 180.715H273.454C273.454 180.187 273.441 179.656 273.427 179.126C273.391 177.765 273.356 176.403 273.553 175.082C273.641 174.465 274.808 173.717 275.589 173.541C276.688 173.294 277.825 173.215 278.957 173.136L278.958 173.136ZM292.907 180.462C293.091 177.956 293.265 175.579 293.438 173.203C293.679 173.215 293.92 173.232 294.161 173.248C294.623 173.279 295.085 173.31 295.547 173.31C300.234 173.31 301.698 175.203 300.333 179.714C300.19 180.198 299.332 180.792 298.793 180.792C297.55 180.815 296.307 180.717 294.909 180.608L294.907 180.608L294.907 180.608C294.276 180.558 293.614 180.506 292.907 180.462ZM100.254 34.2176H68.1597C68.1597 36.0872 68.1587 37.9484 68.1577 39.8026V39.8223V39.8421V39.8619V39.8818V39.9016V39.9214V39.9412V39.9611V39.9809V40.0008V40.0206V40.0405V40.0604V40.0803C68.1529 49.1178 68.1482 57.9898 68.2478 66.8618C68.2588 67.3899 69.612 68.3471 70.3492 68.3582C78.9404 68.5105 87.5409 68.5503 96.1422 68.5902H96.1431L96.1459 68.5902L98.2954 68.6002C98.7731 68.6002 99.2456 68.5061 99.684 68.4189C99.8818 68.3795 100.073 68.3415 100.254 68.3141V34.2176ZM79.3162 53.956H88.2612H88.2722C88.2722 53.5189 88.2751 53.1349 88.2777 52.7849V52.7838V52.7827V52.7817V52.7808V52.7798V52.7786V52.7782V52.7779V52.7776V52.7773V52.7771V52.7768V52.7766V52.7764V52.7762V52.776V52.7759V52.7757V52.7756C88.2824 52.1605 88.2862 51.6499 88.2722 51.1393C88.1768 47.5599 86.3211 45.7628 82.705 45.7481H79.4812C79.42 45.6028 79.3575 45.4787 79.3019 45.3684L79.3019 45.3684C79.1977 45.1617 79.1182 45.0038 79.1182 44.8459C79.1116 44.411 79.104 44.0111 79.0969 43.6435C79.051 41.2476 79.0313 40.2225 79.5266 39.7972C79.8971 39.4792 80.5555 39.4966 81.7064 39.527C82.3643 39.5444 83.1832 39.5661 84.2013 39.5318C85.1503 39.503 86.0993 39.5118 87.1282 39.5214H87.1284H87.1287H87.129H87.1294H87.1297H87.13H87.1304H87.1307H87.1311H87.1315H87.1319H87.1324H87.1329H87.1334H87.1339C87.6778 39.5265 88.244 39.5318 88.8443 39.5318C88.9433 41.7213 89.0424 43.7677 89.1414 45.7591C89.7083 45.8526 90.2716 45.9213 90.8249 45.9889L90.8251 45.9889C92.2263 46.1599 93.5633 46.323 94.7306 46.8594C95.0847 47.0183 95.0544 47.9934 95.023 49.0025V49.0026C95.0066 49.5301 94.9899 50.0669 95.0277 50.5012C95.3047 53.8257 93.6285 53.6971 91.8763 53.5627C90.845 53.4835 89.7875 53.4024 89.0864 54.022C89.0783 54.1376 89.0676 54.2671 89.056 54.407C89.0203 54.8394 88.9763 55.3714 88.9763 55.9034C88.971 56.4966 88.9766 57.0139 88.9814 57.4648C88.9969 58.9076 89.0051 59.6716 88.6277 60.0756C88.203 60.5302 87.2896 60.5285 85.3481 60.5248C85.0747 60.5243 84.781 60.5237 84.4653 60.5244C78.348 60.5464 78.304 60.4804 79.3162 53.956ZM209.949 34.2615H240.92V68.325H209.949V34.2615ZM235.386 53.9998H215.758C215.758 54.3963 215.771 54.7714 215.783 55.1308C215.809 55.8685 215.832 56.5395 215.736 57.1905C215.329 59.8751 216.429 60.7223 219.059 60.5793C221.592 60.4415 224.13 60.4741 226.67 60.5067C227.782 60.521 228.894 60.5353 230.006 60.5353C234.04 60.5353 235.834 58.3605 235.386 54.0108V53.9998ZM221.369 45.561C229.192 46.2871 230.138 45.473 228.565 39.7077H221.369V45.561ZM282.729 256.115V224.131H252.792V256.115H282.729ZM262.243 234.154H277.008C277.008 234.663 277.023 235.151 277.037 235.621C277.07 236.726 277.101 237.736 276.931 238.709C276.832 239.314 275.908 240.205 275.336 240.216C270.154 240.348 264.961 240.381 259.767 240.282C259.195 240.271 258.227 239.369 258.139 238.786C257.534 234.539 257.919 234.154 262.243 234.154ZM209.971 260.977H240.821V294.689H209.971V260.977ZM234.396 286.58H228.48C227.713 281.029 228.716 280.193 234.396 281.695V286.58ZM228.433 286.635H222.546L222.539 286.477C222.455 284.652 222.39 283.257 222.315 281.717H215.824V286.767H221.831V291.696H228.433V286.635ZM231.587 272.241L231.583 272.241C230.591 272.193 229.631 272.147 228.642 272.101C228.574 270.964 228.514 269.92 228.452 268.841C228.414 268.176 228.376 267.497 228.334 266.776C227.778 266.806 227.238 266.823 226.71 266.84C225.525 266.877 224.402 266.912 223.306 267.095C222.711 267.194 221.71 268.096 221.776 268.459C222.524 272.475 220.06 272.486 217.298 272.255C216.951 272.225 216.598 272.293 216.233 272.364L216.232 272.364C216.066 272.396 215.897 272.429 215.725 272.453V277.063C219.7 277.452 222.051 276.179 222.777 273.245C226.144 273.062 228.125 274.342 228.719 277.085H234.429V272.376C233.423 272.329 232.491 272.284 231.587 272.241ZM100.409 294.59V260.835C98.6732 260.835 96.9452 260.834 95.2234 260.833C86.6325 260.83 78.1941 260.827 69.7558 260.901C69.2827 260.901 68.4025 261.825 68.4025 262.331C68.3304 267.828 68.2977 273.322 68.265 278.817V278.818V278.818V278.819V278.82V278.821V278.821V278.822V278.823V278.824V278.824C68.2377 283.4 68.2104 287.976 68.1604 292.555C68.1384 294.37 68.7765 294.887 70.5479 294.876C76.6422 294.826 82.7411 294.827 88.8386 294.828C92.1642 294.828 95.4894 294.829 98.8132 294.821C99.1713 294.821 99.5295 294.752 99.9023 294.681L99.9027 294.681C100.068 294.649 100.236 294.617 100.409 294.59ZM75.29 274.21V287.152C75.6249 287.167 75.9367 287.172 76.2322 287.176C76.8492 287.186 77.3949 287.195 77.9306 287.284C80.5161 287.702 81.3853 286.503 81.2313 284.061C81.1786 283.165 81.2443 282.26 81.3087 281.372C81.3385 280.961 81.3679 280.555 81.3853 280.155H88.922V287.273C89.2544 287.333 89.5449 287.393 89.8083 287.447L89.8085 287.447L89.8105 287.448L89.8112 287.448L89.8124 287.448L89.8137 287.448L89.8151 287.449L89.8165 287.449C90.3252 287.553 90.7324 287.637 91.1445 287.659C94.8083 287.824 94.9953 287.625 95.0064 283.907V277.855C95.0064 275.259 93.7557 273.924 91.2545 273.85C90.7863 273.836 90.3229 273.782 89.803 273.722L89.8019 273.722L89.7987 273.722C89.538 273.692 89.263 273.66 88.966 273.63C88.966 273.124 88.9785 272.631 88.9907 272.148C89.0198 270.996 89.0474 269.904 88.9 268.833C88.812 268.162 88.0638 267.106 87.5357 267.051C86.0558 266.898 84.5524 266.922 83.0384 266.945H83.0368C82.4802 266.954 81.9222 266.963 81.3633 266.963C81.321 267.75 81.3522 268.54 81.3819 269.289C81.4447 270.873 81.5002 272.273 80.8352 273.08C80.2243 273.827 78.8222 273.917 77.3237 274.013C76.644 274.057 75.9445 274.102 75.29 274.21ZM136.771 70.6026C136.771 68.4464 136.779 66.3323 136.787 64.2483V64.2481V64.2478V64.2475V64.2472V64.247V64.2467V64.2464V64.2461V64.2458C136.807 59.025 136.826 53.9929 136.716 48.9608C136.672 46.7053 137.398 46.1662 139.522 46.2102C144.433 46.2972 149.35 46.2819 154.321 46.2664H154.322C156.266 46.2603 158.22 46.2542 160.184 46.2542V57.3777C159.389 57.3777 158.589 57.3907 157.786 57.4037C155.921 57.4339 154.04 57.4644 152.164 57.3337C149.622 57.1576 148.643 57.8728 148.742 60.6344C148.889 64.9619 148.862 69.2894 148.832 73.8067L148.832 73.8142V73.815V73.8159V73.8168V73.8177V73.8186V73.8195V73.8204V73.8214C148.82 75.6965 148.808 77.6044 148.808 79.5586C147.214 79.7418 145.635 79.9212 144.055 80.1008L144.047 80.1016L144.044 80.102L144.04 80.1025C141.829 80.3537 139.616 80.6052 137.354 80.8679V89.4388H122.105V70.6136H136.771V70.6026ZM56.0136 110.431V80.7797H25.4818V110.431H56.0136ZM50.7531 97.4055C50.7376 97.9259 50.7214 98.4697 50.7214 99.0438C49.2373 99.0438 47.7806 99.0467 46.3452 99.0496C41.5557 99.0592 37.0033 99.0684 32.4574 98.9668C31.8632 98.9558 31.0601 97.8995 30.796 97.1624C30.6153 96.6481 30.6541 96.0635 30.6933 95.4725C30.7162 95.1279 30.7392 94.7811 30.719 94.4448C30.62 92.9374 31.2691 92.2773 32.7874 92.2883C34.5809 92.303 36.3743 92.3066 38.1678 92.3103H38.1687C41.7551 92.3176 45.3416 92.325 48.928 92.4203C49.5442 92.4313 50.5234 93.4325 50.6444 94.1037C50.8207 95.1384 50.7887 96.2105 50.7531 97.4055ZM282.741 110.497H252.803V80.6806C254.544 80.6806 256.28 80.6799 258.011 80.6791C265.779 80.6759 273.464 80.6726 281.156 80.7356C281.684 80.7356 282.664 81.5938 282.675 82.0559C282.748 89.889 282.745 97.7222 282.742 105.682C282.741 107.282 282.741 108.886 282.741 110.497ZM258.601 97.9104C258.361 94.2207 260.378 92.3977 264.654 92.4412C264.656 92.6487 264.659 92.856 264.662 93.0633L264.671 93.6774C264.689 94.9747 264.708 96.2689 264.708 97.5693C264.708 97.7383 264.654 97.9073 264.585 98.1222C264.551 98.2291 264.513 98.3473 264.477 98.4826H258.942C258.883 98.3905 258.826 98.3133 258.775 98.2454L258.775 98.2447C258.674 98.1102 258.601 98.0127 258.601 97.9104ZM264.73 92.3762H270.737C270.764 92.162 270.79 91.9549 270.816 91.7547C271.163 89.0198 271.345 87.5851 270.715 86.9219C270.02 86.19 268.335 86.3976 264.793 86.8342L264.73 86.842V92.3762ZM270.704 105.04V99.1207H264.785V105.04H270.704ZM276.777 98.4935L276.823 98.1544L276.872 97.7874C277.636 92.0987 277.656 91.9512 271.265 92.8823V98.4935H276.777ZM25.3499 224.131V256.126H55.8596V224.131H25.3499ZM34.4269 233.219H37.0454L37.0344 233.241V238.621H44.241V233.362H37.4965V226.859H44.9892V232.58C45.1551 232.706 45.2734 232.813 45.3659 232.897C45.5004 233.019 45.5801 233.091 45.6714 233.098C48.9061 233.435 50.5234 235.265 50.5234 238.588C50.5234 239.439 50.5086 240.29 50.4937 241.142V241.143V241.143V241.143V241.144V241.144V241.144V241.145C50.4591 243.134 50.4244 245.124 50.5784 247.104C50.781 249.676 49.3426 249.703 47.7052 249.735L47.7019 249.735C47.6325 249.736 47.5628 249.737 47.4929 249.739L47.3916 249.741C47.3537 249.742 47.3157 249.743 47.2777 249.744C45.5173 249.788 44.109 249.59 44.4281 247.258C44.4923 246.801 44.4778 246.325 44.4597 245.732C44.4499 245.411 44.4391 245.056 44.4391 244.65C43.8272 244.65 43.2249 244.64 42.6302 244.63C41.0112 244.602 39.4486 244.575 37.9036 244.76C37.4635 244.815 36.8364 246.3 36.8914 247.082C37.0674 249.414 35.9782 249.854 33.9428 249.81C31.9073 249.755 30.598 249.414 30.697 246.939C30.7895 244.566 30.7687 242.188 30.7479 239.812L30.7479 239.812C30.7389 238.794 30.73 237.777 30.73 236.761C30.7374 234.378 31.9697 233.197 34.4269 233.219ZM146.937 10.573H136.804C136.804 12.5092 136.81 14.4226 136.816 16.3197L136.816 16.3275V16.328V16.3284V16.3289V16.3293C136.831 21.1558 136.846 25.8766 136.76 30.5975C136.716 32.853 137.376 33.6121 139.697 33.5791C146.335 33.4985 152.978 33.496 159.619 33.4936H159.62H159.62H159.62H159.62H159.624C162.943 33.4923 166.262 33.4911 169.58 33.4801C170.207 33.4801 170.828 33.4148 171.452 33.3493L171.452 33.3493C171.715 33.3216 171.978 33.2939 172.242 33.2711V10.6061H162.208V18.5828L166.29 18.8359V26.7246C162.593 27.2234 160.51 26.0938 160.041 23.3359H149.511C149.447 23.72 149.439 24.1223 149.43 24.5143C149.4 25.8739 149.372 27.1096 147.058 27.0327C146.88 27.0269 146.711 27.0219 146.55 27.0171C143.317 26.9205 143.317 26.9205 143.317 23.3469V19.518L143.605 19.4407C144.84 19.1094 145.936 18.8154 146.937 18.5498V10.573ZM104.567 206.461H116.384V219.169C116.384 220.639 116.397 222.11 116.41 223.58C116.44 226.972 116.47 230.362 116.34 233.747C116.241 236.354 117 237.521 119.674 237.147C120.081 237.087 120.502 237.138 120.972 237.194C121.202 237.221 121.442 237.25 121.698 237.268V243.484H104.556V206.461H104.567ZM104.281 111.071V111.081H104.292L104.281 111.071ZM104.281 110.993V111.071L104.193 110.993H104.281ZM104.281 110.993V90.396H121.753V93.8727C121.513 93.8975 121.28 93.9254 121.049 93.9529C120.667 93.9987 120.293 94.0433 119.916 94.0708C117.528 94.2358 116.296 95.3581 116.351 97.9106C116.412 100.892 116.399 103.873 116.385 106.936C116.379 108.27 116.373 109.62 116.373 110.993H104.281ZM157.995 12.2459H151.657C150.446 18.5681 150.758 18.5328 157.116 17.813C157.397 17.7812 157.69 17.748 157.995 17.7141V12.2459Z" fill="#151C3F"/>
</g>
<rect x="189.027" y="83.1514" width="11" height="11" fill="#151C3F"/>
<rect x="178.027" y="86.1514" width="11" height="11" fill="#151C3F"/>
<rect x="167.027" y="89.1514" width="11" height="11" fill="#151C3F"/>
<rect x="156.027" y="92.1514" width="11" height="11" fill="#151C3F"/>
<rect x="207.027" y="111.151" width="11" height="11" fill="#151C3F"/>
<rect x="196.027" y="117.151" width="11" height="11" fill="#151C3F"/>
<rect x="185.027" y="120.151" width="11" height="11" fill="#151C3F"/>
<rect x="174.027" y="123.151" width="11" height="11" fill="#151C3F"/>
<rect x="163.027" y="126.151" width="11" height="11" fill="#151C3F"/>
</g>
<defs>
<linearGradient id="paint0_linear_412_128" x1="2.22485e-06" y1="13.4125" x2="326.042" y2="308.356" gradientUnits="userSpaceOnUse">
<stop stop-color="#2CA8DE"/>
<stop offset="0.5" stop-color="#ED75AF"/>
<stop offset="1" stop-color="#FFE600"/>
</linearGradient>
<clipPath id="clip0_412_128">
<rect width="311" height="325" fill="white"/>
</clipPath>
</defs>
</svg>
