<svg width="491" height="496" viewBox="0 0 491 496" fill="none" xmlns="http://www.w3.org/2000/svg">
<path d="M160.691 495.5V487.823H153.014V464.383H160.691V456.706H184.131V464.383H191.807V472.47H183.721V464.793H161.1V487.414H183.721V479.737H191.807V487.823H184.131V495.5H160.691Z" fill="#151C3F"/>
<path d="M200.594 495.5V456.706H208.681V487.414H239.388V495.5H200.594Z" fill="#151C3F"/>
<path d="M251.803 495.5V487.823H244.126V456.706H252.213V487.414H274.834V456.706H282.92V487.823H275.243V495.5H251.803Z" fill="#151C3F"/>
<path d="M300.293 472.06H322.914V464.793H300.293V472.06ZM300.293 487.414H322.914V480.146H300.293V487.414ZM292.206 495.5V456.706H323.323V464.383H331V487.823H323.323V495.5H292.206Z" fill="#151C3F"/>
<path d="M58.0337 428.061V415.931H104.095V405.03H69.5489V393.515H58.0337V381.386H69.5489V369.87H116.224V382H70.1631V392.901H104.709V404.416H116.224V416.545H104.709V428.061H58.0337Z" fill="#151C3F"/>
<path d="M139.495 428.061V416.545H127.98V369.87H140.109V415.931H174.041V369.87H186.17V416.545H174.655V428.061H139.495Z" fill="#151C3F"/>
<path d="M200.1 428.061V381.386H211.615V369.87H246.775V381.386H258.29V428.061H246.161V382H212.229V428.061H200.1Z" fill="#151C3F"/>
<path d="M284.35 415.931H318.281V382H284.35V415.931ZM272.22 428.061V369.87H318.895V381.386H330.411V416.545H318.895V428.061H272.22Z" fill="#151C3F"/>
<path d="M355.72 392.901H389.652V382H355.72V392.901ZM343.591 428.061V404.723V381.386H355.106V369.87H390.266V381.386H401.781V428.061H389.652V405.03H355.72V428.061H343.591Z" fill="#F7B44F"/>
<path d="M415.711 428.061V369.87H427.84V428.061H415.711Z" fill="#F7B44F"/>
<path fill-rule="evenodd" clip-rule="evenodd" d="M254.19 2.65877e-05V10.5514C254.017 9.79442 253.886 9.21814 253.766 8.68545C253.641 8.13414 253.527 7.62951 253.387 7.01958C252.671 7.01958 251.941 7.00142 251.202 6.98305C249.304 6.93586 247.348 6.88723 245.432 7.14061C244.796 7.22013 244.236 7.89335 243.558 8.70779C243.204 9.13292 242.819 9.59653 242.373 10.0342C242.502 8.4789 242.627 6.99183 242.748 5.54342C242.907 3.65165 243.06 1.82584 243.21 2.65877e-05H254.19ZM95.7058 158.3L93.8403 158.435V180.99C97.2511 181.243 100.662 181.496 104.348 181.771V190.265H129.169C129.22 189.278 129.27 188.31 129.32 187.341L129.32 187.34L129.321 187.331L129.321 187.323L129.321 187.319C129.421 185.379 129.521 183.439 129.631 181.353H140.337V158.006H136.123H136.122C129.829 158.039 129.796 158.039 129.686 164.178C129.653 165.884 129.213 166.764 127.321 166.599C126.214 166.501 125.098 166.522 123.862 166.544H123.861H123.861H123.86H123.86H123.859H123.858H123.858H123.857H123.857H123.856H123.855H123.855H123.854H123.853H123.852H123.852H123.851H123.85C123.283 166.555 122.69 166.566 122.062 166.566V180.913H111.939V166.049H121.952V157.676H129.301V147.917H104.205V157.687C101.204 157.902 98.436 158.102 95.7058 158.3ZM198.176 304.404V324.572V324.583H275.061C275.983 324.544 276.906 324.498 277.829 324.452C279.815 324.352 281.803 324.253 283.786 324.23C287.292 324.192 290.797 324.202 294.329 324.211H294.33H294.331H294.333H294.334H294.336H294.337H294.339H294.34H294.341H294.343H294.344H294.346H294.347H294.349H294.35H294.351H294.353H294.354C295.934 324.215 297.52 324.219 299.112 324.219V304.393H287.186V314.064H210.103V304.404H198.176ZM198.022 111.001V110.993L198 110.982L198.022 111.001ZM198.022 111.087V111.001L198.099 111.07L198.07 111.076L198.022 111.087ZM299.3 111.186C300.076 111.233 300.853 111.283 301.629 111.334L301.636 111.334C303.531 111.457 305.426 111.579 307.321 111.664C308.483 111.716 309.651 111.702 310.875 111.688C311.458 111.682 312.054 111.675 312.668 111.675V129.686C312.668 129.992 312.608 130.301 312.547 130.61C312.502 130.846 312.456 131.081 312.437 131.314C312.173 134.615 312.327 134.78 315.54 134.78H325.299C325.326 135.027 325.362 135.263 325.397 135.492L325.397 135.492L325.397 135.492L325.397 135.492C325.46 135.905 325.519 136.294 325.519 136.683C325.515 141.389 325.505 146.095 325.495 150.801V150.81C325.476 160.217 325.456 169.624 325.486 179.032C325.486 180.968 324.925 181.595 322.999 181.518C320.723 181.426 318.442 181.446 316.064 181.467H316.064H316.063H316.063H316.062H316.062H316.062H316.061H316.061H316.061H316.06H316.06H316.059H316.059H316.059H316.058H316.058H316.056C315.011 181.476 313.946 181.485 312.855 181.485V205.746C311.705 205.746 310.581 205.758 309.475 205.771C306.9 205.801 304.426 205.829 301.963 205.691C299.74 205.57 299.157 206.307 299.179 208.485C299.252 216.313 299.241 224.147 299.231 231.982V231.982V231.983V231.984V231.984V231.985V231.985V231.986V231.986V231.987V231.988V231.988V231.989V231.989V231.99V231.991V231.991C299.227 234.791 299.223 237.592 299.223 240.392V243.682C297.761 243.682 296.319 243.693 294.891 243.705L294.886 243.705C291.477 243.732 288.146 243.759 284.821 243.627C282.235 243.528 281.432 244.419 281.608 246.939C281.752 248.995 281.719 251.061 281.684 253.237V253.237V253.238V253.238V253.238V253.239V253.239V253.239V253.239V253.24V253.24V253.24V253.241V253.241V253.241V253.241C281.668 254.232 281.652 255.245 281.652 256.291C280.39 256.291 279.145 256.299 277.911 256.308H277.906H277.901H277.896H277.892H277.887H277.882H277.877H277.872H277.867H277.863H277.858H277.853H277.848H277.847H277.847H277.846H277.845H277.844H277.843H277.842H277.842H277.841H277.84H277.839H277.838H277.837H277.837H277.836H277.835C274.814 256.328 271.863 256.348 268.911 256.247C266.854 256.181 266.139 256.874 266.238 258.909C266.381 261.561 266.348 264.224 266.26 266.886C266.205 268.878 266.953 269.637 269.01 269.571C272.043 269.477 275.08 269.494 278.226 269.512C279.509 269.519 280.81 269.527 282.136 269.527C282.136 270.795 282.135 272.048 282.134 273.29C282.131 275.742 282.129 278.152 282.136 280.562C282.146 282.23 281.099 282.197 280.082 282.166L280.081 282.166C279.924 282.161 279.768 282.156 279.617 282.158C274.797 282.165 269.978 282.162 265.159 282.16C262.75 282.159 260.34 282.158 257.931 282.158H254.443C254.443 282.933 254.437 283.69 254.431 284.434V284.434V284.435V284.435V284.435V284.435V284.436V284.436V284.436V284.437V284.437V284.437V284.437V284.438V284.438V284.438V284.438C254.417 286.132 254.404 287.759 254.465 289.386C254.531 291.08 254.08 291.917 252.187 291.84C250.098 291.755 248.002 291.773 245.795 291.791H245.794H245.793H245.792H245.791H245.791H245.79H245.789H245.788H245.787H245.786H245.785H245.784H245.783H245.782H245.781H245.78C244.819 291.799 243.837 291.807 242.824 291.807V282.29H216.022V269.527C217.186 269.527 218.352 269.518 219.52 269.509H219.521H219.522H219.523H219.524H219.525H219.526H219.527H219.529H219.53H219.531H219.532H219.533H219.534H219.536H219.537H219.538C222.259 269.488 224.986 269.467 227.707 269.56C229.952 269.637 230.81 268.911 230.678 266.578C230.548 264.314 230.577 262.04 230.607 259.646V259.645V259.645V259.645V259.644V259.644V259.644V259.643V259.643V259.643V259.642V259.642V259.641V259.641V259.641V259.64V259.64C230.62 258.569 230.634 257.474 230.634 256.346H215.956V243.792C217.235 243.792 218.506 243.796 219.771 243.799C222.914 243.808 226.02 243.817 229.126 243.77C230.722 243.748 231.173 244.441 231.129 245.937C231.092 247.244 231.103 248.551 231.113 249.857C231.125 251.301 231.137 252.745 231.085 254.189C231.019 255.884 231.668 256.456 233.318 256.412C235.401 256.351 237.478 256.364 239.668 256.378C240.636 256.384 241.626 256.39 242.648 256.39C242.648 257.45 242.655 258.491 242.662 259.517C242.678 261.961 242.693 264.324 242.615 266.688C242.56 268.481 243.187 269.131 244.992 269.065C247.094 268.987 249.196 269.002 251.401 269.018H251.404C252.337 269.025 253.289 269.032 254.267 269.032V256.39C255.283 256.39 256.273 256.382 257.244 256.374C259.487 256.356 261.63 256.338 263.773 256.423C265.676 256.489 266.392 255.818 266.326 253.892C266.248 251.655 266.263 249.407 266.279 247.067C266.286 246.082 266.293 245.08 266.293 244.056H281.19C281.19 243.542 281.201 243.054 281.213 242.586C281.236 241.61 281.257 240.716 281.168 239.831C280.959 237.73 281.894 236.926 283.863 237.191C286.46 237.554 287.274 236.541 287.23 233.879C287.111 227.318 287.13 220.751 287.149 214.035V214.035V214.034V214.033V214.033V214.032V214.031V214.031V214.03V214.029V214.028V214.028V214.027V214.026V214.026V214.025V214.024C287.157 211.476 287.164 208.906 287.164 206.307C288.12 206.307 289.061 206.296 289.992 206.286H289.994H289.995H289.997H289.998H290H290.001H290.003H290.004H290.006H290.008H290.009H290.011H290.013H290.014H290.016H290.017H290.018C292.143 206.263 294.214 206.241 296.274 206.34C298.464 206.45 299.344 205.834 299.3 203.446C299.197 198.36 299.214 193.274 299.231 188.044V188.042C299.238 186.02 299.245 183.977 299.245 181.903H198.121V205.603H185.183V181.584H172.541V134.791C173.516 134.791 174.495 134.783 175.477 134.775C177.818 134.757 180.175 134.739 182.531 134.824C184.434 134.89 185.095 134.263 185.062 132.315C184.989 127.346 184.999 122.377 185.01 117.277V117.276V117.273V117.269V117.266V117.262V117.259V117.255V117.251V117.248V117.244V117.241V117.237V117.233V117.23V117.226V117.222C185.014 115.395 185.018 113.552 185.018 111.686C185.969 111.686 186.905 111.689 187.832 111.692H187.833H187.835H187.837H187.838H187.84H187.841H187.843H187.844H187.846H187.848H187.849H187.851H187.852H187.854C190.381 111.701 192.829 111.709 195.272 111.653C195.936 111.637 196.6 111.459 197.261 111.282C197.515 111.214 197.769 111.146 198.022 111.087V134.032H185.601V145.98H312.195C312.195 145.108 312.198 144.253 312.202 143.411V143.409V143.407V143.404V143.402V143.4V143.398V143.396V143.394V143.392V143.39V143.388V143.386V143.384C312.214 140.608 312.225 137.98 312.107 135.352C312.085 134.934 310.808 134.274 310.093 134.252C307.511 134.17 304.929 134.179 302.184 134.19C301.244 134.193 300.285 134.197 299.3 134.197V111.186ZM299.201 111.092H299.289H299.289L299.3 111.081V111.186L299.211 111.18L299.201 111.191V111.092ZM299.201 111.092H287.219C287.219 109.599 287.221 108.135 287.224 106.688C287.229 103.846 287.233 101.073 287.219 98.2957C287.197 94.863 286.834 94.3789 283.5 94.4339C281.652 94.4559 281.024 93.8067 281.212 92.0353C281.264 91.5633 281.214 91.0759 281.16 90.5419L281.16 90.5409L281.16 90.5396L281.16 90.5393C281.134 90.29 281.108 90.0306 281.09 89.7578C280.592 89.7299 280.109 89.7035 279.615 89.6763C278.745 89.6286 277.839 89.5789 276.745 89.5158C276.745 89.0523 276.739 88.5908 276.733 88.1306V88.1304V88.1301V88.1299V88.1296V88.1294C276.719 87.0608 276.705 85.9998 276.767 84.9388C276.866 83.1124 276.194 81.9681 274.324 81.649C274.158 81.6214 273.997 81.5634 273.834 81.505C273.738 81.4704 273.641 81.4356 273.543 81.407L273.498 81.3944C266.545 79.4485 266.49 79.4331 266.347 72.264C266.314 70.4926 265.786 69.8104 263.971 69.8874C261.932 69.9721 259.888 69.9545 257.771 69.9362H257.77H257.77H257.77H257.77H257.77L257.768 69.9362C256.858 69.9284 255.935 69.9204 254.993 69.9204V57.9718H266.501V70.4596C267.781 70.4596 269.04 70.4712 270.283 70.4826H270.284H270.285H270.285H270.286H270.287C273.242 70.5098 276.11 70.5362 278.967 70.4046C281.465 70.2945 282.323 70.9987 282.224 73.6173C282.076 77.4331 282.104 81.2544 282.133 85.1827V85.1828V85.183V85.1832V85.1833V85.1845V85.1852V85.1858V85.1864V85.1871V85.1878C282.146 86.8079 282.158 88.4463 282.158 90.1099H299.201V111.092ZM185.392 160.632V160.632V160.632V160.631V160.631V160.631V160.631V160.631V160.631V160.631V160.63V160.63V160.63V160.63C185.397 159.759 185.403 158.882 185.403 157.995L312.184 158.006V168.051C312.195 169.361 311.744 169.955 310.236 169.955C287.091 169.948 263.949 169.962 240.807 169.977C226.92 169.986 213.033 169.995 199.145 169.999C195.217 169.999 191.278 169.955 187.361 169.746C186.69 169.713 185.524 168.799 185.491 168.249C185.359 165.74 185.375 163.219 185.392 160.635V160.635V160.635V160.634V160.634V160.634V160.634V160.633V160.633V160.633V160.633V160.632V160.632V160.632V160.632ZM367.075 157.676V157.654L367.075 157.665L367.076 157.677L367.075 157.676ZM367.079 157.736L367.076 157.677L367.141 157.731L367.11 157.733L367.079 157.736ZM367.079 157.736C367.177 159.531 367.28 161.322 367.391 163.265L367.395 163.324C367.444 164.18 367.495 165.066 367.548 165.994C368.052 165.994 368.559 166.001 369.067 166.008C370.236 166.024 371.414 166.041 372.587 165.972C374.028 165.884 374.6 166.434 374.501 167.853C374.415 169.08 374.356 170.313 374.298 171.548L374.298 171.554L374.296 171.589C374.274 172.053 374.252 172.517 374.228 172.981C376.39 173.002 378.555 173.022 380.719 173.041H380.72H380.721H380.723H380.724L380.76 173.041C382.911 173.06 385.061 173.079 387.209 173.1V166.071C387.716 166.071 388.216 166.06 388.71 166.049L388.711 166.049H388.712C389.78 166.025 390.821 166.002 391.852 166.093C393.701 166.258 394.295 165.476 394.196 163.716C394.12 162.478 394.138 161.24 394.156 159.945V159.944V159.942V159.939V159.937V159.934V159.931V159.928C394.165 159.341 394.174 158.743 394.174 158.127H405.165V168.788C405.165 169.815 405.155 170.842 405.145 171.869V171.871C405.122 174.232 405.098 176.593 405.198 178.954C405.275 180.924 404.549 181.518 402.668 181.43C400.771 181.345 398.87 181.363 396.884 181.381H396.884H396.884H396.883H396.883H396.883H396.882H396.882H396.882H396.881H396.881H396.88H396.88H396.88H396.879H396.879L396.876 181.381C396.019 181.389 395.146 181.397 394.251 181.397V190.243H367.515V181.452C366.62 181.452 365.752 181.447 364.901 181.442H364.899C362.915 181.431 361.028 181.42 359.142 181.474C357.822 181.507 357.04 181.221 357.051 179.714C357.07 175.891 357.075 172.073 357.079 168.253C357.083 165.388 357.086 162.523 357.095 159.656C357.095 159.432 357.176 159.204 357.26 158.967L357.26 158.967L357.26 158.966L357.26 158.966L357.26 158.966L357.26 158.965L357.26 158.965L357.26 158.965C357.304 158.842 357.348 158.717 357.382 158.589C360.65 158.305 363.865 158.02 367.079 157.736ZM367.13 157.665H367.075L367.13 157.72V157.709V157.665ZM367.13 157.665H393.503C393.654 155.415 393.795 153.372 393.934 151.377L393.935 151.361C393.984 150.655 394.032 149.955 394.08 149.254C394.104 148.908 394.128 148.561 394.152 148.214H367.13V157.665ZM372.798 173.136C373.258 173.104 373.718 173.072 374.174 173.029C374.255 174.348 374.333 175.668 374.413 177.018L374.416 177.075L374.42 177.141L374.421 177.16C374.49 178.316 374.559 179.494 374.633 180.715H367.295C367.295 180.187 367.281 179.656 367.267 179.126C367.231 177.765 367.196 176.403 367.394 175.082C367.482 174.465 368.648 173.717 369.429 173.541C370.528 173.294 371.665 173.215 372.798 173.136L372.798 173.136ZM386.747 180.462C386.931 177.956 387.105 175.579 387.279 173.203C387.52 173.215 387.76 173.232 388.001 173.248C388.463 173.279 388.926 173.31 389.388 173.31C394.075 173.31 395.538 175.203 394.174 179.714C394.031 180.198 393.172 180.792 392.633 180.792C391.39 180.815 390.147 180.717 388.749 180.608L388.748 180.608L388.747 180.608C388.117 180.558 387.455 180.506 386.747 180.462ZM194.094 34.2176H162C162 36.0873 161.999 37.9485 161.998 39.8026V39.8224V39.8421V39.862V39.8818V39.9016V39.9214V39.9413V39.9611V39.9809V40.0008V40.0207V40.0405V40.0604V40.0803C161.993 49.1178 161.988 57.9898 162.088 66.8618C162.099 67.39 163.452 68.3472 164.19 68.3582C172.781 68.5105 181.382 68.5504 189.984 68.5902H189.985L192.136 68.6002C192.613 68.6002 193.086 68.5062 193.524 68.4189L193.524 68.4189L193.524 68.4189C193.722 68.3795 193.913 68.3415 194.094 68.3142V34.2176ZM173.157 53.956H182.101H182.112C182.112 53.5189 182.115 53.135 182.118 52.7849V52.7838V52.7827V52.7817V52.7808V52.7799V52.7786V52.7783V52.7779V52.7776V52.7773V52.7771V52.7768V52.7766V52.7764V52.7762V52.7761V52.7759V52.7757V52.7756C182.123 52.1605 182.127 51.6499 182.112 51.1394C182.017 47.5599 180.161 45.7628 176.545 45.7482H173.322C173.26 45.6028 173.198 45.4787 173.142 45.3685C173.038 45.1617 172.958 45.0038 172.958 44.846C172.952 44.411 172.944 44.0111 172.937 43.6435C172.891 41.2477 172.872 40.2225 173.367 39.7973C173.737 39.4792 174.396 39.4966 175.547 39.5271C176.205 39.5445 177.024 39.5661 178.042 39.5318C178.991 39.503 179.94 39.5119 180.968 39.5214H180.969H180.969H180.969H180.97H180.97H180.97H180.971H180.971H180.971H180.972H180.972H180.973H180.973H180.974H180.974C181.518 39.5265 182.084 39.5318 182.685 39.5318C182.784 41.7213 182.883 43.7677 182.982 45.7592C183.549 45.8526 184.112 45.9214 184.665 45.9889L184.665 45.9889C186.067 46.1599 187.404 46.3231 188.571 46.8594C188.925 47.0184 188.895 47.9935 188.863 49.0026V49.0027C188.847 49.5301 188.83 50.0669 188.868 50.5012C189.145 53.8258 187.469 53.6971 185.717 53.5627C184.685 53.4836 183.628 53.4024 182.927 54.022C182.919 54.1377 182.908 54.2671 182.896 54.407C182.861 54.8394 182.817 55.3714 182.817 55.9034C182.811 56.4967 182.817 57.0139 182.822 57.4648C182.837 58.9076 182.845 59.6717 182.468 60.0756C182.043 60.5303 181.13 60.5285 179.188 60.5248C178.915 60.5243 178.621 60.5238 178.306 60.5244C172.188 60.5464 172.144 60.4804 173.157 53.956ZM303.789 34.2615H334.761V68.325H303.789V34.2615ZM329.226 53.9999H309.598C309.598 54.3963 309.611 54.7715 309.624 55.1308C309.649 55.8685 309.672 56.5395 309.576 57.1906C309.169 59.8752 310.269 60.7224 312.899 60.5793C315.432 60.4416 317.97 60.4742 320.51 60.5068C321.622 60.521 322.734 60.5353 323.846 60.5353C327.88 60.5353 329.674 58.3605 329.226 54.0109V53.9999ZM315.209 45.561C323.032 46.2872 323.978 45.473 322.405 39.7077H315.209V45.561ZM376.57 256.115V224.131H346.632V256.115H376.57ZM356.083 234.154H370.848C370.848 234.663 370.863 235.151 370.877 235.621C370.911 236.726 370.941 237.737 370.771 238.709C370.672 239.314 369.748 240.205 369.176 240.216C363.994 240.348 358.801 240.381 353.608 240.282C353.036 240.271 352.067 239.369 351.979 238.786C351.374 234.539 351.759 234.154 356.083 234.154ZM303.811 260.978H334.662V294.689H303.811V260.978ZM328.236 286.58H322.32C321.553 281.029 322.556 280.193 328.236 281.695V286.58ZM322.273 286.635H316.387L316.379 286.477C316.295 284.652 316.231 283.257 316.156 281.717H309.664V286.767H315.672V291.696H322.273V286.635ZM325.427 272.241L325.423 272.241C324.431 272.193 323.472 272.147 322.482 272.101C322.414 270.964 322.354 269.92 322.293 268.841C322.255 268.176 322.216 267.497 322.174 266.776C321.618 266.806 321.078 266.823 320.551 266.84C319.365 266.877 318.242 266.912 317.146 267.095C316.552 267.194 315.551 268.096 315.617 268.459C316.365 272.475 313.9 272.486 311.139 272.255C310.791 272.225 310.438 272.293 310.073 272.364L310.072 272.364C309.906 272.396 309.737 272.429 309.565 272.453V277.063C313.541 277.452 315.892 276.179 316.618 273.245C319.985 273.062 321.965 274.342 322.559 277.085H328.269V272.376C327.263 272.329 326.331 272.284 325.427 272.241ZM194.249 294.59V260.835C192.514 260.835 190.786 260.834 189.064 260.833C180.473 260.83 172.034 260.827 163.596 260.901C163.123 260.901 162.243 261.825 162.243 262.331C162.171 267.828 162.138 273.323 162.105 278.817V278.818V278.818V278.819V278.82V278.821V278.821V278.822V278.823V278.824V278.824C162.078 283.4 162.051 287.976 162.001 292.555C161.979 294.37 162.617 294.887 164.388 294.876C170.483 294.826 176.581 294.827 182.679 294.828C186.004 294.828 189.33 294.829 192.653 294.821C193.012 294.821 193.37 294.753 193.743 294.681L193.743 294.681C193.908 294.649 194.077 294.617 194.249 294.59ZM169.13 274.21V287.152C169.465 287.167 169.777 287.172 170.073 287.176C170.69 287.186 171.235 287.195 171.771 287.284C174.356 287.703 175.226 286.503 175.072 284.061C175.019 283.165 175.085 282.26 175.149 281.372C175.179 280.961 175.208 280.555 175.226 280.155H182.762V287.273C183.095 287.333 183.385 287.393 183.649 287.447L183.649 287.447L183.651 287.448L183.652 287.448L183.653 287.448L183.654 287.448L183.655 287.449L183.657 287.449C184.165 287.553 184.573 287.637 184.985 287.659C188.649 287.824 188.836 287.626 188.847 283.907V277.855C188.847 275.259 187.596 273.924 185.095 273.85C184.627 273.836 184.163 273.782 183.643 273.722L183.642 273.722L183.639 273.722C183.378 273.692 183.103 273.66 182.806 273.63C182.806 273.124 182.819 272.631 182.831 272.148C182.86 270.996 182.888 269.904 182.74 268.833C182.652 268.162 181.904 267.106 181.376 267.051C179.896 266.898 178.393 266.922 176.879 266.945H176.877C176.321 266.954 175.762 266.963 175.204 266.963C175.161 267.75 175.193 268.54 175.222 269.289C175.285 270.873 175.34 272.273 174.676 273.08C174.065 273.827 172.662 273.917 171.164 274.013C170.484 274.057 169.785 274.102 169.13 274.21ZM230.611 70.6026C230.611 68.4465 230.62 66.3324 230.628 64.2484V64.2481V64.2478V64.2475V64.2473V64.247V64.2467V64.2464V64.2461V64.2459C230.647 59.025 230.667 53.9929 230.556 48.9608C230.512 46.7054 231.239 46.1662 233.362 46.2102C238.273 46.2972 243.19 46.2819 248.161 46.2664H248.162C250.107 46.2603 252.06 46.2543 254.025 46.2543V57.3777C253.23 57.3777 252.429 57.3907 251.626 57.4037C249.762 57.4339 247.88 57.4644 246.004 57.3337C243.462 57.1577 242.483 57.8728 242.582 60.6344C242.73 64.9619 242.702 69.2894 242.673 73.8067L242.673 73.8142V73.815V73.816V73.8168V73.8177V73.8187V73.8196V73.8205V73.8214C242.66 75.6966 242.648 77.6044 242.648 79.5586C241.054 79.7419 239.475 79.9213 237.895 80.1009L237.888 80.1017L237.885 80.102L237.88 80.1025C235.67 80.3537 233.456 80.6052 231.195 80.8679V89.4388H215.945V70.6136H230.611V70.6026ZM149.854 110.431V80.7798H119.322V110.431H149.854ZM144.593 97.4055C144.578 97.9259 144.562 98.4697 144.562 99.0438C143.078 99.0438 141.621 99.0467 140.186 99.0496C135.396 99.0592 130.844 99.0684 126.298 98.9668C125.704 98.9558 124.9 97.8996 124.636 97.1624C124.456 96.6481 124.494 96.0636 124.534 95.4726C124.557 95.128 124.58 94.7812 124.559 94.4448C124.46 92.9375 125.109 92.2773 126.628 92.2883C128.421 92.303 130.215 92.3067 132.008 92.3103H132.009C135.595 92.3177 139.182 92.325 142.768 92.4203C143.384 92.4314 144.364 93.4326 144.485 94.1037C144.661 95.1384 144.629 96.2105 144.593 97.4055ZM376.581 110.497H346.643V80.6806C348.384 80.6806 350.12 80.6799 351.852 80.6792C359.619 80.6759 367.304 80.6727 374.997 80.7356C375.525 80.7356 376.504 81.5938 376.515 82.0559C376.588 89.8891 376.585 97.7222 376.582 105.682C376.582 107.282 376.581 108.886 376.581 110.497ZM352.442 97.9105C352.201 94.2208 354.218 92.3977 358.494 92.4413C358.497 92.6487 358.499 92.8561 358.502 93.0633L358.511 93.6774C358.529 94.9747 358.548 96.269 358.548 97.5694C358.548 97.7384 358.494 97.9074 358.425 98.1222C358.391 98.2291 358.353 98.3473 358.317 98.4826H352.783C352.724 98.3905 352.666 98.3133 352.615 98.2454L352.615 98.2447C352.514 98.1102 352.442 98.0128 352.442 97.9105ZM358.57 92.3762H364.577C364.604 92.162 364.63 91.9549 364.656 91.7548C365.003 89.0199 365.185 87.5851 364.555 86.9219C363.86 86.19 362.176 86.3976 358.633 86.8342L358.57 86.842V92.3762ZM364.544 105.04V99.1207H358.625V105.04H364.544ZM370.618 98.4936L370.663 98.1545L370.712 97.7874C371.477 92.0987 371.496 91.9512 365.105 92.8823V98.4936H370.618ZM119.19 224.131V256.126H149.7V224.131H119.19ZM128.267 233.219H130.886L130.875 233.241V238.621H138.081V233.362H131.337V226.859H138.83V232.58C138.995 232.706 139.114 232.813 139.206 232.897C139.341 233.019 139.42 233.091 139.512 233.098C142.746 233.435 144.364 235.265 144.364 238.588C144.364 239.439 144.349 240.29 144.334 241.142V241.143V241.143V241.143V241.144V241.144V241.144V241.145C144.299 243.134 144.265 245.124 144.419 247.104C144.621 249.676 143.183 249.704 141.546 249.735L141.542 249.735C141.473 249.736 141.403 249.737 141.333 249.739L141.232 249.741C141.194 249.742 141.156 249.743 141.118 249.744C139.358 249.788 137.949 249.59 138.268 247.258C138.333 246.801 138.318 246.325 138.3 245.732C138.29 245.411 138.279 245.056 138.279 244.65C137.668 244.65 137.065 244.64 136.471 244.63C134.852 244.602 133.289 244.575 131.744 244.76C131.304 244.815 130.677 246.301 130.732 247.082C130.908 249.414 129.819 249.854 127.783 249.81C125.748 249.755 124.438 249.414 124.537 246.939C124.63 244.566 124.609 242.188 124.588 239.812L124.588 239.812C124.579 238.794 124.57 237.777 124.57 236.761C124.578 234.378 125.81 233.197 128.267 233.219ZM240.777 10.5731H230.644C230.644 12.5092 230.65 14.4227 230.656 16.3197L230.656 16.3276V16.328V16.3285V16.3289V16.3293C230.672 21.1558 230.687 25.8767 230.6 30.5975C230.556 32.853 231.216 33.6122 233.538 33.5792C240.176 33.4985 246.818 33.496 253.46 33.4936H253.46H253.46H253.46H253.46H253.464C256.783 33.4924 260.102 33.4911 263.42 33.4801C264.047 33.4801 264.668 33.4148 265.292 33.3493L265.292 33.3493C265.555 33.3216 265.818 33.2939 266.083 33.2711V10.6061H256.049V18.5828L260.13 18.8359V26.7246C256.434 27.2234 254.351 26.0938 253.881 23.3359H243.352C243.288 23.72 243.279 24.1223 243.27 24.5143C243.24 25.8739 243.213 27.1096 240.898 27.0327C240.721 27.027 240.551 27.0219 240.39 27.0171C237.157 26.9206 237.157 26.9206 237.157 23.3469V19.5181L237.446 19.4407C238.68 19.1094 239.776 18.8154 240.777 18.5498V10.5731ZM198.408 206.461H210.224V219.169C210.224 220.639 210.237 222.11 210.25 223.58C210.281 226.972 210.311 230.362 210.18 233.747C210.081 236.354 210.84 237.521 213.514 237.147C213.921 237.087 214.343 237.138 214.813 237.194C215.042 237.221 215.282 237.25 215.538 237.268V243.484H198.397V206.461H198.408ZM198.121 111.071V111.081H198.132L198.121 111.071ZM198.121 110.993V111.071L198.033 110.993H198.121ZM198.121 110.993V90.396H215.593V93.8728C215.354 93.8976 215.12 93.9255 214.89 93.953C214.507 93.9987 214.134 94.0433 213.756 94.0708C211.368 94.2358 210.136 95.3581 210.191 97.9107C210.252 100.892 210.239 103.873 210.225 106.936C210.219 108.27 210.213 109.62 210.213 110.993H198.121ZM251.835 12.2459H245.498C244.286 18.5681 244.598 18.5328 250.957 17.813C251.238 17.7812 251.53 17.7481 251.835 17.7141V12.2459Z" fill="url(#paint0_linear_365_1359)"/>
<mask id="mask0_365_1359" style="mask-type:alpha" maskUnits="userSpaceOnUse" x="164" y="42" width="175" height="105">
<path d="M217.999 42.1514H281.499L338.499 146.151H164.999L217.999 42.1514Z" fill="#D9D9D9"/>
</mask>
<g mask="url(#mask0_365_1359)">
<path fill-rule="evenodd" clip-rule="evenodd" d="M254.191 0V10.5513C254.018 9.79439 253.887 9.21812 253.766 8.68542C253.642 8.13411 253.527 7.62948 253.387 7.01955C252.672 7.01955 251.942 7.0014 251.202 6.98302C249.305 6.93584 247.349 6.8872 245.433 7.14058C244.796 7.2201 244.236 7.89332 243.559 8.70776C243.205 9.13289 242.819 9.5965 242.374 10.0342C242.503 8.47888 242.627 6.9918 242.749 5.5434C242.907 3.65162 243.061 1.82581 243.21 0H254.191ZM95.7063 158.3L93.8408 158.435V180.99C97.2516 181.243 100.662 181.496 104.348 181.771V190.265H129.17C129.221 189.278 129.271 188.31 129.321 187.341L129.321 187.34L129.321 187.331L129.322 187.323L129.322 187.319C129.422 185.379 129.522 183.439 129.632 181.353H140.337V158.006H136.123H136.123C129.83 158.039 129.797 158.039 129.687 164.178C129.654 165.884 129.214 166.764 127.321 166.599C126.215 166.501 125.098 166.522 123.862 166.544H123.862H123.861H123.861H123.86H123.859H123.859H123.858H123.858H123.857H123.856H123.856H123.855H123.854H123.854H123.853H123.852H123.851H123.851C123.283 166.555 122.691 166.566 122.062 166.566V180.913H111.94V166.049H121.952V157.676H129.302V147.917H104.205V157.687C101.204 157.902 98.4365 158.102 95.7063 158.3ZM198.177 304.404V324.572V324.583H275.062C275.983 324.544 276.906 324.498 277.829 324.452C279.816 324.352 281.804 324.253 283.787 324.23C287.292 324.192 290.798 324.202 294.329 324.211H294.331H294.332H294.333H294.335H294.336H294.338H294.339H294.341H294.342H294.343H294.345H294.346H294.348H294.349H294.35H294.352H294.353H294.355C295.935 324.215 297.52 324.219 299.113 324.219V304.393H287.186V314.064H210.103V304.404H198.177ZM198.023 111.001V110.993L198.001 110.982L198.023 111.001ZM198.023 111.087V111.001L198.1 111.07L198.07 111.076L198.023 111.087ZM299.3 111.186C300.077 111.233 300.853 111.283 301.629 111.334L301.637 111.334C303.532 111.457 305.426 111.579 307.321 111.664C308.484 111.716 309.652 111.702 310.876 111.688C311.459 111.682 312.054 111.675 312.668 111.675V129.686C312.668 129.992 312.608 130.301 312.548 130.61C312.502 130.846 312.456 131.081 312.437 131.314C312.173 134.615 312.327 134.78 315.54 134.78H325.299C325.327 135.027 325.362 135.263 325.397 135.492L325.397 135.492L325.397 135.492L325.397 135.492C325.46 135.905 325.519 136.294 325.519 136.683C325.516 141.389 325.506 146.095 325.496 150.801V150.809C325.476 160.217 325.457 169.624 325.486 179.032C325.486 180.968 324.925 181.595 323 181.518C320.724 181.426 318.443 181.446 316.064 181.467H316.064H316.064H316.063H316.063H316.063H316.062H316.062H316.061H316.061H316.061H316.06H316.06H316.06H316.059H316.059H316.058H316.057C315.011 181.476 313.947 181.485 312.855 181.485V205.746C311.705 205.746 310.581 205.758 309.476 205.771C306.9 205.801 304.426 205.829 301.963 205.691C299.741 205.57 299.157 206.307 299.179 208.485C299.252 216.313 299.242 224.147 299.231 231.982V231.982V231.983V231.983V231.984V231.985V231.985V231.986V231.986V231.987V231.988V231.988V231.989V231.989V231.99V231.991V231.991C299.227 234.791 299.223 237.592 299.223 240.392V243.682C297.762 243.682 296.32 243.693 294.891 243.705L294.887 243.705C291.477 243.732 288.147 243.759 284.821 243.627C282.236 243.528 281.432 244.419 281.609 246.939C281.752 248.995 281.719 251.061 281.684 253.237V253.237V253.238V253.238V253.238V253.238V253.239V253.239V253.239V253.24V253.24V253.24V253.241V253.241V253.241V253.241C281.669 254.232 281.653 255.245 281.653 256.291C280.391 256.291 279.145 256.299 277.912 256.308H277.907H277.902H277.897H277.892H277.887H277.882H277.878H277.873H277.868H277.863H277.858H277.854H277.849H277.848H277.847H277.846H277.845H277.845H277.844H277.843H277.842H277.841H277.84H277.84H277.839H277.838H277.837H277.836H277.835C274.814 256.328 271.863 256.348 268.912 256.247C266.854 256.181 266.139 256.874 266.238 258.909C266.381 261.561 266.348 264.224 266.26 266.886C266.205 268.878 266.953 269.637 269.011 269.571C272.043 269.477 275.081 269.494 278.227 269.512C279.51 269.519 280.811 269.527 282.137 269.527C282.137 270.795 282.135 272.048 282.134 273.29C282.132 275.742 282.129 278.152 282.137 280.562C282.146 282.23 281.099 282.197 280.083 282.166L280.081 282.166C279.924 282.161 279.768 282.156 279.617 282.158C274.798 282.165 269.979 282.162 265.16 282.16C262.75 282.159 260.341 282.158 257.931 282.158H254.443C254.443 282.933 254.437 283.69 254.431 284.434V284.434V284.435V284.435V284.435V284.435V284.436V284.436V284.436V284.436V284.437V284.437V284.437V284.438V284.438V284.438V284.438C254.418 286.132 254.404 287.759 254.465 289.386C254.532 291.08 254.08 291.917 252.188 291.84C250.098 291.755 248.003 291.772 245.795 291.791H245.794H245.794H245.793H245.792H245.791H245.79H245.789H245.788H245.788H245.787H245.786H245.785H245.784H245.783H245.782H245.781C244.82 291.799 243.837 291.807 242.825 291.807V282.29H216.023V269.527C217.187 269.527 218.353 269.518 219.52 269.509H219.521H219.522H219.523H219.525H219.526H219.527H219.528H219.529H219.53H219.531H219.533H219.534H219.535H219.536H219.537H219.538C222.259 269.488 224.986 269.467 227.708 269.56C229.952 269.637 230.81 268.911 230.678 266.578C230.549 264.314 230.577 262.04 230.607 259.646V259.645V259.645V259.645V259.644V259.644V259.644V259.643V259.643V259.642V259.642V259.642V259.641V259.641V259.641V259.64V259.64C230.621 258.569 230.634 257.474 230.634 256.346H215.957V243.792C217.236 243.792 218.507 243.796 219.772 243.799C222.914 243.808 226.02 243.817 229.127 243.77C230.722 243.748 231.173 244.441 231.129 245.937C231.093 247.244 231.103 248.551 231.114 249.857C231.126 251.301 231.137 252.745 231.085 254.189C231.019 255.884 231.668 256.456 233.319 256.412C235.401 256.351 237.479 256.364 239.668 256.378C240.636 256.384 241.627 256.39 242.649 256.39C242.649 257.45 242.656 258.491 242.662 259.517C242.678 261.961 242.693 264.324 242.616 266.688C242.561 268.481 243.188 269.131 244.992 269.065C247.095 268.987 249.197 269.002 251.402 269.018H251.404C252.338 269.025 253.289 269.032 254.267 269.032V256.39C255.284 256.39 256.273 256.382 257.244 256.374C259.488 256.356 261.631 256.338 263.774 256.423C265.677 256.489 266.392 255.818 266.326 253.892C266.249 251.655 266.264 249.407 266.28 247.067C266.286 246.082 266.293 245.08 266.293 244.056H281.19C281.19 243.542 281.202 243.054 281.213 242.586C281.236 241.61 281.258 240.716 281.168 239.831C280.959 237.73 281.895 236.926 283.864 237.191C286.461 237.554 287.275 236.541 287.231 233.879C287.111 227.318 287.13 220.751 287.15 214.035V214.035V214.034V214.033V214.033V214.032V214.031V214.031V214.03V214.029V214.028V214.028V214.027V214.026V214.026V214.025V214.024C287.157 211.476 287.165 208.906 287.165 206.307C288.12 206.307 289.062 206.296 289.992 206.286H289.994H289.996H289.997H289.999H290H290.002H290.003H290.005H290.007H290.008H290.01H290.011H290.013H290.015H290.016H290.018H290.019C292.144 206.263 294.215 206.24 296.275 206.34C298.464 206.45 299.344 205.834 299.3 203.446C299.197 198.36 299.214 193.274 299.232 188.043V188.042C299.239 186.02 299.245 183.977 299.245 181.903H198.122V205.603H185.183V181.584H172.541V134.791C173.517 134.791 174.496 134.783 175.478 134.775C177.819 134.757 180.175 134.739 182.532 134.824C184.435 134.89 185.095 134.263 185.062 132.315C184.989 127.346 185 122.377 185.01 117.277V117.276V117.273V117.269V117.266V117.262V117.259V117.255V117.251V117.248V117.244V117.241V117.237V117.233V117.23V117.226V117.222C185.014 115.395 185.018 113.552 185.018 111.686C185.969 111.686 186.906 111.689 187.832 111.692H187.834H187.835H187.837H187.839H187.84H187.842H187.843H187.845H187.847H187.848H187.85H187.851H187.853H187.854C190.381 111.701 192.83 111.709 195.272 111.653C195.937 111.637 196.601 111.459 197.261 111.282C197.516 111.214 197.77 111.146 198.023 111.087V134.032H185.601V145.98H312.195C312.195 145.108 312.199 144.253 312.202 143.411V143.409V143.407V143.404V143.402V143.4V143.398V143.396V143.394V143.392V143.39V143.388V143.386V143.384C312.214 140.608 312.225 137.98 312.107 135.352C312.085 134.934 310.809 134.274 310.094 134.252C307.512 134.17 304.93 134.179 302.184 134.19C301.244 134.193 300.285 134.197 299.3 134.197V111.186ZM299.201 111.092H299.289H299.289L299.3 111.081V111.186L299.211 111.18L299.201 111.191V111.092ZM299.201 111.092H287.219C287.219 109.599 287.222 108.135 287.224 106.688C287.229 103.846 287.234 101.073 287.219 98.2957C287.197 94.8629 286.834 94.3788 283.501 94.4339C281.652 94.4559 281.025 93.8067 281.212 92.0353C281.264 91.5632 281.215 91.0758 281.161 90.5419L281.16 90.5408L281.16 90.5396L281.16 90.5393C281.135 90.29 281.109 90.0306 281.091 89.7578C280.592 89.7299 280.11 89.7034 279.615 89.6763C278.746 89.6286 277.839 89.5789 276.745 89.5158C276.745 89.0523 276.739 88.5907 276.733 88.1306V88.1304V88.1301V88.1299V88.1296V88.1294C276.719 87.0608 276.706 85.9998 276.767 84.9387C276.866 83.1123 276.195 81.9681 274.325 81.649C274.159 81.6214 273.997 81.5634 273.835 81.505C273.738 81.4704 273.642 81.4356 273.543 81.407L273.498 81.3944C266.546 79.4485 266.49 79.4331 266.348 72.2639C266.315 70.4926 265.787 69.8104 263.971 69.8874C261.933 69.9721 259.888 69.9544 257.771 69.9362H257.771H257.771H257.77H257.77H257.77L257.768 69.9362C256.858 69.9284 255.935 69.9204 254.993 69.9204V57.9718H266.502V70.4595C267.782 70.4595 269.04 70.4711 270.284 70.4826H270.284H270.285H270.286H270.286H270.287C273.243 70.5098 276.111 70.5362 278.968 70.4045C281.465 70.2945 282.323 70.9987 282.224 73.6172C282.076 77.4331 282.105 81.2544 282.134 85.1826V85.1828V85.183V85.1831V85.1833V85.1845V85.1852V85.1858V85.1864V85.1871V85.1878C282.146 86.8079 282.158 88.4462 282.158 90.1099H299.201V111.092ZM185.392 160.632V160.632V160.631V160.631V160.631V160.631V160.631V160.631V160.631V160.631V160.63V160.63V160.63V160.63C185.398 159.759 185.403 158.882 185.403 157.995L312.184 158.006V168.051C312.195 169.361 311.744 169.955 310.237 169.955C287.091 169.948 263.95 169.962 240.807 169.977C226.921 169.986 213.034 169.995 199.145 169.999C195.217 169.999 191.278 169.955 187.362 169.746C186.69 169.713 185.524 168.799 185.491 168.249C185.36 165.74 185.376 163.219 185.392 160.635V160.635V160.634V160.634V160.634V160.634V160.634V160.633V160.633V160.633V160.633V160.632V160.632V160.632V160.632ZM367.075 157.676V157.654L367.076 157.665L367.076 157.677L367.075 157.676ZM367.08 157.736L367.076 157.677L367.141 157.731L367.111 157.733L367.08 157.736ZM367.08 157.736C367.177 159.531 367.28 161.322 367.392 163.265L367.395 163.324C367.445 164.18 367.495 165.066 367.548 165.994C368.052 165.994 368.559 166.001 369.068 166.008C370.236 166.024 371.415 166.041 372.587 165.972C374.029 165.884 374.601 166.434 374.502 167.853C374.415 169.08 374.357 170.313 374.298 171.548L374.298 171.554L374.296 171.589C374.274 172.053 374.252 172.517 374.229 172.981C376.391 173.002 378.555 173.022 380.719 173.041H380.721H380.722H380.723H380.725L380.761 173.041C382.911 173.06 385.062 173.079 387.21 173.1V166.071C387.717 166.071 388.216 166.06 388.71 166.049L388.711 166.049H388.712C389.781 166.025 390.822 166.002 391.853 166.093C393.701 166.258 394.295 165.476 394.196 163.716C394.121 162.478 394.138 161.24 394.157 159.945V159.944V159.942V159.939V159.937V159.934V159.931V159.928C394.165 159.341 394.174 158.743 394.174 158.127H405.166V168.788C405.166 169.815 405.155 170.842 405.145 171.869V171.871C405.122 174.232 405.099 176.593 405.199 178.954C405.276 180.924 404.549 181.518 402.668 181.43C400.772 181.345 398.87 181.363 396.885 181.381H396.885H396.884H396.884H396.884H396.883H396.883H396.882H396.882H396.882H396.881H396.881H396.881H396.88H396.88H396.879L396.877 181.381C396.019 181.389 395.146 181.397 394.251 181.397V190.243H367.515V181.452C366.621 181.452 365.752 181.447 364.901 181.442H364.899C362.915 181.431 361.029 181.42 359.142 181.474C357.822 181.507 357.041 181.221 357.052 179.714C357.071 175.891 357.075 172.072 357.08 168.253C357.083 165.388 357.087 162.523 357.096 159.656C357.096 159.432 357.177 159.203 357.26 158.967L357.26 158.967L357.26 158.966L357.26 158.966L357.26 158.966L357.26 158.965L357.261 158.965L357.261 158.965C357.304 158.842 357.348 158.717 357.382 158.589C360.651 158.305 363.865 158.02 367.08 157.736ZM367.131 157.665H367.076L367.131 157.72V157.709V157.665ZM367.131 157.665H393.503C393.654 155.415 393.796 153.372 393.934 151.377L393.935 151.361C393.984 150.655 394.033 149.955 394.081 149.254C394.105 148.908 394.129 148.561 394.153 148.214H367.131V157.665ZM372.799 173.136C373.259 173.104 373.719 173.072 374.175 173.029C374.256 174.348 374.334 175.668 374.413 177.018L374.417 177.075L374.421 177.141L374.422 177.16C374.49 178.316 374.56 179.494 374.634 180.715H367.295C367.295 180.187 367.281 179.656 367.267 179.126C367.232 177.765 367.196 176.403 367.394 175.082C367.482 174.465 368.648 173.717 369.43 173.541C370.528 173.294 371.665 173.215 372.798 173.136L372.799 173.136ZM386.748 180.462C386.932 177.956 387.106 175.579 387.279 173.203C387.52 173.215 387.761 173.232 388.002 173.248C388.464 173.279 388.926 173.31 389.388 173.31C394.075 173.31 395.538 175.203 394.174 179.714C394.031 180.198 393.173 180.792 392.634 180.792C391.391 180.815 390.148 180.717 388.75 180.608L388.748 180.608L388.748 180.608C388.117 180.558 387.455 180.506 386.748 180.462ZM194.095 34.2176H162.001C162.001 36.0872 162 37.9484 161.998 39.8026V39.8223V39.8421V39.8619V39.8818V39.9016V39.9214V39.9412V39.9611V39.9809V40.0008V40.0206V40.0405V40.0604V40.0803C161.994 49.1178 161.989 57.9898 162.089 66.8618C162.1 67.3899 163.453 68.3471 164.19 68.3582C172.781 68.5105 181.382 68.5503 189.983 68.5902H189.984L189.987 68.5902L192.136 68.6002C192.614 68.6002 193.086 68.5061 193.525 68.4189C193.723 68.3795 193.913 68.3415 194.095 68.3141V34.2176ZM173.157 53.956H182.102H182.113C182.113 53.5189 182.116 53.1349 182.119 52.7849V52.7838V52.7827V52.7817V52.7808V52.7798V52.7786V52.7782V52.7779V52.7776V52.7773V52.7771V52.7768V52.7766V52.7764V52.7762V52.776V52.7759V52.7757V52.7756C182.123 52.1605 182.127 51.6499 182.113 51.1393C182.018 47.5599 180.162 45.7628 176.546 45.7481H173.322C173.261 45.6028 173.198 45.4787 173.143 45.3684L173.143 45.3684C173.039 45.1617 172.959 45.0038 172.959 44.8459C172.952 44.411 172.945 44.0111 172.938 43.6435C172.892 41.2476 172.872 40.2225 173.367 39.7972C173.738 39.4792 174.396 39.4966 175.547 39.527C176.205 39.5444 177.024 39.5661 178.042 39.5318C178.991 39.503 179.94 39.5118 180.969 39.5214H180.969H180.97H180.97H180.97H180.97H180.971H180.971H180.972H180.972H180.972H180.973H180.973H180.974H180.974H180.975C181.519 39.5265 182.085 39.5318 182.685 39.5318C182.784 41.7213 182.883 43.7677 182.982 45.7591C183.549 45.8526 184.112 45.9213 184.666 45.9889L184.666 45.9889C186.067 46.1599 187.404 46.323 188.571 46.8594C188.925 47.0183 188.895 47.9934 188.864 49.0025V49.0026C188.847 49.5301 188.831 50.0669 188.869 50.5012C189.146 53.8257 187.469 53.6971 185.717 53.5627C184.686 53.4835 183.628 53.4024 182.927 54.022C182.919 54.1376 182.908 54.2671 182.897 54.407C182.861 54.8394 182.817 55.3714 182.817 55.9034C182.812 56.4966 182.817 57.0139 182.822 57.4648C182.838 58.9076 182.846 59.6716 182.469 60.0756C182.044 60.5302 181.13 60.5285 179.189 60.5248C178.916 60.5243 178.622 60.5237 178.306 60.5244C172.189 60.5464 172.145 60.4804 173.157 53.956ZM303.789 34.2615H334.761V68.325H303.789V34.2615ZM329.227 53.9998H309.599C309.599 54.3963 309.612 54.7714 309.624 55.1308C309.65 55.8685 309.673 56.5395 309.577 57.1905C309.17 59.8751 310.27 60.7223 312.899 60.5793C315.432 60.4415 317.971 60.4741 320.511 60.5067C321.623 60.521 322.735 60.5353 323.847 60.5353C327.881 60.5353 329.674 58.3605 329.227 54.0108V53.9998ZM315.21 45.561C323.033 46.2871 323.979 45.473 322.405 39.7077H315.21V45.561ZM376.57 256.115V224.131H346.633V256.115H376.57ZM356.084 234.154H370.849C370.849 234.663 370.864 235.151 370.878 235.621C370.911 236.726 370.942 237.736 370.772 238.709C370.673 239.314 369.749 240.205 369.177 240.216C363.994 240.348 358.801 240.381 353.608 240.282C353.036 240.271 352.068 239.369 351.98 238.786C351.375 234.539 351.76 234.154 356.084 234.154ZM303.811 260.977H334.662V294.689H303.811V260.977ZM328.237 286.58H322.321C321.554 281.029 322.556 280.193 328.237 281.695V286.58ZM322.274 286.635H316.387L316.38 286.477C316.296 284.652 316.231 283.257 316.156 281.717H309.665V286.767H315.672V291.696H322.274V286.635ZM325.428 272.241L325.424 272.241C324.431 272.193 323.472 272.147 322.483 272.101C322.415 270.964 322.355 269.92 322.293 268.841C322.255 268.176 322.216 267.497 322.175 266.776C321.619 266.806 321.079 266.823 320.551 266.84C319.366 266.877 318.243 266.912 317.146 267.095C316.552 267.194 315.551 268.096 315.617 268.459C316.365 272.475 313.901 272.486 311.139 272.255C310.792 272.225 310.439 272.293 310.074 272.364L310.073 272.364C309.907 272.396 309.738 272.429 309.566 272.453V277.063C313.541 277.452 315.892 276.179 316.618 273.245C319.985 273.062 321.965 274.342 322.56 277.085H328.27V272.376C327.263 272.329 326.332 272.284 325.428 272.241ZM194.249 294.59V260.835C192.514 260.835 190.786 260.834 189.064 260.833C180.473 260.83 172.035 260.827 163.597 260.901C163.123 260.901 162.243 261.825 162.243 262.331C162.171 267.828 162.139 273.322 162.106 278.817V278.818V278.818V278.819V278.82V278.821V278.821V278.822V278.823V278.824V278.824C162.079 283.4 162.051 287.976 162.001 292.555C161.979 294.37 162.617 294.887 164.389 294.876C170.483 294.826 176.582 294.827 182.679 294.828C186.005 294.828 189.33 294.829 192.654 294.821C193.012 294.821 193.37 294.752 193.743 294.681L193.744 294.681C193.909 294.649 194.077 294.617 194.249 294.59ZM169.131 274.21V287.152C169.466 287.167 169.778 287.172 170.073 287.176C170.69 287.186 171.236 287.195 171.771 287.284C174.357 287.702 175.226 286.503 175.072 284.061C175.019 283.165 175.085 282.26 175.15 281.372C175.179 280.961 175.209 280.555 175.226 280.155H182.763V287.273C183.095 287.333 183.386 287.393 183.649 287.447L183.649 287.447L183.651 287.448L183.652 287.448L183.653 287.448L183.655 287.448L183.656 287.449L183.657 287.449C184.166 287.553 184.573 287.637 184.985 287.659C188.649 287.824 188.836 287.625 188.847 283.907V277.855C188.847 275.259 187.597 273.924 185.095 273.85C184.627 273.836 184.164 273.782 183.644 273.722L183.643 273.722L183.64 273.722C183.379 273.692 183.104 273.66 182.807 273.63C182.807 273.124 182.819 272.631 182.831 272.148C182.861 270.996 182.888 269.904 182.741 268.833C182.653 268.162 181.905 267.106 181.377 267.051C179.897 266.898 178.393 266.922 176.879 266.945H176.878C176.321 266.954 175.763 266.963 175.204 266.963C175.162 267.75 175.193 268.54 175.223 269.289C175.285 270.873 175.341 272.273 174.676 273.08C174.065 273.827 172.663 273.917 171.165 274.013C170.485 274.057 169.785 274.102 169.131 274.21ZM230.612 70.6026C230.612 68.4464 230.62 66.3323 230.628 64.2483V64.2481V64.2478V64.2475V64.2472V64.247V64.2467V64.2464V64.2461V64.2458C230.648 59.025 230.667 53.9929 230.557 48.9608C230.513 46.7053 231.239 46.1662 233.363 46.2102C238.274 46.2972 243.19 46.2819 248.162 46.2664H248.162C250.107 46.2603 252.061 46.2542 254.025 46.2542V57.3777C253.23 57.3777 252.43 57.3907 251.627 57.4037C249.762 57.4339 247.881 57.4644 246.004 57.3337C243.463 57.1576 242.484 57.8728 242.583 60.6344C242.73 64.9619 242.702 69.2894 242.673 73.8067L242.673 73.8142V73.815V73.8159V73.8168V73.8177V73.8186V73.8195V73.8204V73.8214C242.661 75.6965 242.649 77.6044 242.649 79.5586C241.055 79.7418 239.476 79.9212 237.895 80.1008L237.888 80.1016L237.885 80.102L237.881 80.1025C235.67 80.3537 233.457 80.6052 231.195 80.8679V89.4388H215.946V70.6136H230.612V70.6026ZM149.854 110.431V80.7797H119.323V110.431H149.854ZM144.594 97.4055C144.578 97.9259 144.562 98.4697 144.562 99.0438C143.078 99.0438 141.621 99.0467 140.186 99.0496C135.397 99.0592 130.844 99.0684 126.298 98.9668C125.704 98.9558 124.901 97.8995 124.637 97.1624C124.456 96.6481 124.495 96.0635 124.534 95.4725C124.557 95.1279 124.58 94.7811 124.56 94.4448C124.461 92.9374 125.11 92.2773 126.628 92.2883C128.422 92.303 130.215 92.3066 132.009 92.3103H132.01C135.596 92.3176 139.182 92.325 142.769 92.4203C143.385 92.4313 144.364 93.4325 144.485 94.1037C144.661 95.1384 144.63 96.2105 144.594 97.4055ZM376.581 110.497H346.644V80.6806C348.385 80.6806 350.12 80.6799 351.852 80.6791C359.62 80.6759 367.305 80.6726 374.997 80.7356C375.525 80.7356 376.504 81.5938 376.515 82.0559C376.589 89.889 376.586 97.7222 376.583 105.682C376.582 107.282 376.581 108.886 376.581 110.497ZM352.442 97.9104C352.201 94.2207 354.219 92.3977 358.494 92.4412C358.497 92.6487 358.5 92.856 358.503 93.0633L358.511 93.6774C358.53 94.9747 358.548 96.2689 358.548 97.5693C358.548 97.7383 358.494 97.9073 358.426 98.1222C358.392 98.2291 358.354 98.3473 358.317 98.4826H352.783C352.724 98.3905 352.667 98.3133 352.616 98.2454L352.615 98.2447C352.515 98.1102 352.442 98.0127 352.442 97.9104ZM358.57 92.3762H364.578C364.605 92.162 364.631 91.9549 364.656 91.7547C365.004 89.0198 365.186 87.5851 364.556 86.9219C363.86 86.19 362.176 86.3976 358.633 86.8342L358.57 86.842V92.3762ZM364.545 105.04V99.1207H358.625V105.04H364.545ZM370.618 98.4935L370.663 98.1544L370.713 97.7874C371.477 92.0987 371.497 91.9512 365.106 92.8823V98.4935H370.618ZM119.191 224.131V256.126H149.7V224.131H119.191ZM128.268 233.219H130.886L130.875 233.241V238.621H138.082V233.362H131.337V226.859H138.83V232.58C138.996 232.706 139.114 232.813 139.207 232.897C139.341 233.019 139.421 233.091 139.512 233.098C142.747 233.435 144.364 235.265 144.364 238.588C144.364 239.439 144.349 240.29 144.335 241.142V241.143V241.143V241.143V241.144V241.144V241.144V241.145C144.3 243.134 144.265 245.124 144.419 247.104C144.622 249.676 143.183 249.703 141.546 249.735L141.543 249.735C141.473 249.736 141.404 249.737 141.334 249.739L141.232 249.741C141.195 249.742 141.157 249.743 141.119 249.744C139.358 249.788 137.95 249.59 138.269 247.258C138.333 246.801 138.319 246.325 138.301 245.732C138.291 245.411 138.28 245.056 138.28 244.65C137.668 244.65 137.066 244.64 136.471 244.63C134.852 244.602 133.289 244.575 131.744 244.76C131.304 244.815 130.677 246.3 130.732 247.082C130.908 249.414 129.819 249.854 127.784 249.81C125.748 249.755 124.439 249.414 124.538 246.939C124.63 244.566 124.609 242.188 124.589 239.812L124.589 239.812C124.58 238.794 124.571 237.777 124.571 236.761C124.578 234.378 125.81 233.197 128.268 233.219ZM240.778 10.573H230.644C230.644 12.5092 230.651 14.4226 230.657 16.3197L230.657 16.3275V16.328V16.3284V16.3289V16.3293C230.672 21.1558 230.687 25.8766 230.6 30.5975C230.556 32.853 231.217 33.6121 233.538 33.5791C240.176 33.4985 246.819 33.496 253.46 33.4936H253.46H253.461H253.461H253.461H253.465C256.784 33.4923 260.103 33.4911 263.421 33.4801C264.048 33.4801 264.669 33.4148 265.292 33.3493L265.293 33.3493C265.556 33.3216 265.819 33.2939 266.083 33.2711V10.6061H256.049V18.5828L260.131 18.8359V26.7246C256.434 27.2234 254.351 26.0938 253.882 23.3359H243.352C243.288 23.72 243.279 24.1223 243.271 24.5143C243.241 25.8739 243.213 27.1096 240.899 27.0327C240.721 27.0269 240.552 27.0219 240.391 27.0171C237.158 26.9205 237.158 26.9205 237.158 23.3469V19.518L237.446 19.4407C238.681 19.1094 239.777 18.8154 240.778 18.5498V10.573ZM198.408 206.461H210.225V219.169C210.225 220.639 210.238 222.11 210.251 223.58C210.281 226.972 210.311 230.362 210.181 233.747C210.082 236.354 210.841 237.521 213.515 237.147C213.921 237.087 214.343 237.138 214.813 237.194C215.042 237.221 215.283 237.25 215.539 237.268V243.484H198.397V206.461H198.408ZM198.122 111.071V111.081H198.133L198.122 111.071ZM198.122 110.993V111.071L198.034 110.993H198.122ZM198.122 110.993V90.396H215.594V93.8727C215.354 93.8975 215.121 93.9254 214.89 93.9529C214.508 93.9987 214.134 94.0433 213.756 94.0708C211.369 94.2358 210.137 95.3581 210.192 97.9106C210.253 100.892 210.239 103.873 210.226 106.936C210.22 108.27 210.214 109.62 210.214 110.993H198.122ZM251.836 12.2459H245.498C244.286 18.5681 244.598 18.5328 250.957 17.813C251.238 17.7812 251.531 17.748 251.836 17.7141V12.2459Z" fill="#151C3F"/>
</g>
<rect x="282.867" y="83.1514" width="11" height="11" fill="#151C3F"/>
<rect x="271.867" y="86.1514" width="11" height="11" fill="#151C3F"/>
<rect x="260.867" y="89.1514" width="11" height="11" fill="#151C3F"/>
<rect x="249.867" y="92.1514" width="11" height="11" fill="#151C3F"/>
<rect x="300.867" y="111.151" width="11" height="11" fill="#151C3F"/>
<rect x="289.867" y="117.151" width="11" height="11" fill="#151C3F"/>
<rect x="278.867" y="120.151" width="11" height="11" fill="#151C3F"/>
<rect x="267.867" y="123.151" width="11" height="11" fill="#151C3F"/>
<rect x="256.867" y="126.151" width="11" height="11" fill="#151C3F"/>
<defs>
<linearGradient id="paint0_linear_365_1359" x1="93.8403" y1="13.4125" x2="419.882" y2="308.356" gradientUnits="userSpaceOnUse">
<stop stop-color="#2CA8DE"/>
<stop offset="0.5" stop-color="#ED75AF"/>
<stop offset="1" stop-color="#FFE600"/>
</linearGradient>
</defs>
</svg>
