<svg width="311" height="325" viewBox="0 0 311 325" fill="none" xmlns="http://www.w3.org/2000/svg">
<g clip-path="url(#clip0_412_4)">
<path fill-rule="evenodd" clip-rule="evenodd" d="M160.35 1V11.5513C160.177 10.7944 160.046 10.2181 159.926 9.68542C159.801 9.13411 159.686 8.62948 159.547 8.01955C158.831 8.01955 158.101 8.0014 157.362 7.98302C155.464 7.93584 153.508 7.8872 151.592 8.14058C150.956 8.2201 150.395 8.89332 149.718 9.70776C149.364 10.1329 148.978 10.5965 148.533 11.0342C148.662 9.47888 148.787 7.9918 148.908 6.5434C149.067 4.65162 149.22 2.82581 149.369 1H160.35ZM1.86545 159.3L0 159.435V181.99C3.41076 182.243 6.82151 182.496 10.5073 182.771V191.265H35.3288C35.38 190.278 35.43 189.31 35.4799 188.341L35.48 188.34L35.4804 188.331L35.4808 188.323L35.4811 188.319C35.5811 186.379 35.6811 184.439 35.7909 182.353H46.4963V159.006H42.2824H42.2818C35.989 159.039 35.956 159.039 35.8459 165.178C35.8129 166.884 35.3728 167.764 33.4804 167.599C32.3741 167.501 31.2575 167.522 30.0215 167.544H30.0209H30.0204H30.0198H30.0193H30.0187H30.0181H30.0175H30.0168H30.0162H30.0156H30.0149H30.0142H30.0135H30.0128H30.0121H30.0114H30.0107H30.0099C29.4424 167.555 28.8497 167.566 28.2212 167.566V181.913H18.099V167.049H28.1112V158.676H35.4609V148.917H10.3643V158.687C7.36327 158.902 4.59565 159.102 1.86545 159.3ZM104.336 305.404V325.572V325.583H181.221C182.143 325.544 183.065 325.498 183.989 325.452C185.975 325.352 187.963 325.253 189.946 325.23C193.451 325.192 196.957 325.202 200.488 325.211H200.49H200.491H200.493H200.494H200.495H200.497H200.498H200.5H200.501H200.503H200.504H200.505H200.507H200.508H200.51H200.511H200.512H200.514C202.094 325.215 203.679 325.219 205.272 325.219V305.393H193.345V315.064H116.262V305.404H104.336ZM104.182 112.001V111.993L104.16 111.982L104.182 112.001ZM104.182 112.087V112.001L104.259 112.07L104.229 112.076L104.182 112.087ZM205.46 112.186C206.236 112.233 207.012 112.283 207.789 112.334L207.796 112.334C209.691 112.457 211.586 112.579 213.48 112.664C214.643 112.716 215.811 112.702 217.035 112.688C217.618 112.682 218.214 112.675 218.828 112.675V130.686C218.828 130.992 218.767 131.301 218.707 131.61C218.661 131.846 218.616 132.081 218.597 132.314C218.332 135.615 218.486 135.78 221.699 135.78H231.458C231.486 136.027 231.522 136.263 231.556 136.492L231.556 136.492L231.557 136.492L231.557 136.492C231.619 136.905 231.678 137.294 231.678 137.683C231.675 142.389 231.665 147.095 231.655 151.801V151.809C231.636 161.217 231.616 170.624 231.645 180.032C231.645 181.968 231.084 182.595 229.159 182.518C226.883 182.426 224.602 182.446 222.224 182.467H222.223H222.223H222.222H222.222H222.222H222.221H222.221H222.221H222.22H222.22H222.219H222.219H222.219H222.218H222.218H222.218H222.216C221.17 182.476 220.106 182.485 219.015 182.485V206.746C217.865 206.746 216.74 206.758 215.635 206.771C213.06 206.801 210.586 206.829 208.122 206.691C205.9 206.57 205.317 207.307 205.339 209.485C205.412 217.313 205.401 225.147 205.39 232.982V232.982V232.983V232.983V232.984V232.985V232.985V232.986V232.986V232.987V232.988V232.988V232.989V232.989V232.99V232.991V232.991C205.386 235.791 205.383 238.592 205.383 241.392V244.682C203.921 244.682 202.479 244.693 201.05 244.705L201.046 244.705C197.637 244.732 194.306 244.759 190.98 244.627C188.395 244.528 187.592 245.419 187.768 247.939C187.911 249.995 187.878 252.061 187.844 254.237V254.237V254.238V254.238V254.238V254.238V254.239V254.239V254.239V254.24V254.24V254.24V254.241V254.241V254.241V254.241C187.828 255.232 187.812 256.245 187.812 257.291C186.55 257.291 185.305 257.299 184.071 257.308H184.066H184.061H184.056H184.051H184.046H184.041H184.037H184.032H184.027H184.022H184.017H184.013H184.008H184.007H184.006H184.005H184.005H184.004H184.003H184.002H184.001H184H184H183.999H183.998H183.997H183.996H183.995H183.995C180.974 257.328 178.022 257.348 175.071 257.247C173.013 257.181 172.298 257.874 172.397 259.909C172.54 262.561 172.507 265.224 172.419 267.886C172.364 269.878 173.112 270.637 175.17 270.571C178.202 270.477 181.24 270.494 184.386 270.512C185.669 270.519 186.97 270.527 188.296 270.527C188.296 271.795 188.295 273.048 188.293 274.29C188.291 276.742 188.288 279.152 188.296 281.562C188.305 283.23 187.259 283.197 186.242 283.166L186.24 283.166C186.084 283.161 185.928 283.156 185.776 283.158C180.957 283.165 176.138 283.162 171.319 283.16C168.909 283.159 166.5 283.158 164.09 283.158H160.603C160.603 283.933 160.597 284.69 160.59 285.434V285.434V285.435V285.435V285.435V285.435V285.436V285.436V285.436V285.436V285.437V285.437V285.437V285.438V285.438V285.438V285.438C160.577 287.132 160.564 288.759 160.625 290.386C160.691 292.08 160.24 292.917 158.347 292.84C156.257 292.755 154.162 292.772 151.954 292.791H151.954H151.953H151.952H151.951H151.95H151.949H151.949H151.948H151.947H151.946H151.945H151.944H151.943H151.942H151.941H151.94C150.979 292.799 149.997 292.807 148.984 292.807V283.29H122.182V270.527C123.346 270.527 124.512 270.518 125.679 270.509H125.68H125.681H125.683H125.684H125.685H125.686H125.687H125.688H125.689H125.691H125.692H125.693H125.694H125.695H125.696H125.697C128.418 270.488 131.145 270.467 133.867 270.56C136.111 270.637 136.969 269.911 136.837 267.578C136.708 265.314 136.737 263.04 136.766 260.646V260.645V260.645V260.645V260.644V260.644V260.644V260.643V260.643V260.642V260.642V260.642V260.641V260.641V260.641V260.64V260.64C136.78 259.569 136.793 258.474 136.793 257.346H122.116V244.792C123.395 244.792 124.666 244.796 125.931 244.799C129.073 244.808 132.18 244.817 135.286 244.77C136.881 244.748 137.333 245.441 137.289 246.937C137.252 248.244 137.263 249.551 137.273 250.857C137.285 252.301 137.296 253.745 137.244 255.189C137.178 256.884 137.828 257.456 139.478 257.412C141.561 257.351 143.638 257.364 145.827 257.378C146.796 257.384 147.786 257.39 148.808 257.39C148.808 258.45 148.815 259.491 148.821 260.517C148.837 262.961 148.853 265.324 148.775 267.688C148.72 269.481 149.347 270.131 151.152 270.065C153.254 269.987 155.356 270.002 157.561 270.018H157.564C158.497 270.025 159.449 270.032 160.427 270.032V257.39C161.443 257.39 162.433 257.382 163.403 257.374C165.647 257.356 167.79 257.338 169.933 257.423C171.836 257.489 172.551 256.818 172.485 254.892C172.408 252.655 172.423 250.407 172.439 248.067C172.446 247.082 172.452 246.08 172.452 245.056H187.35C187.35 244.542 187.361 244.054 187.372 243.586C187.396 242.61 187.417 241.716 187.328 240.831C187.119 238.73 188.054 237.926 190.023 238.191C192.62 238.554 193.434 237.541 193.39 234.879C193.27 228.318 193.289 221.751 193.309 215.035V215.035V215.034V215.033V215.033V215.032V215.031V215.031V215.03V215.029V215.028V215.028V215.027V215.026V215.026V215.025V215.024C193.316 212.476 193.324 209.906 193.324 207.307C194.279 207.307 195.221 207.296 196.152 207.286H196.153H196.155H196.156H196.158H196.16H196.161H196.163H196.164H196.166H196.167H196.169H196.171H196.172H196.174H196.175H196.177H196.178C198.303 207.263 200.374 207.24 202.434 207.34C204.623 207.45 205.504 206.834 205.46 204.446C205.356 199.36 205.373 194.274 205.391 189.043V189.042C205.398 187.02 205.405 184.977 205.405 182.903H104.281V206.603H91.3423V182.584H78.7005V135.791C79.6758 135.791 80.6549 135.783 81.6368 135.775C83.9778 135.757 86.3343 135.739 88.6907 135.824C90.5942 135.89 91.2543 135.263 91.2213 133.315C91.1486 128.346 91.1589 123.377 91.1696 118.277V118.276V118.273V118.269V118.266V118.262V118.259V118.255V118.251V118.248V118.244V118.241V118.237V118.233V118.23V118.226V118.222C91.1734 116.395 91.1773 114.552 91.1773 112.686C92.1283 112.686 93.0651 112.689 93.9914 112.692H93.993H93.9947H93.9963H93.9979H93.9995H94.001H94.0026H94.0042H94.0057H94.0072H94.0087H94.0103H94.0117H94.0132C96.5404 112.701 98.9889 112.709 101.432 112.653C102.096 112.637 102.76 112.459 103.421 112.282C103.675 112.214 103.929 112.146 104.182 112.087V135.032H91.7604V146.98H218.354C218.354 146.108 218.358 145.253 218.362 144.411V144.409V144.407V144.404V144.402V144.4V144.398V144.396V144.394V144.392V144.39V144.388V144.386V144.384C218.373 141.608 218.384 138.98 218.266 136.352C218.244 135.934 216.968 135.274 216.253 135.252C213.671 135.17 211.089 135.179 208.343 135.19C207.403 135.193 206.444 135.197 205.46 135.197V112.186ZM205.36 112.092H205.448H205.449L205.46 112.081V112.186L205.371 112.18L205.36 112.191V112.092ZM205.36 112.092H193.379C193.379 110.599 193.381 109.135 193.384 107.688C193.388 104.846 193.393 102.073 193.379 99.2957C193.357 95.8629 192.993 95.3788 189.66 95.4339C187.811 95.4559 187.184 94.8067 187.371 93.0353C187.424 92.5632 187.374 92.0758 187.32 91.5419L187.32 91.5408L187.319 91.5396L187.319 91.5393C187.294 91.29 187.268 91.0306 187.25 90.7578C186.752 90.7299 186.269 90.7034 185.774 90.6763C184.905 90.6286 183.998 90.5789 182.904 90.5158C182.904 90.0523 182.898 89.5907 182.892 89.1306V89.1304V89.1301V89.1299V89.1296V89.1294C182.878 88.0608 182.865 86.9998 182.926 85.9387C183.025 84.1123 182.354 82.9681 180.484 82.649C180.318 82.6214 180.156 82.5634 179.994 82.505C179.897 82.4704 179.801 82.4356 179.703 82.407L179.657 82.3944C172.705 80.4485 172.65 80.4331 172.507 73.2639C172.474 71.4926 171.946 70.8104 170.13 70.8874C168.092 70.9721 166.048 70.9544 163.93 70.9362H163.93H163.93H163.93H163.929H163.929L163.927 70.9362C163.018 70.9284 162.094 70.9204 161.152 70.9204V58.9718H172.661V71.4595C173.941 71.4595 175.2 71.4711 176.443 71.4826H176.443H176.444H176.445H176.446H176.446C179.402 71.5098 182.27 71.5362 185.127 71.4045C187.624 71.2945 188.482 71.9987 188.383 74.6172C188.235 78.4331 188.264 82.2544 188.293 86.1826V86.1828V86.183V86.1831V86.1833V86.1845V86.1852V86.1858V86.1864V86.1871V86.1878C188.305 87.8079 188.317 89.4462 188.317 91.1099H205.36V112.092ZM91.5512 161.632V161.632V161.631V161.631V161.631V161.631V161.631V161.631V161.631V161.631V161.63V161.63V161.63V161.63C91.5568 160.759 91.5624 159.882 91.5624 158.995L218.343 159.006V169.051C218.354 170.361 217.903 170.955 216.396 170.955C193.25 170.948 170.109 170.962 146.967 170.977C133.08 170.986 119.193 170.995 105.304 170.999C101.377 170.999 97.4377 170.955 93.5208 170.746C92.8497 170.713 91.6834 169.799 91.6504 169.249C91.5187 166.74 91.5348 164.219 91.5512 161.635V161.635V161.634V161.634V161.634V161.634V161.634V161.633V161.633V161.633V161.633V161.632V161.632V161.632V161.632ZM273.234 158.676V158.654L273.235 158.665L273.236 158.677L273.234 158.676ZM273.239 158.736L273.236 158.677L273.3 158.731L273.27 158.733L273.239 158.736ZM273.239 158.736C273.337 160.531 273.44 162.322 273.551 164.265L273.555 164.324C273.604 165.18 273.655 166.066 273.707 166.994C274.211 166.994 274.718 167.001 275.227 167.008C276.396 167.024 277.574 167.041 278.747 166.972C280.188 166.884 280.76 167.434 280.661 168.853C280.574 170.08 280.516 171.313 280.458 172.548L280.457 172.554L280.456 172.589C280.434 173.053 280.412 173.517 280.388 173.981C282.55 174.002 284.714 174.022 286.879 174.041H286.88H286.881H286.882H286.884L286.92 174.041C289.071 174.06 291.221 174.079 293.369 174.1V167.071C293.876 167.071 294.376 167.06 294.869 167.049L294.87 167.049H294.871C295.94 167.025 296.981 167.002 298.012 167.093C299.86 167.258 300.454 166.476 300.355 164.716C300.28 163.478 300.298 162.24 300.316 160.945V160.944V160.942V160.939V160.937V160.934V160.931V160.928C300.325 160.341 300.333 159.743 300.333 159.127H311.325V169.788C311.325 170.815 311.315 171.842 311.305 172.869V172.871C311.281 175.232 311.258 177.593 311.358 179.954C311.435 181.924 310.709 182.518 308.827 182.43C306.931 182.345 305.03 182.363 303.044 182.381H303.044H303.043H303.043H303.043H303.042H303.042H303.042H303.041H303.041H303.041H303.04H303.04H303.039H303.039H303.039L303.036 182.381C302.178 182.389 301.305 182.397 300.41 182.397V191.243H273.674V182.452C272.78 182.452 271.911 182.447 271.061 182.442H271.059C269.074 182.431 267.188 182.42 265.302 182.474C263.981 182.507 263.2 182.221 263.211 180.714C263.23 176.891 263.234 173.072 263.239 169.253C263.242 166.388 263.246 163.523 263.255 160.656C263.255 160.432 263.336 160.203 263.419 159.967L263.419 159.967L263.419 159.966L263.419 159.966L263.42 159.966L263.42 159.965L263.42 159.965L263.42 159.965C263.463 159.842 263.507 159.717 263.541 159.589C266.81 159.305 270.025 159.02 273.239 158.736ZM273.29 158.665H273.235L273.29 158.72V158.709V158.665ZM273.29 158.665H299.663C299.813 156.415 299.955 154.372 300.093 152.377L300.094 152.361C300.143 151.655 300.192 150.955 300.24 150.254C300.264 149.908 300.288 149.561 300.312 149.214H273.29V158.665ZM278.958 174.136C279.418 174.104 279.878 174.072 280.334 174.029C280.415 175.348 280.493 176.668 280.573 178.018L280.576 178.075L280.58 178.141L280.581 178.16C280.649 179.316 280.719 180.494 280.793 181.715H273.454C273.454 181.187 273.441 180.656 273.427 180.126C273.391 178.765 273.356 177.403 273.553 176.082C273.641 175.465 274.808 174.717 275.589 174.541C276.688 174.294 277.825 174.215 278.957 174.136L278.958 174.136ZM292.907 181.462C293.091 178.956 293.265 176.579 293.438 174.203C293.679 174.215 293.92 174.232 294.161 174.248C294.623 174.279 295.085 174.31 295.547 174.31C300.234 174.31 301.698 176.203 300.333 180.714C300.19 181.198 299.332 181.792 298.793 181.792C297.55 181.815 296.307 181.717 294.909 181.608L294.907 181.608L294.907 181.608C294.276 181.558 293.614 181.506 292.907 181.462ZM100.254 35.2176H68.1597C68.1597 37.0872 68.1587 38.9484 68.1577 40.8026V40.8223V40.8421V40.8619V40.8818V40.9016V40.9214V40.9412V40.9611V40.9809V41.0008V41.0206V41.0405V41.0604V41.0803C68.1529 50.1178 68.1482 58.9898 68.2478 67.8618C68.2588 68.3899 69.612 69.3471 70.3492 69.3582C78.9408 69.5105 87.5417 69.5503 96.1434 69.5902H96.1444L98.2954 69.6002C98.773 69.6002 99.2455 69.5062 99.6839 69.4189L99.6839 69.4189L99.684 69.4189C99.8818 69.3795 100.073 69.3415 100.254 69.3141V35.2176ZM79.3162 54.956H88.2612H88.2722C88.2722 54.5189 88.2751 54.1349 88.2777 53.7849V53.7838V53.7827V53.7817V53.7808V53.7798V53.7786V53.7782V53.7779V53.7776V53.7773V53.7771V53.7768V53.7766V53.7764V53.7762V53.776V53.7759V53.7757V53.7756C88.2824 53.1605 88.2862 52.6499 88.2722 52.1393C88.1768 48.5599 86.3211 46.7628 82.705 46.7481H79.4812C79.42 46.6028 79.3575 46.4787 79.3019 46.3684C79.1977 46.1617 79.1182 46.0038 79.1182 45.8459C79.1116 45.411 79.104 45.0111 79.0969 44.6435C79.051 42.2476 79.0313 41.2225 79.5266 40.7972C79.8971 40.4792 80.5555 40.4966 81.7064 40.527C82.3643 40.5444 83.1832 40.5661 84.2013 40.5318C85.1503 40.503 86.0993 40.5118 87.1282 40.5214H87.1284H87.1287H87.129H87.1294H87.1297H87.13H87.1304H87.1307H87.1311H87.1315H87.1319H87.1324H87.1329H87.1334H87.1339C87.6778 40.5265 88.244 40.5318 88.8443 40.5318C88.9433 42.7213 89.0424 44.7677 89.1414 46.7591C89.7083 46.8526 90.2716 46.9213 90.825 46.9889L90.8251 46.9889C92.2263 47.1599 93.5633 47.323 94.7306 47.8594C95.0847 48.0183 95.0544 48.9934 95.023 50.0025V50.0026C95.0066 50.5301 94.9899 51.0669 95.0277 51.5012C95.3047 54.8257 93.6285 54.6971 91.8763 54.5627C90.845 54.4835 89.7875 54.4024 89.0864 55.022C89.0783 55.1376 89.0676 55.2671 89.056 55.407C89.0203 55.8394 88.9763 56.3714 88.9763 56.9034C88.971 57.4966 88.9766 58.0139 88.9814 58.4648C88.9969 59.9076 89.0051 60.6716 88.6277 61.0756C88.203 61.5302 87.2896 61.5285 85.3481 61.5248C85.0747 61.5243 84.781 61.5237 84.4653 61.5244C78.348 61.5464 78.304 61.4804 79.3162 54.956ZM209.949 35.2615H240.92V69.325H209.949V35.2615ZM235.386 54.9998H215.758C215.758 55.3963 215.771 55.7714 215.783 56.1308C215.809 56.8685 215.832 57.5395 215.736 58.1905C215.329 60.8751 216.429 61.7223 219.059 61.5793C221.592 61.4415 224.13 61.4741 226.67 61.5067C227.782 61.521 228.894 61.5353 230.006 61.5353C234.04 61.5353 235.834 59.3605 235.386 55.0108V54.9998ZM221.369 46.561C229.192 47.2871 230.138 46.473 228.565 40.7077H221.369V46.561ZM282.729 257.115V225.131H252.792V257.115H282.729ZM262.243 235.154H277.008C277.008 235.663 277.023 236.151 277.037 236.621C277.07 237.726 277.101 238.736 276.931 239.709C276.832 240.314 275.908 241.205 275.336 241.216C270.154 241.348 264.961 241.381 259.767 241.282C259.195 241.271 258.227 240.369 258.139 239.786C257.534 235.539 257.919 235.154 262.243 235.154ZM209.971 261.977H240.821V295.689H209.971V261.977ZM234.396 287.58H228.48C227.713 282.029 228.716 281.193 234.396 282.695V287.58ZM228.433 287.635H222.546L222.539 287.477C222.455 285.652 222.39 284.257 222.315 282.717H215.824V287.767H221.831V292.696H228.433V287.635ZM231.587 273.241L231.583 273.241C230.591 273.193 229.631 273.147 228.642 273.101C228.574 271.964 228.514 270.92 228.452 269.841C228.414 269.176 228.376 268.497 228.334 267.776C227.778 267.806 227.238 267.823 226.71 267.84C225.525 267.877 224.402 267.912 223.306 268.095C222.711 268.194 221.71 269.096 221.776 269.459C222.524 273.475 220.06 273.486 217.298 273.255C216.951 273.225 216.598 273.293 216.233 273.364L216.232 273.364C216.066 273.396 215.897 273.429 215.725 273.453V278.063C219.7 278.452 222.051 277.179 222.777 274.245C226.144 274.062 228.125 275.342 228.719 278.085H234.429V273.376C233.423 273.329 232.491 273.284 231.587 273.241ZM100.409 295.59V261.835C98.6732 261.835 96.9452 261.834 95.2234 261.833C86.6325 261.83 78.1941 261.827 69.7558 261.901C69.2827 261.901 68.4025 262.825 68.4025 263.331C68.3304 268.828 68.2977 274.322 68.265 279.817V279.818V279.818V279.819V279.82V279.821V279.821V279.822V279.823V279.824V279.824C68.2377 284.4 68.2104 288.976 68.1604 293.555C68.1384 295.37 68.7765 295.887 70.5479 295.876C76.6422 295.826 82.7411 295.827 88.8386 295.828C92.1642 295.828 95.4894 295.829 98.8132 295.821C99.1713 295.821 99.5295 295.752 99.9023 295.681L99.9027 295.681C100.068 295.649 100.236 295.617 100.409 295.59ZM75.29 275.21V288.152C75.6249 288.167 75.9367 288.172 76.2322 288.176C76.8492 288.186 77.3949 288.195 77.9306 288.284C80.5161 288.702 81.3853 287.503 81.2313 285.061C81.1786 284.165 81.2443 283.26 81.3087 282.372C81.3385 281.961 81.3679 281.555 81.3853 281.155H88.922V288.273C89.2544 288.333 89.5449 288.393 89.8083 288.447L89.8085 288.447L89.8105 288.448L89.8112 288.448L89.8124 288.448L89.8137 288.448L89.8151 288.449L89.8165 288.449C90.3252 288.553 90.7324 288.637 91.1445 288.659C94.8083 288.824 94.9953 288.625 95.0064 284.907V278.855C95.0064 276.259 93.7557 274.924 91.2545 274.85C90.7863 274.836 90.3229 274.782 89.803 274.722L89.8019 274.722L89.7987 274.722C89.538 274.692 89.263 274.66 88.966 274.63C88.966 274.124 88.9785 273.631 88.9907 273.148C89.0198 271.996 89.0474 270.904 88.9 269.833C88.812 269.162 88.0638 268.106 87.5357 268.051C86.0558 267.898 84.5524 267.922 83.0384 267.945H83.0368C82.4802 267.954 81.9222 267.963 81.3633 267.963C81.321 268.75 81.3522 269.54 81.3819 270.289C81.4447 271.873 81.5002 273.273 80.8352 274.08C80.2243 274.827 78.8222 274.917 77.3237 275.013C76.644 275.057 75.9445 275.102 75.29 275.21ZM136.771 71.6026C136.771 69.4464 136.779 67.3323 136.787 65.2483V65.2481V65.2478V65.2475V65.2472V65.247V65.2467V65.2464V65.2461V65.2458C136.807 60.025 136.826 54.9929 136.716 49.9608C136.672 47.7053 137.398 47.1662 139.522 47.2102C144.433 47.2972 149.35 47.2819 154.321 47.2664H154.322C156.266 47.2603 158.22 47.2542 160.184 47.2542V58.3777C159.389 58.3777 158.589 58.3907 157.786 58.4037C155.921 58.4339 154.04 58.4644 152.164 58.3337C149.622 58.1576 148.643 58.8728 148.742 61.6344C148.889 65.9619 148.862 70.2894 148.832 74.8067L148.832 74.8142V74.815V74.8159V74.8168V74.8177V74.8186V74.8195V74.8204V74.8214C148.82 76.6965 148.808 78.6044 148.808 80.5586C147.214 80.7418 145.635 80.9212 144.055 81.1008L144.047 81.1016L144.044 81.102L144.04 81.1025C141.829 81.3537 139.616 81.6052 137.354 81.8679V90.4388H122.105V71.6136H136.771V71.6026ZM56.0136 111.431V81.7797H25.4818V111.431H56.0136ZM50.7531 98.4055C50.7376 98.9259 50.7214 99.4697 50.7214 100.044C49.2373 100.044 47.7806 100.047 46.3452 100.05C41.5557 100.059 37.0033 100.068 32.4574 99.9668C31.8632 99.9558 31.0601 98.8995 30.796 98.1624C30.6153 97.6481 30.6541 97.0635 30.6933 96.4725C30.7162 96.1279 30.7392 95.7811 30.719 95.4448C30.62 93.9374 31.2691 93.2773 32.7874 93.2883C34.5809 93.303 36.3743 93.3066 38.1678 93.3103H38.1687C41.7551 93.3176 45.3416 93.325 48.928 93.4203C49.5442 93.4313 50.5234 94.4325 50.6444 95.1037C50.8207 96.1384 50.7887 97.2105 50.7531 98.4055ZM282.741 111.497H252.803V81.6806C254.544 81.6806 256.28 81.6799 258.011 81.6791C265.779 81.6759 273.464 81.6726 281.156 81.7356C281.684 81.7356 282.664 82.5938 282.675 83.0559C282.748 90.889 282.745 98.7222 282.742 106.682C282.741 108.282 282.741 109.886 282.741 111.497ZM258.601 98.9104C258.361 95.2207 260.378 93.3977 264.654 93.4412C264.656 93.6487 264.659 93.856 264.662 94.0633L264.671 94.6774C264.689 95.9747 264.708 97.2689 264.708 98.5693C264.708 98.7383 264.654 98.9073 264.585 99.1222C264.551 99.2291 264.513 99.3473 264.477 99.4826H258.942C258.883 99.3905 258.826 99.3133 258.775 99.2454L258.775 99.2447C258.674 99.1102 258.601 99.0127 258.601 98.9104ZM264.73 93.3762H270.737C270.764 93.162 270.79 92.9549 270.816 92.7547C271.163 90.0198 271.345 88.5851 270.715 87.9219C270.02 87.19 268.335 87.3976 264.793 87.8342L264.73 87.842V93.3762ZM270.704 106.04V100.121H264.785V106.04H270.704ZM276.777 99.4935L276.823 99.1544L276.872 98.7874C277.636 93.0987 277.656 92.9512 271.265 93.8823V99.4935H276.777ZM25.3499 225.131V257.126H55.8596V225.131H25.3499ZM34.4269 234.219H37.0454L37.0344 234.241V239.621H44.241V234.362H37.4965V227.859H44.9892V233.58C45.1551 233.706 45.2734 233.813 45.3659 233.897C45.5004 234.019 45.5801 234.091 45.6714 234.098C48.9061 234.435 50.5234 236.265 50.5234 239.588C50.5234 240.439 50.5086 241.29 50.4937 242.142V242.143V242.143V242.143V242.144V242.144V242.144V242.145C50.4591 244.134 50.4244 246.124 50.5784 248.104C50.781 250.676 49.3426 250.703 47.7052 250.735L47.7019 250.735C47.6325 250.736 47.5628 250.737 47.4929 250.739L47.3916 250.741C47.3537 250.742 47.3157 250.743 47.2777 250.744C45.5173 250.788 44.109 250.59 44.4281 248.258C44.4923 247.801 44.4778 247.325 44.4597 246.732C44.4499 246.411 44.4391 246.056 44.4391 245.65C43.8272 245.65 43.2249 245.64 42.6302 245.63C41.0112 245.602 39.4486 245.575 37.9036 245.76C37.4635 245.815 36.8364 247.3 36.8914 248.082C37.0674 250.414 35.9782 250.854 33.9428 250.81C31.9073 250.755 30.598 250.414 30.697 247.939C30.7895 245.566 30.7687 243.188 30.7479 240.812L30.7479 240.812C30.7389 239.794 30.73 238.777 30.73 237.761C30.7374 235.378 31.9697 234.197 34.4269 234.219ZM146.937 11.573H136.804C136.804 13.5092 136.81 15.4226 136.816 17.3197L136.816 17.3275V17.328V17.3284V17.3289V17.3293C136.831 22.1558 136.846 26.8766 136.76 31.5975C136.716 33.853 137.376 34.6121 139.697 34.5791C146.335 34.4985 152.978 34.496 159.619 34.4936H159.62H159.62H159.62H159.62H159.624C162.943 34.4923 166.262 34.4911 169.58 34.4801C170.207 34.4801 170.828 34.4148 171.452 34.3493L171.452 34.3493C171.715 34.3216 171.978 34.2939 172.242 34.2711V11.6061H162.208V19.5828L166.29 19.8359V27.7246C162.593 28.2234 160.51 27.0938 160.041 24.3359H149.511C149.447 24.72 149.439 25.1223 149.43 25.5143C149.4 26.8739 149.372 28.1096 147.058 28.0327C146.88 28.0269 146.711 28.0219 146.55 28.0171C143.317 27.9205 143.317 27.9205 143.317 24.3469V20.518L143.605 20.4407C144.84 20.1094 145.936 19.8154 146.937 19.5498V11.573ZM104.567 207.461H116.384V220.169C116.384 221.639 116.397 223.11 116.41 224.58C116.44 227.972 116.47 231.362 116.34 234.747C116.241 237.354 117 238.521 119.674 238.147C120.081 238.087 120.502 238.138 120.972 238.194C121.202 238.221 121.442 238.25 121.698 238.268V244.484H104.556V207.461H104.567ZM104.281 112.071V112.081H104.292L104.281 112.071ZM104.281 111.993V112.071L104.193 111.993H104.281ZM104.281 111.993V91.396H121.753V94.8727C121.513 94.8975 121.28 94.9254 121.049 94.9529C120.667 94.9987 120.293 95.0433 119.916 95.0708C117.528 95.2358 116.296 96.3581 116.351 98.9106C116.412 101.892 116.399 104.873 116.385 107.936C116.379 109.27 116.373 110.62 116.373 111.993H104.281ZM157.995 13.2459H151.657C150.446 19.5681 150.758 19.5328 157.116 18.813C157.397 18.7812 157.69 18.748 157.995 18.7141V13.2459Z" fill="url(#paint0_linear_412_4)"/>
<mask id="mask0_412_4" style="mask-type:alpha" maskUnits="userSpaceOnUse" x="71" y="43" width="174" height="105">
<path d="M124.158 43.1514H187.658L244.658 147.151H71.1582L124.158 43.1514Z" fill="#D9D9D9"/>
</mask>
<g mask="url(#mask0_412_4)">
<path fill-rule="evenodd" clip-rule="evenodd" d="M160.35 1V11.5513C160.177 10.7944 160.046 10.2181 159.926 9.68542C159.801 9.13411 159.686 8.62948 159.547 8.01955C158.831 8.01955 158.101 8.0014 157.362 7.98302C155.464 7.93584 153.508 7.8872 151.592 8.14058C150.956 8.2201 150.395 8.89332 149.718 9.70776C149.364 10.1329 148.978 10.5965 148.533 11.0342C148.662 9.47888 148.787 7.9918 148.908 6.5434C149.067 4.65162 149.22 2.82581 149.369 1H160.35ZM1.86545 159.3L0 159.435V181.99C3.41076 182.243 6.82151 182.496 10.5073 182.771V191.265H35.3288C35.38 190.278 35.43 189.31 35.4799 188.341L35.48 188.34L35.4804 188.331L35.4808 188.323L35.4811 188.319C35.5811 186.379 35.6811 184.439 35.7909 182.353H46.4963V159.006H42.2824H42.2818C35.989 159.039 35.956 159.039 35.8459 165.178C35.8129 166.884 35.3728 167.764 33.4804 167.599C32.3741 167.501 31.2575 167.522 30.0215 167.544H30.0209H30.0204H30.0198H30.0193H30.0187H30.0181H30.0175H30.0168H30.0162H30.0156H30.0149H30.0142H30.0135H30.0128H30.0121H30.0114H30.0107H30.0099C29.4424 167.555 28.8497 167.566 28.2212 167.566V181.913H18.099V167.049H28.1112V158.676H35.4609V148.917H10.3643V158.687C7.36327 158.902 4.59565 159.102 1.86545 159.3ZM104.336 305.404V325.572V325.583H181.221C182.143 325.544 183.065 325.498 183.989 325.452C185.975 325.352 187.963 325.253 189.946 325.23C193.451 325.192 196.957 325.202 200.488 325.211H200.49H200.491H200.493H200.494H200.495H200.497H200.498H200.5H200.501H200.503H200.504H200.505H200.507H200.508H200.51H200.511H200.512H200.514C202.094 325.215 203.679 325.219 205.272 325.219V305.393H193.345V315.064H116.262V305.404H104.336ZM104.182 112.001V111.993L104.16 111.982L104.182 112.001ZM104.182 112.087V112.001L104.259 112.07L104.229 112.076L104.182 112.087ZM205.46 112.186C206.236 112.233 207.012 112.283 207.789 112.334L207.796 112.334C209.691 112.457 211.586 112.579 213.48 112.664C214.643 112.716 215.811 112.702 217.035 112.688C217.618 112.682 218.214 112.675 218.828 112.675V130.686C218.828 130.992 218.767 131.301 218.707 131.61C218.661 131.846 218.616 132.081 218.597 132.314C218.332 135.615 218.486 135.78 221.699 135.78H231.458C231.486 136.027 231.522 136.263 231.556 136.492L231.556 136.492L231.557 136.492L231.557 136.492C231.619 136.905 231.678 137.294 231.678 137.683C231.675 142.389 231.665 147.095 231.655 151.801V151.809C231.636 161.217 231.616 170.624 231.645 180.032C231.645 181.968 231.084 182.595 229.159 182.518C226.883 182.426 224.602 182.446 222.224 182.467H222.223H222.223H222.222H222.222H222.222H222.221H222.221H222.221H222.22H222.22H222.219H222.219H222.219H222.218H222.218H222.218H222.216C221.17 182.476 220.106 182.485 219.015 182.485V206.746C217.865 206.746 216.74 206.758 215.635 206.771C213.06 206.801 210.586 206.829 208.122 206.691C205.9 206.57 205.317 207.307 205.339 209.485C205.412 217.313 205.401 225.147 205.39 232.982V232.982V232.983V232.983V232.984V232.985V232.985V232.986V232.986V232.987V232.988V232.988V232.989V232.989V232.99V232.991V232.991C205.386 235.791 205.383 238.592 205.383 241.392V244.682C203.921 244.682 202.479 244.693 201.05 244.705L201.046 244.705C197.637 244.732 194.306 244.759 190.98 244.627C188.395 244.528 187.592 245.419 187.768 247.939C187.911 249.995 187.878 252.061 187.844 254.237V254.237V254.238V254.238V254.238V254.238V254.239V254.239V254.239V254.24V254.24V254.24V254.241V254.241V254.241V254.241C187.828 255.232 187.812 256.245 187.812 257.291C186.55 257.291 185.305 257.299 184.071 257.308H184.066H184.061H184.056H184.051H184.046H184.041H184.037H184.032H184.027H184.022H184.017H184.013H184.008H184.007H184.006H184.005H184.005H184.004H184.003H184.002H184.001H184H184H183.999H183.998H183.997H183.996H183.995H183.995C180.974 257.328 178.022 257.348 175.071 257.247C173.013 257.181 172.298 257.874 172.397 259.909C172.54 262.561 172.507 265.224 172.419 267.886C172.364 269.878 173.112 270.637 175.17 270.571C178.202 270.477 181.24 270.494 184.386 270.512C185.669 270.519 186.97 270.527 188.296 270.527C188.296 271.795 188.295 273.048 188.293 274.29C188.291 276.742 188.288 279.152 188.296 281.562C188.305 283.23 187.259 283.197 186.242 283.166L186.24 283.166C186.084 283.161 185.928 283.156 185.776 283.158C180.957 283.165 176.138 283.162 171.319 283.16C168.909 283.159 166.5 283.158 164.09 283.158H160.603C160.603 283.933 160.597 284.69 160.59 285.434V285.434V285.435V285.435V285.435V285.435V285.436V285.436V285.436V285.436V285.437V285.437V285.437V285.438V285.438V285.438V285.438C160.577 287.132 160.564 288.759 160.625 290.386C160.691 292.08 160.24 292.917 158.347 292.84C156.257 292.755 154.162 292.772 151.954 292.791H151.954H151.953H151.952H151.951H151.95H151.949H151.949H151.948H151.947H151.946H151.945H151.944H151.943H151.942H151.941H151.94C150.979 292.799 149.997 292.807 148.984 292.807V283.29H122.182V270.527C123.346 270.527 124.512 270.518 125.679 270.509H125.68H125.681H125.683H125.684H125.685H125.686H125.687H125.688H125.689H125.691H125.692H125.693H125.694H125.695H125.696H125.697C128.418 270.488 131.145 270.467 133.867 270.56C136.111 270.637 136.969 269.911 136.837 267.578C136.708 265.314 136.737 263.04 136.766 260.646V260.645V260.645V260.645V260.644V260.644V260.644V260.643V260.643V260.642V260.642V260.642V260.641V260.641V260.641V260.64V260.64C136.78 259.569 136.793 258.474 136.793 257.346H122.116V244.792C123.395 244.792 124.666 244.796 125.931 244.799C129.073 244.808 132.18 244.817 135.286 244.77C136.881 244.748 137.333 245.441 137.289 246.937C137.252 248.244 137.263 249.551 137.273 250.857C137.285 252.301 137.296 253.745 137.244 255.189C137.178 256.884 137.828 257.456 139.478 257.412C141.561 257.351 143.638 257.364 145.827 257.378C146.796 257.384 147.786 257.39 148.808 257.39C148.808 258.45 148.815 259.491 148.821 260.517C148.837 262.961 148.853 265.324 148.775 267.688C148.72 269.481 149.347 270.131 151.152 270.065C153.254 269.987 155.356 270.002 157.561 270.018H157.564C158.497 270.025 159.449 270.032 160.427 270.032V257.39C161.443 257.39 162.433 257.382 163.403 257.374C165.647 257.356 167.79 257.338 169.933 257.423C171.836 257.489 172.551 256.818 172.485 254.892C172.408 252.655 172.423 250.407 172.439 248.067C172.446 247.082 172.452 246.08 172.452 245.056H187.35C187.35 244.542 187.361 244.054 187.372 243.586C187.396 242.61 187.417 241.716 187.328 240.831C187.119 238.73 188.054 237.926 190.023 238.191C192.62 238.554 193.434 237.541 193.39 234.879C193.27 228.318 193.289 221.751 193.309 215.035V215.035V215.034V215.033V215.033V215.032V215.031V215.031V215.03V215.029V215.028V215.028V215.027V215.026V215.026V215.025V215.024C193.316 212.476 193.324 209.906 193.324 207.307C194.279 207.307 195.221 207.296 196.152 207.286H196.153H196.155H196.156H196.158H196.16H196.161H196.163H196.164H196.166H196.167H196.169H196.171H196.172H196.174H196.175H196.177H196.178C198.303 207.263 200.374 207.24 202.434 207.34C204.623 207.45 205.504 206.834 205.46 204.446C205.356 199.36 205.373 194.274 205.391 189.043V189.042C205.398 187.02 205.405 184.977 205.405 182.903H104.281V206.603H91.3423V182.584H78.7005V135.791C79.6758 135.791 80.6549 135.783 81.6368 135.775C83.9778 135.757 86.3343 135.739 88.6907 135.824C90.5942 135.89 91.2543 135.263 91.2213 133.315C91.1486 128.346 91.1589 123.377 91.1696 118.277V118.276V118.273V118.269V118.266V118.262V118.259V118.255V118.251V118.248V118.244V118.241V118.237V118.233V118.23V118.226V118.222C91.1734 116.395 91.1773 114.552 91.1773 112.686C92.1283 112.686 93.0651 112.689 93.9914 112.692H93.993H93.9947H93.9963H93.9979H93.9995H94.001H94.0026H94.0042H94.0057H94.0072H94.0087H94.0103H94.0117H94.0132C96.5404 112.701 98.9889 112.709 101.432 112.653C102.096 112.637 102.76 112.459 103.421 112.282C103.675 112.214 103.929 112.146 104.182 112.087V135.032H91.7604V146.98H218.354C218.354 146.108 218.358 145.253 218.362 144.411V144.409V144.407V144.404V144.402V144.4V144.398V144.396V144.394V144.392V144.39V144.388V144.386V144.384C218.373 141.608 218.384 138.98 218.266 136.352C218.244 135.934 216.968 135.274 216.253 135.252C213.671 135.17 211.089 135.179 208.343 135.19C207.403 135.193 206.444 135.197 205.46 135.197V112.186ZM205.36 112.092H205.448H205.449L205.46 112.081V112.186L205.371 112.18L205.36 112.191V112.092ZM205.36 112.092H193.379C193.379 110.599 193.381 109.135 193.384 107.688C193.388 104.846 193.393 102.073 193.379 99.2957C193.357 95.8629 192.993 95.3788 189.66 95.4339C187.811 95.4559 187.184 94.8067 187.371 93.0353C187.424 92.5632 187.374 92.0758 187.32 91.5419L187.32 91.5408L187.319 91.5396L187.319 91.5393C187.294 91.29 187.268 91.0306 187.25 90.7578C186.752 90.7299 186.269 90.7034 185.774 90.6763C184.905 90.6286 183.998 90.5789 182.904 90.5158C182.904 90.0523 182.898 89.5907 182.892 89.1306V89.1304V89.1301V89.1299V89.1296V89.1294C182.878 88.0608 182.865 86.9998 182.926 85.9387C183.025 84.1123 182.354 82.9681 180.484 82.649C180.318 82.6214 180.156 82.5634 179.994 82.505C179.897 82.4704 179.801 82.4356 179.703 82.407L179.657 82.3944C172.705 80.4485 172.65 80.4331 172.507 73.2639C172.474 71.4926 171.946 70.8104 170.13 70.8874C168.092 70.9721 166.048 70.9544 163.93 70.9362H163.93H163.93H163.93H163.929H163.929L163.927 70.9362C163.018 70.9284 162.094 70.9204 161.152 70.9204V58.9718H172.661V71.4595C173.941 71.4595 175.2 71.4711 176.443 71.4826H176.443H176.444H176.445H176.446H176.446C179.402 71.5098 182.27 71.5362 185.127 71.4045C187.624 71.2945 188.482 71.9987 188.383 74.6172C188.235 78.4331 188.264 82.2544 188.293 86.1826V86.1828V86.183V86.1831V86.1833V86.1845V86.1852V86.1858V86.1864V86.1871V86.1878C188.305 87.8079 188.317 89.4462 188.317 91.1099H205.36V112.092ZM91.5512 161.632V161.632V161.631V161.631V161.631V161.631V161.631V161.631V161.631V161.631V161.63V161.63V161.63V161.63C91.5568 160.759 91.5624 159.882 91.5624 158.995L218.343 159.006V169.051C218.354 170.361 217.903 170.955 216.396 170.955C193.25 170.948 170.109 170.962 146.967 170.977C133.08 170.986 119.193 170.995 105.304 170.999C101.377 170.999 97.4377 170.955 93.5208 170.746C92.8497 170.713 91.6834 169.799 91.6504 169.249C91.5187 166.74 91.5348 164.219 91.5512 161.635V161.635V161.634V161.634V161.634V161.634V161.634V161.633V161.633V161.633V161.633V161.632V161.632V161.632V161.632ZM273.234 158.676V158.654L273.235 158.665L273.236 158.677L273.234 158.676ZM273.239 158.736L273.236 158.677L273.3 158.731L273.27 158.733L273.239 158.736ZM273.239 158.736C273.337 160.531 273.44 162.322 273.551 164.265L273.555 164.324C273.604 165.18 273.655 166.066 273.707 166.994C274.211 166.994 274.718 167.001 275.227 167.008C276.396 167.024 277.574 167.041 278.747 166.972C280.188 166.884 280.76 167.434 280.661 168.853C280.574 170.08 280.516 171.313 280.458 172.548L280.457 172.554L280.456 172.589C280.434 173.053 280.412 173.517 280.388 173.981C282.55 174.002 284.714 174.022 286.879 174.041H286.88H286.881H286.882H286.884L286.92 174.041C289.071 174.06 291.221 174.079 293.369 174.1V167.071C293.876 167.071 294.376 167.06 294.869 167.049L294.87 167.049H294.871C295.94 167.025 296.981 167.002 298.012 167.093C299.86 167.258 300.454 166.476 300.355 164.716C300.28 163.478 300.298 162.24 300.316 160.945V160.944V160.942V160.939V160.937V160.934V160.931V160.928C300.325 160.341 300.333 159.743 300.333 159.127H311.325V169.788C311.325 170.815 311.315 171.842 311.305 172.869V172.871C311.281 175.232 311.258 177.593 311.358 179.954C311.435 181.924 310.709 182.518 308.827 182.43C306.931 182.345 305.03 182.363 303.044 182.381H303.044H303.043H303.043H303.043H303.042H303.042H303.042H303.041H303.041H303.041H303.04H303.04H303.039H303.039H303.039L303.036 182.381C302.178 182.389 301.305 182.397 300.41 182.397V191.243H273.674V182.452C272.78 182.452 271.911 182.447 271.061 182.442H271.059C269.074 182.431 267.188 182.42 265.302 182.474C263.981 182.507 263.2 182.221 263.211 180.714C263.23 176.891 263.234 173.072 263.239 169.253C263.242 166.388 263.246 163.523 263.255 160.656C263.255 160.432 263.336 160.203 263.419 159.967L263.419 159.967L263.419 159.966L263.419 159.966L263.42 159.966L263.42 159.965L263.42 159.965L263.42 159.965C263.463 159.842 263.507 159.717 263.541 159.589C266.81 159.305 270.025 159.02 273.239 158.736ZM273.29 158.665H273.235L273.29 158.72V158.709V158.665ZM273.29 158.665H299.663C299.813 156.415 299.955 154.372 300.093 152.377L300.094 152.361C300.143 151.655 300.192 150.955 300.24 150.254C300.264 149.908 300.288 149.561 300.312 149.214H273.29V158.665ZM278.958 174.136C279.418 174.104 279.878 174.072 280.334 174.029C280.415 175.348 280.493 176.668 280.573 178.018L280.576 178.075L280.58 178.141L280.581 178.16C280.649 179.316 280.719 180.494 280.793 181.715H273.454C273.454 181.187 273.441 180.656 273.427 180.126C273.391 178.765 273.356 177.403 273.553 176.082C273.641 175.465 274.808 174.717 275.589 174.541C276.688 174.294 277.825 174.215 278.957 174.136L278.958 174.136ZM292.907 181.462C293.091 178.956 293.265 176.579 293.438 174.203C293.679 174.215 293.92 174.232 294.161 174.248C294.623 174.279 295.085 174.31 295.547 174.31C300.234 174.31 301.698 176.203 300.333 180.714C300.19 181.198 299.332 181.792 298.793 181.792C297.55 181.815 296.307 181.717 294.909 181.608L294.907 181.608L294.907 181.608C294.276 181.558 293.614 181.506 292.907 181.462ZM100.254 35.2176H68.1597C68.1597 37.0872 68.1587 38.9484 68.1577 40.8026V40.8223V40.8421V40.8619V40.8818V40.9016V40.9214V40.9412V40.9611V40.9809V41.0008V41.0206V41.0405V41.0604V41.0803C68.1529 50.1178 68.1482 58.9898 68.2478 67.8618C68.2588 68.3899 69.612 69.3471 70.3492 69.3582C78.9404 69.5105 87.5409 69.5503 96.1422 69.5902H96.1431L96.1459 69.5902L98.2954 69.6002C98.7731 69.6002 99.2456 69.5061 99.684 69.4189C99.8818 69.3795 100.073 69.3415 100.254 69.3141V35.2176ZM79.3162 54.956H88.2612H88.2722C88.2722 54.5189 88.2751 54.1349 88.2777 53.7849V53.7838V53.7827V53.7817V53.7808V53.7798V53.7786V53.7782V53.7779V53.7776V53.7773V53.7771V53.7768V53.7766V53.7764V53.7762V53.776V53.7759V53.7757V53.7756C88.2824 53.1605 88.2862 52.6499 88.2722 52.1393C88.1768 48.5599 86.3211 46.7628 82.705 46.7481H79.4812C79.42 46.6028 79.3575 46.4787 79.3019 46.3684L79.3019 46.3684C79.1977 46.1617 79.1182 46.0038 79.1182 45.8459C79.1116 45.411 79.104 45.0111 79.0969 44.6435C79.051 42.2476 79.0313 41.2225 79.5266 40.7972C79.8971 40.4792 80.5555 40.4966 81.7064 40.527C82.3643 40.5444 83.1832 40.5661 84.2013 40.5318C85.1503 40.503 86.0993 40.5118 87.1282 40.5214H87.1284H87.1287H87.129H87.1294H87.1297H87.13H87.1304H87.1307H87.1311H87.1315H87.1319H87.1324H87.1329H87.1334H87.1339C87.6778 40.5265 88.244 40.5318 88.8443 40.5318C88.9433 42.7213 89.0424 44.7677 89.1414 46.7591C89.7083 46.8526 90.2716 46.9213 90.8249 46.9889L90.8251 46.9889C92.2263 47.1599 93.5633 47.323 94.7306 47.8594C95.0847 48.0183 95.0544 48.9934 95.023 50.0025V50.0026C95.0066 50.5301 94.9899 51.0669 95.0277 51.5012C95.3047 54.8257 93.6285 54.6971 91.8763 54.5627C90.845 54.4835 89.7875 54.4024 89.0864 55.022C89.0783 55.1376 89.0676 55.2671 89.056 55.407C89.0203 55.8394 88.9763 56.3714 88.9763 56.9034C88.971 57.4966 88.9766 58.0139 88.9814 58.4648C88.9969 59.9076 89.0051 60.6716 88.6277 61.0756C88.203 61.5302 87.2896 61.5285 85.3481 61.5248C85.0747 61.5243 84.781 61.5237 84.4653 61.5244C78.348 61.5464 78.304 61.4804 79.3162 54.956ZM209.949 35.2615H240.92V69.325H209.949V35.2615ZM235.386 54.9998H215.758C215.758 55.3963 215.771 55.7714 215.783 56.1308C215.809 56.8685 215.832 57.5395 215.736 58.1905C215.329 60.8751 216.429 61.7223 219.059 61.5793C221.592 61.4415 224.13 61.4741 226.67 61.5067C227.782 61.521 228.894 61.5353 230.006 61.5353C234.04 61.5353 235.834 59.3605 235.386 55.0108V54.9998ZM221.369 46.561C229.192 47.2871 230.138 46.473 228.565 40.7077H221.369V46.561ZM282.729 257.115V225.131H252.792V257.115H282.729ZM262.243 235.154H277.008C277.008 235.663 277.023 236.151 277.037 236.621C277.07 237.726 277.101 238.736 276.931 239.709C276.832 240.314 275.908 241.205 275.336 241.216C270.154 241.348 264.961 241.381 259.767 241.282C259.195 241.271 258.227 240.369 258.139 239.786C257.534 235.539 257.919 235.154 262.243 235.154ZM209.971 261.977H240.821V295.689H209.971V261.977ZM234.396 287.58H228.48C227.713 282.029 228.716 281.193 234.396 282.695V287.58ZM228.433 287.635H222.546L222.539 287.477C222.455 285.652 222.39 284.257 222.315 282.717H215.824V287.767H221.831V292.696H228.433V287.635ZM231.587 273.241L231.583 273.241C230.591 273.193 229.631 273.147 228.642 273.101C228.574 271.964 228.514 270.92 228.452 269.841C228.414 269.176 228.376 268.497 228.334 267.776C227.778 267.806 227.238 267.823 226.71 267.84C225.525 267.877 224.402 267.912 223.306 268.095C222.711 268.194 221.71 269.096 221.776 269.459C222.524 273.475 220.06 273.486 217.298 273.255C216.951 273.225 216.598 273.293 216.233 273.364L216.232 273.364C216.066 273.396 215.897 273.429 215.725 273.453V278.063C219.7 278.452 222.051 277.179 222.777 274.245C226.144 274.062 228.125 275.342 228.719 278.085H234.429V273.376C233.423 273.329 232.491 273.284 231.587 273.241ZM100.409 295.59V261.835C98.6732 261.835 96.9452 261.834 95.2234 261.833C86.6325 261.83 78.1941 261.827 69.7558 261.901C69.2827 261.901 68.4025 262.825 68.4025 263.331C68.3304 268.828 68.2977 274.322 68.265 279.817V279.818V279.818V279.819V279.82V279.821V279.821V279.822V279.823V279.824V279.824C68.2377 284.4 68.2104 288.976 68.1604 293.555C68.1384 295.37 68.7765 295.887 70.5479 295.876C76.6422 295.826 82.7411 295.827 88.8386 295.828C92.1642 295.828 95.4894 295.829 98.8132 295.821C99.1713 295.821 99.5295 295.752 99.9023 295.681L99.9027 295.681C100.068 295.649 100.236 295.617 100.409 295.59ZM75.29 275.21V288.152C75.6249 288.167 75.9367 288.172 76.2322 288.176C76.8492 288.186 77.3949 288.195 77.9306 288.284C80.5161 288.702 81.3853 287.503 81.2313 285.061C81.1786 284.165 81.2443 283.26 81.3087 282.372C81.3385 281.961 81.3679 281.555 81.3853 281.155H88.922V288.273C89.2544 288.333 89.5449 288.393 89.8083 288.447L89.8085 288.447L89.8105 288.448L89.8112 288.448L89.8124 288.448L89.8137 288.448L89.8151 288.449L89.8165 288.449C90.3252 288.553 90.7324 288.637 91.1445 288.659C94.8083 288.824 94.9953 288.625 95.0064 284.907V278.855C95.0064 276.259 93.7557 274.924 91.2545 274.85C90.7863 274.836 90.3229 274.782 89.803 274.722L89.8019 274.722L89.7987 274.722C89.538 274.692 89.263 274.66 88.966 274.63C88.966 274.124 88.9785 273.631 88.9907 273.148C89.0198 271.996 89.0474 270.904 88.9 269.833C88.812 269.162 88.0638 268.106 87.5357 268.051C86.0558 267.898 84.5524 267.922 83.0384 267.945H83.0368C82.4802 267.954 81.9222 267.963 81.3633 267.963C81.321 268.75 81.3522 269.54 81.3819 270.289C81.4447 271.873 81.5002 273.273 80.8352 274.08C80.2243 274.827 78.8222 274.917 77.3237 275.013C76.644 275.057 75.9445 275.102 75.29 275.21ZM136.771 71.6026C136.771 69.4464 136.779 67.3323 136.787 65.2483V65.2481V65.2478V65.2475V65.2472V65.247V65.2467V65.2464V65.2461V65.2458C136.807 60.025 136.826 54.9929 136.716 49.9608C136.672 47.7053 137.398 47.1662 139.522 47.2102C144.433 47.2972 149.35 47.2819 154.321 47.2664H154.322C156.266 47.2603 158.22 47.2542 160.184 47.2542V58.3777C159.389 58.3777 158.589 58.3907 157.786 58.4037C155.921 58.4339 154.04 58.4644 152.164 58.3337C149.622 58.1576 148.643 58.8728 148.742 61.6344C148.889 65.9619 148.862 70.2894 148.832 74.8067L148.832 74.8142V74.815V74.8159V74.8168V74.8177V74.8186V74.8195V74.8204V74.8214C148.82 76.6965 148.808 78.6044 148.808 80.5586C147.214 80.7418 145.635 80.9212 144.055 81.1008L144.047 81.1016L144.044 81.102L144.04 81.1025C141.829 81.3537 139.616 81.6052 137.354 81.8679V90.4388H122.105V71.6136H136.771V71.6026ZM56.0136 111.431V81.7797H25.4818V111.431H56.0136ZM50.7531 98.4055C50.7376 98.9259 50.7214 99.4697 50.7214 100.044C49.2373 100.044 47.7806 100.047 46.3452 100.05C41.5557 100.059 37.0033 100.068 32.4574 99.9668C31.8632 99.9558 31.0601 98.8995 30.796 98.1624C30.6153 97.6481 30.6541 97.0635 30.6933 96.4725C30.7162 96.1279 30.7392 95.7811 30.719 95.4448C30.62 93.9374 31.2691 93.2773 32.7874 93.2883C34.5809 93.303 36.3743 93.3066 38.1678 93.3103H38.1687C41.7551 93.3176 45.3416 93.325 48.928 93.4203C49.5442 93.4313 50.5234 94.4325 50.6444 95.1037C50.8207 96.1384 50.7887 97.2105 50.7531 98.4055ZM282.741 111.497H252.803V81.6806C254.544 81.6806 256.28 81.6799 258.011 81.6791C265.779 81.6759 273.464 81.6726 281.156 81.7356C281.684 81.7356 282.664 82.5938 282.675 83.0559C282.748 90.889 282.745 98.7222 282.742 106.682C282.741 108.282 282.741 109.886 282.741 111.497ZM258.601 98.9104C258.361 95.2207 260.378 93.3977 264.654 93.4412C264.656 93.6487 264.659 93.856 264.662 94.0633L264.671 94.6774C264.689 95.9747 264.708 97.2689 264.708 98.5693C264.708 98.7383 264.654 98.9073 264.585 99.1222C264.551 99.2291 264.513 99.3473 264.477 99.4826H258.942C258.883 99.3905 258.826 99.3133 258.775 99.2454L258.775 99.2447C258.674 99.1102 258.601 99.0127 258.601 98.9104ZM264.73 93.3762H270.737C270.764 93.162 270.79 92.9549 270.816 92.7547C271.163 90.0198 271.345 88.5851 270.715 87.9219C270.02 87.19 268.335 87.3976 264.793 87.8342L264.73 87.842V93.3762ZM270.704 106.04V100.121H264.785V106.04H270.704ZM276.777 99.4935L276.823 99.1544L276.872 98.7874C277.636 93.0987 277.656 92.9512 271.265 93.8823V99.4935H276.777ZM25.3499 225.131V257.126H55.8596V225.131H25.3499ZM34.4269 234.219H37.0454L37.0344 234.241V239.621H44.241V234.362H37.4965V227.859H44.9892V233.58C45.1551 233.706 45.2734 233.813 45.3659 233.897C45.5004 234.019 45.5801 234.091 45.6714 234.098C48.9061 234.435 50.5234 236.265 50.5234 239.588C50.5234 240.439 50.5086 241.29 50.4937 242.142V242.143V242.143V242.143V242.144V242.144V242.144V242.145C50.4591 244.134 50.4244 246.124 50.5784 248.104C50.781 250.676 49.3426 250.703 47.7052 250.735L47.7019 250.735C47.6325 250.736 47.5628 250.737 47.4929 250.739L47.3916 250.741C47.3537 250.742 47.3157 250.743 47.2777 250.744C45.5173 250.788 44.109 250.59 44.4281 248.258C44.4923 247.801 44.4778 247.325 44.4597 246.732C44.4499 246.411 44.4391 246.056 44.4391 245.65C43.8272 245.65 43.2249 245.64 42.6302 245.63C41.0112 245.602 39.4486 245.575 37.9036 245.76C37.4635 245.815 36.8364 247.3 36.8914 248.082C37.0674 250.414 35.9782 250.854 33.9428 250.81C31.9073 250.755 30.598 250.414 30.697 247.939C30.7895 245.566 30.7687 243.188 30.7479 240.812L30.7479 240.812C30.7389 239.794 30.73 238.777 30.73 237.761C30.7374 235.378 31.9697 234.197 34.4269 234.219ZM146.937 11.573H136.804C136.804 13.5092 136.81 15.4226 136.816 17.3197L136.816 17.3275V17.328V17.3284V17.3289V17.3293C136.831 22.1558 136.846 26.8766 136.76 31.5975C136.716 33.853 137.376 34.6121 139.697 34.5791C146.335 34.4985 152.978 34.496 159.619 34.4936H159.62H159.62H159.62H159.62H159.624C162.943 34.4923 166.262 34.4911 169.58 34.4801C170.207 34.4801 170.828 34.4148 171.452 34.3493L171.452 34.3493C171.715 34.3216 171.978 34.2939 172.242 34.2711V11.6061H162.208V19.5828L166.29 19.8359V27.7246C162.593 28.2234 160.51 27.0938 160.041 24.3359H149.511C149.447 24.72 149.439 25.1223 149.43 25.5143C149.4 26.8739 149.372 28.1096 147.058 28.0327C146.88 28.0269 146.711 28.0219 146.55 28.0171C143.317 27.9205 143.317 27.9205 143.317 24.3469V20.518L143.605 20.4407C144.84 20.1094 145.936 19.8154 146.937 19.5498V11.573ZM104.567 207.461H116.384V220.169C116.384 221.639 116.397 223.11 116.41 224.58C116.44 227.972 116.47 231.362 116.34 234.747C116.241 237.354 117 238.521 119.674 238.147C120.081 238.087 120.502 238.138 120.972 238.194C121.202 238.221 121.442 238.25 121.698 238.268V244.484H104.556V207.461H104.567ZM104.281 112.071V112.081H104.292L104.281 112.071ZM104.281 111.993V112.071L104.193 111.993H104.281ZM104.281 111.993V91.396H121.753V94.8727C121.513 94.8975 121.28 94.9254 121.049 94.9529C120.667 94.9987 120.293 95.0433 119.916 95.0708C117.528 95.2358 116.296 96.3581 116.351 98.9106C116.412 101.892 116.399 104.873 116.385 107.936C116.379 109.27 116.373 110.62 116.373 111.993H104.281ZM157.995 13.2459H151.657C150.446 19.5681 150.758 19.5328 157.116 18.813C157.397 18.7812 157.69 18.748 157.995 18.7141V13.2459Z" fill="white"/>
</g>
<rect x="189.027" y="84.1514" width="11" height="11" fill="white"/>
<rect x="178.027" y="87.1514" width="11" height="11" fill="white"/>
<rect x="167.027" y="90.1514" width="11" height="11" fill="white"/>
<rect x="156.027" y="93.1514" width="11" height="11" fill="white"/>
<rect x="207.027" y="112.151" width="11" height="11" fill="white"/>
<rect x="196.027" y="118.151" width="11" height="11" fill="white"/>
<rect x="185.027" y="121.151" width="11" height="11" fill="white"/>
<rect x="174.027" y="124.151" width="11" height="11" fill="white"/>
<rect x="163.027" y="127.151" width="11" height="11" fill="white"/>
</g>
<defs>
<linearGradient id="paint0_linear_412_4" x1="2.22485e-06" y1="14.4125" x2="326.042" y2="309.356" gradientUnits="userSpaceOnUse">
<stop stop-color="#2CA8DE"/>
<stop offset="0.5" stop-color="#ED75AF"/>
<stop offset="1" stop-color="#FFE600"/>
</linearGradient>
<clipPath id="clip0_412_4">
<rect width="311" height="325" fill="white"/>
</clipPath>
</defs>
</svg>
