<svg width="782" height="230" viewBox="0 0 782 230" fill="none" xmlns="http://www.w3.org/2000/svg">
<g clip-path="url(#clip0_365_1358)">
<path d="M423.083 177V168.988H415.072V144.526H423.083V136.515H447.545V144.526H455.557V152.965H447.118V144.954H423.51V168.561H447.118V160.55H455.557V168.988H447.545V177H423.083Z" fill="white"/>
<path d="M464.727 177V136.515H473.166V168.561H505.212V177H464.727Z" fill="white"/>
<path d="M518.169 177V168.988H510.157V136.515H518.596V168.561H542.204V136.515H550.642V168.988H542.631V177H518.169Z" fill="white"/>
<path d="M568.773 152.538H592.38V144.954H568.773V152.538ZM568.773 168.561H592.38V160.977H568.773V168.561ZM560.334 177V136.515H592.808V144.526H600.819V168.988H592.808V177H560.334Z" fill="white"/>
<path d="M316.564 109.728V97.0696H364.634V85.6931H328.582V73.6757H316.564V61.0174H328.582V49H377.292V61.6583H329.223V73.0348H365.275V85.0522H377.292V97.7106H365.275V109.728H316.564Z" fill="white"/>
<path d="M401.578 109.728V97.7106H389.561V49H402.219V97.0696H437.63V49H450.289V97.7106H438.271V109.728H401.578Z" fill="white"/>
<path d="M464.826 109.728V61.0174H476.843V49H513.537V61.0174H525.554V109.728H512.896V61.6583H477.484V109.728H464.826Z" fill="white"/>
<path d="M552.75 97.0696H588.161V61.6583H552.75V97.0696ZM540.091 109.728V49H588.802V61.0174H600.819V97.7106H588.802V109.728H540.091Z" fill="white"/>
<path d="M627.233 73.0348H662.644V61.6583H627.233V73.0348ZM614.574 109.728V61.0174H626.592V49H663.285V61.0174H675.302V109.728H662.644V85.6931H627.233V109.728H614.574Z" fill="#F7B44F"/>
<path d="M689.839 109.728V49H702.498V109.728H689.839Z" fill="#F7B44F"/>
<path fill-rule="evenodd" clip-rule="evenodd" d="M113.706 -4.47525e-05V7.48203C113.583 6.94581 113.491 6.53746 113.405 6.16004L113.405 6.15786C113.316 5.76732 113.235 5.40973 113.136 4.9776C112.629 4.9776 112.111 4.96473 111.587 4.95169C110.241 4.91824 108.854 4.88375 107.495 5.06342C107.044 5.11981 106.647 5.59721 106.167 6.17474C105.916 6.4762 105.642 6.80495 105.327 7.11534C105.418 6.01232 105.506 4.95773 105.592 3.93055C105.705 2.58918 105.813 1.29457 105.919 -4.47525e-05H113.706ZM1.29996 112.254L0.00012207 112.348V128.342C2.41873 128.521 4.83733 128.701 7.45099 128.896V134.919H25.0522C25.0884 134.22 25.1238 133.535 25.1592 132.849L25.1598 132.837L25.1598 132.836L25.1598 132.836L25.1599 132.835L25.1599 132.835L25.1599 132.835L25.1599 132.834L25.1599 132.834L25.1599 132.834L25.16 132.833L25.16 132.833L25.16 132.833L25.16 132.832L25.16 132.832L25.16 132.832L25.1601 132.831L25.1601 132.831L25.1601 132.831L25.1601 132.83C25.2311 131.455 25.302 130.079 25.3799 128.6H32.9712V112.044H29.983H29.9826C25.5203 112.067 25.4969 112.067 25.4189 116.421C25.3955 117.63 25.0834 118.254 23.7415 118.137C22.957 118.068 22.1652 118.082 21.2887 118.098H21.2882H21.2878H21.2874H21.2869H21.2865H21.286H21.2855H21.2851H21.2846H21.284H21.2835H21.283H21.2824H21.2819H21.2813H21.2807C20.8782 118.106 20.4579 118.114 20.0121 118.114V128.287H12.8343V117.747H19.9341V111.81H25.1458V104.889H7.34956V111.818C5.23915 111.969 3.29151 112.11 1.3711 112.249L1.33595 112.251L1.30992 112.253L1.29996 112.254ZM73.9857 215.856V230.157V230.165H128.506C129.159 230.138 129.814 230.105 130.468 230.072L130.469 230.072C131.877 230.002 133.287 229.931 134.693 229.915C137.182 229.888 139.672 229.895 142.179 229.902H142.18H142.18H142.181H142.181H142.181H142.182H142.182H142.183H142.183H142.183H142.184H142.184H142.185H142.185H142.186H142.186H142.186H142.187H142.193H142.2H142.206H142.213H142.219H142.225H142.232H142.238C143.342 229.905 144.449 229.908 145.561 229.908V215.849H137.104V222.706H82.4431V215.856H73.9857ZM73.8768 78.7121V78.706L73.8612 78.6982L73.8768 78.7121ZM73.8768 78.7731V78.7121L73.9314 78.7607L73.8768 78.7731ZM145.694 78.843C146.246 78.8768 146.799 78.9125 147.351 78.9482L147.352 78.9483C148.695 79.0351 150.038 79.1219 151.381 79.182C152.206 79.219 153.034 79.2094 153.902 79.1994C154.315 79.1946 154.738 79.1898 155.173 79.1898V91.9616C155.173 92.1785 155.13 92.3979 155.088 92.617L155.088 92.6172L155.088 92.6174C155.055 92.7843 155.023 92.951 155.009 93.1162C154.822 95.4568 154.931 95.5739 157.209 95.5739H164.13C164.149 95.7493 164.175 95.9168 164.199 96.0791C164.244 96.3717 164.286 96.6476 164.286 96.9236C164.283 100.261 164.276 103.598 164.269 106.935C164.255 113.608 164.242 120.28 164.262 126.953C164.262 128.326 163.865 128.771 162.499 128.717C160.886 128.652 159.268 128.666 157.581 128.68H157.581H157.581H157.581H157.58H157.58H157.58H157.58H157.579H157.579H157.579H157.578H157.578H157.578H157.578H157.577H157.577H157.575H157.573H157.57H157.568H157.566C156.828 128.687 156.076 128.693 155.306 128.693V145.896C154.49 145.896 153.693 145.906 152.909 145.915C151.083 145.936 149.329 145.956 147.582 145.857C146.006 145.772 145.592 146.294 145.608 147.839C145.66 153.39 145.652 158.945 145.645 164.501V164.502V164.502V164.503V164.503V164.503V164.504V164.504V164.505V164.505V164.506V164.506V164.506V164.507V164.507V164.508V164.508C145.642 166.493 145.639 168.479 145.639 170.465V172.798C144.603 172.798 143.581 172.806 142.569 172.814L142.564 172.814H142.564H142.564H142.564H142.563H142.563H142.563H142.563H142.563H142.563H142.563H142.563H142.562H142.562H142.562H142.562H142.562C140.145 172.833 137.784 172.852 135.426 172.759C133.593 172.688 133.023 173.32 133.148 175.107C133.25 176.565 133.227 178.03 133.202 179.573V179.573L133.202 179.576V179.576V179.577V179.577V179.577V179.577V179.577V179.577V179.577V179.578V179.578V179.578V179.578V179.578C133.191 180.28 133.179 180.998 133.179 181.739C132.269 181.739 131.372 181.745 130.482 181.751H130.481C128.336 181.765 126.24 181.779 124.145 181.707C122.686 181.661 122.179 182.152 122.249 183.595C122.35 185.476 122.327 187.364 122.265 189.252C122.226 190.664 122.756 191.202 124.215 191.156C126.362 191.089 128.512 191.101 130.74 191.114H130.74H130.741H130.742H130.742H130.743H130.744H130.744H130.745H130.746H130.746H130.747H130.747H130.748H130.749H130.749H130.75C131.66 191.119 132.582 191.124 133.523 191.124C133.523 192.024 133.522 192.912 133.521 193.793C133.519 195.532 133.518 197.241 133.523 198.95C133.529 200.132 132.787 200.109 132.066 200.087C131.955 200.083 131.844 200.08 131.736 200.081C128.326 200.086 124.917 200.084 121.507 200.083H121.484C119.776 200.082 118.067 200.081 116.358 200.081H113.885C113.885 200.63 113.881 201.167 113.877 201.694V201.695C113.867 202.897 113.857 204.052 113.901 205.207C113.948 206.408 113.628 207.001 112.286 206.947C110.801 206.887 109.312 206.899 107.742 206.912C107.061 206.918 106.364 206.923 105.646 206.923V200.175H86.6408V191.124C87.4663 191.124 88.2931 191.118 89.1208 191.112C91.0545 191.097 92.9924 191.082 94.9265 191.148C96.5181 191.202 97.1266 190.687 97.033 189.033C96.9414 187.427 96.9615 185.814 96.9827 184.116V184.116V184.116V184.115V184.115V184.115V184.115V184.115V184.115V184.115V184.114V184.114V184.114V184.114V184.114V184.114V184.114V184.113V184.112V184.112V184.111V184.11V184.109V184.109V184.108V184.107V184.106V184.106V184.105V184.104V184.103V184.103V184.102C96.9921 183.346 97.0018 182.574 97.0018 181.778H86.594V172.876C87.501 172.876 88.4022 172.878 89.2993 172.881C91.5275 172.887 93.7302 172.893 95.9329 172.86C97.0642 172.844 97.3841 173.336 97.3529 174.397C97.327 175.323 97.3345 176.25 97.342 177.176C97.3503 178.2 97.3586 179.224 97.3217 180.248C97.2749 181.45 97.7352 181.856 98.9055 181.824C100.382 181.781 101.855 181.79 103.408 181.8L103.412 181.8C104.097 181.804 104.798 181.809 105.522 181.809C105.522 182.561 105.526 183.298 105.531 184.026V184.026V184.027V184.027V184.027V184.028V184.028V184.028V184.029V184.029V184.029V184.03V184.03V184.03V184.031V184.031V184.031C105.542 185.763 105.553 187.437 105.498 189.111C105.459 190.383 105.904 190.843 107.183 190.797C108.675 190.742 110.166 190.753 111.73 190.764C112.392 190.768 113.067 190.773 113.76 190.773V181.809C114.481 181.809 115.183 181.803 115.871 181.798H115.872C117.463 181.785 118.982 181.772 120.501 181.832C121.851 181.879 122.358 181.403 122.311 180.038C122.256 178.452 122.267 176.859 122.278 175.201V175.201V175.201V175.2V175.2V175.2V175.2V175.2V175.2V175.199V175.199V175.199V175.199V175.199V175.198V175.198V175.198C122.283 174.499 122.288 173.789 122.288 173.063H132.852C132.852 172.698 132.86 172.353 132.868 172.02C132.884 171.328 132.899 170.694 132.836 170.067C132.688 168.577 133.351 168.007 134.748 168.194C136.589 168.452 137.166 167.734 137.135 165.846C137.05 161.192 137.064 156.533 137.078 151.77V151.77V151.769V151.769V151.769V151.769V151.769V151.768V151.768V151.768V151.768V151.768V151.768V151.767V151.767V151.767V151.767V151.765V151.763V151.762V151.76V151.759V151.757V151.755V151.754V151.752V151.75V151.748V151.747V151.745V151.743V151.741V151.74C137.083 149.941 137.088 148.128 137.088 146.294C137.772 146.294 138.445 146.287 139.111 146.28H139.112H139.112H139.113H139.113H139.114H139.114H139.115H139.115H139.116H139.116H139.117H139.117H139.117H139.118H139.118H139.119C140.624 146.263 142.09 146.247 143.548 146.318C145.101 146.396 145.725 145.959 145.694 144.266C145.621 140.659 145.633 137.052 145.645 133.343C145.65 131.909 145.655 130.46 145.655 128.99H73.947V145.795H64.7719V128.763H55.8075V95.5817C56.4991 95.5817 57.1934 95.5762 57.8896 95.5708C59.5497 95.5577 61.2207 95.5446 62.8917 95.6051C64.2414 95.6519 64.7095 95.2072 64.6861 93.8262C64.6346 90.3048 64.6419 86.7833 64.6494 83.1692V83.1688V83.1683V83.1678V83.1674V83.1669V83.1664V83.166V83.1655V83.1651V83.1646V83.1641V83.1637V83.1632V83.1628V83.1623V83.1618L64.6495 83.1544C64.6522 81.849 64.6549 80.5315 64.6549 79.1976C65.3332 79.1976 66.0014 79.1998 66.6619 79.2021L66.666 79.2021H66.6667C68.4585 79.2082 70.1945 79.214 71.9263 79.1742C72.3974 79.1632 72.8684 79.0369 73.3368 78.9113C73.5173 78.8629 73.6973 78.8146 73.8768 78.7731V95.0433H65.0684V103.516H154.838C154.838 102.906 154.84 102.308 154.843 101.719V101.716V101.712V101.709V101.706V101.702V101.699V101.696V101.693V101.69V101.687V101.684V101.681V101.678V101.675V101.673C154.851 99.7052 154.859 97.8424 154.775 95.9796C154.76 95.6831 153.855 95.215 153.348 95.1994C151.517 95.1412 149.686 95.1481 147.739 95.1553H147.737H147.735H147.732H147.73H147.728H147.726C147.063 95.1578 146.388 95.1604 145.694 95.1604V78.843ZM145.623 78.7762H145.686H145.686L145.694 78.7685V78.843L145.631 78.8391L145.623 78.8465V78.7762ZM145.623 78.7762H137.127C137.127 77.718 137.129 76.6794 137.131 75.6534V75.6502V75.6471V75.644V75.641V75.638C137.134 73.6284 137.137 71.6672 137.127 69.7026C137.111 67.2684 136.854 66.9251 134.49 66.9641C133.179 66.9797 132.734 66.5194 132.867 65.2633C132.904 64.9285 132.869 64.5828 132.831 64.2042C132.813 64.0269 132.794 63.8423 132.781 63.6483C132.427 63.6284 132.084 63.6096 131.733 63.5904C131.117 63.5566 130.475 63.5213 129.7 63.4766C129.7 63.1481 129.695 62.821 129.691 62.4949V62.4943C129.681 61.7363 129.671 60.9837 129.715 60.231C129.785 58.9359 129.309 58.1245 127.983 57.8982C127.866 57.8786 127.751 57.8375 127.636 57.7961C127.567 57.7715 127.499 57.7469 127.429 57.7266L127.397 57.7176C122.467 56.3378 122.428 56.3269 122.327 51.2432C122.303 49.987 121.929 49.5033 120.641 49.5579C119.196 49.618 117.746 49.6055 116.244 49.5925H116.244H116.243H116.243H116.242H116.242C115.597 49.587 114.943 49.5813 114.275 49.5813V41.1084H122.436V49.9636C123.343 49.9636 124.236 49.9719 125.117 49.98H125.118H125.119H125.119H125.12H125.12C127.216 49.9993 129.25 50.018 131.276 49.9246C133.047 49.8466 133.655 50.3459 133.585 52.2028C133.48 54.9091 133.5 57.6193 133.521 60.4053C133.529 61.5549 133.538 62.7174 133.538 63.8979H145.623V78.7762ZM64.9201 113.906L64.9201 113.903C64.924 113.286 64.928 112.664 64.928 112.036L154.83 112.044V119.167C154.838 120.095 154.518 120.517 153.449 120.517C137.043 120.512 120.64 120.522 104.237 120.533H104.235H104.234H104.232H104.231H104.229H104.228H104.226H104.225H104.223H104.221H104.22H104.218H104.217H104.215H104.214H104.212C94.3662 120.539 84.5199 120.545 74.6726 120.548C71.8873 120.548 69.0942 120.517 66.3167 120.368C65.8408 120.345 65.0138 119.697 64.9904 119.307C64.897 117.528 64.9084 115.739 64.9201 113.906ZM193.754 111.81V111.794L193.754 111.802H193.793V111.833V111.841L193.754 111.802L193.755 111.81L193.754 111.81ZM193.757 111.852L193.755 111.81L193.8 111.849L193.757 111.852ZM193.757 111.852C193.826 113.124 193.899 114.393 193.978 115.769C194.014 116.39 194.051 117.033 194.089 117.708C194.444 117.708 194.8 117.713 195.158 117.718H195.159H195.159H195.16H195.161H195.161H195.162H195.163H195.163H195.164H195.165H195.165H195.166H195.167H195.167H195.167H195.167H195.167H195.168H195.168H195.168H195.168H195.168H195.168H195.169H195.169H195.169H195.169H195.169C195.997 117.729 196.832 117.741 197.662 117.692C198.684 117.63 199.09 118.02 199.02 119.026C198.959 119.898 198.917 120.773 198.876 121.65L198.875 121.658L198.875 121.664L198.875 121.671L198.874 121.677L198.859 122L198.846 122.278C198.839 122.406 198.833 122.534 198.826 122.663C200.361 122.678 201.897 122.691 203.434 122.705C204.967 122.718 206.5 122.732 208.031 122.747V117.762C208.391 117.762 208.746 117.755 209.097 117.747C209.855 117.73 210.593 117.714 211.324 117.778C212.634 117.895 213.056 117.341 212.985 116.093C212.932 115.215 212.945 114.337 212.958 113.419V113.418V113.418V113.418C212.964 112.998 212.97 112.57 212.97 112.129H220.764V119.69C220.764 120.418 220.757 121.146 220.75 121.874C220.733 123.549 220.717 125.224 220.787 126.899C220.842 128.295 220.327 128.716 218.993 128.654C217.647 128.594 216.297 128.606 214.888 128.619C214.28 128.625 213.66 128.631 213.024 128.631V134.903H194.066V128.67C193.431 128.67 192.815 128.666 192.211 128.663C190.804 128.655 189.466 128.647 188.128 128.685C187.192 128.709 186.638 128.506 186.646 127.437C186.659 124.726 186.663 122.018 186.666 119.31C186.668 117.279 186.671 115.247 186.677 113.214C186.677 113.055 186.734 112.893 186.794 112.725C186.825 112.637 186.856 112.548 186.88 112.457C189.198 112.256 191.478 112.054 193.757 111.852ZM193.793 111.802V105.1H212.954C212.903 105.85 212.852 106.593 212.799 107.345L212.798 107.367C212.7 108.774 212.601 110.216 212.494 111.802H193.793ZM197.812 122.773C198.139 122.75 198.465 122.727 198.788 122.697C198.845 123.626 198.9 124.556 198.956 125.506L198.957 125.523L198.957 125.528C199.008 126.379 199.059 127.247 199.114 128.147H193.91C193.91 127.772 193.9 127.396 193.89 127.02C193.865 126.055 193.84 125.09 193.98 124.152C194.042 123.715 194.869 123.185 195.423 123.06C196.203 122.884 197.009 122.828 197.812 122.773ZM207.704 127.967C207.834 126.191 207.957 124.505 208.081 122.82C208.251 122.829 208.422 122.84 208.593 122.852C208.921 122.874 209.248 122.896 209.576 122.896C212.9 122.896 213.937 124.238 212.97 127.437C212.868 127.78 212.26 128.201 211.878 128.201C210.996 128.218 210.114 128.148 209.122 128.071L209.12 128.071C208.673 128.036 208.205 127.999 207.704 127.967ZM71.0912 24.2641H48.3329C48.3329 25.6313 48.3321 26.9922 48.3314 28.3478V28.3531V28.3584V28.3637V28.369V28.3742V28.3795V28.3848V28.39V28.3952V28.4004V28.4056V28.4108V28.416V28.4212V28.4225V28.4228V28.4231V28.4233V28.4236V28.4239V28.4242V28.4245V28.4248V28.4251V28.4254V28.4257V28.426V28.4262C48.328 34.8332 48.3247 41.1228 48.3953 47.4125C48.4031 47.787 49.3627 48.4657 49.8855 48.4735C55.9781 48.5816 62.0774 48.6098 68.1772 48.6381H68.1775L69.7024 48.6452C70.0412 48.6452 70.3762 48.5785 70.6871 48.5166C70.8273 48.4887 70.9627 48.4617 71.0912 48.4423V24.2641ZM56.2441 38.2608H62.5871H62.5949C62.5949 37.9494 62.5969 37.676 62.5988 37.4268V37.4267V37.4267V37.4267V37.4266V37.4266V37.4266V37.4265V37.4265V37.4264V37.4264V37.4264V37.4263V37.4263V37.4263C62.6021 36.9889 62.6048 36.6262 62.5949 36.2635C62.5272 33.7252 61.2113 32.4509 58.6471 32.4405H56.3611C56.3177 32.3374 56.2733 32.2494 56.2339 32.1713L56.2339 32.1712C56.1601 32.0247 56.1036 31.9127 56.1036 31.8008C56.099 31.4923 56.0936 31.2088 56.0886 30.9481C56.056 29.2492 56.042 28.5222 56.3933 28.2207C56.656 27.9951 57.1229 28.0075 57.9389 28.0291C58.4055 28.0414 58.9862 28.0568 59.7081 28.0324C60.3811 28.012 61.0541 28.0183 61.7838 28.0251H61.784H61.7842H61.7844H61.7846H61.7849H61.7851H61.7853H61.7856H61.7858H61.7861H61.7864H61.7867H61.787C62.1729 28.0287 62.5746 28.0324 63.0006 28.0324C63.0708 29.585 63.141 31.0362 63.2112 32.4483C63.6128 32.5145 64.0119 32.5632 64.4039 32.6111L64.404 32.6111L64.4041 32.6111L64.4042 32.6111L64.4043 32.6111L64.4044 32.6111L64.4044 32.6111L64.4045 32.6112L64.4046 32.6112L64.4047 32.6112L64.4048 32.6112L64.4049 32.6112L64.405 32.6112L64.4051 32.6112L64.4052 32.6112C65.3988 32.7325 66.3468 32.8482 67.1746 33.2285C67.4257 33.3412 67.4042 34.0327 67.3819 34.7483C67.3703 35.1223 67.3585 35.503 67.3853 35.811C67.5817 38.1684 66.3931 38.0772 65.1506 37.9819C64.4193 37.9258 63.6694 37.8682 63.1722 38.3076C63.1665 38.3896 63.1589 38.4814 63.1507 38.5805C63.1254 38.8871 63.0942 39.2644 63.0942 39.6417C63.0904 40.0624 63.0944 40.4292 63.0978 40.7489C63.1087 41.772 63.1145 42.3138 62.847 42.6002C62.5458 42.9227 61.8981 42.9214 60.5213 42.9188H60.5213H60.5193C60.326 42.9185 60.1184 42.9181 59.8954 42.9185C55.5575 42.9341 55.5263 42.8873 56.2441 38.2608ZM148.877 24.2952H170.839V48.45H148.877V24.2952ZM166.915 38.2919H152.996C152.996 38.573 153.006 38.839 153.014 39.0938C153.033 39.6169 153.049 40.0927 152.981 40.5544C152.692 42.4581 153.472 43.0588 155.337 42.9574C157.133 42.8597 158.933 42.8829 160.734 42.906H160.734H160.735H160.735H160.735H160.735H160.735H160.736H160.736H160.736H160.736H160.736H160.736H160.737H160.737C161.524 42.9161 162.312 42.9262 163.1 42.9262C165.961 42.9262 167.232 41.384 166.915 38.2997V38.2919ZM156.975 32.3078C162.523 32.8227 163.194 32.2453 162.078 28.1571H156.975V32.3078ZM200.487 181.614V158.934H179.258V181.614H200.487ZM185.96 166.041H196.43C196.43 166.402 196.44 166.748 196.45 167.082V167.082C196.474 167.865 196.495 168.582 196.375 169.271C196.305 169.7 195.65 170.332 195.244 170.34C191.569 170.434 187.887 170.457 184.204 170.387C183.798 170.379 183.112 169.739 183.049 169.326C182.62 166.314 182.893 166.041 185.96 166.041ZM148.893 185.062H170.769V208.967H148.893V185.062ZM166.213 203.217H162.018C161.474 199.281 162.185 198.688 166.213 199.753V203.217ZM161.984 203.256H157.81L157.805 203.139L157.804 203.128C157.745 201.841 157.699 200.856 157.647 199.769H153.043V203.35H157.303V206.845H161.984V203.256ZM166.236 193.145C165.52 193.111 164.858 193.08 164.214 193.049L163.756 193.027C163.436 193.011 163.118 192.996 162.799 192.981L162.133 192.95C162.084 192.145 162.042 191.406 161.999 190.641C161.972 190.169 161.944 189.687 161.914 189.174C161.521 189.195 161.138 189.207 160.765 189.219H160.764H160.764H160.764H160.764H160.763H160.763H160.763C159.922 189.245 159.126 189.27 158.349 189.4C157.927 189.47 157.217 190.11 157.264 190.367C157.795 193.215 156.047 193.223 154.089 193.059C153.842 193.038 153.592 193.086 153.333 193.136C153.215 193.159 153.095 193.182 152.973 193.2V196.469C155.792 196.744 157.459 195.842 157.974 193.761C160.362 193.631 161.766 194.539 162.187 196.484H166.236V193.145ZM71.201 208.897V184.961C70.007 184.961 68.8178 184.96 67.6328 184.96L67.5229 184.96H67.5202H67.5176H67.5149H67.5122H67.5096H67.5069H67.5042H67.5016H67.4989H67.4963C61.414 184.958 55.4394 184.956 49.4648 185.008C49.1293 185.008 48.5051 185.663 48.5051 186.022C48.454 189.92 48.4308 193.816 48.4076 197.712C48.3883 200.959 48.3689 204.205 48.3335 207.454C48.3179 208.741 48.7704 209.108 50.0265 209.1C54.3484 209.065 58.6736 209.065 62.9978 209.066C65.3556 209.066 67.7132 209.066 70.0697 209.061C70.3237 209.061 70.5778 209.012 70.8422 208.962C70.9594 208.939 71.0788 208.916 71.201 208.897ZM53.3891 194.445V203.623C53.6257 203.633 53.8461 203.637 54.0549 203.64H54.0553H54.0556H54.056H54.0563H54.0567H54.057H54.0574H54.0576C54.495 203.647 54.8819 203.653 55.2616 203.717C57.0951 204.013 57.7114 203.163 57.6022 201.431C57.5648 200.796 57.6114 200.153 57.6571 199.524C57.6782 199.233 57.6991 198.945 57.7114 198.661H63.0558V203.709C63.2915 203.751 63.4976 203.794 63.6844 203.832C64.0477 203.907 64.338 203.966 64.6318 203.982C67.2298 204.099 67.3624 203.958 67.3702 201.321V197.03C67.3702 195.189 66.4834 194.242 64.7098 194.19C64.3776 194.18 64.0489 194.142 63.6801 194.099L63.6796 194.099C63.4941 194.078 63.2984 194.055 63.087 194.034C63.087 193.675 63.0958 193.326 63.1044 192.983C63.1251 192.166 63.1446 191.392 63.0402 190.633C62.9777 190.157 62.4472 189.408 62.0727 189.369C61.0233 189.26 59.9572 189.277 58.8835 189.294C58.4885 189.3 58.0924 189.306 57.6958 189.306C57.6658 189.865 57.688 190.425 57.709 190.956C57.7535 192.079 57.7928 193.072 57.3213 193.644C56.8881 194.174 55.8939 194.238 54.8313 194.306C54.3493 194.337 53.8533 194.369 53.3891 194.445ZM96.9975 45.5612V45.5592C97.0116 41.8564 97.0252 38.2875 96.9471 34.7186C96.9159 33.1192 97.4309 32.7369 98.9366 32.7681C102.419 32.8298 105.906 32.8189 109.431 32.808H109.432H109.432H109.433H109.433H109.434H109.435H109.435H109.436H109.436C110.814 32.8037 112.197 32.7993 113.589 32.7993V40.6871C113.025 40.6871 112.458 40.6963 111.888 40.7055L111.888 40.7055C110.566 40.727 109.232 40.7486 107.901 40.6559C106.099 40.5311 105.404 41.0382 105.475 42.9965C105.579 46.0651 105.56 49.1338 105.539 52.3371V52.338V52.339V52.3399V52.3409V52.3419V52.3429V52.3439V52.3449V52.3459C105.53 53.6761 105.521 55.0296 105.521 56.4158C104.388 56.5461 103.266 56.6736 102.143 56.8013L102.14 56.8016L102.138 56.8018C100.571 56.9798 99.0027 57.1581 97.3996 57.3443V63.422H86.5861V50.0729H96.9861V50.0651C96.9861 48.5426 96.9919 47.0497 96.9975 45.578V45.5758V45.5737V45.5716V45.5695V45.5674V45.5653V45.5633V45.5612ZM39.7199 78.3081V57.2818H18.0695V78.3081H39.7199ZM35.9896 69.0713C35.9786 69.4404 35.9672 69.8259 35.9672 70.2331C34.9154 70.2331 33.8832 70.2351 32.866 70.2372H32.8657H32.8654H32.8652H32.8649H32.8646H32.8643H32.8641H32.8638C29.4676 70.244 26.2394 70.2505 23.0159 70.1784C22.5946 70.1706 22.0251 69.4217 21.8378 68.8989C21.7097 68.5342 21.7372 68.1197 21.765 67.7006C21.7812 67.4563 21.7976 67.2104 21.7832 66.9718C21.713 65.903 22.1733 65.4349 23.25 65.4427C24.5216 65.4531 25.7932 65.4557 27.0649 65.4583C29.6084 65.4635 32.1519 65.4687 34.6954 65.5363C35.1324 65.5441 35.8267 66.2541 35.9125 66.73C36.0375 67.4637 36.0149 68.2239 35.9896 69.0713ZM200.495 78.3548H179.266V57.2115C180.5 57.2115 181.731 57.211 182.958 57.2105H182.959H182.96H182.96H182.961H182.962H182.962H182.963C188.47 57.2082 193.918 57.2059 199.371 57.2505C199.746 57.2505 200.44 57.8591 200.448 58.1868C200.5 63.7388 200.498 69.2908 200.496 74.9329V74.9342V74.9354V74.9367V74.938V74.9392V74.9405V74.9418L200.496 75.0449C200.495 76.1446 200.495 77.2476 200.495 78.3548ZM183.377 69.4294C183.207 66.813 184.637 65.5202 187.669 65.5511L187.675 65.988L187.681 66.4288C187.694 67.3484 187.707 68.2658 187.707 69.1875C187.707 69.3074 187.669 69.4272 187.62 69.5796L187.62 69.5801L187.62 69.5814C187.596 69.6567 187.569 69.74 187.543 69.8351H183.619C183.577 69.7696 183.536 69.7146 183.5 69.6664C183.429 69.571 183.377 69.5019 183.377 69.4294ZM187.723 65.505H191.983C192.002 65.3531 192.02 65.2063 192.038 65.0645C192.285 63.125 192.414 62.1076 191.967 61.6373C191.474 61.1183 190.28 61.2655 187.767 61.5751L187.723 61.5806V65.505ZM191.959 74.485V70.2876H187.762V74.485H191.959ZM196.333 69.3462L196.333 69.3421C196.875 65.3082 196.889 65.2036 192.357 65.8639V69.8429H196.266C196.289 69.6711 196.311 69.5056 196.333 69.3462ZM17.976 158.934V181.622H39.6108V158.934H17.976ZM24.4126 165.378H26.2695L26.2617 165.394V169.209H31.3719V165.479H26.5893V160.868H31.9025V164.925C32.0201 165.014 32.104 165.09 32.1696 165.15C32.265 165.236 32.3215 165.287 32.3862 165.292C34.68 165.531 35.8269 166.829 35.8269 169.185C35.8269 169.789 35.8163 170.394 35.8058 170.998C35.7812 172.409 35.7566 173.82 35.8659 175.224C36.0095 177.048 34.9895 177.068 33.8284 177.09C33.7282 177.091 33.6269 177.093 33.5253 177.096C32.277 177.128 31.2783 176.987 31.5046 175.333C31.5501 175.009 31.5399 174.672 31.527 174.251L31.527 174.251C31.5201 174.024 31.5124 173.772 31.5124 173.484C31.0785 173.484 30.6514 173.477 30.2296 173.47H30.2293C29.0814 173.45 27.9735 173.431 26.878 173.562C26.5659 173.601 26.1212 174.654 26.1602 175.208C26.2851 176.862 25.5127 177.174 24.0693 177.143C22.626 177.104 21.6975 176.862 21.7677 175.107C21.8333 173.425 21.8185 171.738 21.8038 170.054V170.053V170.053V170.053V170.053V170.053V170.052C21.7975 169.331 21.7911 168.61 21.7911 167.89C21.7963 166.2 22.6702 165.362 24.4126 165.378ZM104.195 7.49747H97.0091C97.0091 8.87115 97.0135 10.2287 97.0178 11.5746V11.5755V11.5764V11.5772V11.5781C97.0288 15.001 97.0395 18.349 96.9779 21.697C96.9467 23.2964 97.4148 23.8348 99.061 23.8114C103.768 23.7541 108.479 23.7524 113.188 23.7507H113.188H113.188H113.188H113.188C115.543 23.7498 117.898 23.7489 120.251 23.7411C120.696 23.7411 121.136 23.6948 121.578 23.6483C121.765 23.6287 121.952 23.6091 122.139 23.5929V7.52088H115.024V13.1773L117.918 13.3567V18.9507C115.297 19.3044 113.82 18.5034 113.487 16.5477H106.02C105.975 16.8201 105.969 17.1054 105.962 17.3833C105.941 18.3475 105.922 19.2237 104.281 19.1692C104.155 19.1651 104.035 19.1615 103.92 19.1581L103.92 19.1581C101.628 19.0897 101.628 19.0897 101.628 16.5555V13.8405L101.831 13.786L101.831 13.7859C102.707 13.5509 103.485 13.3423 104.195 13.1539V7.49747ZM74.15 146.404H82.5293V155.415C82.5293 156.457 82.5386 157.499 82.5479 158.541L82.5479 158.543C82.5693 160.948 82.5907 163.352 82.4981 165.753C82.4279 167.602 82.9662 168.429 84.8621 168.163C85.1506 168.121 85.4497 168.157 85.783 168.197L85.7834 168.197L85.7838 168.197L85.7844 168.197C85.9465 168.216 86.1167 168.236 86.2977 168.249V172.657H74.1422V146.404H74.15ZM73.9471 78.7615V78.7684H73.9549L73.9471 78.7615ZM73.9471 78.706V78.7615L73.8846 78.706H73.9471ZM73.9471 78.706V64.1008H86.3366V66.5662C86.1665 66.5838 86.0009 66.6036 85.8377 66.6231L85.8376 66.6231C85.5663 66.6555 85.3015 66.6871 85.0336 66.7066C83.3406 66.8237 82.4668 67.6195 82.5058 69.4295C82.5493 71.5433 82.5397 73.6572 82.53 75.829V75.8292V75.8295V75.832V75.8345C82.5257 76.7791 82.5214 77.7347 82.5214 78.706H73.9471ZM112.036 8.68363H107.542C106.683 13.1668 106.904 13.1417 111.413 12.6313C111.612 12.6088 111.82 12.5853 112.036 12.5612V8.68363Z" fill="url(#paint0_linear_365_1358)"/>
<mask id="mask0_365_1358" style="mask-type:alpha" maskUnits="userSpaceOnUse" x="50" y="29" width="124" height="75">
<path d="M88.0424 29.89H133.071L173.49 103.638H50.4595L88.0424 29.89Z" fill="#D9D9D9"/>
</mask>
<g mask="url(#mask0_365_1358)">
<path fill-rule="evenodd" clip-rule="evenodd" d="M113.706 0V7.48207C113.583 6.94586 113.491 6.5375 113.405 6.16008L113.405 6.1579C113.316 5.76737 113.235 5.40977 113.136 4.97765C112.629 4.97765 112.111 4.96477 111.587 4.95174C110.241 4.91828 108.854 4.88379 107.495 5.06347C107.044 5.11985 106.647 5.59725 106.166 6.17478C105.916 6.47624 105.642 6.80499 105.326 7.11538C105.418 6.01237 105.506 4.95777 105.592 3.9306C105.705 2.58922 105.813 1.29461 105.919 0H113.706ZM1.29984 112.254L0 112.348V128.342C2.41861 128.522 4.83721 128.701 7.45086 128.896V134.919H25.0521C25.0883 134.22 25.1237 133.535 25.159 132.849L25.1596 132.837L25.1597 132.836L25.1597 132.836L25.1597 132.835L25.1598 132.835L25.1598 132.835L25.1598 132.834L25.1598 132.834L25.1598 132.834L25.1598 132.833L25.1599 132.833L25.1599 132.833L25.1599 132.832L25.1599 132.832L25.1599 132.832L25.1599 132.831L25.16 132.831L25.16 132.831L25.16 132.831C25.2309 131.455 25.3019 130.079 25.3797 128.6H32.9711V112.044H29.9829H29.9825C25.5202 112.067 25.4968 112.067 25.4188 116.421C25.3954 117.63 25.0833 118.254 23.7413 118.137C22.9568 118.068 22.1651 118.082 21.2885 118.099H21.2881H21.2877H21.2872H21.2868H21.2863H21.2859H21.2854H21.2849H21.2844H21.2839H21.2834H21.2829H21.2823H21.2817H21.2812H21.2806C20.8781 118.106 20.4577 118.114 20.012 118.114V128.287H12.8342V117.747H19.934V111.81H25.1457V104.889H7.34944V111.818C5.23902 111.969 3.29138 112.11 1.37098 112.249L1.33583 112.251L1.3098 112.253L1.29984 112.254ZM73.9856 215.856V230.157V230.165H128.506C129.159 230.138 129.814 230.105 130.468 230.072L130.469 230.072C131.877 230.002 133.287 229.931 134.693 229.915C137.182 229.889 139.672 229.895 142.179 229.902H142.18H142.18H142.18H142.181H142.181H142.182H142.182H142.183H142.183H142.183H142.184H142.184H142.185H142.185H142.185H142.186H142.186H142.187H142.193H142.199H142.206H142.212H142.219H142.225H142.232H142.238C143.342 229.905 144.449 229.908 145.561 229.908V215.849H137.103V222.706H82.4429V215.856H73.9856ZM73.8767 78.7122V78.7061L73.8611 78.6983L73.8767 78.7122ZM73.8767 78.7731V78.7122L73.9313 78.7607L73.8767 78.7731ZM145.694 78.843C146.246 78.8769 146.798 78.9126 147.351 78.9483L147.352 78.9483C148.695 79.0351 150.038 79.1219 151.381 79.182C152.206 79.219 153.034 79.2095 153.902 79.1994C154.315 79.1947 154.738 79.1898 155.173 79.1898V91.9616C155.173 92.1785 155.13 92.398 155.088 92.6171L155.088 92.6172L155.088 92.6174C155.055 92.7843 155.023 92.951 155.009 93.1163C154.822 95.4569 154.931 95.5739 157.209 95.5739H164.13C164.149 95.7493 164.175 95.9168 164.199 96.0792C164.244 96.3717 164.286 96.6477 164.286 96.9236C164.283 100.261 164.276 103.598 164.269 106.935C164.255 113.608 164.242 120.281 164.262 126.953C164.262 128.327 163.864 128.771 162.499 128.717C160.885 128.652 159.268 128.666 157.581 128.68H157.581H157.581H157.581H157.58H157.58H157.58H157.579H157.579H157.579H157.579H157.578H157.578H157.578H157.577H157.577H157.577H157.575H157.573H157.57H157.568H157.566C156.827 128.687 156.076 128.693 155.306 128.693V145.896C154.49 145.896 153.693 145.906 152.909 145.915C151.083 145.936 149.329 145.956 147.582 145.857C146.006 145.772 145.592 146.294 145.608 147.839C145.66 153.39 145.652 158.945 145.644 164.501V164.502V164.502V164.503V164.503V164.503V164.504V164.504V164.505V164.505V164.506V164.506V164.506V164.507V164.507V164.508V164.508C145.642 166.494 145.639 168.479 145.639 170.465V172.798C144.603 172.798 143.581 172.806 142.569 172.814L142.564 172.814H142.564H142.564H142.564H142.563H142.563H142.563H142.563H142.563H142.563H142.563H142.562H142.562H142.562H142.562H142.562H142.562C140.145 172.833 137.784 172.852 135.426 172.759C133.593 172.688 133.023 173.32 133.148 175.107C133.25 176.565 133.227 178.03 133.202 179.573V179.573L133.202 179.576V179.577V179.577V179.577V179.577V179.577V179.577V179.577V179.577V179.578V179.578V179.578V179.578V179.578C133.191 180.28 133.179 180.998 133.179 181.739C132.269 181.739 131.371 181.745 130.482 181.751H130.481C128.336 181.765 126.24 181.779 124.145 181.707C122.686 181.661 122.179 182.152 122.249 183.596C122.35 185.476 122.327 187.364 122.264 189.252C122.225 190.664 122.756 191.202 124.215 191.156C126.362 191.089 128.512 191.101 130.74 191.114H130.74H130.741H130.741H130.742H130.743H130.743H130.744H130.745H130.745H130.746H130.747H130.747H130.748H130.749H130.749H130.75C131.66 191.119 132.582 191.124 133.523 191.124C133.523 192.024 133.522 192.912 133.521 193.793C133.519 195.532 133.517 197.241 133.523 198.95C133.529 200.132 132.787 200.109 132.066 200.087C131.955 200.083 131.844 200.08 131.736 200.081C128.326 200.086 124.916 200.085 121.507 200.083H121.484C119.776 200.082 118.067 200.081 116.358 200.081H113.885C113.885 200.631 113.881 201.167 113.876 201.694V201.695C113.867 202.897 113.857 204.052 113.901 205.207C113.948 206.408 113.628 207.001 112.286 206.947C110.801 206.887 109.312 206.899 107.742 206.912C107.061 206.918 106.364 206.923 105.646 206.923V200.175H86.6407V191.124C87.4661 191.124 88.293 191.118 89.1206 191.112C91.0543 191.097 92.9923 191.082 94.9264 191.148C96.518 191.202 97.1265 190.687 97.0329 189.033C96.9412 187.427 96.9614 185.814 96.9825 184.116V184.116V184.116V184.115V184.115V184.115V184.115V184.115V184.115V184.115V184.114V184.114V184.114V184.114V184.114V184.114V184.114V184.113V184.112V184.112V184.111V184.11V184.11V184.109V184.108V184.107V184.106V184.106V184.105V184.104V184.103V184.103V184.102C96.992 183.346 97.0017 182.574 97.0017 181.778H86.5939V172.876C87.5009 172.876 88.4021 172.878 89.2992 172.881C91.5273 172.887 93.7301 172.893 95.9328 172.86C97.0641 172.844 97.384 173.336 97.3528 174.397C97.3268 175.324 97.3343 176.25 97.3418 177.176C97.3501 178.2 97.3584 179.224 97.3216 180.248C97.2747 181.45 97.7351 181.856 98.9054 181.824C100.382 181.781 101.855 181.79 103.408 181.8L103.412 181.8C104.097 181.805 104.798 181.809 105.521 181.809C105.521 182.561 105.526 183.299 105.531 184.026V184.026V184.027V184.027V184.027V184.028V184.028V184.028V184.029V184.029V184.029V184.03V184.03V184.03V184.031V184.031V184.031C105.542 185.763 105.553 187.437 105.498 189.111C105.459 190.383 105.904 190.844 107.183 190.797C108.674 190.742 110.166 190.753 111.73 190.764C112.392 190.768 113.067 190.773 113.76 190.773V181.809C114.481 181.809 115.183 181.803 115.871 181.798H115.872C117.463 181.785 118.982 181.772 120.501 181.832C121.851 181.879 122.358 181.403 122.311 180.038C122.256 178.452 122.267 176.859 122.278 175.201V175.201V175.201V175.201V175.2V175.2V175.2V175.2V175.2V175.199V175.199V175.199V175.199V175.199V175.199V175.198V175.198C122.283 174.499 122.288 173.789 122.288 173.063H132.852C132.852 172.698 132.86 172.353 132.868 172.02C132.884 171.328 132.899 170.694 132.836 170.067C132.688 168.577 133.351 168.007 134.748 168.194C136.589 168.452 137.166 167.734 137.135 165.846C137.05 161.192 137.064 156.533 137.078 151.77V151.77V151.769V151.769V151.769V151.769V151.769V151.769V151.768V151.768V151.768V151.768V151.768V151.767V151.767V151.767V151.767V151.765V151.763V151.762V151.76V151.759V151.757V151.755V151.754V151.752V151.75V151.749V151.747V151.745V151.743V151.741V151.74C137.083 149.941 137.088 148.128 137.088 146.294C137.772 146.294 138.445 146.287 139.111 146.28H139.112H139.112H139.113H139.113H139.114H139.114H139.115H139.115H139.115H139.116H139.116H139.117H139.117H139.118H139.118H139.119C140.623 146.263 142.09 146.247 143.548 146.318C145.101 146.396 145.725 145.959 145.694 144.266C145.621 140.659 145.633 137.052 145.645 133.343C145.65 131.909 145.655 130.46 145.655 128.99H73.9469V145.795H64.7718V128.763H55.8074V95.5817C56.499 95.5817 57.1933 95.5763 57.8895 95.5708C59.5496 95.5578 61.2206 95.5447 62.8915 95.6051C64.2413 95.6519 64.7094 95.2072 64.686 93.8263C64.6344 90.3048 64.6418 86.7834 64.6493 83.1693V83.1688V83.1683V83.1679V83.1674V83.1669V83.1665V83.166V83.1656V83.1651V83.1646V83.1642V83.1637V83.1633V83.1628V83.1623V83.1619L64.6493 83.1545C64.6521 81.8491 64.6548 80.5316 64.6548 79.1976C65.3331 79.1976 66.0013 79.1999 66.6618 79.2021L66.6659 79.2021H66.6666C68.4584 79.2082 70.1944 79.2141 71.9262 79.1742C72.3973 79.1633 72.8683 79.0369 73.3367 78.9113C73.5171 78.8629 73.6972 78.8147 73.8767 78.7731V95.0434H65.0683V103.516H154.838C154.838 102.906 154.84 102.308 154.843 101.719V101.716V101.712V101.709V101.706V101.702V101.699V101.696V101.693V101.69V101.687V101.684V101.681V101.678V101.675V101.673C154.851 99.7053 154.859 97.8424 154.775 95.9796C154.76 95.6831 153.855 95.215 153.347 95.1994C151.517 95.1413 149.686 95.1481 147.739 95.1554H147.737H147.735H147.732H147.73H147.728H147.726C147.063 95.1579 146.388 95.1604 145.694 95.1604V78.843ZM145.623 78.7763H145.686H145.686L145.694 78.7685V78.843L145.631 78.8392L145.623 78.8465V78.7763ZM145.623 78.7763H137.127C137.127 77.7181 137.129 76.6794 137.13 75.6534V75.6503V75.6471V75.6441V75.641V75.638C137.134 73.6284 137.137 71.6672 137.127 69.7026C137.111 67.2684 136.854 66.9251 134.49 66.9641C133.179 66.9797 132.734 66.5194 132.867 65.2633C132.904 64.9285 132.869 64.5829 132.83 64.2042C132.812 64.0269 132.794 63.8424 132.781 63.6483C132.427 63.6285 132.084 63.6097 131.733 63.5904C131.117 63.5566 130.475 63.5214 129.699 63.4767C129.699 63.1481 129.695 62.821 129.691 62.4949V62.4944C129.681 61.7364 129.671 60.9837 129.715 60.231C129.785 58.9359 129.309 58.1245 127.983 57.8983C127.865 57.8787 127.751 57.8375 127.636 57.7961C127.567 57.7716 127.499 57.7469 127.429 57.7266L127.397 57.7177C122.467 56.3378 122.428 56.3269 122.327 51.2432C122.303 49.9871 121.929 49.5034 120.641 49.558C119.195 49.618 117.746 49.6055 116.244 49.5926H116.244H116.243H116.243H116.242H116.242C115.597 49.587 114.943 49.5814 114.275 49.5814V41.1085H122.436V49.9637C123.343 49.9637 124.236 49.9719 125.117 49.98H125.118H125.118H125.119H125.12H125.12C127.216 49.9993 129.249 50.018 131.275 49.9247C133.046 49.8467 133.655 50.346 133.585 52.2028C133.48 54.9091 133.5 57.6193 133.521 60.4054C133.529 61.555 133.538 62.7175 133.538 63.898H145.623V78.7763ZM64.92 113.906L64.92 113.903C64.9239 113.286 64.9279 112.664 64.9279 112.036L154.83 112.044V119.167C154.838 120.095 154.518 120.517 153.449 120.517C137.043 120.512 120.64 120.522 104.237 120.533H104.235H104.234H104.232H104.231H104.229H104.228H104.226H104.224H104.223H104.221H104.22H104.218H104.217H104.215H104.214H104.212C94.3661 120.539 84.5198 120.545 74.6725 120.548C71.8872 120.548 69.0941 120.517 66.3166 120.369C65.8407 120.345 65.0137 119.698 64.9903 119.307C64.8969 117.528 64.9083 115.739 64.92 113.906ZM193.754 111.81V111.794L193.754 111.802H193.793V111.833V111.841L193.754 111.802L193.754 111.81L193.754 111.81ZM193.757 111.852L193.754 111.81L193.8 111.849L193.757 111.852ZM193.757 111.852C193.826 113.124 193.899 114.393 193.978 115.769C194.014 116.39 194.051 117.033 194.089 117.708C194.443 117.708 194.8 117.713 195.158 117.718H195.158H195.159H195.16H195.16H195.161H195.162H195.163H195.163H195.164H195.165H195.165H195.166H195.166H195.167H195.167H195.167H195.167H195.167H195.168H195.168H195.168H195.168H195.168H195.169H195.169H195.169H195.169H195.169C195.997 117.73 196.832 117.741 197.662 117.692C198.684 117.63 199.09 118.02 199.02 119.026C198.958 119.898 198.917 120.774 198.875 121.65L198.875 121.658L198.875 121.664L198.874 121.671L198.874 121.678L198.859 122L198.845 122.278C198.839 122.406 198.833 122.534 198.826 122.663C200.361 122.678 201.897 122.692 203.434 122.705C204.967 122.719 206.5 122.732 208.031 122.747V117.763C208.391 117.763 208.746 117.755 209.097 117.747C209.854 117.73 210.593 117.714 211.324 117.778C212.634 117.895 213.056 117.341 212.985 116.093C212.932 115.215 212.944 114.337 212.958 113.419V113.418V113.418V113.418C212.964 112.998 212.97 112.57 212.97 112.13H220.764V119.69C220.764 120.418 220.757 121.146 220.75 121.874C220.733 123.549 220.717 125.224 220.787 126.899C220.842 128.295 220.327 128.716 218.993 128.654C217.647 128.594 216.297 128.606 214.888 128.619C214.279 128.625 213.66 128.631 213.024 128.631V134.903H194.066V128.67C193.431 128.67 192.814 128.666 192.211 128.663C190.804 128.655 189.466 128.647 188.128 128.685C187.192 128.709 186.638 128.506 186.646 127.437C186.659 124.726 186.663 122.018 186.666 119.31C186.668 117.279 186.67 115.247 186.677 113.214C186.677 113.055 186.734 112.893 186.794 112.725C186.824 112.638 186.856 112.548 186.88 112.457C189.198 112.256 191.477 112.054 193.757 111.852ZM193.793 111.802V105.1H212.954C212.903 105.85 212.851 106.593 212.799 107.345L212.798 107.367C212.7 108.775 212.6 110.216 212.494 111.802H193.793ZM197.812 122.773C198.139 122.75 198.464 122.727 198.788 122.697C198.845 123.626 198.9 124.556 198.956 125.506L198.957 125.523L198.957 125.528C199.008 126.379 199.059 127.247 199.113 128.147H193.91C193.91 127.773 193.9 127.396 193.89 127.02C193.865 126.055 193.839 125.09 193.98 124.152C194.042 123.715 194.869 123.185 195.423 123.06C196.202 122.884 197.009 122.828 197.812 122.773ZM207.703 127.967C207.834 126.191 207.957 124.505 208.08 122.821C208.251 122.829 208.422 122.84 208.593 122.852C208.921 122.874 209.248 122.896 209.576 122.896C212.9 122.896 213.937 124.238 212.97 127.437C212.868 127.78 212.26 128.202 211.877 128.202C210.996 128.218 210.114 128.149 209.122 128.071L209.12 128.071C208.673 128.036 208.204 127.999 207.703 127.967ZM71.0911 24.2641H48.3328C48.3328 25.6314 48.332 26.9922 48.3313 28.3478V28.3531V28.3584V28.3637V28.369V28.3743V28.3795V28.3848V28.39V28.3953V28.4005V28.4057V28.4109V28.4161V28.4212V28.4225V28.4228V28.4231V28.4234V28.4237V28.424V28.4243V28.4246V28.4248V28.4251V28.4254V28.4257V28.426V28.4263C48.3279 34.8332 48.3246 41.1229 48.3952 47.4125C48.403 47.787 49.3626 48.4658 49.8854 48.4736C55.978 48.5816 62.0772 48.6099 68.177 48.6381H68.1774L69.7023 48.6452C70.0411 48.6452 70.3761 48.5785 70.687 48.5166C70.8272 48.4887 70.9625 48.4618 71.0911 48.4424V24.2641ZM56.2439 38.2608H62.5869H62.5947C62.5947 37.9494 62.5968 37.676 62.5987 37.4268V37.4268V37.4267V37.4267V37.4267V37.4266V37.4266V37.4266V37.4265V37.4265V37.4265V37.4264V37.4264V37.4263V37.4263C62.602 36.989 62.6047 36.6262 62.5947 36.2635C62.5271 33.7253 61.2112 32.451 58.6469 32.4406H56.361C56.3176 32.3375 56.2732 32.2495 56.2338 32.1713L56.2338 32.1713C56.1599 32.0247 56.1035 31.9128 56.1035 31.8008C56.0989 31.4924 56.0934 31.2088 56.0884 30.9482C56.0559 29.2492 56.0419 28.5223 56.3932 28.2207C56.6558 27.9952 57.1227 28.0075 57.9388 28.0291C58.4054 28.0415 58.9861 28.0568 59.708 28.0325C60.381 28.0121 61.054 28.0183 61.7836 28.0251H61.7839H61.7841H61.7843H61.7845H61.7847H61.785H61.7852H61.7855H61.7857H61.786H61.7863H61.7866H61.7869C62.1728 28.0287 62.5745 28.0325 63.0004 28.0325C63.0707 29.5851 63.1409 31.0362 63.2111 32.4484C63.6127 32.5146 64.0118 32.5633 64.4038 32.6111L64.4039 32.6111L64.404 32.6111L64.404 32.6112L64.4041 32.6112L64.4042 32.6112L64.4043 32.6112L64.4044 32.6112L64.4045 32.6112L64.4046 32.6112L64.4047 32.6112L64.4048 32.6113L64.4049 32.6113L64.405 32.6113L64.4051 32.6113C65.3987 32.7325 66.3467 32.8482 67.1745 33.2286C67.4255 33.3413 67.4041 34.0328 67.3818 34.7483C67.3702 35.1224 67.3584 35.503 67.3851 35.811C67.5816 38.1685 66.3929 38.0773 65.1504 37.9819C64.4192 37.9258 63.6693 37.8683 63.1721 38.3076C63.1664 38.3896 63.1588 38.4814 63.1506 38.5806C63.1252 38.8872 63.0941 39.2645 63.0941 39.6418C63.0903 40.0625 63.0942 40.4292 63.0977 40.749C63.1086 41.7721 63.1144 42.3139 62.8469 42.6003C62.5456 42.9227 61.898 42.9215 60.5212 42.9189H60.5212H60.5191C60.3259 42.9185 60.1183 42.9181 59.8953 42.9186C55.5574 42.9342 55.5262 42.8874 56.2439 38.2608ZM148.877 24.2952H170.839V48.45H148.877V24.2952ZM166.915 38.2919H152.996C152.996 38.573 153.005 38.839 153.014 39.0938C153.032 39.617 153.049 40.0928 152.981 40.5545C152.692 42.4581 153.472 43.0589 155.337 42.9575C157.133 42.8598 158.933 42.8829 160.734 42.906H160.734H160.735H160.735H160.735H160.735H160.735H160.735H160.736H160.736H160.736H160.736H160.736H160.737H160.737C161.524 42.9161 162.312 42.9263 163.1 42.9263C165.961 42.9263 167.232 41.3841 166.915 38.2997V38.2919ZM156.975 32.3078C162.522 32.8227 163.193 32.2454 162.078 28.1572H156.975V32.3078ZM200.487 181.614V158.934H179.257V181.614H200.487ZM185.959 166.041H196.43C196.43 166.402 196.44 166.748 196.45 167.082V167.082C196.474 167.865 196.495 168.582 196.375 169.271C196.305 169.7 195.649 170.332 195.244 170.34C191.569 170.434 187.886 170.457 184.204 170.387C183.798 170.379 183.112 169.739 183.049 169.326C182.62 166.314 182.893 166.041 185.959 166.041ZM148.893 185.062H170.769V208.967H148.893V185.062ZM166.213 203.217H162.018C161.474 199.281 162.185 198.688 166.213 199.753V203.217ZM161.984 203.256H157.81L157.805 203.139L157.804 203.128C157.745 201.841 157.699 200.856 157.646 199.769H153.043V203.35H157.303V206.845H161.984V203.256ZM166.236 193.145C165.52 193.111 164.857 193.08 164.214 193.049L163.756 193.027C163.435 193.011 163.118 192.996 162.799 192.981L162.133 192.95C162.084 192.145 162.042 191.406 161.998 190.641C161.971 190.169 161.944 189.687 161.914 189.174C161.521 189.195 161.138 189.207 160.765 189.219H160.764H160.764H160.764H160.763H160.763H160.763H160.763C159.922 189.245 159.126 189.27 158.349 189.4C157.927 189.47 157.217 190.11 157.264 190.367C157.795 193.215 156.047 193.223 154.089 193.059C153.842 193.038 153.592 193.086 153.333 193.136C153.215 193.159 153.095 193.182 152.973 193.2V196.469C155.792 196.744 157.459 195.842 157.974 193.761C160.361 193.631 161.766 194.539 162.187 196.484H166.236V193.145ZM71.2009 208.897V184.961C70.0068 184.961 68.8177 184.96 67.6327 184.96L67.5228 184.96H67.5201H67.5174H67.5148H67.5121H67.5094H67.5068H67.5041H67.5015H67.4988H67.4962C61.4139 184.958 55.4393 184.956 49.4646 185.008C49.1292 185.008 48.505 185.663 48.505 186.022C48.4539 189.92 48.4307 193.816 48.4075 197.712C48.3882 200.959 48.3688 204.205 48.3334 207.454C48.3177 208.741 48.7703 209.108 50.0264 209.1C54.3483 209.065 58.6735 209.065 62.9977 209.066C65.3555 209.066 67.713 209.066 70.0696 209.061C70.3236 209.061 70.5777 209.012 70.8421 208.962C70.9593 208.939 71.0786 208.916 71.2009 208.897ZM53.389 194.445V203.623C53.6256 203.633 53.846 203.637 54.0548 203.64H54.0551H54.0555H54.0559H54.0562H54.0566H54.0569H54.0573H54.0575C54.4949 203.647 54.8818 203.653 55.2615 203.717C57.0949 204.013 57.7113 203.163 57.6021 201.431C57.5647 200.796 57.6113 200.154 57.657 199.524C57.6781 199.233 57.699 198.945 57.7113 198.661H63.0556V203.709C63.2914 203.751 63.4975 203.794 63.6842 203.832C64.0476 203.907 64.3379 203.966 64.6316 203.982C67.2297 204.099 67.3623 203.959 67.3701 201.321V197.03C67.3701 195.189 66.4833 194.242 64.7097 194.19C64.3775 194.18 64.0488 194.142 63.6799 194.099L63.6795 194.099C63.4939 194.078 63.2982 194.055 63.0868 194.034C63.0868 193.675 63.0957 193.326 63.1043 192.983C63.125 192.166 63.1445 191.392 63.04 190.633C62.9776 190.157 62.4471 189.408 62.0726 189.369C61.0232 189.26 59.957 189.277 58.8834 189.294C58.4884 189.3 58.0923 189.306 57.6957 189.306C57.6656 189.865 57.6878 190.425 57.7089 190.956C57.7534 192.079 57.7927 193.072 57.3212 193.644C56.888 194.174 55.8937 194.238 54.8312 194.306C54.3492 194.337 53.8531 194.369 53.389 194.445ZM96.9974 45.5613V45.5593C97.0115 41.8565 97.0251 38.2876 96.947 34.7187C96.9158 33.1193 97.4307 32.737 98.9365 32.7682C102.419 32.8299 105.906 32.819 109.431 32.808H109.432H109.432H109.433H109.433H109.434H109.434H109.435H109.436H109.436C110.814 32.8037 112.197 32.7994 113.589 32.7994V40.6872C113.025 40.6872 112.458 40.6963 111.888 40.7056L111.888 40.7056C110.566 40.727 109.231 40.7486 107.901 40.6559C106.099 40.5311 105.404 41.0382 105.475 42.9965C105.579 46.0652 105.559 49.1338 105.539 52.3371V52.338V52.339V52.34V52.3409V52.3419V52.3429V52.3439V52.345V52.346C105.53 53.6762 105.521 55.0296 105.521 56.4159C104.388 56.5461 103.266 56.6737 102.143 56.8013L102.14 56.8017L102.138 56.8018C100.571 56.9799 99.0026 57.1581 97.3995 57.3443V63.422H86.586V50.0729H96.986V50.0651C96.986 48.5426 96.9917 47.0497 96.9974 45.578V45.5759V45.5737V45.5716V45.5695V45.5674V45.5654V45.5633V45.5613ZM39.7198 78.3081V57.2819H18.0694V78.3081H39.7198ZM35.9895 69.0713C35.9785 69.4404 35.967 69.826 35.967 70.2331C34.9153 70.2331 33.883 70.2352 32.8659 70.2372H32.8656H32.8653H32.865H32.8648H32.8645H32.8642H32.864H32.8637C29.4675 70.244 26.2393 70.2505 23.0158 70.1785C22.5945 70.1707 22.0249 69.4217 21.8377 68.899C21.7096 68.5343 21.7371 68.1198 21.7649 67.7007C21.7811 67.4563 21.7975 67.2104 21.7831 66.9719C21.7129 65.903 22.1732 65.4349 23.2499 65.4427C24.5215 65.4531 25.7931 65.4557 27.0647 65.4583C29.6083 65.4635 32.1518 65.4687 34.6953 65.5363C35.1322 65.5441 35.8266 66.2541 35.9124 66.73C36.0374 67.4637 36.0148 68.224 35.9895 69.0713ZM200.495 78.3548H179.265V57.2116C180.5 57.2116 181.731 57.211 182.958 57.2105H182.959H182.96H182.96H182.961H182.962H182.962H182.963C188.47 57.2082 193.918 57.2059 199.371 57.2506C199.746 57.2506 200.44 57.8591 200.448 58.1868C200.5 63.7389 200.498 69.2909 200.495 74.9329V74.9342V74.9355V74.9367V74.938V74.9393V74.9406V74.9418L200.495 75.045C200.495 76.1446 200.495 77.2477 200.495 78.3548ZM183.377 69.4294C183.206 66.813 184.637 65.5203 187.669 65.5512L187.675 65.988L187.681 66.4289C187.694 67.3484 187.707 68.2658 187.707 69.1876C187.707 69.3074 187.669 69.4272 187.62 69.5796L187.62 69.5801L187.62 69.5815C187.596 69.6568 187.569 69.74 187.543 69.8351H183.619C183.577 69.7696 183.536 69.7147 183.5 69.6664C183.429 69.5711 183.377 69.502 183.377 69.4294ZM187.723 65.505H191.983C192.002 65.3532 192.02 65.2064 192.038 65.0645C192.285 63.1251 192.414 62.1076 191.967 61.6373C191.474 61.1183 190.28 61.2655 187.767 61.5752L187.723 61.5807V65.505ZM191.959 74.4851V70.2876H187.762V74.4851H191.959ZM196.332 69.3462L196.333 69.3421C196.875 65.3082 196.889 65.2036 192.357 65.8639V69.8429H196.266C196.289 69.6711 196.311 69.5056 196.332 69.3462ZM17.9759 158.934V181.622H39.6107V158.934H17.9759ZM24.4125 165.378H26.2693L26.2615 165.394V169.209H31.3718V165.479H26.5892V160.868H31.9024V164.925C32.02 165.014 32.1039 165.091 32.1695 165.15C32.2648 165.236 32.3214 165.288 32.3861 165.292C34.6798 165.531 35.8267 166.829 35.8267 169.185C35.8267 169.789 35.8162 170.394 35.8057 170.998C35.7811 172.409 35.7565 173.82 35.8657 175.224C36.0094 177.048 34.9894 177.068 33.8283 177.09C33.7281 177.091 33.6268 177.093 33.5252 177.097C32.2768 177.128 31.2782 176.987 31.5045 175.333C31.55 175.009 31.5397 174.672 31.5269 174.251L31.5269 174.251C31.5199 174.024 31.5123 173.772 31.5123 173.484C31.0784 173.484 30.6512 173.477 30.2295 173.47H30.2292C29.0813 173.45 27.9733 173.431 26.8779 173.562C26.5658 173.601 26.1211 174.654 26.1601 175.208C26.2849 176.862 25.5126 177.175 24.0692 177.143C22.6258 177.104 21.6974 176.862 21.7676 175.107C21.8332 173.425 21.8184 171.738 21.8037 170.054V170.053V170.053V170.053V170.053V170.053V170.052C21.7973 169.331 21.791 168.61 21.791 167.89C21.7962 166.2 22.67 165.362 24.4125 165.378ZM104.195 7.49752H97.009C97.009 8.8712 97.0133 10.2287 97.0177 11.5747V11.5755V11.5764V11.5773V11.5781C97.0286 15.0011 97.0394 18.3491 96.9778 21.6971C96.9466 23.2965 97.4147 23.8348 99.0609 23.8114C103.768 23.7542 108.478 23.7524 113.188 23.7507H113.188H113.188H113.188H113.188C115.543 23.7499 117.897 23.749 120.251 23.7412C120.696 23.7412 121.136 23.6949 121.578 23.6484C121.765 23.6288 121.952 23.6091 122.139 23.5929V7.52093H115.024V13.1773L117.918 13.3568V18.9508C115.297 19.3045 113.82 18.5035 113.487 16.5478H106.02C105.975 16.8202 105.969 17.1054 105.962 17.3834C105.941 18.3475 105.922 19.2237 104.28 19.1692C104.155 19.1652 104.035 19.1616 103.92 19.1582L103.92 19.1582C101.628 19.0897 101.628 19.0897 101.628 16.5556V13.8405L101.831 13.786L101.831 13.786C102.707 13.5509 103.484 13.3423 104.195 13.1539V7.49752ZM74.1499 146.404H82.5292V155.415C82.5292 156.457 82.5385 157.499 82.5477 158.541L82.5478 158.543C82.5692 160.948 82.5905 163.352 82.498 165.753C82.4278 167.602 82.9661 168.429 84.862 168.163C85.1505 168.121 85.4496 168.157 85.7829 168.197L85.7832 168.197L85.7837 168.197L85.7843 168.197C85.9463 168.216 86.1165 168.236 86.2976 168.249V172.657H74.1421V146.404H74.1499ZM73.9469 78.7615V78.7685H73.9547L73.9469 78.7615ZM73.9469 78.7061V78.7615L73.8845 78.7061H73.9469ZM73.9469 78.7061V64.1008H86.3364V66.5662C86.1664 66.5838 86.0008 66.6036 85.8376 66.6231C85.5663 66.6555 85.3014 66.6872 85.0335 66.7067C83.3405 66.8237 82.4667 67.6195 82.5057 69.4295C82.5491 71.5434 82.5396 73.6572 82.5298 75.8291V75.8293V75.8295V75.832V75.8345C82.5256 76.7791 82.5213 77.7347 82.5213 78.7061H73.9469ZM112.036 8.68367H107.542C106.683 13.1668 106.904 13.1418 111.413 12.6314C111.612 12.6088 111.82 12.5853 112.036 12.5612V8.68367Z" fill="white"/>
</g>
<rect x="134.042" y="58.8562" width="7.80022" height="7.80022" fill="white"/>
<rect x="126.241" y="60.9835" width="7.80022" height="7.80022" fill="white"/>
<rect x="118.441" y="63.1108" width="7.80022" height="7.80022" fill="white"/>
<rect x="110.641" y="65.2382" width="7.80022" height="7.80022" fill="white"/>
<rect x="146.805" y="78.7113" width="7.80022" height="7.80022" fill="white"/>
<rect x="139.005" y="82.9659" width="7.80022" height="7.80022" fill="white"/>
<rect x="131.205" y="85.0933" width="7.80022" height="7.80022" fill="white"/>
<rect x="123.405" y="87.2207" width="7.80022" height="7.80022" fill="white"/>
<rect x="115.604" y="89.348" width="7.80022" height="7.80022" fill="white"/>
</g>
<defs>
<linearGradient id="paint0_linear_365_1358" x1="1.57766e-06" y1="9.51096" x2="231.2" y2="218.659" gradientUnits="userSpaceOnUse">
<stop stop-color="#2CA8DE"/>
<stop offset="0.5" stop-color="#ED75AF"/>
<stop offset="1" stop-color="#FFE600"/>
</linearGradient>
<clipPath id="clip0_365_1358">
<rect width="782" height="230" fill="white"/>
</clipPath>
</defs>
</svg>
