<svg width="103" height="24" viewBox="0 0 103 24" fill="none" xmlns="http://www.w3.org/2000/svg">
<g clip-path="url(#clip0_1171_9022)">
<path d="M20.5718 21.0871C20.5718 21.7499 20.0345 22.2871 19.3718 22.2871L18.3432 22.2871C17.6805 22.2871 17.1432 21.7499 17.1432 21.0871L17.1432 2.91568C17.1432 2.25294 17.6805 1.71568 18.3432 1.71568L19.3718 1.71568C20.0345 1.71568 20.5718 2.25294 20.5718 2.91568L20.5718 21.0871Z" fill="url(#paint0_linear_1171_9022)"/>
<path d="M13.7144 9.08711C13.7144 9.74985 13.1771 10.2871 12.5144 10.2871L11.4858 10.2871C10.823 10.2871 10.2858 9.74985 10.2858 9.08711L10.2858 4.62997C10.2858 3.96722 10.823 3.42997 11.4858 3.42997L12.5144 3.42997C13.1771 3.42997 13.7144 3.96723 13.7144 4.62997L13.7144 9.08711Z" fill="url(#paint1_linear_1171_9022)"/>
<path d="M6.85742 15.9426C6.85742 16.6053 6.32016 17.1426 5.65742 17.1426L4.62885 17.1426C3.96611 17.1426 3.42885 16.6053 3.42885 15.9426L3.42885 8.05686C3.42885 7.39412 3.96611 6.85686 4.62885 6.85686L5.65742 6.85686C6.32016 6.85686 6.85742 7.39412 6.85742 8.05686L6.85742 15.9426Z" fill="url(#paint2_linear_1171_9022)"/>
<path d="M13.7144 19.3723C13.7144 20.035 13.1771 20.5723 12.5144 20.5723L11.4858 20.5723C10.823 20.5723 10.2858 20.035 10.2858 19.3723L10.2858 14.9151C10.2858 14.2524 10.823 13.7151 11.4858 13.7151L12.5144 13.7151C13.1771 13.7151 13.7144 14.2524 13.7144 14.9151L13.7144 19.3723Z" fill="url(#paint3_linear_1171_9022)"/>
<path fill-rule="evenodd" clip-rule="evenodd" d="M83.755 5.68359C83.5689 5.68359 83.418 5.83446 83.418 6.02057V17.1723C83.418 17.3585 83.5689 17.5093 83.755 17.5093H84.9313C85.1174 17.5093 85.2682 17.3585 85.2682 17.1723V15.2487L86.503 14.0021L89.0941 17.3775C89.1579 17.4606 89.2567 17.5093 89.3614 17.5093H90.7669C90.8949 17.5093 91.0118 17.4368 91.0687 17.3222C91.1256 17.2075 91.1126 17.0705 91.0352 16.9686L87.7891 12.6935L90.9009 9.51C90.9957 9.41303 91.0231 9.2687 90.9705 9.14372C90.9179 9.01874 90.7955 8.93747 90.6599 8.93747H89.1934C89.1016 8.93747 89.0137 8.97495 88.9501 9.04124L85.2682 12.8815V6.02057C85.2682 5.83446 85.1174 5.68359 84.9313 5.68359H83.755ZM96.5724 5.68359C96.3863 5.68359 96.2354 5.83446 96.2354 6.02057V17.1723C96.2354 17.3585 96.3863 17.5093 96.5724 17.5093H97.7486C97.9348 17.5093 98.0856 17.3585 98.0856 17.1723V6.02057C98.0856 5.83446 97.9348 5.68359 97.7486 5.68359H96.5724ZM100.585 5.68359C100.399 5.68359 100.248 5.83446 100.248 6.02057V17.1723C100.248 17.3585 100.399 17.5093 100.585 17.5093H101.762C101.948 17.5093 102.099 17.3585 102.099 17.1723V6.02057C102.099 5.83446 101.948 5.68359 101.762 5.68359H100.585ZM92.4829 5.91274C92.2968 5.91274 92.146 6.06361 92.146 6.24972V7.54821C92.146 7.73432 92.2968 7.88519 92.4829 7.88519H93.8273C94.0134 7.88519 94.1642 7.73432 94.1642 7.54821V6.24972C94.1642 6.06361 94.0134 5.91274 93.8273 5.91274H92.4829ZM30.337 6.14189C30.1509 6.14189 30 6.29276 30 6.47887V17.1723C30 17.3585 30.1509 17.5093 30.337 17.5093H31.5438C31.7299 17.5093 31.8808 17.3585 31.8808 17.1723V12.6973H37.3785V17.1723C37.3785 17.3585 37.5294 17.5093 37.7155 17.5093H38.9223C39.1084 17.5093 39.2593 17.3585 39.2593 17.1723V6.47887C39.2593 6.29276 39.1084 6.14189 38.9223 6.14189H37.7155C37.5294 6.14189 37.3785 6.29276 37.3785 6.47887V10.8928H31.8808V6.47887C31.8808 6.29276 31.7299 6.14189 31.5438 6.14189H30.337ZM54.9715 8.76943C53.7929 8.76943 52.9282 9.25814 52.2837 9.91401V9.27445C52.2837 9.08834 52.1329 8.93747 51.9468 8.93747H50.7705C50.5844 8.93747 50.4335 9.08834 50.4335 9.27445V19.6166C50.4335 19.8027 50.5844 19.9536 50.7705 19.9536H51.9468C52.1329 19.9536 52.2837 19.8027 52.2837 19.6166V16.5849C52.922 17.2067 53.7937 17.6774 54.9715 17.6774C57.0672 17.6774 59.0817 15.9989 59.0817 13.231V13.2005C59.0817 10.4139 57.0484 8.76943 54.9715 8.76943ZM64.2147 8.76943C61.8132 8.76943 60.0891 10.7859 60.0891 13.231C60.0891 15.8724 62.0079 17.6926 64.3674 17.6926C65.9781 17.6926 67.0269 17.0417 67.8722 16.0988C67.9319 16.0322 67.9627 15.9447 67.9578 15.8554C67.9529 15.7662 67.9128 15.6825 67.8462 15.6229L67.1129 14.966C66.9774 14.8446 66.7699 14.8527 66.6443 14.9843C66.0513 15.6055 65.3709 15.9952 64.398 15.9952C63.2836 15.9952 62.2899 15.299 62.012 14.0416H67.881C68.0563 14.0416 68.2023 13.9072 68.2168 13.7326C68.2333 13.5353 68.2333 13.402 68.2333 13.2926V13.2921C68.2333 12.069 67.8793 10.9414 67.1912 10.1132C66.4975 9.2783 65.4814 8.76943 64.2147 8.76943ZM74.3688 8.80026C73.1544 8.75069 72.1598 9.29935 71.4688 10.1428V9.27445C71.4688 9.08834 71.3179 8.93747 71.1318 8.93747H69.9555C69.7694 8.93747 69.6185 9.08834 69.6185 9.27445V17.1723C69.6185 17.3585 69.7694 17.5093 69.9555 17.5093H71.1318C71.3179 17.5093 71.4688 17.3585 71.4688 17.1723V14.0254C71.4688 12.9004 71.7994 12.0838 72.2966 11.5515C72.793 11.02 73.483 10.7419 74.2634 10.7419H74.3551C74.5412 10.7419 74.6921 10.591 74.6921 10.4049V9.13696C74.6921 8.9562 74.5495 8.80763 74.3688 8.80026ZM78.5603 8.79998C77.7183 8.79998 76.9656 9.04357 76.4167 9.49801C75.8628 9.95668 75.5347 10.6167 75.5347 11.3979V11.4284C75.5347 12.2884 75.9543 12.8547 76.5268 13.2364C77.0765 13.6029 77.7818 13.8097 78.3919 13.9829L78.3932 13.9833C78.9192 14.1303 79.3695 14.2693 79.6888 14.4558C79.9966 14.6356 80.1176 14.8186 80.1176 15.0489V15.0795C80.1176 15.3486 80.0012 15.5645 79.7903 15.7227C79.5717 15.8866 79.2394 15.9952 78.82 15.9952C77.977 15.9952 77.0991 15.6629 76.2877 15.0543C76.215 14.9998 76.1232 14.9769 76.0334 14.991C75.9436 15.005 75.8632 15.0548 75.8106 15.129L75.2148 15.9692C75.1121 16.1142 75.1395 16.314 75.2776 16.4259C76.2235 17.1924 77.551 17.6621 78.7589 17.6621C79.6044 17.6621 80.3866 17.4284 80.9649 16.9657C81.5507 16.4971 81.9067 15.8084 81.9067 14.9573V14.9267C81.9067 14.0874 81.5079 13.5188 80.9552 13.1263C80.423 12.7482 79.738 12.5252 79.1311 12.3432L79.1307 12.343L79.1291 12.3425C78.5909 12.1788 78.1228 12.0363 77.7847 11.8509C77.4496 11.6672 77.3391 11.4965 77.3391 11.3062V11.2757C77.3391 11.0586 77.4339 10.8683 77.622 10.7235C77.8156 10.5745 78.1199 10.4669 78.5297 10.4669C79.2139 10.4669 79.9915 10.7294 80.6842 11.1768C80.7608 11.2263 80.8541 11.2426 80.9429 11.2221C81.0317 11.2015 81.1085 11.1459 81.1555 11.0679L81.6902 10.1818C81.7836 10.027 81.7383 9.82614 81.5874 9.72652C80.7256 9.15742 79.5922 8.79998 78.5603 8.79998ZM40.9505 8.93747C40.8358 8.93747 40.729 8.99577 40.667 9.09222C40.605 9.18867 40.5963 9.31003 40.6439 9.41434L44.1715 17.1449C43.9645 17.6062 43.7767 17.8842 43.5918 18.05C43.4056 18.2169 43.2036 18.2866 42.9212 18.2866C42.4694 18.2866 42.1716 18.2072 41.8392 18.0344C41.756 17.9911 41.6584 17.9845 41.5701 18.0161C41.4817 18.0478 41.4106 18.1149 41.3738 18.2012L40.9766 19.1331C40.9061 19.2984 40.9777 19.4898 41.1394 19.5683C41.7132 19.8471 42.2522 19.9994 42.967 19.9994C43.6255 19.9994 44.1955 19.8322 44.6913 19.4191C45.1758 19.0153 45.5609 18.3999 45.9062 17.5602L45.9067 17.5589L49.2217 9.40131C49.2639 9.29742 49.2517 9.17933 49.1891 9.08629C49.1264 8.99326 49.0217 8.93747 48.9095 8.93747H47.6568C47.5175 8.93747 47.3925 9.02327 47.3424 9.15333L45.1016 14.9713L42.5579 9.13972C42.5043 9.01688 42.383 8.93747 42.249 8.93747H40.9505ZM92.5593 8.93747C92.3732 8.93747 92.2223 9.08834 92.2223 9.27445V17.1723C92.2223 17.3585 92.3732 17.5093 92.5593 17.5093H93.7356C93.9217 17.5093 94.0726 17.3585 94.0726 17.1723V9.27445C94.0726 9.08834 93.9217 8.93747 93.7356 8.93747H92.5593ZM64.1841 10.4364C63.1465 10.4364 62.2799 11.2218 62.0142 12.4205H66.3164C66.2167 11.9046 66.0153 11.4502 65.722 11.11C65.3676 10.699 64.8649 10.4364 64.1841 10.4364ZM52.2379 13.2005C52.2379 11.5817 53.4795 10.4975 54.7576 10.4975C56.0547 10.4975 57.201 11.524 57.201 13.2158V13.2463C57.201 14.1254 56.9141 14.7976 56.4784 15.2481C56.0421 15.6993 55.4366 15.9493 54.7576 15.9493C53.4795 15.9493 52.2379 14.8804 52.2379 13.231V13.2005Z" fill="#BFBFBF"/>
</g>
<defs>
<linearGradient id="paint0_linear_1171_9022" x1="19.4734" y1="6.48543" x2="25.5758" y2="12.0848" gradientUnits="userSpaceOnUse">
<stop stop-color="#564DE2"/>
<stop offset="1" stop-color="#68AEFF"/>
</linearGradient>
<linearGradient id="paint1_linear_1171_9022" x1="10.2858" y1="-0.0502868" x2="16.1591" y2="4.76093" gradientUnits="userSpaceOnUse">
<stop stop-color="#6C63FF"/>
<stop offset="1" stop-color="#7AB7FE"/>
</linearGradient>
<linearGradient id="paint2_linear_1171_9022" x1="5.91302" y1="19.0115" x2="-0.80923" y2="13.4837" gradientUnits="userSpaceOnUse">
<stop stop-color="#4BFFDF"/>
<stop offset="1" stop-color="#7AB7FE"/>
</linearGradient>
<linearGradient id="paint3_linear_1171_9022" x1="13.119" y1="24.5338" x2="6.66092" y2="18.4223" gradientUnits="userSpaceOnUse">
<stop stop-color="#4BFFDF"/>
<stop offset="1" stop-color="#4D9FFF"/>
</linearGradient>
<clipPath id="clip0_1171_9022">
<rect width="102.421" height="24" fill="white"/>
</clipPath>
</defs>
</svg>
